<svg width="332" height="69" viewBox="0 0 332 69" fill="none" xmlns="http://www.w3.org/2000/svg">
<path d="M101.13 0H46.8778L48.9847 12.6412H63.2061L53.7251 69L72.1603 51.0916L79.0076 12.6412H94.2824L101.13 0Z" fill="black"/>
<path d="M55.3054 50.5649H38.4504L37.397 33.71C42.8748 31.1817 49.5115 29.8474 52.1451 29.4962L55.3054 50.5649Z" fill="black"/>
<path fill-rule="evenodd" clip-rule="evenodd" d="M17.3817 50.5649H0L28.4427 0H45.8244L50.0382 24.7557C58.4656 23.5267 79.5343 22.8595 96.3893 30.0229C75.3206 25.6336 30.0229 23.5969 17.3817 50.5649ZM26.3358 30.0229C28.0916 29.3206 32.5511 27.8107 36.3435 27.3893L35.29 13.6946L26.3358 30.0229Z" fill="black"/>
<path d="M107.482 55.4321H101.818L100.522 58.0001H94.9298L104.146 41.0081H110.29L113.482 58.0001H107.866L107.482 55.4321ZM106.906 51.4241L106.21 46.6961L103.834 51.4241H106.906Z" fill="#8C8C8C"/>
<path d="M118.58 53.9681H123.716L122.996 58.0001H112.532L115.532 41.0081H120.86L118.58 53.9681Z" fill="#8C8C8C"/>
<path d="M138.377 46.8401C138.185 47.9121 137.769 48.8881 137.129 49.7681C136.489 50.6321 135.633 51.3201 134.561 51.8321C133.505 52.3441 132.289 52.6001 130.913 52.6001H128.801L127.841 58.0001H122.513L125.513 41.0081H132.953C134.761 41.0081 136.137 41.4161 137.081 42.2321C138.025 43.0481 138.497 44.1681 138.497 45.5921C138.497 45.9441 138.457 46.3601 138.377 46.8401ZM131.057 48.4001C132.145 48.4001 132.785 47.8801 132.977 46.8401C133.009 46.6481 133.025 46.5121 133.025 46.4321C133.025 45.6641 132.553 45.2801 131.609 45.2801H130.097L129.545 48.4001H131.057Z" fill="#8C8C8C"/>
<path d="M154.659 41.0081L151.659 58.0001H146.331L147.507 51.3761H142.443L141.267 58.0001H135.939L138.939 41.0081H144.267L143.187 47.1281H148.251L149.331 41.0081H154.659Z" fill="#8C8C8C"/>
<path d="M163.248 55.4321H157.584L156.288 58.0001H150.696L159.912 41.0081H166.056L169.248 58.0001H163.632L163.248 55.4321ZM162.672 51.4241L161.976 46.6961L159.6 51.4241H162.672Z" fill="#8C8C8C"/>
<path d="M182.171 41.2721L181.859 42.9761H177.299L174.659 58.0001H172.475L175.115 42.9761H170.555L170.867 41.2721H182.171Z" fill="#8C8C8C"/>
<path d="M184.595 42.9761L183.587 48.7121H189.659L189.371 50.3921H183.299L182.243 56.2721H189.059L188.747 58.0001H179.747L182.723 41.2481H191.699L191.387 42.9761H184.595Z" fill="#8C8C8C"/>
<path d="M190.564 49.6241C190.852 47.9921 191.476 46.5281 192.436 45.2321C193.412 43.9201 194.596 42.8961 195.988 42.1601C197.396 41.4241 198.868 41.0561 200.404 41.0561C202.228 41.0561 203.74 41.4961 204.94 42.3761C206.156 43.2561 206.94 44.5041 207.292 46.1201H204.676C204.388 45.1441 203.852 44.3921 203.068 43.8641C202.284 43.3201 201.284 43.0481 200.068 43.0481C198.9 43.0481 197.804 43.3201 196.78 43.8641C195.772 44.3921 194.916 45.1601 194.212 46.1681C193.508 47.1601 193.036 48.3121 192.796 49.6241C192.716 50.0401 192.676 50.5201 192.676 51.0641C192.676 52.6321 193.132 53.8801 194.044 54.8081C194.972 55.7201 196.204 56.1761 197.74 56.1761C198.956 56.1761 200.052 55.9121 201.028 55.3841C202.004 54.8561 202.804 54.1041 203.428 53.1281H206.044C205.132 54.7281 203.916 55.9681 202.396 56.8481C200.892 57.7121 199.228 58.1441 197.404 58.1441C196.044 58.1441 194.836 57.8641 193.78 57.3041C192.724 56.7281 191.9 55.9281 191.308 54.9041C190.716 53.8641 190.42 52.6721 190.42 51.3281C190.42 50.7681 190.468 50.2001 190.564 49.6241Z" fill="#8C8C8C"/>
<path d="M222.111 41.2721L219.159 58.0001H216.975L218.319 50.3681H209.823L208.455 58.0001H206.271L209.247 41.2721H211.431L210.111 48.6641H218.631L219.927 41.2721H222.111Z" fill="#8C8C8C"/>
<path d="M233.856 58.0001H231.672L225.264 44.6801L222.888 58.0001H220.704L223.68 41.2481H225.864L232.296 54.5441L234.648 41.2481H236.832L233.856 58.0001Z" fill="#8C8C8C"/>
<path d="M243.051 58.1681C241.659 58.1681 240.435 57.8801 239.379 57.3041C238.323 56.7121 237.499 55.8881 236.907 54.8321C236.331 53.7761 236.043 52.5681 236.043 51.2081C236.043 49.3201 236.467 47.6081 237.315 46.0721C238.179 44.5201 239.363 43.3041 240.867 42.4241C242.371 41.5281 244.051 41.0801 245.907 41.0801C247.315 41.0801 248.547 41.3761 249.603 41.9681C250.675 42.5441 251.499 43.3601 252.075 44.4161C252.651 45.4561 252.939 46.6561 252.939 48.0161C252.939 49.9201 252.507 51.6481 251.643 53.2001C250.795 54.7361 249.619 55.9521 248.115 56.8481C246.611 57.7281 244.923 58.1681 243.051 58.1681ZM243.363 56.2001C244.771 56.2001 246.027 55.8401 247.131 55.1201C248.251 54.3841 249.123 53.4001 249.747 52.1681C250.371 50.9361 250.683 49.6001 250.683 48.1601C250.683 46.5761 250.227 45.3281 249.315 44.4161C248.403 43.5041 247.163 43.0481 245.595 43.0481C244.187 43.0481 242.923 43.4161 241.803 44.1521C240.699 44.8721 239.835 45.8481 239.211 47.0801C238.603 48.2961 238.299 49.6241 238.299 51.0641C238.299 52.6481 238.747 53.9041 239.643 54.8321C240.555 55.7441 241.795 56.2001 243.363 56.2001Z" fill="#8C8C8C"/>
<path d="M254.623 56.3201H260.479L260.167 58.0001H252.127L255.103 41.2721H257.287L254.623 56.3201Z" fill="#8C8C8C"/>
<path d="M267.958 58.1681C266.566 58.1681 265.342 57.8801 264.286 57.3041C263.23 56.7121 262.406 55.8881 261.814 54.8321C261.238 53.7761 260.95 52.5681 260.95 51.2081C260.95 49.3201 261.374 47.6081 262.222 46.0721C263.086 44.5201 264.27 43.3041 265.774 42.4241C267.278 41.5281 268.958 41.0801 270.814 41.0801C272.222 41.0801 273.454 41.3761 274.51 41.9681C275.582 42.5441 276.406 43.3601 276.982 44.4161C277.558 45.4561 277.846 46.6561 277.846 48.0161C277.846 49.9201 277.414 51.6481 276.55 53.2001C275.702 54.7361 274.526 55.9521 273.022 56.8481C271.518 57.7281 269.83 58.1681 267.958 58.1681ZM268.27 56.2001C269.678 56.2001 270.934 55.8401 272.038 55.1201C273.158 54.3841 274.03 53.4001 274.654 52.1681C275.278 50.9361 275.59 49.6001 275.59 48.1601C275.59 46.5761 275.134 45.3281 274.222 44.4161C273.31 43.5041 272.07 43.0481 270.502 43.0481C269.094 43.0481 267.83 43.4161 266.71 44.1521C265.606 44.8721 264.742 45.8481 264.118 47.0801C263.51 48.2961 263.206 49.6241 263.206 51.0641C263.206 52.6481 263.654 53.9041 264.55 54.8321C265.462 55.7441 266.702 56.2001 268.27 56.2001Z" fill="#8C8C8C"/>
<path d="M277.705 49.6241C277.993 47.9921 278.617 46.5281 279.577 45.2321C280.553 43.9201 281.745 42.9041 283.153 42.1841C284.561 41.4481 286.041 41.0801 287.593 41.0801C289.385 41.0801 290.881 41.5201 292.081 42.4001C293.297 43.2801 294.081 44.5201 294.433 46.1201H291.817C291.529 45.1441 290.985 44.3921 290.185 43.8641C289.401 43.3201 288.425 43.0481 287.257 43.0481C286.089 43.0481 284.985 43.3201 283.945 43.8641C282.921 44.3921 282.057 45.1601 281.353 46.1681C280.649 47.1601 280.177 48.3121 279.937 49.6241C279.857 50.0401 279.817 50.5201 279.817 51.0641C279.817 52.6321 280.281 53.8801 281.209 54.8081C282.137 55.7201 283.377 56.1761 284.929 56.1761C286.577 56.1761 288.017 55.6881 289.249 54.7121C290.481 53.7201 291.329 52.3841 291.793 50.7041H285.121L285.433 48.9761H294.433L294.121 50.6561C293.753 52.0321 293.097 53.2961 292.153 54.4481C291.225 55.5841 290.097 56.4881 288.769 57.1601C287.457 57.8161 286.065 58.1441 284.593 58.1441C283.217 58.1441 281.993 57.8641 280.921 57.3041C279.865 56.7281 279.041 55.9201 278.449 54.8801C277.857 53.8401 277.561 52.6481 277.561 51.3041C277.561 50.7601 277.609 50.2001 277.705 49.6241Z" fill="#8C8C8C"/>
<path d="M298.713 41.2721L295.737 58.0001H293.553L296.529 41.2721H298.713Z" fill="#8C8C8C"/>
<path d="M302.147 42.9761L301.139 48.7121H307.211L306.923 50.3921H300.851L299.795 56.2721H306.611L306.299 58.0001H297.299L300.275 41.2481H309.251L308.939 42.9761H302.147Z" fill="#8C8C8C"/>
<path d="M313.156 58.1681C311.604 58.1681 310.34 57.8001 309.364 57.0641C308.404 56.3121 307.924 55.3121 307.924 54.0641C307.924 53.8241 307.932 53.6481 307.948 53.5361H310.108C310.06 54.3201 310.3 54.9921 310.828 55.5521C311.356 56.1121 312.164 56.3921 313.252 56.3921C314.34 56.3921 315.204 56.1441 315.844 55.6481C316.484 55.1521 316.804 54.4561 316.804 53.5601C316.804 53.0161 316.644 52.5601 316.324 52.1921C316.02 51.8081 315.636 51.4961 315.172 51.2561C314.724 51.0001 314.108 50.7201 313.324 50.4161C312.364 50.0321 311.588 49.6721 310.996 49.3361C310.42 49.0001 309.932 48.5441 309.532 47.9681C309.132 47.3921 308.948 46.6641 308.98 45.7841C308.98 44.8561 309.228 44.0321 309.724 43.3121C310.22 42.5921 310.9 42.0401 311.764 41.6561C312.644 41.2561 313.644 41.0561 314.764 41.0561C315.852 41.0561 316.788 41.2401 317.572 41.6081C318.372 41.9761 318.972 42.4881 319.372 43.1441C319.772 43.8001 319.948 44.5361 319.9 45.3521H317.62C317.652 44.9361 317.556 44.5361 317.332 44.1521C317.124 43.7681 316.788 43.4561 316.324 43.2161C315.876 42.9761 315.316 42.8561 314.644 42.8561C313.604 42.8561 312.764 43.1041 312.124 43.6001C311.5 44.0801 311.188 44.7441 311.188 45.5921C311.188 46.0881 311.332 46.5201 311.62 46.8881C311.924 47.2401 312.3 47.5441 312.748 47.8001C313.196 48.0401 313.812 48.3281 314.596 48.6641C315.54 49.0641 316.308 49.4401 316.9 49.7921C317.508 50.1281 318.02 50.5841 318.436 51.1601C318.852 51.7361 319.06 52.4561 319.06 53.3201C319.06 54.2481 318.82 55.0801 318.34 55.8161C317.86 56.5361 317.172 57.1121 316.276 57.5441C315.38 57.9601 314.34 58.1681 313.156 58.1681Z" fill="#8C8C8C"/>
<path d="M128.586 1.496L127.626 6.776H113.706L112.17 15.56H122.826L121.914 20.744H111.21L108.714 35H101.946L107.898 1.496H128.586Z" fill="black"/>
<path d="M141.511 1.496L135.607 35H128.839L134.791 1.496H141.511Z" fill="black"/>
<path d="M162.166 1.496C165.59 1.496 168.182 2.28 169.942 3.848C171.702 5.384 172.582 7.4 172.582 9.896C172.582 10.504 172.534 11.128 172.438 11.768C172.054 13.944 171.062 15.928 169.462 17.72C167.894 19.48 165.782 20.712 163.126 21.416L168.742 35H160.918L155.926 21.944H152.71L150.406 35H143.638L149.59 1.496H162.166ZM165.526 11.912C165.59 11.336 165.622 10.952 165.622 10.76C165.622 9.544 165.238 8.6 164.47 7.928C163.702 7.256 162.534 6.92 160.966 6.92H155.35L153.574 16.952H159.19C160.982 16.952 162.406 16.504 163.462 15.608C164.55 14.712 165.238 13.48 165.526 11.912Z" fill="black"/>
<path d="M187.588 6.728L186.052 15.416H197.332L196.42 20.6H185.14L183.556 29.672H196.276L195.316 35H175.828L181.78 1.448H201.22L200.308 6.728H187.588Z" fill="black"/>
<path d="M253.551 1.496L238.239 35H230.319L228.255 11.144L217.503 35L209.631 35.048L206.511 1.496H213.711L215.055 27.512L226.431 1.496H233.919L235.743 27.368L246.303 1.496H253.551Z" fill="black"/>
<path d="M275.123 28.616H261.731L258.419 35H251.363L269.363 1.448H277.187L283.283 35H276.179L275.123 28.616ZM274.259 23.384L271.859 9.176L264.467 23.384H274.259Z" fill="black"/>
<path d="M296.906 29.864H307.946L307.034 35H289.226L295.178 1.496H301.898L296.906 29.864Z" fill="black"/>
<path d="M320.378 29.864H331.418L330.506 35H312.698L318.65 1.496H325.37L320.378 29.864Z" fill="black"/>
</svg>
