<svg width="336" height="69" viewBox="0 0 336 69" fill="none" xmlns="http://www.w3.org/2000/svg">
<path d="M101.259 0H47.0076L49.1144 12.6412H63.3358L53.8549 69L72.29 51.0916L79.1373 12.6412H94.4122L101.259 0Z" fill="black"/>
<path d="M55.4351 50.5648H38.5802L37.5267 33.7098C43.0046 31.1816 49.6412 29.8472 52.2748 29.4961L55.4351 50.5648Z" fill="black"/>
<path fill-rule="evenodd" clip-rule="evenodd" d="M17.5114 50.5649H0.129761L28.5725 0H45.9542L50.1679 24.7557C58.5954 23.5267 79.6641 22.8595 96.5191 30.0229C75.4504 25.6336 30.1527 23.5969 17.5114 50.5649ZM26.4656 30.0229C28.2213 29.3206 32.6809 27.8107 36.4732 27.3893L35.4198 13.6946L26.4656 30.0229Z" fill="black"/>
<path d="M107.612 55.4321H101.948L100.652 58.0001H95.0596L104.276 41.0081H110.42L113.612 58.0001H107.996L107.612 55.4321ZM107.036 51.4241L106.34 46.6961L103.964 51.4241H107.036Z" fill="#8C8C8C"/>
<path d="M118.71 53.9681H123.846L123.126 58.0001H112.662L115.662 41.0081H120.99L118.71 53.9681Z" fill="#8C8C8C"/>
<path d="M138.507 46.8401C138.315 47.9121 137.899 48.8881 137.259 49.7681C136.619 50.6321 135.763 51.3201 134.691 51.8321C133.635 52.3441 132.419 52.6001 131.043 52.6001H128.931L127.971 58.0001H122.643L125.643 41.0081H133.083C134.891 41.0081 136.267 41.4161 137.211 42.2321C138.155 43.0481 138.627 44.1681 138.627 45.5921C138.627 45.9441 138.587 46.3601 138.507 46.8401ZM131.187 48.4001C132.275 48.4001 132.915 47.8801 133.107 46.8401C133.139 46.6481 133.155 46.5121 133.155 46.4321C133.155 45.6641 132.683 45.2801 131.739 45.2801H130.227L129.675 48.4001H131.187Z" fill="#8C8C8C"/>
<path d="M154.789 41.0081L151.789 58.0001H146.461L147.637 51.3761H142.573L141.397 58.0001H136.069L139.069 41.0081H144.397L143.317 47.1281H148.381L149.461 41.0081H154.789Z" fill="#8C8C8C"/>
<path d="M163.378 55.4321H157.714L156.418 58.0001H150.826L160.042 41.0081H166.186L169.378 58.0001H163.762L163.378 55.4321ZM162.802 51.4241L162.106 46.6961L159.73 51.4241H162.802Z" fill="#8C8C8C"/>
<path d="M182.3 41.2721L181.988 42.9761H177.428L174.788 58.0001H172.604L175.244 42.9761H170.684L170.996 41.2721H182.3Z" fill="#8C8C8C"/>
<path d="M184.725 42.9761L183.717 48.7121H189.789L189.501 50.3921H183.429L182.373 56.2721H189.189L188.877 58.0001H179.877L182.853 41.2481H191.829L191.517 42.9761H184.725Z" fill="#8C8C8C"/>
<path d="M190.693 49.6241C190.981 47.9921 191.605 46.5281 192.565 45.2321C193.541 43.9201 194.725 42.8961 196.117 42.1601C197.525 41.4241 198.997 41.0561 200.533 41.0561C202.357 41.0561 203.869 41.4961 205.069 42.3761C206.285 43.2561 207.069 44.5041 207.421 46.1201H204.805C204.517 45.1441 203.981 44.3921 203.197 43.8641C202.413 43.3201 201.413 43.0481 200.197 43.0481C199.029 43.0481 197.933 43.3201 196.909 43.8641C195.901 44.3921 195.045 45.1601 194.341 46.1681C193.637 47.1601 193.165 48.3121 192.925 49.6241C192.845 50.0401 192.805 50.5201 192.805 51.0641C192.805 52.6321 193.261 53.8801 194.173 54.8081C195.101 55.7201 196.333 56.1761 197.869 56.1761C199.085 56.1761 200.181 55.9121 201.157 55.3841C202.133 54.8561 202.933 54.1041 203.557 53.1281H206.173C205.261 54.7281 204.045 55.9681 202.525 56.8481C201.021 57.7121 199.357 58.1441 197.533 58.1441C196.173 58.1441 194.965 57.8641 193.909 57.3041C192.853 56.7281 192.029 55.9281 191.437 54.9041C190.845 53.8641 190.549 52.6721 190.549 51.3281C190.549 50.7681 190.597 50.2001 190.693 49.6241Z" fill="#8C8C8C"/>
<path d="M222.24 41.2721L219.288 58.0001H217.104L218.448 50.3681H209.952L208.584 58.0001H206.4L209.376 41.2721H211.56L210.24 48.6641H218.76L220.056 41.2721H222.24Z" fill="#8C8C8C"/>
<path d="M233.986 58.0001H231.802L225.394 44.6801L223.018 58.0001H220.834L223.81 41.2481H225.994L232.426 54.5441L234.778 41.2481H236.962L233.986 58.0001Z" fill="#8C8C8C"/>
<path d="M243.181 58.1681C241.789 58.1681 240.565 57.8801 239.509 57.3041C238.453 56.7121 237.629 55.8881 237.037 54.8321C236.461 53.7761 236.173 52.5681 236.173 51.2081C236.173 49.3201 236.597 47.6081 237.445 46.0721C238.309 44.5201 239.493 43.3041 240.997 42.4241C242.501 41.5281 244.181 41.0801 246.037 41.0801C247.445 41.0801 248.677 41.3761 249.733 41.9681C250.805 42.5441 251.629 43.3601 252.205 44.4161C252.781 45.4561 253.069 46.6561 253.069 48.0161C253.069 49.9201 252.637 51.6481 251.773 53.2001C250.925 54.7361 249.749 55.9521 248.245 56.8481C246.741 57.7281 245.053 58.1681 243.181 58.1681ZM243.493 56.2001C244.901 56.2001 246.157 55.8401 247.261 55.1201C248.381 54.3841 249.253 53.4001 249.877 52.1681C250.501 50.9361 250.813 49.6001 250.813 48.1601C250.813 46.5761 250.357 45.3281 249.445 44.4161C248.533 43.5041 247.293 43.0481 245.725 43.0481C244.317 43.0481 243.053 43.4161 241.933 44.1521C240.829 44.8721 239.965 45.8481 239.341 47.0801C238.733 48.2961 238.429 49.6241 238.429 51.0641C238.429 52.6481 238.877 53.9041 239.773 54.8321C240.685 55.7441 241.925 56.2001 243.493 56.2001Z" fill="#8C8C8C"/>
<path d="M254.752 56.3201H260.608L260.296 58.0001H252.256L255.232 41.2721H257.416L254.752 56.3201Z" fill="#8C8C8C"/>
<path d="M268.088 58.1681C266.696 58.1681 265.472 57.8801 264.416 57.3041C263.36 56.7121 262.536 55.8881 261.944 54.8321C261.368 53.7761 261.08 52.5681 261.08 51.2081C261.08 49.3201 261.504 47.6081 262.352 46.0721C263.216 44.5201 264.4 43.3041 265.904 42.4241C267.408 41.5281 269.088 41.0801 270.944 41.0801C272.352 41.0801 273.584 41.3761 274.64 41.9681C275.712 42.5441 276.536 43.3601 277.112 44.4161C277.688 45.4561 277.976 46.6561 277.976 48.0161C277.976 49.9201 277.544 51.6481 276.68 53.2001C275.832 54.7361 274.656 55.9521 273.152 56.8481C271.648 57.7281 269.96 58.1681 268.088 58.1681ZM268.4 56.2001C269.808 56.2001 271.064 55.8401 272.168 55.1201C273.288 54.3841 274.16 53.4001 274.784 52.1681C275.408 50.9361 275.72 49.6001 275.72 48.1601C275.72 46.5761 275.264 45.3281 274.352 44.4161C273.44 43.5041 272.2 43.0481 270.632 43.0481C269.224 43.0481 267.96 43.4161 266.84 44.1521C265.736 44.8721 264.872 45.8481 264.248 47.0801C263.64 48.2961 263.336 49.6241 263.336 51.0641C263.336 52.6481 263.784 53.9041 264.68 54.8321C265.592 55.7441 266.832 56.2001 268.4 56.2001Z" fill="#8C8C8C"/>
<path d="M277.835 49.6241C278.123 47.9921 278.747 46.5281 279.707 45.2321C280.683 43.9201 281.875 42.9041 283.283 42.1841C284.691 41.4481 286.171 41.0801 287.723 41.0801C289.515 41.0801 291.011 41.5201 292.211 42.4001C293.427 43.2801 294.211 44.5201 294.563 46.1201H291.947C291.659 45.1441 291.115 44.3921 290.315 43.8641C289.531 43.3201 288.555 43.0481 287.387 43.0481C286.219 43.0481 285.115 43.3201 284.075 43.8641C283.051 44.3921 282.187 45.1601 281.483 46.1681C280.779 47.1601 280.307 48.3121 280.067 49.6241C279.987 50.0401 279.947 50.5201 279.947 51.0641C279.947 52.6321 280.411 53.8801 281.339 54.8081C282.267 55.7201 283.507 56.1761 285.059 56.1761C286.707 56.1761 288.147 55.6881 289.379 54.7121C290.611 53.7201 291.459 52.3841 291.923 50.7041H285.251L285.563 48.9761H294.563L294.251 50.6561C293.883 52.0321 293.227 53.2961 292.283 54.4481C291.355 55.5841 290.227 56.4881 288.899 57.1601C287.587 57.8161 286.195 58.1441 284.723 58.1441C283.347 58.1441 282.123 57.8641 281.051 57.3041C279.995 56.7281 279.171 55.9201 278.579 54.8801C277.987 53.8401 277.691 52.6481 277.691 51.3041C277.691 50.7601 277.739 50.2001 277.835 49.6241Z" fill="#8C8C8C"/>
<path d="M298.843 41.2721L295.867 58.0001H293.683L296.659 41.2721H298.843Z" fill="#8C8C8C"/>
<path d="M302.277 42.9761L301.269 48.7121H307.341L307.053 50.3921H300.981L299.925 56.2721H306.741L306.429 58.0001H297.429L300.405 41.2481H309.381L309.069 42.9761H302.277Z" fill="#8C8C8C"/>
<path d="M313.286 58.1681C311.734 58.1681 310.47 57.8001 309.494 57.0641C308.534 56.3121 308.054 55.3121 308.054 54.0641C308.054 53.8241 308.062 53.6481 308.078 53.5361H310.238C310.19 54.3201 310.43 54.9921 310.958 55.5521C311.486 56.1121 312.294 56.3921 313.382 56.3921C314.47 56.3921 315.334 56.1441 315.974 55.6481C316.614 55.1521 316.934 54.4561 316.934 53.5601C316.934 53.0161 316.774 52.5601 316.454 52.1921C316.15 51.8081 315.766 51.4961 315.302 51.2561C314.854 51.0001 314.238 50.7201 313.454 50.4161C312.494 50.0321 311.718 49.6721 311.126 49.3361C310.55 49.0001 310.062 48.5441 309.662 47.9681C309.262 47.3921 309.078 46.6641 309.11 45.7841C309.11 44.8561 309.358 44.0321 309.854 43.3121C310.35 42.5921 311.03 42.0401 311.894 41.6561C312.774 41.2561 313.774 41.0561 314.894 41.0561C315.982 41.0561 316.918 41.2401 317.702 41.6081C318.502 41.9761 319.102 42.4881 319.502 43.1441C319.902 43.8001 320.078 44.5361 320.03 45.3521H317.75C317.782 44.9361 317.686 44.5361 317.462 44.1521C317.254 43.7681 316.918 43.4561 316.454 43.2161C316.006 42.9761 315.446 42.8561 314.774 42.8561C313.734 42.8561 312.894 43.1041 312.254 43.6001C311.63 44.0801 311.318 44.7441 311.318 45.5921C311.318 46.0881 311.462 46.5201 311.75 46.8881C312.054 47.2401 312.43 47.5441 312.878 47.8001C313.326 48.0401 313.942 48.3281 314.726 48.6641C315.67 49.0641 316.438 49.4401 317.03 49.7921C317.638 50.1281 318.15 50.5841 318.566 51.1601C318.982 51.7361 319.19 52.4561 319.19 53.3201C319.19 54.2481 318.95 55.0801 318.47 55.8161C317.99 56.5361 317.302 57.1121 316.406 57.5441C315.51 57.9601 314.47 58.1681 313.286 58.1681Z" fill="#8C8C8C"/>
<path d="M135.82 1.49599L129.916 35H123.148L125.692 20.648H111.388L108.844 35H102.076L108.028 1.49599H114.748L112.3 15.368H126.652L129.1 1.49599H135.82Z" fill="black"/>
<path d="M153.618 35.336C150.802 35.336 148.306 34.744 146.13 33.56C143.986 32.344 142.322 30.68 141.138 28.568C139.954 26.424 139.362 23.976 139.362 21.224C139.362 17.384 140.21 13.928 141.906 10.856C143.634 7.78399 146.002 5.38399 149.01 3.65599C152.05 1.89599 155.458 1.01599 159.234 1.01599C162.082 1.01599 164.578 1.60799 166.722 2.79199C168.898 3.97599 170.578 5.63999 171.762 7.78399C172.946 9.89599 173.538 12.312 173.538 15.032C173.538 18.936 172.69 22.424 170.994 25.496C169.298 28.568 166.93 30.984 163.89 32.744C160.85 34.472 157.426 35.336 153.618 35.336ZM154.578 29.144C156.978 29.144 159.09 28.536 160.914 27.32C162.77 26.104 164.194 24.472 165.186 22.424C166.21 20.344 166.722 18.088 166.722 15.656C166.722 13.032 165.986 10.968 164.514 9.46399C163.042 7.95999 160.978 7.20799 158.322 7.20799C155.954 7.20799 153.842 7.81599 151.986 9.03199C150.162 10.248 148.738 11.88 147.714 13.928C146.722 15.976 146.226 18.216 146.226 20.648C146.226 23.272 146.946 25.352 148.386 26.888C149.858 28.392 151.922 29.144 154.578 29.144Z" fill="black"/>
<path d="M205.801 1.49599L204.841 6.77599H195.961L190.969 35H184.201L189.193 6.77599H180.265L181.225 1.49599H205.801Z" fill="black"/>
<path d="M218.912 35.336C215.552 35.336 212.784 34.584 210.608 33.08C208.464 31.544 207.392 29.4 207.392 26.648C207.392 26.36 207.424 25.928 207.488 25.352H214.352C214.224 26.696 214.576 27.8 215.408 28.664C216.272 29.528 217.52 29.96 219.152 29.96C220.784 29.96 222.064 29.624 222.992 28.952C223.952 28.248 224.432 27.256 224.432 25.976C224.432 24.792 223.936 23.848 222.944 23.144C221.984 22.44 220.464 21.656 218.384 20.792C216.464 19.992 214.896 19.256 213.68 18.584C212.496 17.912 211.472 16.984 210.608 15.8C209.776 14.584 209.36 13.064 209.36 11.24C209.36 9.15999 209.888 7.35199 210.944 5.81599C212.032 4.27999 213.504 3.09599 215.36 2.26399C217.248 1.43199 219.392 1.01599 221.792 1.01599C224.16 1.01599 226.208 1.41599 227.936 2.21599C229.696 2.98399 231.008 4.08799 231.872 5.52799C232.768 6.96799 233.152 8.64799 233.024 10.568H225.872L225.92 10.04C225.92 8.98399 225.52 8.11999 224.72 7.44799C223.952 6.77599 222.864 6.43999 221.456 6.43999C219.952 6.43999 218.736 6.79199 217.808 7.49599C216.88 8.19999 216.416 9.15999 216.416 10.376C216.416 11.176 216.672 11.88 217.184 12.488C217.728 13.064 218.384 13.576 219.152 14.024C219.92 14.44 221.024 14.984 222.464 15.656C224.352 16.488 225.904 17.272 227.12 18.008C228.336 18.744 229.376 19.72 230.24 20.936C231.104 22.152 231.536 23.64 231.536 25.4C231.536 27.32 231.008 29.032 229.952 30.536C228.928 32.04 227.456 33.224 225.536 34.088C223.648 34.92 221.44 35.336 218.912 35.336Z" fill="black"/>
<path d="M265.441 11.864C265.121 13.656 264.401 15.336 263.281 16.904C262.161 18.472 260.609 19.736 258.625 20.696C256.673 21.656 254.321 22.136 251.569 22.136H245.953L243.697 35H236.929L242.881 1.49599H255.217C258.641 1.49599 261.233 2.26399 262.993 3.79999C264.753 5.30399 265.633 7.31999 265.633 9.84799C265.633 10.584 265.569 11.256 265.441 11.864ZM252.241 16.856C254.065 16.856 255.505 16.408 256.561 15.512C257.617 14.616 258.289 13.4 258.577 11.864C258.641 11.576 258.673 11.16 258.673 10.616C258.673 8.08799 257.105 6.82399 253.969 6.82399H248.689L246.913 16.856H252.241Z" fill="black"/>
<path d="M283.268 35.336C280.452 35.336 277.956 34.744 275.78 33.56C273.636 32.344 271.972 30.68 270.788 28.568C269.604 26.424 269.012 23.976 269.012 21.224C269.012 17.384 269.86 13.928 271.556 10.856C273.284 7.78399 275.652 5.38399 278.66 3.65599C281.7 1.89599 285.108 1.01599 288.884 1.01599C291.732 1.01599 294.228 1.60799 296.372 2.79199C298.548 3.97599 300.228 5.63999 301.412 7.78399C302.596 9.89599 303.188 12.312 303.188 15.032C303.188 18.936 302.34 22.424 300.644 25.496C298.948 28.568 296.58 30.984 293.54 32.744C290.5 34.472 287.076 35.336 283.268 35.336ZM284.228 29.144C286.628 29.144 288.74 28.536 290.564 27.32C292.42 26.104 293.844 24.472 294.836 22.424C295.86 20.344 296.372 18.088 296.372 15.656C296.372 13.032 295.636 10.968 294.164 9.46399C292.692 7.95999 290.628 7.20799 287.972 7.20799C285.604 7.20799 283.492 7.81599 281.636 9.03199C279.812 10.248 278.388 11.88 277.364 13.928C276.372 15.976 275.876 18.216 275.876 20.648C275.876 23.272 276.596 25.352 278.036 26.888C279.508 28.392 281.572 29.144 284.228 29.144Z" fill="black"/>
<path d="M335.452 1.49599L334.492 6.77599H325.612L320.62 35H313.852L318.844 6.77599H309.916L310.876 1.49599H335.452Z" fill="black"/>
</svg>
