<svg width="381" height="69" viewBox="0 0 381 69" fill="none" xmlns="http://www.w3.org/2000/svg">
<path d="M101.259 0H47.0076L49.1144 12.6412H63.3358L53.8549 69L72.29 51.0916L79.1373 12.6412H94.4122L101.259 0Z" fill="black"/>
<path d="M55.4351 50.5649H38.5802L37.5267 33.71C43.0046 31.1817 49.6412 29.8474 52.2748 29.4962L55.4351 50.5649Z" fill="black"/>
<path fill-rule="evenodd" clip-rule="evenodd" d="M17.5114 50.5649H0.129761L28.5725 0H45.9542L50.1679 24.7557C58.5954 23.5267 79.6641 22.8595 96.5191 30.0229C75.4504 25.6336 30.1527 23.5969 17.5114 50.5649ZM26.4656 30.0229C28.2213 29.3206 32.6809 27.8107 36.4732 27.3893L35.4198 13.6946L26.4656 30.0229Z" fill="black"/>
<path d="M107.612 55.4321H101.948L100.652 58.0001H95.0596L104.276 41.0081H110.42L113.612 58.0001H107.996L107.612 55.4321ZM107.036 51.4241L106.34 46.6961L103.964 51.4241H107.036Z" fill="#8C8C8C"/>
<path d="M118.71 53.9681H123.846L123.126 58.0001H112.662L115.662 41.0081H120.99L118.71 53.9681Z" fill="#8C8C8C"/>
<path d="M138.507 46.8401C138.315 47.9121 137.899 48.8881 137.259 49.7681C136.619 50.6321 135.763 51.3201 134.691 51.8321C133.635 52.3441 132.419 52.6001 131.043 52.6001H128.931L127.971 58.0001H122.643L125.643 41.0081H133.083C134.891 41.0081 136.267 41.4161 137.211 42.2321C138.155 43.0481 138.627 44.1681 138.627 45.5921C138.627 45.9441 138.587 46.3601 138.507 46.8401ZM131.187 48.4001C132.275 48.4001 132.915 47.8801 133.107 46.8401C133.139 46.6481 133.155 46.5121 133.155 46.4321C133.155 45.6641 132.683 45.2801 131.739 45.2801H130.227L129.675 48.4001H131.187Z" fill="#8C8C8C"/>
<path d="M154.789 41.0081L151.789 58.0001H146.461L147.637 51.3761H142.573L141.397 58.0001H136.069L139.069 41.0081H144.397L143.317 47.1281H148.381L149.461 41.0081H154.789Z" fill="#8C8C8C"/>
<path d="M163.378 55.4321H157.714L156.418 58.0001H150.826L160.042 41.0081H166.186L169.378 58.0001H163.762L163.378 55.4321ZM162.802 51.4241L162.106 46.6961L159.73 51.4241H162.802Z" fill="#8C8C8C"/>
<path d="M182.3 41.2721L181.988 42.9761H177.428L174.788 58.0001H172.604L175.244 42.9761H170.684L170.996 41.2721H182.3Z" fill="#8C8C8C"/>
<path d="M184.725 42.9761L183.717 48.7121H189.789L189.501 50.3921H183.429L182.373 56.2721H189.189L188.877 58.0001H179.877L182.853 41.2481H191.829L191.517 42.9761H184.725Z" fill="#8C8C8C"/>
<path d="M190.693 49.6241C190.981 47.9921 191.605 46.5281 192.565 45.2321C193.541 43.9201 194.725 42.8961 196.117 42.1601C197.525 41.4241 198.997 41.0561 200.533 41.0561C202.357 41.0561 203.869 41.4961 205.069 42.3761C206.285 43.2561 207.069 44.5041 207.421 46.1201H204.805C204.517 45.1441 203.981 44.3921 203.197 43.8641C202.413 43.3201 201.413 43.0481 200.197 43.0481C199.029 43.0481 197.933 43.3201 196.909 43.8641C195.901 44.3921 195.045 45.1601 194.341 46.1681C193.637 47.1601 193.165 48.3121 192.925 49.6241C192.845 50.0401 192.805 50.5201 192.805 51.0641C192.805 52.6321 193.261 53.8801 194.173 54.8081C195.101 55.7201 196.333 56.1761 197.869 56.1761C199.085 56.1761 200.181 55.9121 201.157 55.3841C202.133 54.8561 202.933 54.1041 203.557 53.1281H206.173C205.261 54.7281 204.045 55.9681 202.525 56.8481C201.021 57.7121 199.357 58.1441 197.533 58.1441C196.173 58.1441 194.965 57.8641 193.909 57.3041C192.853 56.7281 192.029 55.9281 191.437 54.9041C190.845 53.8641 190.549 52.6721 190.549 51.3281C190.549 50.7681 190.597 50.2001 190.693 49.6241Z" fill="#8C8C8C"/>
<path d="M222.24 41.2721L219.288 58.0001H217.104L218.448 50.3681H209.952L208.584 58.0001H206.4L209.376 41.2721H211.56L210.24 48.6641H218.76L220.056 41.2721H222.24Z" fill="#8C8C8C"/>
<path d="M233.986 58.0001H231.802L225.394 44.6801L223.018 58.0001H220.834L223.81 41.2481H225.994L232.426 54.5441L234.778 41.2481H236.962L233.986 58.0001Z" fill="#8C8C8C"/>
<path d="M243.181 58.1681C241.789 58.1681 240.565 57.8801 239.509 57.3041C238.453 56.7121 237.629 55.8881 237.037 54.8321C236.461 53.7761 236.173 52.5681 236.173 51.2081C236.173 49.3201 236.597 47.6081 237.445 46.0721C238.309 44.5201 239.493 43.3041 240.997 42.4241C242.501 41.5281 244.181 41.0801 246.037 41.0801C247.445 41.0801 248.677 41.3761 249.733 41.9681C250.805 42.5441 251.629 43.3601 252.205 44.4161C252.781 45.4561 253.069 46.6561 253.069 48.0161C253.069 49.9201 252.637 51.6481 251.773 53.2001C250.925 54.7361 249.749 55.9521 248.245 56.8481C246.741 57.7281 245.053 58.1681 243.181 58.1681ZM243.493 56.2001C244.901 56.2001 246.157 55.8401 247.261 55.1201C248.381 54.3841 249.253 53.4001 249.877 52.1681C250.501 50.9361 250.813 49.6001 250.813 48.1601C250.813 46.5761 250.357 45.3281 249.445 44.4161C248.533 43.5041 247.293 43.0481 245.725 43.0481C244.317 43.0481 243.053 43.4161 241.933 44.1521C240.829 44.8721 239.965 45.8481 239.341 47.0801C238.733 48.2961 238.429 49.6241 238.429 51.0641C238.429 52.6481 238.877 53.9041 239.773 54.8321C240.685 55.7441 241.925 56.2001 243.493 56.2001Z" fill="#8C8C8C"/>
<path d="M254.752 56.3201H260.608L260.296 58.0001H252.256L255.232 41.2721H257.416L254.752 56.3201Z" fill="#8C8C8C"/>
<path d="M268.088 58.1681C266.696 58.1681 265.472 57.8801 264.416 57.3041C263.36 56.7121 262.536 55.8881 261.944 54.8321C261.368 53.7761 261.08 52.5681 261.08 51.2081C261.08 49.3201 261.504 47.6081 262.352 46.0721C263.216 44.5201 264.4 43.3041 265.904 42.4241C267.408 41.5281 269.088 41.0801 270.944 41.0801C272.352 41.0801 273.584 41.3761 274.64 41.9681C275.712 42.5441 276.536 43.3601 277.112 44.4161C277.688 45.4561 277.976 46.6561 277.976 48.0161C277.976 49.9201 277.544 51.6481 276.68 53.2001C275.832 54.7361 274.656 55.9521 273.152 56.8481C271.648 57.7281 269.96 58.1681 268.088 58.1681ZM268.4 56.2001C269.808 56.2001 271.064 55.8401 272.168 55.1201C273.288 54.3841 274.16 53.4001 274.784 52.1681C275.408 50.9361 275.72 49.6001 275.72 48.1601C275.72 46.5761 275.264 45.3281 274.352 44.4161C273.44 43.5041 272.2 43.0481 270.632 43.0481C269.224 43.0481 267.96 43.4161 266.84 44.1521C265.736 44.8721 264.872 45.8481 264.248 47.0801C263.64 48.2961 263.336 49.6241 263.336 51.0641C263.336 52.6481 263.784 53.9041 264.68 54.8321C265.592 55.7441 266.832 56.2001 268.4 56.2001Z" fill="#8C8C8C"/>
<path d="M277.835 49.6241C278.123 47.9921 278.747 46.5281 279.707 45.2321C280.683 43.9201 281.875 42.9041 283.283 42.1841C284.691 41.4481 286.171 41.0801 287.723 41.0801C289.515 41.0801 291.011 41.5201 292.211 42.4001C293.427 43.2801 294.211 44.5201 294.563 46.1201H291.947C291.659 45.1441 291.115 44.3921 290.315 43.8641C289.531 43.3201 288.555 43.0481 287.387 43.0481C286.219 43.0481 285.115 43.3201 284.075 43.8641C283.051 44.3921 282.187 45.1601 281.483 46.1681C280.779 47.1601 280.307 48.3121 280.067 49.6241C279.987 50.0401 279.947 50.5201 279.947 51.0641C279.947 52.6321 280.411 53.8801 281.339 54.8081C282.267 55.7201 283.507 56.1761 285.059 56.1761C286.707 56.1761 288.147 55.6881 289.379 54.7121C290.611 53.7201 291.459 52.3841 291.923 50.7041H285.251L285.563 48.9761H294.563L294.251 50.6561C293.883 52.0321 293.227 53.2961 292.283 54.4481C291.355 55.5841 290.227 56.4881 288.899 57.1601C287.587 57.8161 286.195 58.1441 284.723 58.1441C283.347 58.1441 282.123 57.8641 281.051 57.3041C279.995 56.7281 279.171 55.9201 278.579 54.8801C277.987 53.8401 277.691 52.6481 277.691 51.3041C277.691 50.7601 277.739 50.2001 277.835 49.6241Z" fill="#8C8C8C"/>
<path d="M298.843 41.2721L295.867 58.0001H293.683L296.659 41.2721H298.843Z" fill="#8C8C8C"/>
<path d="M302.277 42.9761L301.269 48.7121H307.341L307.053 50.3921H300.981L299.925 56.2721H306.741L306.429 58.0001H297.429L300.405 41.2481H309.381L309.069 42.9761H302.277Z" fill="#8C8C8C"/>
<path d="M313.286 58.1681C311.734 58.1681 310.47 57.8001 309.494 57.0641C308.534 56.3121 308.054 55.3121 308.054 54.0641C308.054 53.8241 308.062 53.6481 308.078 53.5361H310.238C310.19 54.3201 310.43 54.9921 310.958 55.5521C311.486 56.1121 312.294 56.3921 313.382 56.3921C314.47 56.3921 315.334 56.1441 315.974 55.6481C316.614 55.1521 316.934 54.4561 316.934 53.5601C316.934 53.0161 316.774 52.5601 316.454 52.1921C316.15 51.8081 315.766 51.4961 315.302 51.2561C314.854 51.0001 314.238 50.7201 313.454 50.4161C312.494 50.0321 311.718 49.6721 311.126 49.3361C310.55 49.0001 310.062 48.5441 309.662 47.9681C309.262 47.3921 309.078 46.6641 309.11 45.7841C309.11 44.8561 309.358 44.0321 309.854 43.3121C310.35 42.5921 311.03 42.0401 311.894 41.6561C312.774 41.2561 313.774 41.0561 314.894 41.0561C315.982 41.0561 316.918 41.2401 317.702 41.6081C318.502 41.9761 319.102 42.4881 319.502 43.1441C319.902 43.8001 320.078 44.5361 320.03 45.3521H317.75C317.782 44.9361 317.686 44.5361 317.462 44.1521C317.254 43.7681 316.918 43.4561 316.454 43.2161C316.006 42.9761 315.446 42.8561 314.774 42.8561C313.734 42.8561 312.894 43.1041 312.254 43.6001C311.63 44.0801 311.318 44.7441 311.318 45.5921C311.318 46.0881 311.462 46.5201 311.75 46.8881C312.054 47.2401 312.43 47.5441 312.878 47.8001C313.326 48.0401 313.942 48.3281 314.726 48.6641C315.67 49.0641 316.438 49.4401 317.03 49.7921C317.638 50.1281 318.15 50.5841 318.566 51.1601C318.982 51.7361 319.19 52.4561 319.19 53.3201C319.19 54.2481 318.95 55.0801 318.47 55.8161C317.99 56.5361 317.302 57.1121 316.406 57.5441C315.51 57.9601 314.47 58.1681 313.286 58.1681Z" fill="#8C8C8C"/>
<path d="M117.618 0.495991L111.714 34H104.946L110.898 0.495991H117.618Z" fill="black"/>
<path d="M148.449 34H141.681L130.593 11.008L126.513 34H119.745L125.697 0.44799H132.417L143.553 23.488L147.633 0.44799H154.353L148.449 34Z" fill="black"/>
<path d="M169.202 34.336C165.842 34.336 163.074 33.584 160.898 32.08C158.754 30.544 157.682 28.4 157.682 25.648C157.682 25.36 157.714 24.928 157.778 24.352H164.642C164.514 25.696 164.866 26.8 165.698 27.664C166.562 28.528 167.81 28.96 169.442 28.96C171.074 28.96 172.354 28.624 173.282 27.952C174.242 27.248 174.722 26.256 174.722 24.976C174.722 23.792 174.226 22.848 173.234 22.144C172.274 21.44 170.754 20.656 168.674 19.792C166.754 18.992 165.186 18.256 163.97 17.584C162.786 16.912 161.762 15.984 160.898 14.8C160.066 13.584 159.65 12.064 159.65 10.24C159.65 8.15999 160.178 6.35199 161.234 4.81599C162.322 3.27999 163.794 2.09599 165.65 1.26399C167.538 0.431992 169.682 0.0159912 172.082 0.0159912C174.45 0.0159912 176.498 0.415993 178.226 1.21599C179.986 1.98399 181.298 3.08799 182.162 4.52799C183.058 5.96799 183.442 7.64799 183.314 9.56799H176.162L176.21 9.03999C176.21 7.98399 175.81 7.11999 175.01 6.44799C174.242 5.77599 173.154 5.43999 171.746 5.43999C170.242 5.43999 169.026 5.79199 168.098 6.49599C167.17 7.19999 166.706 8.15999 166.706 9.37599C166.706 10.176 166.962 10.88 167.474 11.488C168.018 12.064 168.674 12.576 169.442 13.024C170.21 13.44 171.314 13.984 172.754 14.656C174.642 15.488 176.194 16.272 177.41 17.008C178.626 17.744 179.666 18.72 180.53 19.936C181.394 21.152 181.826 22.64 181.826 24.4C181.826 26.32 181.298 28.032 180.242 29.536C179.218 31.04 177.746 32.224 175.826 33.088C173.938 33.92 171.73 34.336 169.202 34.336Z" fill="black"/>
<path d="M215.731 10.864C215.411 12.656 214.691 14.336 213.571 15.904C212.451 17.472 210.899 18.736 208.915 19.696C206.963 20.656 204.611 21.136 201.859 21.136H196.243L193.987 34H187.219L193.171 0.495991H205.507C208.931 0.495991 211.523 1.26399 213.283 2.79999C215.043 4.30399 215.923 6.31999 215.923 8.84799C215.923 9.58399 215.859 10.256 215.731 10.864ZM202.531 15.856C204.355 15.856 205.795 15.408 206.851 14.512C207.907 13.616 208.579 12.4 208.867 10.864C208.931 10.576 208.963 10.16 208.963 9.61599C208.963 7.08799 207.395 5.82399 204.259 5.82399H198.979L197.203 15.856H202.531Z" fill="black"/>
<path d="M229.622 5.72799L228.086 14.416H239.366L238.454 19.6H227.174L225.59 28.672H238.31L237.35 34H217.862L223.814 0.44799H243.254L242.342 5.72799H229.622Z" fill="black"/>
<path d="M246.241 17.2C246.817 13.904 248.065 10.96 249.985 8.36799C251.937 5.74399 254.321 3.71199 257.137 2.27199C259.985 0.799992 263.009 0.0639915 266.209 0.0639915C269.953 0.0639915 273.073 1.02399 275.569 2.94399C278.065 4.86399 279.569 7.51999 280.081 10.912H272.353C271.841 9.37599 270.961 8.22399 269.713 7.45599C268.465 6.65599 266.929 6.25599 265.105 6.25599C263.153 6.25599 261.329 6.70399 259.633 7.59999C257.969 8.49599 256.561 9.77599 255.409 11.44C254.289 13.104 253.537 15.024 253.153 17.2C252.993 18.224 252.913 19.072 252.913 19.744C252.913 22.336 253.649 24.384 255.121 25.888C256.625 27.392 258.657 28.144 261.217 28.144C263.041 28.144 264.721 27.744 266.257 26.944C267.793 26.144 269.089 24.976 270.145 23.44H277.873C276.145 26.864 273.697 29.536 270.529 31.456C267.393 33.344 263.953 34.288 260.209 34.288C257.393 34.288 254.897 33.728 252.721 32.608C250.577 31.456 248.913 29.84 247.729 27.76C246.545 25.68 245.953 23.296 245.953 20.608C245.953 19.488 246.049 18.352 246.241 17.2Z" fill="black"/>
<path d="M311.885 0.495991L310.925 5.77599H302.045L297.053 34H290.285L295.277 5.77599H286.349L287.309 0.495991H311.885Z" fill="black"/>
<path d="M327.972 34.336C325.156 34.336 322.66 33.744 320.484 32.56C318.34 31.344 316.676 29.68 315.492 27.568C314.308 25.424 313.716 22.976 313.716 20.224C313.716 16.384 314.564 12.928 316.26 9.85599C317.988 6.78399 320.356 4.38399 323.364 2.65599C326.404 0.895992 329.812 0.0159912 333.588 0.0159912C336.436 0.0159912 338.932 0.607992 341.076 1.79199C343.252 2.97599 344.932 4.63999 346.116 6.78399C347.3 8.89599 347.892 11.312 347.892 14.032C347.892 17.936 347.044 21.424 345.348 24.496C343.652 27.568 341.284 29.984 338.244 31.744C335.204 33.472 331.78 34.336 327.972 34.336ZM328.932 28.144C331.332 28.144 333.444 27.536 335.268 26.32C337.124 25.104 338.548 23.472 339.54 21.424C340.564 19.344 341.076 17.088 341.076 14.656C341.076 12.032 340.34 9.96799 338.868 8.46399C337.396 6.95999 335.332 6.20799 332.676 6.20799C330.308 6.20799 328.196 6.81599 326.34 8.03199C324.516 9.24799 323.092 10.88 322.068 12.928C321.076 14.976 320.58 17.216 320.58 19.648C320.58 22.272 321.3 24.352 322.74 25.888C324.212 27.392 326.276 28.144 328.932 28.144Z" fill="black"/>
<path d="M369.931 0.495991C373.355 0.495991 375.947 1.27999 377.707 2.84799C379.467 4.38399 380.347 6.39999 380.347 8.89599C380.347 9.50399 380.299 10.128 380.203 10.768C379.819 12.944 378.827 14.928 377.227 16.72C375.659 18.48 373.547 19.712 370.891 20.416L376.507 34H368.683L363.691 20.944H360.475L358.171 34H351.403L357.355 0.495991H369.931ZM373.291 10.912C373.355 10.336 373.387 9.95199 373.387 9.75999C373.387 8.54399 373.003 7.59999 372.235 6.92799C371.467 6.25599 370.299 5.91999 368.731 5.91999H363.115L361.339 15.952H366.955C368.747 15.952 370.171 15.504 371.227 14.608C372.315 13.712 373.003 12.48 373.291 10.912Z" fill="black"/>
</svg>
