<svg width="321" height="69" viewBox="0 0 321 69" fill="none" xmlns="http://www.w3.org/2000/svg">
<path d="M101.259 0H47.0076L49.1144 12.6412H63.3358L53.8549 69L72.29 51.0916L79.1373 12.6412H94.4122L101.259 0Z" fill="black"/>
<path d="M55.4351 50.5649H38.5802L37.5267 33.71C43.0046 31.1817 49.6412 29.8474 52.2748 29.4962L55.4351 50.5649Z" fill="black"/>
<path fill-rule="evenodd" clip-rule="evenodd" d="M17.5114 50.5649H0.129761L28.5725 0H45.9542L50.1679 24.7557C58.5954 23.5267 79.6641 22.8595 96.5191 30.0229C75.4504 25.6336 30.1527 23.5969 17.5114 50.5649ZM26.4656 30.0229C28.2213 29.3206 32.6809 27.8107 36.4732 27.3893L35.4198 13.6946L26.4656 30.0229Z" fill="black"/>
<path d="M107.612 55.4321H101.948L100.652 58.0001H95.0596L104.276 41.0081H110.42L113.612 58.0001H107.996L107.612 55.4321ZM107.036 51.4241L106.34 46.6961L103.964 51.4241H107.036Z" fill="#8C8C8C"/>
<path d="M118.71 53.9681H123.846L123.126 58.0001H112.662L115.662 41.0081H120.99L118.71 53.9681Z" fill="#8C8C8C"/>
<path d="M138.507 46.8401C138.315 47.9121 137.899 48.8881 137.259 49.7681C136.619 50.6321 135.763 51.3201 134.691 51.8321C133.635 52.3441 132.419 52.6001 131.043 52.6001H128.931L127.971 58.0001H122.643L125.643 41.0081H133.083C134.891 41.0081 136.267 41.4161 137.211 42.2321C138.155 43.0481 138.627 44.1681 138.627 45.5921C138.627 45.9441 138.587 46.3601 138.507 46.8401ZM131.187 48.4001C132.275 48.4001 132.915 47.8801 133.107 46.8401C133.139 46.6481 133.155 46.5121 133.155 46.4321C133.155 45.6641 132.683 45.2801 131.739 45.2801H130.227L129.675 48.4001H131.187Z" fill="#8C8C8C"/>
<path d="M154.789 41.0081L151.789 58.0001H146.461L147.637 51.3761H142.573L141.397 58.0001H136.069L139.069 41.0081H144.397L143.317 47.1281H148.381L149.461 41.0081H154.789Z" fill="#8C8C8C"/>
<path d="M163.378 55.4321H157.714L156.418 58.0001H150.826L160.042 41.0081H166.186L169.378 58.0001H163.762L163.378 55.4321ZM162.802 51.4241L162.106 46.6961L159.73 51.4241H162.802Z" fill="#8C8C8C"/>
<path d="M182.3 41.2721L181.988 42.9761H177.428L174.788 58.0001H172.604L175.244 42.9761H170.684L170.996 41.2721H182.3Z" fill="#8C8C8C"/>
<path d="M184.725 42.9761L183.717 48.7121H189.789L189.501 50.3921H183.429L182.373 56.2721H189.189L188.877 58.0001H179.877L182.853 41.2481H191.829L191.517 42.9761H184.725Z" fill="#8C8C8C"/>
<path d="M190.693 49.6241C190.981 47.9921 191.605 46.5281 192.565 45.2321C193.541 43.9201 194.725 42.8961 196.117 42.1601C197.525 41.4241 198.997 41.0561 200.533 41.0561C202.357 41.0561 203.869 41.4961 205.069 42.3761C206.285 43.2561 207.069 44.5041 207.421 46.1201H204.805C204.517 45.1441 203.981 44.3921 203.197 43.8641C202.413 43.3201 201.413 43.0481 200.197 43.0481C199.029 43.0481 197.933 43.3201 196.909 43.8641C195.901 44.3921 195.045 45.1601 194.341 46.1681C193.637 47.1601 193.165 48.3121 192.925 49.6241C192.845 50.0401 192.805 50.5201 192.805 51.0641C192.805 52.6321 193.261 53.8801 194.173 54.8081C195.101 55.7201 196.333 56.1761 197.869 56.1761C199.085 56.1761 200.181 55.9121 201.157 55.3841C202.133 54.8561 202.933 54.1041 203.557 53.1281H206.173C205.261 54.7281 204.045 55.9681 202.525 56.8481C201.021 57.7121 199.357 58.1441 197.533 58.1441C196.173 58.1441 194.965 57.8641 193.909 57.3041C192.853 56.7281 192.029 55.9281 191.437 54.9041C190.845 53.8641 190.549 52.6721 190.549 51.3281C190.549 50.7681 190.597 50.2001 190.693 49.6241Z" fill="#8C8C8C"/>
<path d="M222.24 41.2721L219.288 58.0001H217.104L218.448 50.3681H209.952L208.584 58.0001H206.4L209.376 41.2721H211.56L210.24 48.6641H218.76L220.056 41.2721H222.24Z" fill="#8C8C8C"/>
<path d="M233.986 58.0001H231.802L225.394 44.6801L223.018 58.0001H220.834L223.81 41.2481H225.994L232.426 54.5441L234.778 41.2481H236.962L233.986 58.0001Z" fill="#8C8C8C"/>
<path d="M243.181 58.1681C241.789 58.1681 240.565 57.8801 239.509 57.3041C238.453 56.7121 237.629 55.8881 237.037 54.8321C236.461 53.7761 236.173 52.5681 236.173 51.2081C236.173 49.3201 236.597 47.6081 237.445 46.0721C238.309 44.5201 239.493 43.3041 240.997 42.4241C242.501 41.5281 244.181 41.0801 246.037 41.0801C247.445 41.0801 248.677 41.3761 249.733 41.9681C250.805 42.5441 251.629 43.3601 252.205 44.4161C252.781 45.4561 253.069 46.6561 253.069 48.0161C253.069 49.9201 252.637 51.6481 251.773 53.2001C250.925 54.7361 249.749 55.9521 248.245 56.8481C246.741 57.7281 245.053 58.1681 243.181 58.1681ZM243.493 56.2001C244.901 56.2001 246.157 55.8401 247.261 55.1201C248.381 54.3841 249.253 53.4001 249.877 52.1681C250.501 50.9361 250.813 49.6001 250.813 48.1601C250.813 46.5761 250.357 45.3281 249.445 44.4161C248.533 43.5041 247.293 43.0481 245.725 43.0481C244.317 43.0481 243.053 43.4161 241.933 44.1521C240.829 44.8721 239.965 45.8481 239.341 47.0801C238.733 48.2961 238.429 49.6241 238.429 51.0641C238.429 52.6481 238.877 53.9041 239.773 54.8321C240.685 55.7441 241.925 56.2001 243.493 56.2001Z" fill="#8C8C8C"/>
<path d="M254.752 56.3201H260.608L260.296 58.0001H252.256L255.232 41.2721H257.416L254.752 56.3201Z" fill="#8C8C8C"/>
<path d="M268.088 58.1681C266.696 58.1681 265.472 57.8801 264.416 57.3041C263.36 56.7121 262.536 55.8881 261.944 54.8321C261.368 53.7761 261.08 52.5681 261.08 51.2081C261.08 49.3201 261.504 47.6081 262.352 46.0721C263.216 44.5201 264.4 43.3041 265.904 42.4241C267.408 41.5281 269.088 41.0801 270.944 41.0801C272.352 41.0801 273.584 41.3761 274.64 41.9681C275.712 42.5441 276.536 43.3601 277.112 44.4161C277.688 45.4561 277.976 46.6561 277.976 48.0161C277.976 49.9201 277.544 51.6481 276.68 53.2001C275.832 54.7361 274.656 55.9521 273.152 56.8481C271.648 57.7281 269.96 58.1681 268.088 58.1681ZM268.4 56.2001C269.808 56.2001 271.064 55.8401 272.168 55.1201C273.288 54.3841 274.16 53.4001 274.784 52.1681C275.408 50.9361 275.72 49.6001 275.72 48.1601C275.72 46.5761 275.264 45.3281 274.352 44.4161C273.44 43.5041 272.2 43.0481 270.632 43.0481C269.224 43.0481 267.96 43.4161 266.84 44.1521C265.736 44.8721 264.872 45.8481 264.248 47.0801C263.64 48.2961 263.336 49.6241 263.336 51.0641C263.336 52.6481 263.784 53.9041 264.68 54.8321C265.592 55.7441 266.832 56.2001 268.4 56.2001Z" fill="#8C8C8C"/>
<path d="M277.835 49.6241C278.123 47.9921 278.747 46.5281 279.707 45.2321C280.683 43.9201 281.875 42.9041 283.283 42.1841C284.691 41.4481 286.171 41.0801 287.723 41.0801C289.515 41.0801 291.011 41.5201 292.211 42.4001C293.427 43.2801 294.211 44.5201 294.563 46.1201H291.947C291.659 45.1441 291.115 44.3921 290.315 43.8641C289.531 43.3201 288.555 43.0481 287.387 43.0481C286.219 43.0481 285.115 43.3201 284.075 43.8641C283.051 44.3921 282.187 45.1601 281.483 46.1681C280.779 47.1601 280.307 48.3121 280.067 49.6241C279.987 50.0401 279.947 50.5201 279.947 51.0641C279.947 52.6321 280.411 53.8801 281.339 54.8081C282.267 55.7201 283.507 56.1761 285.059 56.1761C286.707 56.1761 288.147 55.6881 289.379 54.7121C290.611 53.7201 291.459 52.3841 291.923 50.7041H285.251L285.563 48.9761H294.563L294.251 50.6561C293.883 52.0321 293.227 53.2961 292.283 54.4481C291.355 55.5841 290.227 56.4881 288.899 57.1601C287.587 57.8161 286.195 58.1441 284.723 58.1441C283.347 58.1441 282.123 57.8641 281.051 57.3041C279.995 56.7281 279.171 55.9201 278.579 54.8801C277.987 53.8401 277.691 52.6481 277.691 51.3041C277.691 50.7601 277.739 50.2001 277.835 49.6241Z" fill="#8C8C8C"/>
<path d="M298.843 41.2721L295.867 58.0001H293.683L296.659 41.2721H298.843Z" fill="#8C8C8C"/>
<path d="M302.277 42.9761L301.269 48.7121H307.341L307.053 50.3921H300.981L299.925 56.2721H306.741L306.429 58.0001H297.429L300.405 41.2481H309.381L309.069 42.9761H302.277Z" fill="#8C8C8C"/>
<path d="M313.286 58.1681C311.734 58.1681 310.47 57.8001 309.494 57.0641C308.534 56.3121 308.054 55.3121 308.054 54.0641C308.054 53.8241 308.062 53.6481 308.078 53.5361H310.238C310.19 54.3201 310.43 54.9921 310.958 55.5521C311.486 56.1121 312.294 56.3921 313.382 56.3921C314.47 56.3921 315.334 56.1441 315.974 55.6481C316.614 55.1521 316.934 54.4561 316.934 53.5601C316.934 53.0161 316.774 52.5601 316.454 52.1921C316.15 51.8081 315.766 51.4961 315.302 51.2561C314.854 51.0001 314.238 50.7201 313.454 50.4161C312.494 50.0321 311.718 49.6721 311.126 49.3361C310.55 49.0001 310.062 48.5441 309.662 47.9681C309.262 47.3921 309.078 46.6641 309.11 45.7841C309.11 44.8561 309.358 44.0321 309.854 43.3121C310.35 42.5921 311.03 42.0401 311.894 41.6561C312.774 41.2561 313.774 41.0561 314.894 41.0561C315.982 41.0561 316.918 41.2401 317.702 41.6081C318.502 41.9761 319.102 42.4881 319.502 43.1441C319.902 43.8001 320.078 44.5361 320.03 45.3521H317.75C317.782 44.9361 317.686 44.5361 317.462 44.1521C317.254 43.7681 316.918 43.4561 316.454 43.2161C316.006 42.9761 315.446 42.8561 314.774 42.8561C313.734 42.8561 312.894 43.1041 312.254 43.6001C311.63 44.0801 311.318 44.7441 311.318 45.5921C311.318 46.0881 311.462 46.5201 311.75 46.8881C312.054 47.2401 312.43 47.5441 312.878 47.8001C313.326 48.0401 313.942 48.3281 314.726 48.6641C315.67 49.0641 316.438 49.4401 317.03 49.7921C317.638 50.1281 318.15 50.5841 318.566 51.1601C318.982 51.7361 319.19 52.4561 319.19 53.3201C319.19 54.2481 318.95 55.0801 318.47 55.8161C317.99 56.5361 317.302 57.1121 316.406 57.5441C315.51 57.9601 314.47 58.1681 313.286 58.1681Z" fill="#8C8C8C"/>
<path d="M108.756 29.864H119.796L118.884 35H101.076L107.028 1.49599H113.748L108.756 29.864Z" fill="black"/>
<path d="M140.243 35.336C137.427 35.336 134.931 34.744 132.755 33.56C130.611 32.344 128.947 30.68 127.763 28.568C126.579 26.424 125.987 23.976 125.987 21.224C125.987 17.384 126.835 13.928 128.531 10.856C130.259 7.78399 132.627 5.38399 135.635 3.65599C138.675 1.89599 142.083 1.01599 145.859 1.01599C148.707 1.01599 151.203 1.60799 153.347 2.79199C155.523 3.97599 157.203 5.63999 158.387 7.78399C159.571 9.89599 160.163 12.312 160.163 15.032C160.163 18.936 159.315 22.424 157.619 25.496C155.923 28.568 153.555 30.984 150.515 32.744C147.475 34.472 144.051 35.336 140.243 35.336ZM141.203 29.144C143.603 29.144 145.715 28.536 147.539 27.32C149.395 26.104 150.819 24.472 151.811 22.424C152.835 20.344 153.347 18.088 153.347 15.656C153.347 13.032 152.611 10.968 151.139 9.46399C149.667 7.95999 147.603 7.20799 144.947 7.20799C142.579 7.20799 140.467 7.81599 138.611 9.03199C136.787 10.248 135.363 11.88 134.339 13.928C133.347 15.976 132.851 18.216 132.851 20.648C132.851 23.272 133.571 25.352 135.011 26.888C136.483 28.392 138.547 29.144 141.203 29.144Z" fill="black"/>
<path d="M165.066 18.2C165.642 14.904 166.906 11.96 168.858 9.36799C170.81 6.74399 173.21 4.71199 176.058 3.27199C178.906 1.79999 181.93 1.06399 185.13 1.06399C188.906 1.06399 192.01 1.99199 194.442 3.84799C196.906 5.67199 198.394 8.24799 198.906 11.576H191.178C190.666 10.168 189.802 9.09599 188.586 8.35999C187.37 7.62399 185.866 7.25599 184.074 7.25599C182.09 7.25599 180.25 7.70399 178.554 8.59999C176.858 9.49599 175.434 10.776 174.282 12.44C173.13 14.104 172.362 16.024 171.978 18.2C171.818 18.968 171.738 19.848 171.738 20.84C171.738 23.464 172.506 25.528 174.042 27.032C175.61 28.504 177.754 29.24 180.474 29.24C183.002 29.24 185.21 28.552 187.098 27.176C189.018 25.8 190.442 23.896 191.37 21.464H179.85L180.714 16.376H198.858L197.802 22.232C196.938 24.568 195.594 26.728 193.77 28.712C191.946 30.696 189.77 32.296 187.242 33.512C184.714 34.696 182.01 35.288 179.13 35.288C176.282 35.288 173.77 34.712 171.594 33.56C169.45 32.408 167.77 30.808 166.554 28.76C165.37 26.68 164.778 24.28 164.778 21.56C164.778 20.472 164.874 19.352 165.066 18.2Z" fill="black"/>
<path d="M214.63 1.49599L208.726 35H201.958L207.91 1.49599H214.63Z" fill="black"/>
<path d="M218.149 18.2C218.725 14.904 219.973 11.96 221.893 9.36799C223.845 6.74399 226.229 4.71199 229.045 3.27199C231.893 1.79999 234.917 1.06399 238.117 1.06399C241.861 1.06399 244.981 2.02399 247.477 3.94399C249.973 5.86399 251.477 8.51999 251.989 11.912H244.261C243.749 10.376 242.869 9.22399 241.621 8.45599C240.373 7.65599 238.837 7.25599 237.013 7.25599C235.061 7.25599 233.237 7.70399 231.541 8.59999C229.877 9.49599 228.469 10.776 227.317 12.44C226.197 14.104 225.445 16.024 225.061 18.2C224.901 19.224 224.821 20.072 224.821 20.744C224.821 23.336 225.557 25.384 227.029 26.888C228.533 28.392 230.565 29.144 233.125 29.144C234.949 29.144 236.629 28.744 238.165 27.944C239.701 27.144 240.997 25.976 242.053 24.44H249.781C248.053 27.864 245.605 30.536 242.437 32.456C239.301 34.344 235.861 35.288 232.117 35.288C229.301 35.288 226.805 34.728 224.629 33.608C222.485 32.456 220.821 30.84 219.637 28.76C218.453 26.68 217.861 24.296 217.861 21.608C217.861 20.488 217.957 19.352 218.149 18.2Z" fill="black"/>
</svg>
