<svg width="321" height="69" viewBox="0 0 321 69" fill="none" xmlns="http://www.w3.org/2000/svg">
<path d="M101.259 0H47.0076L49.1144 12.6412H63.3358L53.8549 69L72.29 51.0916L79.1373 12.6412H94.4122L101.259 0Z" fill="black"/>
<path d="M55.4351 50.5649H38.5802L37.5267 33.71C43.0046 31.1817 49.6412 29.8474 52.2748 29.4962L55.4351 50.5649Z" fill="black"/>
<path fill-rule="evenodd" clip-rule="evenodd" d="M17.5114 50.5649H0.129761L28.5725 0H45.9542L50.1679 24.7557C58.5954 23.5267 79.6641 22.8595 96.5191 30.0229C75.4504 25.6336 30.1527 23.5969 17.5114 50.5649ZM26.4656 30.0229C28.2213 29.3206 32.6809 27.8107 36.4732 27.3893L35.4198 13.6946L26.4656 30.0229Z" fill="black"/>
<path d="M107.612 55.4321H101.948L100.652 58.0001H95.0596L104.276 41.0081H110.42L113.612 58.0001H107.996L107.612 55.4321ZM107.036 51.4241L106.34 46.6961L103.964 51.4241H107.036Z" fill="#8C8C8C"/>
<path d="M118.71 53.9681H123.846L123.126 58.0001H112.662L115.662 41.0081H120.99L118.71 53.9681Z" fill="#8C8C8C"/>
<path d="M138.507 46.8401C138.315 47.9121 137.899 48.8881 137.259 49.7681C136.619 50.6321 135.763 51.3201 134.691 51.8321C133.635 52.3441 132.419 52.6001 131.043 52.6001H128.931L127.971 58.0001H122.643L125.643 41.0081H133.083C134.891 41.0081 136.267 41.4161 137.211 42.2321C138.155 43.0481 138.627 44.1681 138.627 45.5921C138.627 45.9441 138.587 46.3601 138.507 46.8401ZM131.187 48.4001C132.275 48.4001 132.915 47.8801 133.107 46.8401C133.139 46.6481 133.155 46.5121 133.155 46.4321C133.155 45.6641 132.683 45.2801 131.739 45.2801H130.227L129.675 48.4001H131.187Z" fill="#8C8C8C"/>
<path d="M154.789 41.0081L151.789 58.0001H146.461L147.637 51.3761H142.573L141.397 58.0001H136.069L139.069 41.0081H144.397L143.317 47.1281H148.381L149.461 41.0081H154.789Z" fill="#8C8C8C"/>
<path d="M163.378 55.4321H157.714L156.418 58.0001H150.826L160.042 41.0081H166.186L169.378 58.0001H163.762L163.378 55.4321ZM162.802 51.4241L162.106 46.6961L159.73 51.4241H162.802Z" fill="#8C8C8C"/>
<path d="M182.3 41.2721L181.988 42.9761H177.428L174.788 58.0001H172.604L175.244 42.9761H170.684L170.996 41.2721H182.3Z" fill="#8C8C8C"/>
<path d="M184.725 42.9761L183.717 48.7121H189.789L189.501 50.3921H183.429L182.373 56.2721H189.189L188.877 58.0001H179.877L182.853 41.2481H191.829L191.517 42.9761H184.725Z" fill="#8C8C8C"/>
<path d="M190.693 49.6241C190.981 47.9921 191.605 46.5281 192.565 45.2321C193.541 43.9201 194.725 42.8961 196.117 42.1601C197.525 41.4241 198.997 41.0561 200.533 41.0561C202.357 41.0561 203.869 41.4961 205.069 42.3761C206.285 43.2561 207.069 44.5041 207.421 46.1201H204.805C204.517 45.1441 203.981 44.3921 203.197 43.8641C202.413 43.3201 201.413 43.0481 200.197 43.0481C199.029 43.0481 197.933 43.3201 196.909 43.8641C195.901 44.3921 195.045 45.1601 194.341 46.1681C193.637 47.1601 193.165 48.3121 192.925 49.6241C192.845 50.0401 192.805 50.5201 192.805 51.0641C192.805 52.6321 193.261 53.8801 194.173 54.8081C195.101 55.7201 196.333 56.1761 197.869 56.1761C199.085 56.1761 200.181 55.9121 201.157 55.3841C202.133 54.8561 202.933 54.1041 203.557 53.1281H206.173C205.261 54.7281 204.045 55.9681 202.525 56.8481C201.021 57.7121 199.357 58.1441 197.533 58.1441C196.173 58.1441 194.965 57.8641 193.909 57.3041C192.853 56.7281 192.029 55.9281 191.437 54.9041C190.845 53.8641 190.549 52.6721 190.549 51.3281C190.549 50.7681 190.597 50.2001 190.693 49.6241Z" fill="#8C8C8C"/>
<path d="M222.24 41.2721L219.288 58.0001H217.104L218.448 50.3681H209.952L208.584 58.0001H206.4L209.376 41.2721H211.56L210.24 48.6641H218.76L220.056 41.2721H222.24Z" fill="#8C8C8C"/>
<path d="M233.986 58.0001H231.802L225.394 44.6801L223.018 58.0001H220.834L223.81 41.2481H225.994L232.426 54.5441L234.778 41.2481H236.962L233.986 58.0001Z" fill="#8C8C8C"/>
<path d="M243.181 58.1681C241.789 58.1681 240.565 57.8801 239.509 57.3041C238.453 56.7121 237.629 55.8881 237.037 54.8321C236.461 53.7761 236.173 52.5681 236.173 51.2081C236.173 49.3201 236.597 47.6081 237.445 46.0721C238.309 44.5201 239.493 43.3041 240.997 42.4241C242.501 41.5281 244.181 41.0801 246.037 41.0801C247.445 41.0801 248.677 41.3761 249.733 41.9681C250.805 42.5441 251.629 43.3601 252.205 44.4161C252.781 45.4561 253.069 46.6561 253.069 48.0161C253.069 49.9201 252.637 51.6481 251.773 53.2001C250.925 54.7361 249.749 55.9521 248.245 56.8481C246.741 57.7281 245.053 58.1681 243.181 58.1681ZM243.493 56.2001C244.901 56.2001 246.157 55.8401 247.261 55.1201C248.381 54.3841 249.253 53.4001 249.877 52.1681C250.501 50.9361 250.813 49.6001 250.813 48.1601C250.813 46.5761 250.357 45.3281 249.445 44.4161C248.533 43.5041 247.293 43.0481 245.725 43.0481C244.317 43.0481 243.053 43.4161 241.933 44.1521C240.829 44.8721 239.965 45.8481 239.341 47.0801C238.733 48.2961 238.429 49.6241 238.429 51.0641C238.429 52.6481 238.877 53.9041 239.773 54.8321C240.685 55.7441 241.925 56.2001 243.493 56.2001Z" fill="#8C8C8C"/>
<path d="M254.752 56.3201H260.608L260.296 58.0001H252.256L255.232 41.2721H257.416L254.752 56.3201Z" fill="#8C8C8C"/>
<path d="M268.088 58.1681C266.696 58.1681 265.472 57.8801 264.416 57.3041C263.36 56.7121 262.536 55.8881 261.944 54.8321C261.368 53.7761 261.08 52.5681 261.08 51.2081C261.08 49.3201 261.504 47.6081 262.352 46.0721C263.216 44.5201 264.4 43.3041 265.904 42.4241C267.408 41.5281 269.088 41.0801 270.944 41.0801C272.352 41.0801 273.584 41.3761 274.64 41.9681C275.712 42.5441 276.536 43.3601 277.112 44.4161C277.688 45.4561 277.976 46.6561 277.976 48.0161C277.976 49.9201 277.544 51.6481 276.68 53.2001C275.832 54.7361 274.656 55.9521 273.152 56.8481C271.648 57.7281 269.96 58.1681 268.088 58.1681ZM268.4 56.2001C269.808 56.2001 271.064 55.8401 272.168 55.1201C273.288 54.3841 274.16 53.4001 274.784 52.1681C275.408 50.9361 275.72 49.6001 275.72 48.1601C275.72 46.5761 275.264 45.3281 274.352 44.4161C273.44 43.5041 272.2 43.0481 270.632 43.0481C269.224 43.0481 267.96 43.4161 266.84 44.1521C265.736 44.8721 264.872 45.8481 264.248 47.0801C263.64 48.2961 263.336 49.6241 263.336 51.0641C263.336 52.6481 263.784 53.9041 264.68 54.8321C265.592 55.7441 266.832 56.2001 268.4 56.2001Z" fill="#8C8C8C"/>
<path d="M277.835 49.6241C278.123 47.9921 278.747 46.5281 279.707 45.2321C280.683 43.9201 281.875 42.9041 283.283 42.1841C284.691 41.4481 286.171 41.0801 287.723 41.0801C289.515 41.0801 291.011 41.5201 292.211 42.4001C293.427 43.2801 294.211 44.5201 294.563 46.1201H291.947C291.659 45.1441 291.115 44.3921 290.315 43.8641C289.531 43.3201 288.555 43.0481 287.387 43.0481C286.219 43.0481 285.115 43.3201 284.075 43.8641C283.051 44.3921 282.187 45.1601 281.483 46.1681C280.779 47.1601 280.307 48.3121 280.067 49.6241C279.987 50.0401 279.947 50.5201 279.947 51.0641C279.947 52.6321 280.411 53.8801 281.339 54.8081C282.267 55.7201 283.507 56.1761 285.059 56.1761C286.707 56.1761 288.147 55.6881 289.379 54.7121C290.611 53.7201 291.459 52.3841 291.923 50.7041H285.251L285.563 48.9761H294.563L294.251 50.6561C293.883 52.0321 293.227 53.2961 292.283 54.4481C291.355 55.5841 290.227 56.4881 288.899 57.1601C287.587 57.8161 286.195 58.1441 284.723 58.1441C283.347 58.1441 282.123 57.8641 281.051 57.3041C279.995 56.7281 279.171 55.9201 278.579 54.8801C277.987 53.8401 277.691 52.6481 277.691 51.3041C277.691 50.7601 277.739 50.2001 277.835 49.6241Z" fill="#8C8C8C"/>
<path d="M298.843 41.2721L295.867 58.0001H293.683L296.659 41.2721H298.843Z" fill="#8C8C8C"/>
<path d="M302.277 42.9761L301.269 48.7121H307.341L307.053 50.3921H300.981L299.925 56.2721H306.741L306.429 58.0001H297.429L300.405 41.2481H309.381L309.069 42.9761H302.277Z" fill="#8C8C8C"/>
<path d="M313.286 58.1681C311.734 58.1681 310.47 57.8001 309.494 57.0641C308.534 56.3121 308.054 55.3121 308.054 54.0641C308.054 53.8241 308.062 53.6481 308.078 53.5361H310.238C310.19 54.3201 310.43 54.9921 310.958 55.5521C311.486 56.1121 312.294 56.3921 313.382 56.3921C314.47 56.3921 315.334 56.1441 315.974 55.6481C316.614 55.1521 316.934 54.4561 316.934 53.5601C316.934 53.0161 316.774 52.5601 316.454 52.1921C316.15 51.8081 315.766 51.4961 315.302 51.2561C314.854 51.0001 314.238 50.7201 313.454 50.4161C312.494 50.0321 311.718 49.6721 311.126 49.3361C310.55 49.0001 310.062 48.5441 309.662 47.9681C309.262 47.3921 309.078 46.6641 309.11 45.7841C309.11 44.8561 309.358 44.0321 309.854 43.3121C310.35 42.5921 311.03 42.0401 311.894 41.6561C312.774 41.2561 313.774 41.0561 314.894 41.0561C315.982 41.0561 316.918 41.2401 317.702 41.6081C318.502 41.9761 319.102 42.4881 319.502 43.1441C319.902 43.8001 320.078 44.5361 320.03 45.3521H317.75C317.782 44.9361 317.686 44.5361 317.462 44.1521C317.254 43.7681 316.918 43.4561 316.454 43.2161C316.006 42.9761 315.446 42.8561 314.774 42.8561C313.734 42.8561 312.894 43.1041 312.254 43.6001C311.63 44.0801 311.318 44.7441 311.318 45.5921C311.318 46.0881 311.462 46.5201 311.75 46.8881C312.054 47.2401 312.43 47.5441 312.878 47.8001C313.326 48.0401 313.942 48.3281 314.726 48.6641C315.67 49.0641 316.438 49.4401 317.03 49.7921C317.638 50.1281 318.15 50.5841 318.566 51.1601C318.982 51.7361 319.19 52.4561 319.19 53.3201C319.19 54.2481 318.95 55.0801 318.47 55.8161C317.99 56.5361 317.302 57.1121 316.406 57.5441C315.51 57.9601 314.47 58.1681 313.286 58.1681Z" fill="#8C8C8C"/>
<path d="M144.556 1.49596L138.652 35H131.884L135.724 13.304L122.956 35H117.82L112.684 13.256L108.844 35H102.076L108.028 1.49596H115.66L121.948 26.36L136.924 1.49596H144.556Z" fill="black"/>
<path d="M168.383 28.616H154.991L151.679 35H144.623L162.623 1.44796H170.447L176.543 35H169.439L168.383 28.616ZM167.519 23.384L165.119 9.17596L157.727 23.384H167.519Z" fill="black"/>
<path d="M195.159 1.49596L189.255 35H182.487L188.439 1.49596H195.159Z" fill="black"/>
<path d="M204.966 29.864H216.006L215.094 35H197.286L203.238 1.49596H209.958L204.966 29.864Z" fill="black"/>
<path d="M233.429 1.49596L227.525 35H220.757L226.709 1.49596H233.429Z" fill="black"/>
<path d="M264.261 35H257.493L246.405 12.008L242.325 35H235.557L241.509 1.44796H248.229L259.365 24.488L263.445 1.44796H270.165L264.261 35Z" fill="black"/>
<path d="M273.686 18.2C274.262 14.904 275.526 11.96 277.478 9.36796C279.43 6.74396 281.83 4.71196 284.678 3.27197C287.526 1.79996 290.55 1.06396 293.75 1.06396C297.526 1.06396 300.63 1.99196 303.062 3.84796C305.526 5.67196 307.014 8.24796 307.526 11.576H299.798C299.286 10.168 298.422 9.09597 297.206 8.35997C295.99 7.62397 294.486 7.25597 292.694 7.25597C290.71 7.25597 288.87 7.70396 287.174 8.59996C285.478 9.49596 284.054 10.776 282.902 12.44C281.75 14.104 280.982 16.024 280.598 18.2C280.438 18.968 280.358 19.848 280.358 20.84C280.358 23.464 281.126 25.528 282.662 27.032C284.23 28.504 286.374 29.24 289.094 29.24C291.622 29.24 293.83 28.552 295.718 27.176C297.638 25.8 299.062 23.896 299.99 21.464H288.47L289.334 16.376H307.478L306.422 22.232C305.558 24.568 304.214 26.728 302.39 28.712C300.566 30.696 298.39 32.296 295.862 33.512C293.334 34.696 290.63 35.288 287.75 35.288C284.902 35.288 282.39 34.712 280.214 33.56C278.07 32.408 276.39 30.808 275.174 28.76C273.99 26.68 273.398 24.28 273.398 21.56C273.398 20.472 273.494 19.352 273.686 18.2Z" fill="black"/>
</svg>
