<svg width="247" height="282" viewBox="0 0 247 282" fill="none" xmlns="http://www.w3.org/2000/svg">
<path d="M52.5 264H36.5L35.5 248C40.7 245.6 47 244.333 49.5 244L52.5 264Z" fill="#5AB657"/>
<path d="M96 216H44.5L46.5 228H60L51 281.5L68.5 264.5L75 228H89.5L96 216Z" fill="#5AB657"/>
<path fill-rule="evenodd" clip-rule="evenodd" d="M16.5 264H0L27 216H43.5L47.5 239.5C55.5 238.333 75.5 237.7 91.5 244.5C71.5 240.333 28.5 238.4 16.5 264ZM25 244.5C26.6667 243.833 30.9 242.4 34.5 242L33.5 229L25 244.5Z" fill="#5AB657"/>
<path d="M108.348 241.252C106.236 241.252 104.376 240.808 102.768 239.92C101.16 239.032 99.912 237.784 99.024 236.176C98.136 234.568 97.692 232.744 97.692 230.704C97.692 227.848 98.328 225.28 99.6 223C100.896 220.696 102.672 218.896 104.928 217.6C107.208 216.304 109.752 215.656 112.56 215.656C114.696 215.656 116.568 216.1 118.176 216.988C119.784 217.876 121.032 219.124 121.92 220.732C122.808 222.316 123.252 224.128 123.252 226.168C123.252 229.024 122.604 231.604 121.308 233.908C120.036 236.212 118.26 238.012 115.98 239.308C113.724 240.604 111.18 241.252 108.348 241.252ZM108.924 237.544C110.892 237.544 112.632 237.04 114.144 236.032C115.68 235.024 116.868 233.68 117.708 232C118.572 230.296 119.004 228.448 119.004 226.456C119.004 224.272 118.38 222.556 117.132 221.308C115.908 220.036 114.192 219.4 111.984 219.4C110.016 219.4 108.264 219.904 106.728 220.912C105.216 221.896 104.04 223.228 103.2 224.908C102.36 226.588 101.94 228.436 101.94 230.452C101.94 232.636 102.552 234.364 103.776 235.636C105.024 236.908 106.74 237.544 108.924 237.544Z" fill="#5AB657"/>
<path d="M145.65 223.432C145.434 224.704 144.918 225.904 144.102 227.032C143.31 228.16 142.194 229.084 140.754 229.804C139.314 230.5 137.562 230.848 135.498 230.848H130.962L129.162 241H125.058L129.486 215.98H138.126C140.646 215.98 142.554 216.544 143.85 217.672C145.146 218.776 145.794 220.228 145.794 222.028C145.794 222.34 145.746 222.808 145.65 223.432ZM136.074 227.644C137.634 227.644 138.858 227.272 139.746 226.528C140.658 225.784 141.222 224.752 141.438 223.432C141.51 223.072 141.546 222.724 141.546 222.388C141.546 221.38 141.21 220.6 140.538 220.048C139.89 219.472 138.894 219.184 137.55 219.184H133.014L131.538 227.644H136.074Z" fill="#5AB657"/>
<path d="M154.425 219.148L153.093 226.744H161.733L161.193 229.912H152.553L151.149 237.796H160.869L160.293 241H146.469L150.897 215.944H164.721L164.145 219.148H154.425Z" fill="#5AB657"/>
<path d="M185.903 241H181.799L172.763 222.316L169.451 241H165.347L169.775 215.944H173.879L182.951 234.592L186.227 215.944H190.331L185.903 241Z" fill="#5AB657"/>
<path d="M106.944 273.252C103.824 273.252 101.328 272.628 99.456 271.38C97.608 270.132 96.684 268.308 96.684 265.908C96.684 265.668 96.708 265.308 96.756 264.828H105.252C105.18 265.572 105.288 266.124 105.576 266.484C105.888 266.844 106.392 267.024 107.088 267.024C107.52 267.024 107.88 266.916 108.168 266.7C108.456 266.484 108.6 266.172 108.6 265.764C108.6 265.188 108.312 264.708 107.736 264.324C107.184 263.94 106.284 263.484 105.036 262.956C103.668 262.38 102.54 261.828 101.652 261.3C100.788 260.772 100.032 260.052 99.384 259.14C98.736 258.228 98.412 257.088 98.412 255.72C98.412 253.92 98.856 252.372 99.744 251.076C100.656 249.756 101.916 248.76 103.524 248.088C105.132 247.416 106.968 247.08 109.032 247.08C110.88 247.08 112.524 247.368 113.964 247.944C115.428 248.52 116.568 249.36 117.384 250.464C118.224 251.544 118.644 252.828 118.644 254.316C118.644 254.508 118.62 254.844 118.572 255.324H109.968C110.016 255.036 110.04 254.844 110.04 254.748C110.04 254.292 109.908 253.944 109.644 253.704C109.38 253.44 109.02 253.308 108.564 253.308C108.156 253.308 107.82 253.428 107.556 253.668C107.292 253.908 107.16 254.22 107.16 254.604C107.16 255.132 107.436 255.6 107.988 256.008C108.54 256.392 109.416 256.872 110.616 257.448C111.984 258.096 113.112 258.708 114 259.284C114.912 259.86 115.692 260.628 116.34 261.588C116.988 262.524 117.312 263.676 117.312 265.044C117.312 266.604 116.892 268.008 116.052 269.256C115.236 270.504 114.048 271.488 112.488 272.208C110.928 272.904 109.08 273.252 106.944 273.252Z" fill="#5AB657"/>
<path d="M131.59 273.252C129.43 273.252 127.534 272.808 125.902 271.92C124.27 271.032 123.01 269.784 122.122 268.176C121.234 266.544 120.79 264.684 120.79 262.596C120.79 259.548 121.414 256.86 122.662 254.532C123.934 252.18 125.698 250.356 127.954 249.06C130.234 247.74 132.85 247.08 135.802 247.08C138.01 247.08 139.93 247.524 141.562 248.412C143.218 249.276 144.49 250.512 145.378 252.12C146.266 253.704 146.71 255.54 146.71 257.628C146.71 260.652 146.074 263.352 144.802 265.728C143.554 268.104 141.778 269.952 139.474 271.272C137.194 272.592 134.566 273.252 131.59 273.252ZM132.814 265.8C134.062 265.8 135.142 265.476 136.054 264.828C136.99 264.156 137.698 263.28 138.178 262.2C138.658 261.096 138.898 259.908 138.898 258.636C138.898 257.316 138.538 256.296 137.818 255.576C137.122 254.832 136.114 254.46 134.794 254.46C133.546 254.46 132.454 254.784 131.518 255.432C130.582 256.08 129.862 256.956 129.358 258.06C128.878 259.14 128.638 260.316 128.638 261.588C128.638 262.908 128.986 263.94 129.682 264.684C130.402 265.428 131.446 265.8 132.814 265.8Z" fill="#5AB657"/>
<path d="M159.781 247.512L157.261 261.876C157.189 262.26 157.153 262.656 157.153 263.064C157.153 263.88 157.369 264.528 157.801 265.008C158.233 265.464 158.917 265.692 159.853 265.692C161.005 265.692 161.917 265.356 162.589 264.684C163.261 263.988 163.705 263.052 163.921 261.876L166.441 247.512H174.397L171.877 261.876C171.445 264.372 170.581 266.472 169.285 268.176C168.013 269.88 166.441 271.152 164.569 271.992C162.721 272.832 160.681 273.252 158.449 273.252C155.593 273.252 153.313 272.508 151.609 271.02C149.905 269.508 149.053 267.36 149.053 264.576C149.053 263.688 149.137 262.788 149.305 261.876L151.825 247.512H159.781Z" fill="#5AB657"/>
<path d="M189.724 247.512C192.46 247.512 194.536 248.124 195.952 249.348C197.368 250.572 198.076 252.204 198.076 254.244C198.076 254.844 198.028 255.384 197.932 255.864C197.62 257.592 196.876 259.116 195.7 260.436C194.524 261.732 193 262.668 191.128 263.244L194.944 273H186.16L182.956 263.856L181.336 273H173.344L177.844 247.512H189.724ZM183.892 258.528H187.06C187.828 258.528 188.428 258.36 188.86 258.024C189.316 257.664 189.616 257.112 189.76 256.368C189.784 256.248 189.796 256.092 189.796 255.9C189.796 255.372 189.628 254.964 189.292 254.676C188.956 254.364 188.464 254.208 187.816 254.208H184.648L183.892 258.528Z" fill="#5AB657"/>
<path d="M199.009 260.22C199.441 257.7 200.341 255.456 201.709 253.488C203.077 251.52 204.805 249.996 206.893 248.916C208.981 247.812 211.309 247.26 213.877 247.26C216.085 247.26 217.981 247.68 219.565 248.52C221.173 249.336 222.397 250.5 223.237 252.012C224.077 253.524 224.485 255.288 224.461 257.304H216.037C215.797 256.464 215.365 255.816 214.741 255.36C214.117 254.88 213.349 254.64 212.437 254.64C211.093 254.64 209.941 255.144 208.981 256.152C208.021 257.16 207.397 258.516 207.109 260.22C207.013 260.7 206.965 261.216 206.965 261.768C206.965 263.016 207.265 264 207.865 264.72C208.489 265.44 209.365 265.8 210.493 265.8C211.405 265.8 212.257 265.572 213.049 265.116C213.841 264.636 214.501 263.976 215.029 263.136H223.453C222.733 265.152 221.689 266.916 220.321 268.428C218.953 269.94 217.321 271.116 215.425 271.956C213.553 272.772 211.513 273.18 209.305 273.18C207.073 273.18 205.165 272.772 203.581 271.956C201.997 271.116 200.797 269.94 199.981 268.428C199.165 266.892 198.757 265.116 198.757 263.1C198.757 262.116 198.841 261.156 199.009 260.22Z" fill="#5AB657"/>
<path d="M235.942 253.848L235.402 257.016H243.322L242.242 263.028H234.322L233.674 266.628H242.674L241.558 273H224.566L229.066 247.512H246.058L244.942 253.848H235.942Z" fill="#5AB657"/>
<g filter="url(#filter0_d)">
<path d="M150.982 188.726C171.505 182.185 189.022 168.539 200.385 150.239C211.747 131.939 216.21 110.187 212.971 88.8912C209.732 67.5957 199.003 48.1539 182.714 34.0602C166.424 19.9664 145.641 12.1451 124.101 12.002C102.562 11.8589 81.6769 19.4034 65.2014 33.2794C48.7258 47.1554 37.7398 66.453 34.218 87.7035C30.6962 108.954 34.8696 130.764 45.988 149.213C57.1064 167.662 74.4407 181.541 94.8752 188.354L115.61 126.165C109.978 124.287 105.2 120.461 102.135 115.376C99.0703 110.291 97.9199 104.279 98.8907 98.4215C99.8614 92.5641 102.89 87.2449 107.431 83.4202C111.972 79.5954 117.729 77.5159 123.666 77.5553C129.603 77.5948 135.332 79.7506 139.822 83.6354C144.312 87.5202 147.269 92.8791 148.162 98.7489C149.055 104.619 147.824 110.615 144.693 115.659C141.561 120.703 136.732 124.464 131.075 126.267L150.982 188.726Z" fill="#5AB657"/>
</g>
<defs>
<filter id="filter0_d" x="17" y="0" width="213" height="208.726" filterUnits="userSpaceOnUse" color-interpolation-filters="sRGB">
<feFlood flood-opacity="0" result="BackgroundImageFix"/>
<feColorMatrix in="SourceAlpha" type="matrix" values="0 0 0 0 0 0 0 0 0 0 0 0 0 0 0 0 0 0 127 0"/>
<feOffset dy="4"/>
<feGaussianBlur stdDeviation="8"/>
<feColorMatrix type="matrix" values="0 0 0 0 0.352941 0 0 0 0 0.713726 0 0 0 0 0.341176 0 0 0 0.58 0"/>
<feBlend mode="normal" in2="BackgroundImageFix" result="effect1_dropShadow"/>
<feBlend mode="normal" in="SourceGraphic" in2="effect1_dropShadow" result="shape"/>
</filter>
</defs>
</svg>
