<?xml version="1.0" encoding="utf-8"?>
<!-- Generator: Adobe Illustrator 24.1.3, SVG Export Plug-In . SVG Version: 6.00 Build 0)  -->
<svg version="1.1" id="Layer_1" xmlns:svgjs="http://svgjs.com/svgjs"
	 xmlns="http://www.w3.org/2000/svg" xmlns:xlink="http://www.w3.org/1999/xlink" x="0px" y="0px" viewBox="0 0 512 512"
	 style="enable-background:new 0 0 512 512;" xml:space="preserve">
<style type="text/css">
	.st0{fill:#FFB655;}
	.st1{fill:#006DF0;}
	.st2{fill:#F1F2F2;}
</style>
<g>
	<g id="Processor_security">
		<path class="st0" d="M184,152h144c17.7,0,32,14.3,32,32v144c0,17.7-14.3,32-32,32H184c-17.7,0-32-14.3-32-32V184
			C152,166.3,166.3,152,184,152z"/>
		<path class="st1" d="M224,232h64c8.8,0,16,7.2,16,16v64c0,8.8-7.2,16-16,16h-64c-8.8,0-16-7.2-16-16v-64
			C208,239.2,215.2,232,224,232z"/>
		<circle class="st2" cx="256.1" cy="271.9" r="16"/>
		<path d="M216,88h16v16h-16V88z"/>
		<path d="M424,280h16v16h-16V280z"/>
		<path d="M280,408h16v16h-16V408z"/>
		<path d="M216,432h16v16h-16V432z"/>
		<path d="M88,248h16v16H88V248z"/>
		<path d="M280,88h16v16h-16V88z"/>
		<path d="M408,216h16v16h-16V216z"/>
		<path d="M368,136h16v16h-16V136z"/>
		<path d="M128,136h16v16h-16V136z"/>
		<path d="M368,360h16v16h-16V360z"/>
		<path d="M128,360h16v16h-16V360z"/>
		<path d="M255.1,248c-13.2,0.4-23.6,11.5-23.2,24.7c0.3,9.9,6.7,18.6,16.1,21.9V312h16v-17.5c12.5-4.4,19.1-18,14.7-30.5
			C275.2,254,265.6,247.5,255.1,248L255.1,248z M264,271.7c0.2,4.4-3.3,8.1-7.7,8.3c0,0,0,0,0,0c-2.1,0.1-4.2-0.7-5.8-2.1
			c-3.2-3-3.4-8.1-0.5-11.3c1.4-1.6,3.4-2.5,5.6-2.6h0.3C260.3,264,263.8,267.4,264,271.7L264,271.7z"/>
		<path d="M296,225.5V216c0-22.1-17.9-40-40-40s-40,17.9-40,40v9.5c-9.6,3.4-16,12.4-16,22.5v64c0,13.3,10.7,24,24,24h64
			c13.3,0,24-10.7,24-24v-64C312,237.9,305.6,228.9,296,225.5z M232,216c0-13.3,10.7-24,24-24c13.3,0,24,10.7,24,24v8h-48V216z
			 M296,312c0,4.4-3.6,8-8,8h-64c-4.4,0-8-3.6-8-8v-64c0-4.4,3.6-8,8-8h64c4.4,0,8,3.6,8,8V312z"/>
		<path d="M472,328c-3.6,0-7.1,0.8-10.3,2.4L443.3,312H368v-16h40v-16h-40v-16h41.9l45.5-22.8c9.6,9.2,24.7,8.8,33.9-0.7
			s8.8-24.7-0.7-33.9s-24.7-8.8-33.9,0.7c-4.3,4.5-6.7,10.4-6.7,16.6c0,1,0.1,1.9,0.3,2.9L406.1,248H368v-16h24v-16h-24v-16h35.3
			l26.4-26.4c3.2,1.6,6.7,2.4,10.3,2.4c13.3,0,24-10.7,24-24s-10.7-24-24-24s-24,10.7-24,24c0,3.6,0.8,7.1,2.4,10.3L396.7,184H368
			c0-22.1-17.9-40-40-40v-20.7l45.7-45.7c3.2,1.6,6.7,2.4,10.3,2.4c13.3,0,24-10.7,24-24s-10.7-24-24-24s-24,10.7-24,24
			c0,3.6,0.8,7.1,2.4,10.3L312,116.7V144h-16v-24h-16v24h-16V86.5c12.5-4.4,19-18.1,14.6-30.6s-18.1-19-30.6-14.6
			c-12.5,4.4-19,18.1-14.6,30.6c2.4,6.8,7.8,12.2,14.6,14.6V144h-16v-24h-16v24h-16V84.7l-34.4-34.4c1.6-3.2,2.4-6.7,2.4-10.3
			c0-13.3-10.7-24-24-24s-24,10.7-24,24s10.7,24,24,24c3.6,0,7.1-0.8,10.3-2.4L184,91.3V144c-22.1,0-40,17.9-40,40h-28.7l-21.7-21.7
			c1.6-3.2,2.4-6.7,2.4-10.3c0-13.3-10.7-24-24-24s-24,10.7-24,24s10.7,24,24,24c3.6,0,7.1-0.8,10.3-2.4l26.4,26.4H144v16H93.1
			l-41.9,34.9C47.8,249,43.9,248,40,248c-13.3,0-24,10.7-24,24s10.7,24,24,24s24-10.7,24-24l0,0c0-3.2-0.6-6.4-1.9-9.3L98.9,232H144
			v16h-24v16h24v16H72v16h72v16H99.7l-32.2,48.4c-1.1-0.2-2.3-0.3-3.5-0.4c-13.4-0.1-24.3,10.6-24.4,24s10.6,24.3,24,24.4
			c13.4,0.1,24.3-10.6,24.4-24c0.1-6.1-2.2-12-6.3-16.5l26.6-39.9H144c0,22.1,17.9,40,40,40v52.7l-29.7,29.7
			c-3.2-1.6-6.7-2.4-10.3-2.4c-13.3,0-24,10.7-24,24s10.7,24,24,24s24-10.7,24-24c0-3.6-0.8-7.1-2.4-10.3l34.4-34.4V368h16v48h16
			v-48h16v68.4l48.6,30.4c-3.1,13.1,5.1,26.2,18.2,29.2c13.1,3.1,26.2-5.1,29.2-18.2c3.1-13.1-5.1-26.2-18.2-29.2
			c-7.2-1.7-14.9,0-20.7,4.7L264,427.6V368h16v24h16v-24h16v64h57.5c4.4,12.5,18.1,19,30.6,14.6c12.5-4.4,19-18.1,14.6-30.6
			c-4.4-12.5-18.1-19-30.6-14.6c-6.8,2.4-12.2,7.8-14.6,14.6H328v-48c22.1,0,40-17.9,40-40h68.7l13.7,13.7
			c-1.6,3.2-2.4,6.7-2.4,10.3c0,13.3,10.7,24,24,24s24-10.7,24-24S485.3,328,472,328L472,328z M472,216c4.4,0,8,3.6,8,8s-3.6,8-8,8
			s-8-3.6-8-8S467.6,216,472,216z M440,144c4.4,0,8,3.6,8,8s-3.6,8-8,8s-8-3.6-8-8S435.6,144,440,144z M384,48c4.4,0,8,3.6,8,8
			s-3.6,8-8,8s-8-3.6-8-8S379.6,48,384,48z M256,56c4.4,0,8,3.6,8,8s-3.6,8-8,8s-8-3.6-8-8S251.6,56,256,56z M136,40
			c0-4.4,3.6-8,8-8s8,3.6,8,8s-3.6,8-8,8S136,44.4,136,40z M64,152c0-4.4,3.6-8,8-8s8,3.6,8,8s-3.6,8-8,8S64,156.4,64,152z M40,280
			c-4.4,0-8-3.6-8-8s3.6-8,8-8s8,3.6,8,8S44.4,280,40,280z M64,392c-4.4,0-8-3.6-8-8s3.6-8,8-8s8,3.6,8,8S68.4,392,64,392z M144,480
			c-4.4,0-8-3.6-8-8s3.6-8,8-8s8,3.6,8,8S148.4,480,144,480z M320,464c4.4,0,8,3.6,8,8s-3.6,8-8,8s-8-3.6-8-8S315.6,464,320,464z
			 M392,416c4.4,0,8,3.6,8,8s-3.6,8-8,8s-8-3.6-8-8S387.6,416,392,416z M352,328c0,13.3-10.7,24-24,24H184c-13.3,0-24-10.7-24-24
			V184c0-13.3,10.7-24,24-24h144c13.3,0,24,10.7,24,24V328z M472,360c-4.4,0-8-3.6-8-8s3.6-8,8-8s8,3.6,8,8S476.4,360,472,360z"/>
	</g>
</g>
</svg>
