<?xml version="1.0" encoding="utf-8"?>
<!-- Generator: Adobe Illustrator 24.1.3, SVG Export Plug-In . SVG Version: 6.00 Build 0)  -->
<svg version="1.1" id="Capa_1" xmlns="http://www.w3.org/2000/svg" xmlns:xlink="http://www.w3.org/1999/xlink" x="0px" y="0px"
	 viewBox="0 0 504.1 504.1" style="enable-background:new 0 0 504.1 504.1;" xml:space="preserve">
<style type="text/css">
	.st0{fill:#FFB655;}
	.st1{fill:#FFFFFF;}
	.st2{fill:#E1E6E8;}
	.st3{fill:#2AA0DA;}
</style>
<circle class="st0" cx="252.8" cy="252.6" r="225.9"/>
<path d="M425.4,193h-48c-4.7,0-7.9-3.2-7.9-7.9s3.2-7.9,7.9-7.9h44.9l44.9-41c3.2-3.2,7.9-2.4,11,0.8s2.4,7.9-0.8,11l-47.3,43.3
	C429.3,192.2,427.7,193,425.4,193z"/>
<circle class="st1" cx="472.6" cy="142.6" r="23.6"/>
<g>
	<path d="M472.6,174.1c-17.3,0-31.5-14.2-31.5-31.5s14.2-31.5,31.5-31.5s31.5,14.2,31.5,31.5S489.9,174.1,472.6,174.1z M472.6,126.8
		c-8.7,0-15.8,7.1-15.8,15.8s7.1,15.8,15.8,15.8s15.8-7.1,15.8-15.8S481.3,126.8,472.6,126.8z"/>
	<path d="M467.1,367.9l-44.1-41h-44.9c-4.7,0-7.9-3.2-7.9-7.9s3.2-7.9,7.9-7.9h48c2.4,0,3.9,0.8,5.5,2.4l47.3,43.3
		c3.2,3.2,3.2,7.9,0.8,11C475.8,370.2,470.3,371,467.1,367.9z"/>
</g>
<circle class="st1" cx="472.6" cy="361.6" r="23.6"/>
<g>
	<path d="M472.6,393.1c-17.3,0-31.5-14.2-31.5-31.5s14.2-31.5,31.5-31.5s31.5,14.2,31.5,31.5C504.1,379.7,489.9,393.1,472.6,393.1z
		 M472.6,345.8c-8.7,0-15.8,7.1-15.8,15.8s7.1,15.8,15.8,15.8s15.8-7.1,15.8-15.8S481.3,345.8,472.6,345.8z"/>
	<path d="M472.6,259.9h-78c-4.7,0-7.9-3.2-7.9-7.9s3.2-7.9,7.9-7.9h78c4.7,0,7.9,3.2,7.9,7.9S477.3,259.9,472.6,259.9z"/>
</g>
<circle class="st1" cx="472.6" cy="252.1" r="23.6"/>
<g>
	<path d="M472.6,283.6c-17.3,0-31.5-14.2-31.5-31.5s14.2-31.5,31.5-31.5s31.5,14.2,31.5,31.5S489.9,283.6,472.6,283.6z M472.6,236.3
		c-8.7,0-15.8,7.1-15.8,15.8s7.1,15.8,15.8,15.8s15.8-7.1,15.8-15.8S481.3,236.3,472.6,236.3z"/>
	<path d="M126.8,193h-48c-2.4,0-3.9-0.8-5.5-2.4L26,147.3c-3.2-3.2-3.2-7.9-0.8-11c3.2-3.2,7.9-3.2,11-0.8l44.9,41H126
		c4.7,0,7.9,3.2,7.9,7.9C134.7,189.8,130.8,193,126.8,193z"/>
</g>
<circle class="st1" cx="31.5" cy="142.6" r="23.6"/>
<g>
	<path d="M31.5,174.1C14.2,174.1,0,159.9,0,142.6s14.2-31.5,31.5-31.5S63,125.2,63,142.6S48.8,174.1,31.5,174.1z M31.5,126.8
		c-8.7,0-15.8,7.1-15.8,15.8s7.1,15.8,15.8,15.8s15.8-7.1,15.8-15.8S40.2,126.8,31.5,126.8z"/>
	<path d="M26,367.1c-3.2-3.2-2.4-7.9,0.8-11L74,312.7c1.6-1.6,3.2-2.4,5.5-2.4h48c4.7,0,7.9,3.2,7.9,7.9s-3.2,7.9-7.9,7.9H82.7
		l-44.9,41C33.9,371,28.4,370.2,26,367.1z"/>
</g>
<circle class="st1" cx="31.5" cy="361.6" r="23.6"/>
<g>
	<path d="M31.5,393.1C14.2,393.1,0,378.9,0,361.6S14.2,330,31.5,330S63,344.2,63,361.6C63,379.7,48.8,393.1,31.5,393.1z M31.5,345.8
		c-8.7,0-15.8,7.1-15.8,15.8s7.1,15.8,15.8,15.8s15.8-7.1,15.8-15.8S40.2,345.8,31.5,345.8z"/>
	<path d="M109.5,259.9h-78c-4.7,0-7.9-3.2-7.9-7.9s3.2-7.9,7.9-7.9h78c4.7,0,7.9,3.2,7.9,7.9S114.2,259.9,109.5,259.9z"/>
</g>
<circle class="st2" cx="252.1" cy="252.1" r="142.6"/>
<g>
	<path class="st3" d="M254.4,122.1c0,0-40.2-10.2-43.3,26c0,0-7.9,14.2-18.1-1.6c0,0-22.1,0-11,46.5c0,0-41.7,58.3,11.8,56.7
		c0,0,20.5-17.3,31.5,30.7c0,0,4.7,25.2,15.8,37c0,0,15,1.6,22.1-22.8c0,0-0.8-7.1,10.2-18.1c0,0-11.8-18.9,8.7-29.1
		c0,0,10.2-3.2,9.5-20.5c0,0,14.2-5.5,11.8-18.9c0,0,25.2-7.1,26,32.3c0,0,2.4,9.5,10.2,12.6c0,0-12.6-26.8,5.5-29.9
		c0,0,10.2-7.1,17.3,26c0,0,14.2,3.9,7.9-15.8c0,0,15.8,11.8,13.4-34.7c-14.2-34.7-41-62.2-74.8-77.2
		C304,122.9,278.1,129.2,254.4,122.1z"/>
	<path class="st3" d="M174.1,322.2c0,0,50.4-19.7-5.5-24.4l-3.9-24.4h-18.9c0,0,3.2-33.1-13.4-15.8c0,0-15.8,8.7-20.5,16.5
		c7.1,46.5,36.2,85.1,77.2,105.6c0,0,53.6,13.4,63.8,10.2C252.1,389.1,178,351.3,174.1,322.2z"/>
	<path class="st3" d="M391.5,278.8l-11.8,2.4c-3.2,25.2-37,17.3-37,17.3c-33.9,10.2-22.8,29.1-22.8,29.1c18.1,0,24.4,20.5,24.4,20.5
		l4.7,7.9C371,335.6,386,308.8,391.5,278.8z"/>
</g>
<path d="M252.1,402.5c-82.7,0-150.4-67.7-150.4-150.4s67-150.4,150.4-150.4c82.7,0,150.4,67,150.4,150.4
	C402.5,334.8,334.8,402.5,252.1,402.5z M252.1,117.4c-74,0-134.7,60.7-134.7,134.7S178,386.8,252.1,386.8s134.7-60.7,134.7-134.7
	S326.1,117.4,252.1,117.4z"/>
<circle class="st1" cx="31.5" cy="252.1" r="23.6"/>
<g>
	<path d="M31.5,283.6C14.2,283.6,0,269.4,0,252.1s14.2-31.5,31.5-31.5S63,234.7,63,252.1S48.8,283.6,31.5,283.6z M31.5,236.3
		c-8.7,0-15.8,7.1-15.8,15.8s7.1,15.8,15.8,15.8s15.8-7.1,15.8-15.8S40.2,236.3,31.5,236.3z"/>
	<rect x="143.8" y="426.2" width="14.6" height="14.6"/>
	<rect x="184.1" y="426.2" width="14.6" height="14.6"/>
	<rect x="225" y="426.2" width="14.6" height="14.6"/>
	<rect x="266" y="426.2" width="14.6" height="14.6"/>
	<rect x="307" y="426.2" width="14.6" height="14.6"/>
	<rect x="347.2" y="426.2" width="14.6" height="14.6"/>
	<rect x="143.8" y="63.3" width="14.6" height="14.6"/>
	<rect x="184.1" y="63.3" width="14.6" height="14.6"/>
	<rect x="225" y="63.3" width="14.6" height="14.6"/>
	<rect x="266" y="63.3" width="14.6" height="14.6"/>
	<rect x="307" y="63.3" width="14.6" height="14.6"/>
	<rect x="347.2" y="63.3" width="14.6" height="14.6"/>
</g>
</svg>
