<svg width="199" height="30" viewBox="0 0 199 30" fill="none" xmlns="http://www.w3.org/2000/svg">
<path d="M48.3256 3.11554C48.9985 3.11554 49.5752 3.23109 50.0558 3.46217C50.5364 3.68684 50.9038 4.00458 51.1578 4.41541C51.4119 4.81981 51.5389 5.2884 51.5389 5.82118C51.5389 6.03301 51.5183 6.26089 51.4771 6.50481C51.3535 7.15314 51.0857 7.73728 50.6738 8.25722C50.2687 8.77717 49.7503 9.18799 49.1186 9.48968C48.4938 9.78496 47.8003 9.9326 47.0382 9.9326H44L45.2874 3.11554H48.3256ZM47.1927 8.02613C47.7076 8.02613 48.1402 7.89454 48.4904 7.63136C48.8474 7.36818 49.0705 6.99266 49.1598 6.50481C49.1804 6.37643 49.1907 6.25768 49.1907 6.14856C49.1907 5.76983 49.0637 5.48097 48.8096 5.28198C48.5625 5.08299 48.2157 4.98349 47.7694 4.98349H47.2236L46.6468 8.02613H47.1927Z" fill="#262626"/>
<path d="M55.2276 3.11554L53.9402 9.9326H51.6539L52.9412 3.11554H55.2276Z" fill="#262626"/>
<path d="M55.4157 6.51444C55.5393 5.84044 55.8002 5.24026 56.1985 4.71389C56.5967 4.18753 57.1013 3.77992 57.7124 3.49106C58.3235 3.19578 59.0032 3.04814 59.7516 3.04814C60.3902 3.04814 60.9326 3.14764 61.3789 3.34663C61.832 3.5392 62.1684 3.81522 62.3882 4.17469C62.6147 4.53416 62.7177 4.95782 62.6971 5.44567H60.2872C60.2254 5.31087 60.1189 5.20816 59.9679 5.13755C59.8168 5.06052 59.6246 5.02201 59.3911 5.02201C58.9517 5.02201 58.5844 5.15681 58.2892 5.42641C58.0008 5.69601 57.8154 6.05869 57.733 6.51444C57.6987 6.70702 57.6815 6.86428 57.6815 6.98625C57.6815 7.73086 58.145 8.10316 59.0719 8.10316C59.6006 8.10316 60.064 7.90417 60.4622 7.50619H58.6393L58.9174 5.9945H62.6353L62.2337 8.13205C61.8217 8.63916 61.3033 9.07565 60.6785 9.44154C60.0537 9.80101 59.3156 9.98074 58.4642 9.98074C57.8051 9.98074 57.2421 9.86841 56.7752 9.64374C56.3083 9.41907 55.9513 9.10454 55.7041 8.70014C55.4638 8.28932 55.3436 7.8111 55.3436 7.26547C55.3436 7.00871 55.3677 6.75837 55.4157 6.51444Z" fill="#262626"/>
<path d="M66.291 3.11554L65.0036 9.9326H62.7172L64.0046 3.11554H66.291Z" fill="#262626"/>
<path d="M73.0499 3.11554L72.7306 4.81018H70.7944L69.8263 9.9326H67.5399L68.508 4.81018H66.5924L66.9117 3.11554H73.0499Z" fill="#262626"/>
<path d="M77.2541 8.90234H74.8235L74.2673 9.9326H71.8677L75.8225 3.11554H78.459L79.8288 9.9326H77.4188L77.2541 8.90234ZM77.0069 7.29436L76.7082 5.39752L75.6886 7.29436H77.0069Z" fill="#262626"/>
<path d="M82.9436 8.31499H85.1476L84.8386 9.9326H80.3483L81.6356 3.11554H83.922L82.9436 8.31499Z" fill="#262626"/>
<path d="M88.1535 8.31499H90.3575L90.0485 9.9326H85.5581L86.8455 3.11554H89.1319L88.1535 8.31499Z" fill="#262626"/>
<path d="M99.0587 3.11554L95.5467 7.86245L95.1553 9.9326H92.869L93.2603 7.86245L91.5404 3.11554H94.1563L94.867 5.53232L96.4839 3.11554H99.0587Z" fill="#262626"/>
<path d="M103.172 10C102.279 10 101.565 9.8331 101.03 9.49931C100.501 9.16552 100.237 8.67767 100.237 8.03576C100.237 7.97157 100.244 7.87529 100.257 7.74691H102.688C102.667 7.9459 102.698 8.09354 102.781 8.18982C102.87 8.28611 103.014 8.33425 103.213 8.33425C103.337 8.33425 103.44 8.30536 103.522 8.24759C103.605 8.18982 103.646 8.10637 103.646 7.99725C103.646 7.84319 103.563 7.71481 103.399 7.6121C103.241 7.5094 102.983 7.38744 102.626 7.24622C102.235 7.09216 101.912 6.94452 101.658 6.8033C101.411 6.66208 101.195 6.46951 101.009 6.22558C100.824 5.98166 100.731 5.67675 100.731 5.31087C100.731 4.82944 100.858 4.41541 101.112 4.06878C101.373 3.71573 101.734 3.44934 102.194 3.2696C102.654 3.08987 103.179 3 103.769 3C104.298 3 104.768 3.07703 105.18 3.23109C105.599 3.38514 105.925 3.60981 106.159 3.90509C106.399 4.19395 106.519 4.53737 106.519 4.93535C106.519 4.9867 106.512 5.07657 106.499 5.20495H104.037C104.051 5.12792 104.058 5.07657 104.058 5.05089C104.058 4.92893 104.02 4.83586 103.944 4.77166C103.869 4.70105 103.766 4.66575 103.635 4.66575C103.519 4.66575 103.423 4.69784 103.347 4.76204C103.272 4.82623 103.234 4.90967 103.234 5.01238C103.234 5.1536 103.313 5.27877 103.471 5.3879C103.629 5.4906 103.879 5.61898 104.222 5.77304C104.614 5.94635 104.937 6.11004 105.191 6.2641C105.452 6.41816 105.675 6.62357 105.86 6.88033C106.045 7.13067 106.138 7.43879 106.138 7.80468C106.138 8.22192 106.018 8.59743 105.778 8.93122C105.544 9.26502 105.204 9.5282 104.758 9.72077C104.312 9.90692 103.783 10 103.172 10Z" fill="#262626"/>
<path d="M110.223 3.11554L108.935 9.9326H106.649L107.936 3.11554H110.223Z" fill="#262626"/>
<path d="M110.411 6.51444C110.534 5.84044 110.795 5.24026 111.194 4.71389C111.592 4.18753 112.096 3.77992 112.708 3.49106C113.319 3.19578 113.998 3.04814 114.747 3.04814C115.385 3.04814 115.928 3.14764 116.374 3.34663C116.827 3.5392 117.164 3.81522 117.383 4.17469C117.61 4.53416 117.713 4.95782 117.692 5.44567H115.282C115.22 5.31087 115.114 5.20816 114.963 5.13755C114.812 5.06052 114.62 5.02201 114.386 5.02201C113.947 5.02201 113.579 5.15681 113.284 5.42641C112.996 5.69601 112.811 6.05869 112.728 6.51444C112.694 6.70702 112.677 6.86428 112.677 6.98625C112.677 7.73086 113.14 8.10316 114.067 8.10316C114.596 8.10316 115.059 7.90417 115.457 7.50619H113.634L113.912 5.9945H117.63L117.229 8.13205C116.817 8.63916 116.298 9.07565 115.674 9.44154C115.049 9.80101 114.311 9.98074 113.459 9.98074C112.8 9.98074 112.237 9.86841 111.77 9.64374C111.303 9.41907 110.946 9.10454 110.699 8.70014C110.459 8.28932 110.339 7.8111 110.339 7.26547C110.339 7.00871 110.363 6.75837 110.411 6.51444Z" fill="#262626"/>
<path d="M124.705 9.9326H122.419L120.648 6.50481L119.999 9.9326H117.712L119 3.11554H121.286L123.047 6.6011L123.706 3.11554H125.993L124.705 9.9326Z" fill="#262626"/>
<path d="M128.993 4.81018L128.838 5.6575H131.104L130.795 7.26547H128.529L128.344 8.22834H130.919L130.599 9.9326H125.738L127.026 3.11554H131.887L131.568 4.81018H128.993Z" fill="#262626"/>
<path d="M135.787 3.11554C136.46 3.11554 137.036 3.23109 137.517 3.46217C137.998 3.68684 138.365 4.00458 138.619 4.41541C138.873 4.81981 139 5.2884 139 5.82118C139 6.03301 138.979 6.26089 138.938 6.50481C138.815 7.15314 138.547 7.73728 138.135 8.25722C137.73 8.77717 137.211 9.18799 136.58 9.48968C135.955 9.78496 135.261 9.9326 134.499 9.9326H131.461L132.748 3.11554H135.787ZM134.654 8.02613C135.169 8.02613 135.601 7.89454 135.951 7.63136C136.309 7.36818 136.532 6.99266 136.621 6.50481C136.642 6.37643 136.652 6.25768 136.652 6.14856C136.652 5.76983 136.525 5.48097 136.271 5.28198C136.024 5.08299 135.677 4.98349 135.231 4.98349H134.685L134.108 8.02613H134.654Z" fill="#262626"/>
<path d="M146.963 4.77762C146.885 5.19273 146.701 5.53754 146.411 5.81205C146.128 6.07987 145.781 6.27403 145.371 6.39455C145.718 6.44811 146.001 6.6088 146.22 6.87661C146.439 7.13773 146.549 7.44907 146.549 7.81062C146.549 7.91774 146.538 8.02152 146.517 8.12195C146.453 8.47681 146.298 8.79818 146.05 9.08608C145.81 9.36729 145.491 9.59158 145.095 9.75897C144.699 9.91966 144.254 10 143.759 10H141L142.316 3H144.968C145.633 3 146.135 3.13391 146.475 3.40172C146.821 3.66954 146.995 4.01769 146.995 4.4462C146.995 4.55332 146.984 4.6638 146.963 4.77762ZM145.965 4.88809C145.98 4.82783 145.987 4.74414 145.987 4.63702C145.987 4.34912 145.881 4.12482 145.668 3.96413C145.456 3.80344 145.148 3.7231 144.745 3.7231H143.143L142.708 6.04304H144.331C144.777 6.04304 145.145 5.94261 145.435 5.74175C145.725 5.53419 145.902 5.24964 145.965 4.88809ZM145.562 8.03156C145.583 7.93783 145.594 7.85079 145.594 7.77044C145.594 7.46246 145.474 7.21808 145.233 7.0373C144.993 6.85653 144.664 6.76614 144.247 6.76614H142.57L142.103 9.2769H143.812C144.286 9.2769 144.678 9.16643 144.989 8.94548C145.301 8.72453 145.491 8.4199 145.562 8.03156Z" fill="#717070"/>
<path d="M154 3L150.775 7.35868L150.276 10H149.31L149.809 7.35868L148.196 3H149.279L150.435 6.52511L152.907 3H154Z" fill="#717070"/>
<path d="M92.2331 12.1388L92.0388 13.2342H89.1994L87.5555 22.892H86.1956L87.8395 13.2342H85L85.1943 12.1388H92.2331Z" fill="#717070"/>
<path d="M93.7427 13.2342L93.1151 16.9215H96.896L96.7167 18.0014H92.9358L92.2782 21.7812H96.5224L96.3281 22.892H90.724L92.5771 12.1234H98.1663L97.972 13.2342H93.7427Z" fill="#717070"/>
<path d="M97.4594 17.5077C97.6387 16.4586 98.0273 15.5175 98.625 14.6844C99.2328 13.841 99.97 13.1828 100.837 12.7097C101.714 12.2366 102.63 12 103.587 12C104.722 12 105.664 12.2828 106.411 12.8485C107.168 13.4142 107.656 14.2165 107.876 15.2553H106.247C106.067 14.6279 105.734 14.1445 105.245 13.805C104.757 13.4554 104.135 13.2805 103.377 13.2805C102.65 13.2805 101.968 13.4554 101.33 13.805C100.702 14.1445 100.169 14.6381 99.7309 15.2861C99.2926 15.9238 98.9986 16.6643 98.8492 17.5077C98.7994 17.7751 98.7745 18.0837 98.7745 18.4334C98.7745 19.4413 99.0584 20.2436 99.6263 20.8401C100.204 21.4264 100.971 21.7195 101.928 21.7195C102.685 21.7195 103.367 21.5498 103.975 21.2104C104.583 20.871 105.081 20.3876 105.47 19.7602H107.099C106.531 20.7887 105.773 21.5858 104.827 22.1515C103.89 22.7069 102.854 22.9846 101.719 22.9846C100.872 22.9846 100.119 22.8046 99.4619 22.4446C98.8044 22.0743 98.2913 21.5601 97.9226 20.9018C97.554 20.2333 97.3697 19.467 97.3697 18.6031C97.3697 18.2431 97.3996 17.878 97.4594 17.5077Z" fill="#717070"/>
<path d="M117.103 12.1388L115.265 22.892H113.905L114.742 17.986H109.452L108.6 22.892H107.24L109.093 12.1388H110.453L109.631 16.8906H114.936L115.743 12.1388H117.103Z" fill="#717070"/>
<path d="M124.417 22.892H123.057L119.067 14.3296L117.588 22.892H116.228L118.081 12.1234H119.441L123.446 20.6704L124.91 12.1234H126.27L124.417 22.892Z" fill="#717070"/>
<path d="M130.143 23C129.276 23 128.514 22.8149 127.856 22.4446C127.199 22.0641 126.686 21.5344 126.317 20.8555C125.958 20.1767 125.779 19.4002 125.779 18.5259C125.779 17.3123 126.043 16.2118 126.571 15.2244C127.109 14.2267 127.846 13.4451 128.783 12.8794C129.719 12.3034 130.765 12.0154 131.921 12.0154C132.798 12.0154 133.565 12.2057 134.223 12.5863C134.89 12.9565 135.403 13.4811 135.762 14.1599C136.121 14.8284 136.3 15.5998 136.3 16.4741C136.3 17.698 136.031 18.8088 135.493 19.8065C134.965 20.7938 134.233 21.5755 133.296 22.1515C132.36 22.7172 131.308 23 130.143 23ZM130.337 21.7349C131.214 21.7349 131.996 21.5035 132.683 21.0407C133.381 20.5676 133.924 19.935 134.312 19.1431C134.701 18.3511 134.895 17.4923 134.895 16.5666C134.895 15.5484 134.611 14.7461 134.043 14.1599C133.475 13.5736 132.703 13.2805 131.727 13.2805C130.85 13.2805 130.063 13.5171 129.366 13.9902C128.678 14.453 128.14 15.0804 127.752 15.8724C127.373 16.654 127.184 17.5077 127.184 18.4334C127.184 19.4516 127.463 20.259 128.021 20.8555C128.589 21.4418 129.361 21.7349 130.337 21.7349Z" fill="#717070"/>
<path d="M137.348 21.8121H140.994L140.8 22.892H135.794L137.647 12.1388H139.007L137.348 21.8121Z" fill="#717070"/>
<path d="M145.652 23C144.785 23 144.023 22.8149 143.365 22.4446C142.708 22.0641 142.195 21.5344 141.826 20.8555C141.467 20.1767 141.288 19.4002 141.288 18.5259C141.288 17.3123 141.552 16.2118 142.08 15.2244C142.618 14.2267 143.355 13.4451 144.292 12.8794C145.228 12.3034 146.274 12.0154 147.43 12.0154C148.307 12.0154 149.074 12.2057 149.732 12.5863C150.399 12.9565 150.912 13.4811 151.271 14.1599C151.63 14.8284 151.809 15.5998 151.809 16.4741C151.809 17.698 151.54 18.8088 151.002 19.8065C150.474 20.7938 149.742 21.5755 148.805 22.1515C147.869 22.7172 146.817 23 145.652 23ZM145.846 21.7349C146.723 21.7349 147.505 21.5035 148.192 21.0407C148.89 20.5676 149.433 19.935 149.821 19.1431C150.21 18.3511 150.404 17.4923 150.404 16.5666C150.404 15.5484 150.12 14.7461 149.552 14.1599C148.984 13.5736 148.212 13.2805 147.236 13.2805C146.359 13.2805 145.572 13.5171 144.875 13.9902C144.187 14.453 143.649 15.0804 143.261 15.8724C142.882 16.654 142.693 17.5077 142.693 18.4334C142.693 19.4516 142.972 20.259 143.53 20.8555C144.098 21.4418 144.87 21.7349 145.846 21.7349Z" fill="#717070"/>
<path d="M151.721 17.5077C151.901 16.4586 152.289 15.5175 152.887 14.6844C153.495 13.841 154.237 13.1879 155.114 12.7251C155.99 12.252 156.912 12.0154 157.878 12.0154C158.994 12.0154 159.926 12.2983 160.673 12.864C161.43 13.4296 161.918 14.2267 162.137 15.2553H160.509C160.329 14.6279 159.99 14.1445 159.492 13.805C159.004 13.4554 158.396 13.2805 157.669 13.2805C156.942 13.2805 156.254 13.4554 155.607 13.805C154.969 14.1445 154.431 14.6381 153.993 15.2861C153.554 15.9238 153.26 16.6643 153.111 17.5077C153.061 17.7751 153.036 18.0837 153.036 18.4334C153.036 19.4413 153.325 20.2436 153.903 20.8401C154.481 21.4264 155.253 21.7195 156.219 21.7195C157.246 21.7195 158.142 21.4058 158.909 20.7784C159.677 20.1407 160.205 19.2819 160.494 18.202H156.339L156.533 17.0912H162.137L161.943 18.1711C161.714 19.0556 161.306 19.8682 160.718 20.6087C160.14 21.3389 159.438 21.9201 158.611 22.352C157.794 22.7737 156.927 22.9846 156.01 22.9846C155.153 22.9846 154.391 22.8046 153.724 22.4446C153.066 22.0743 152.553 21.5549 152.184 20.8864C151.816 20.2179 151.632 19.4516 151.632 18.5877C151.632 18.238 151.661 17.878 151.721 17.5077Z" fill="#717070"/>
<path d="M164.802 12.1388L162.949 22.892H161.589L163.442 12.1388H164.802Z" fill="#717070"/>
<path d="M166.941 13.2342L166.313 16.9215H170.094L169.915 18.0014H166.134L165.476 21.7812H169.721L169.526 22.892H163.922L165.775 12.1234H171.364L171.17 13.2342H166.941Z" fill="#717070"/>
<path d="M173.796 23C172.829 23 172.042 22.7634 171.435 22.2903C170.837 21.8069 170.538 21.1641 170.538 20.3619C170.538 20.2076 170.543 20.0944 170.553 20.0224H171.898C171.868 20.5264 172.017 20.9584 172.346 21.3184C172.675 21.6784 173.178 21.8583 173.856 21.8583C174.533 21.8583 175.071 21.6989 175.47 21.3801C175.868 21.0612 176.067 20.6138 176.067 20.0379C176.067 19.6882 175.968 19.395 175.768 19.1585C175.579 18.9116 175.34 18.7111 175.051 18.5568C174.772 18.3922 174.389 18.2122 173.9 18.0168C173.303 17.77 172.819 17.5386 172.451 17.3226C172.092 17.1066 171.788 16.8135 171.539 16.4432C171.29 16.0729 171.176 15.605 171.195 15.0393C171.195 14.4427 171.35 13.913 171.659 13.4502C171.968 12.9874 172.391 12.6325 172.929 12.3857C173.477 12.1286 174.1 12 174.797 12C175.475 12 176.057 12.1183 176.546 12.3548C177.044 12.5914 177.417 12.9205 177.666 13.3422C177.915 13.7639 178.025 14.237 177.995 14.7616H176.575C176.595 14.4942 176.536 14.237 176.396 13.9902C176.267 13.7433 176.057 13.5428 175.768 13.3885C175.49 13.2342 175.141 13.1571 174.722 13.1571C174.075 13.1571 173.552 13.3165 173.153 13.6353C172.765 13.9439 172.57 14.3707 172.57 14.9158C172.57 15.2347 172.66 15.5124 172.839 15.7489C173.029 15.9752 173.263 16.1706 173.542 16.3352C173.821 16.4895 174.204 16.6746 174.692 16.8906C175.28 17.1477 175.759 17.3894 176.127 17.6157C176.506 17.8317 176.825 18.1248 177.084 18.4951C177.343 18.8654 177.472 19.3282 177.472 19.8836C177.472 20.4801 177.323 21.015 177.024 21.4881C176.725 21.9509 176.296 22.3212 175.739 22.5989C175.181 22.8663 174.533 23 173.796 23Z" fill="#717070"/>
<path d="M45.7692 21.3376H42.2634L41.4612 23H38L43.7043 12H47.5072L49.4829 23H46.0069L45.7692 21.3376ZM45.4127 18.7429L44.9819 15.6822L43.5112 18.7429H45.4127Z" fill="#262626"/>
<path d="M52.6387 20.3898H55.8177L55.372 23H48.8952L50.7521 12H54.0499L52.6387 20.3898Z" fill="#262626"/>
<path d="M64.892 15.7754C64.7732 16.4694 64.5157 17.1012 64.1196 17.6709C63.7234 18.2302 63.1936 18.6756 62.5301 19.0071C61.8764 19.3385 61.1238 19.5042 60.2721 19.5042H58.9649L58.3707 23H55.0728L56.9297 12H61.5348C62.6539 12 63.5055 12.2641 64.0898 12.7924C64.6741 13.3206 64.9663 14.0457 64.9663 14.9675C64.9663 15.1954 64.9415 15.4647 64.892 15.7754ZM60.3612 16.7853C61.0347 16.7853 61.4308 16.4487 61.5496 15.7754C61.5694 15.6511 61.5793 15.5631 61.5793 15.5113C61.5793 15.0141 61.2872 14.7655 60.7029 14.7655H59.767L59.4254 16.7853H60.3612Z" fill="#262626"/>
<path d="M74.9699 12L73.113 23H69.8152L70.5431 18.7119H67.4087L66.6808 23H63.383L65.2398 12H68.5376L67.8692 15.9619H71.0036L71.6721 12H74.9699Z" fill="#262626"/>
<path d="M80.2862 21.3376H76.7805L75.9783 23H72.5171L78.2214 12H82.0243L84 23H80.5239L80.2862 21.3376ZM79.9297 18.7429L79.4989 15.6822L78.0283 18.7429H79.9297Z" fill="#262626"/>
<path d="M43.2366 0H20.042L20.9428 5.40458H27.0229L22.9695 29.5L30.8512 21.8435L33.7786 5.40458H40.3092L43.2366 0Z" fill="#262626"/>
<path d="M23.645 21.6183H16.4389L15.9886 14.4122C18.3305 13.3313 21.1679 12.7608 22.2939 12.6107L23.645 21.6183Z" fill="#262626"/>
<path fill-rule="evenodd" clip-rule="evenodd" d="M7.4313 21.6183H0L12.1603 0H19.5916L21.3931 10.584C24.9962 10.0585 34.0038 9.77328 41.2099 12.8359C32.2023 10.9593 12.8359 10.0885 7.4313 21.6183ZM11.2595 12.8359C12.0102 12.5356 13.9168 11.8901 15.5382 11.7099L15.0878 5.85496L11.2595 12.8359Z" fill="#262626"/>
<path d="M197.75 10.8477V9.25C197.75 5.80397 194.946 3 191.5 3C188.054 3 185.25 5.80397 185.25 9.25V10.8477C184.506 11.2813 184 12.0786 184 13V20.5C184 21.8788 185.121 23 186.5 23H196.5C197.879 23 199 21.8788 199 20.5V13C199 12.0786 198.494 11.2813 197.75 10.8477V10.8477ZM191.5 5.49999C193.568 5.49999 195.25 7.18209 195.25 9.25V10.5H187.75V9.25C187.75 7.18213 189.432 5.49999 191.5 5.49999ZM192.75 17.5134V19.25H190.25V17.5134C189.869 17.1702 189.625 16.6782 189.625 16.125C189.625 15.0895 190.464 14.25 191.5 14.25C192.536 14.25 193.375 15.0895 193.375 16.125C193.375 16.6782 193.131 17.1702 192.75 17.5134V17.5134Z" fill="#707171"/>
</svg>
