<svg width="343" height="76" viewBox="0 0 343 76" fill="none" xmlns="http://www.w3.org/2000/svg">
<path d="M72.79 36.4C72.79 56.5 56.5 72.8 36.4 72.8C16.29 72.8 0 56.5 0 36.4C0 16.3 16.3 0 36.4 0C56.5 0 72.79 16.29 72.79 36.4Z" fill="#0069B5"/>
<path d="M72.64 36.4C72.64 56.42 56.41 72.65 36.4 72.65C16.38 72.65 0.150024 56.42 0.150024 36.4C0.150024 16.38 16.38 0.150029 36.4 0.150029C56.41 0.140029 72.64 16.37 72.64 36.4Z" fill="#005EAF"/>
<path d="M72.4901 36.4C72.4901 56.33 56.33 72.5 36.4 72.5C16.46 72.5 0.300049 56.33 0.300049 36.4C0.300049 16.46 16.46 0.299992 36.4 0.299992C56.33 0.289992 72.4901 16.46 72.4901 36.4Z" fill="#005FAF"/>
<path d="M72.34 36.4C72.34 56.25 56.25 72.35 36.4 72.35C16.54 72.35 0.449951 56.25 0.449951 36.4C0.449951 16.54 16.55 0.450017 36.4 0.450017C56.25 0.440017 72.34 16.54 72.34 36.4Z" fill="#0060B0"/>
<path d="M72.19 36.4C72.19 56.17 56.17 72.2 36.4 72.2C16.62 72.2 0.599976 56.17 0.599976 36.4C0.599976 16.63 16.63 0.59998 36.4 0.59998C56.17 0.58998 72.19 16.62 72.19 36.4Z" fill="#0060B0"/>
<path d="M72.04 36.4C72.04 56.09 56.08 72.05 36.4 72.05C16.71 72.05 0.75 56.08 0.75 36.4C0.75 16.71 16.71 0.750005 36.4 0.750005C56.08 0.740005 72.04 16.71 72.04 36.4Z" fill="#0061B0"/>
<path d="M71.89 36.4C71.89 56 56 71.9 36.4 71.9C16.79 71.9 0.890015 56 0.890015 36.4C0.890015 16.79 16.79 0.900029 36.4 0.900029C56 0.890029 71.89 16.79 71.89 36.4Z" fill="#0061B1"/>
<path d="M71.74 36.4C71.74 55.92 55.92 71.75 36.4 71.75C16.87 71.75 1.04004 55.92 1.04004 36.4C1.04004 16.87 16.87 1.04999 36.4 1.04999C55.92 1.03999 71.74 16.87 71.74 36.4Z" fill="#0062B1"/>
<path d="M71.5899 36.4C71.5899 55.84 55.8299 71.6 36.3999 71.6C16.9599 71.6 1.18994 55.84 1.18994 36.4C1.18994 16.96 16.9499 1.19 36.3999 1.19C55.8299 1.19 71.5899 16.95 71.5899 36.4Z" fill="#0062B2"/>
<path d="M71.44 36.4C71.44 55.76 55.75 71.45 36.4 71.45C17.04 71.45 1.33997 55.75 1.33997 36.4C1.33997 17.04 17.03 1.34998 36.4 1.34998C55.75 1.33998 71.44 17.04 71.44 36.4Z" fill="#0063B2"/>
<path d="M71.29 36.4C71.29 55.67 55.67 71.3 36.4 71.3C17.12 71.3 1.48999 55.67 1.48999 36.4C1.48999 17.12 17.12 1.48999 36.4 1.48999C55.67 1.48999 71.29 17.12 71.29 36.4Z" fill="#0064B2"/>
<path d="M71.14 36.4C71.14 55.59 55.58 71.15 36.39 71.15C17.19 71.15 1.63 55.59 1.63 36.4C1.63 17.2 17.19 1.64001 36.39 1.64001C55.59 1.64001 71.14 17.2 71.14 36.4Z" fill="#0064B3"/>
<path d="M70.99 36.4C70.99 55.51 55.5 71 36.39 71C17.27 71 1.78003 55.5 1.78003 36.4C1.78003 17.29 17.27 1.78998 36.39 1.78998C55.5 1.78998 70.99 17.28 70.99 36.4Z" fill="#0065B3"/>
<path d="M70.84 36.4C70.84 55.42 55.4201 70.85 36.3901 70.85C17.3601 70.85 1.93005 55.42 1.93005 36.4C1.93005 17.37 17.3601 1.94 36.3901 1.94C55.4201 1.94 70.84 17.37 70.84 36.4Z" fill="#0065B4"/>
<path d="M70.69 36.39C70.69 55.33 55.33 70.69 36.39 70.69C17.44 70.69 2.07996 55.33 2.07996 36.39C2.07996 17.44 17.44 2.08002 36.39 2.08002C55.34 2.09002 70.69 17.45 70.69 36.39Z" fill="#0066B4"/>
<path d="M70.54 36.4C70.54 55.26 55.25 70.56 36.39 70.56C17.52 70.56 2.22998 55.26 2.22998 36.4C2.22998 17.53 17.52 2.23999 36.39 2.23999C55.26 2.23999 70.54 17.53 70.54 36.4Z" fill="#0067B5"/>
<path d="M70.4 36.4C70.4 55.18 55.18 70.4 36.4 70.4C17.61 70.4 2.39001 55.17 2.39001 36.4C2.39001 17.62 17.62 2.39001 36.4 2.39001C55.17 2.39001 70.4 17.61 70.4 36.4Z" fill="#0067B5"/>
<path d="M70.25 36.4C70.25 55.09 55.09 70.26 36.4 70.26C17.7 70.26 2.54004 55.1 2.54004 36.4C2.54004 17.7 17.7 2.53998 36.4 2.53998C55.09 2.53998 70.25 17.7 70.25 36.4Z" fill="#0068B6"/>
<path d="M70.0999 36.4C70.0999 55.01 55.0099 70.11 36.3999 70.11C17.7799 70.11 2.68994 55.02 2.68994 36.4C2.68994 17.78 17.7799 2.69 36.3999 2.69C55.0099 2.69 70.0999 17.78 70.0999 36.4Z" fill="#0068B6"/>
<path d="M69.95 36.39C69.95 54.92 54.93 69.95 36.4 69.95C17.86 69.95 2.83997 54.92 2.83997 36.39C2.83997 17.86 17.86 2.83002 36.4 2.83002C54.93 2.83002 69.95 17.86 69.95 36.39Z" fill="#0069B6"/>
<path d="M69.8 36.4C69.8 54.85 54.85 69.81 36.4 69.81C17.95 69.81 2.98999 54.85 2.98999 36.4C2.98999 17.95 17.95 2.99 36.4 2.99C54.84 2.98 69.8 17.94 69.8 36.4Z" fill="#0069B7"/>
<path d="M69.65 36.4C69.65 54.76 54.76 69.66 36.4 69.66C18.03 69.66 3.14001 54.77 3.14001 36.4C3.14001 18.03 18.03 3.14002 36.4 3.14002C54.76 3.13002 69.65 18.03 69.65 36.4Z" fill="#006AB7"/>
<path d="M69.5 36.4C69.5 54.68 54.68 69.51 36.4 69.51C18.11 69.51 3.29004 54.68 3.29004 36.4C3.29004 18.11 18.11 3.28998 36.4 3.28998C54.68 3.27998 69.5 18.11 69.5 36.4Z" fill="#006BB8"/>
<path d="M69.3499 36.4C69.3499 54.59 54.5999 69.35 36.3999 69.35C18.1899 69.35 3.43994 54.59 3.43994 36.39C3.43994 18.19 18.1999 3.42999 36.3999 3.42999C54.5999 3.42999 69.3499 18.19 69.3499 36.4Z" fill="#006BB8"/>
<path d="M69.2 36.4C69.2 54.52 54.51 69.21 36.4 69.21C18.28 69.21 3.58997 54.52 3.58997 36.4C3.58997 18.28 18.28 3.58997 36.4 3.58997C54.51 3.57997 69.2 18.27 69.2 36.4Z" fill="#006CB9"/>
<path d="M69.05 36.4C69.05 54.43 54.43 69.06 36.4 69.06C18.36 69.06 3.73999 54.43 3.73999 36.4C3.73999 18.36 18.36 3.74 36.4 3.74C54.43 3.73 69.05 18.36 69.05 36.4Z" fill="#006CB9"/>
<path d="M68.9 36.4C68.9 54.35 54.35 68.91 36.4 68.91C18.44 68.91 3.89001 54.35 3.89001 36.4C3.89001 18.44 18.45 3.89002 36.4 3.89002C54.35 3.88002 68.9 18.44 68.9 36.4Z" fill="#006DBA"/>
<path d="M68.75 36.39C68.75 54.26 54.26 68.75 36.4 68.75C18.52 68.75 4.03003 54.26 4.03003 36.39C4.03003 18.52 18.52 4.03003 36.4 4.03003C54.27 4.03003 68.75 18.52 68.75 36.39Z" fill="#006EBA"/>
<path d="M68.6001 36.4C68.6001 54.19 54.1801 68.61 36.4001 68.61C18.6101 68.61 4.18005 54.19 4.18005 36.4C4.18005 18.61 18.6001 4.19001 36.4001 4.19001C54.1801 4.18001 68.6001 18.6 68.6001 36.4Z" fill="#006EBB"/>
<path d="M68.45 36.4C68.45 54.1 54.1 68.46 36.4 68.46C18.69 68.46 4.32996 54.1 4.32996 36.4C4.32996 18.69 18.69 4.33002 36.4 4.33002C54.1 4.33002 68.45 18.69 68.45 36.4Z" fill="#006FBB"/>
<path d="M68.3 36.4C68.3 54.02 54.01 68.31 36.39 68.31C18.76 68.31 4.46997 54.02 4.46997 36.4C4.46997 18.77 18.76 4.47998 36.39 4.47998C54.02 4.47998 68.3 18.77 68.3 36.4Z" fill="#006FBB"/>
<path d="M68.15 36.4C68.15 53.94 53.93 68.16 36.39 68.16C18.84 68.16 4.62 53.93 4.62 36.4C4.62 18.86 18.84 4.63 36.39 4.63C53.93 4.63 68.15 18.85 68.15 36.4Z" fill="#0070BC"/>
<path d="M68 36.4C68 53.86 53.85 68.01 36.39 68.01C18.93 68.01 4.77002 53.85 4.77002 36.4C4.77002 18.94 18.92 4.78003 36.39 4.78003C53.85 4.78003 68 18.93 68 36.4Z" fill="#0070BC"/>
<path d="M67.85 36.4C67.85 53.77 53.76 67.86 36.39 67.86C19.01 67.86 4.92004 53.77 4.92004 36.4C4.92004 19.02 19.01 4.92999 36.39 4.92999C53.77 4.92999 67.85 19.02 67.85 36.4Z" fill="#0071BD"/>
<path d="M67.6999 36.4C67.6999 53.69 53.6799 67.72 36.3899 67.72C19.0899 67.72 5.06995 53.7 5.06995 36.4C5.06995 19.1 19.0899 5.08002 36.3899 5.08002C53.6899 5.08002 67.6999 19.1 67.6999 36.4Z" fill="#0072BD"/>
<path d="M67.56 36.4C67.56 53.61 53.61 67.57 36.4 67.57C19.18 67.57 5.22998 53.61 5.22998 36.4C5.22998 19.19 19.18 5.22998 36.4 5.22998C53.61 5.22998 67.56 19.18 67.56 36.4Z" fill="#0072BE"/>
<path d="M67.41 36.4C67.41 53.53 53.52 67.42 36.4 67.42C19.27 67.42 5.38 53.53 5.38 36.4C5.38 19.27 19.27 5.38 36.4 5.38C53.52 5.38 67.41 19.26 67.41 36.4Z" fill="#0073BE"/>
<path d="M67.26 36.4C67.26 53.44 53.44 67.27 36.4 67.27C19.35 67.27 5.53003 53.45 5.53003 36.4C5.53003 19.35 19.35 5.53003 36.4 5.53003C53.44 5.53003 67.26 19.35 67.26 36.4Z" fill="#0073BE"/>
<path d="M67.1101 36.4C67.1101 53.36 53.3601 67.12 36.4001 67.12C19.4301 67.12 5.68005 53.36 5.68005 36.4C5.68005 19.43 19.4401 5.67999 36.4001 5.67999C53.3601 5.67999 67.1101 19.43 67.1101 36.4Z" fill="#0074BF"/>
<path d="M66.96 36.4C66.96 53.28 53.28 66.97 36.4 66.97C19.51 66.97 5.82996 53.28 5.82996 36.4C5.82996 19.52 19.52 5.83002 36.4 5.83002C53.27 5.83002 66.96 19.51 66.96 36.4Z" fill="#0075BF"/>
<path d="M66.81 36.4C66.81 53.2 53.19 66.82 36.4 66.82C19.6 66.82 5.97998 53.2 5.97998 36.4C5.97998 19.6 19.6 5.97999 36.4 5.97999C53.19 5.96999 66.81 19.59 66.81 36.4Z" fill="#0075C0"/>
<path d="M66.66 36.4C66.66 53.11 53.11 66.67 36.4 66.67C19.68 66.67 6.13 53.12 6.13 36.4C6.13 19.68 19.68 6.13001 36.4 6.13001C53.11 6.12001 66.66 19.68 66.66 36.4Z" fill="#0076C0"/>
<path d="M66.51 36.4C66.51 53.03 53.03 66.52 36.4 66.52C19.76 66.52 6.27002 53.03 6.27002 36.4C6.27002 19.76 19.76 6.27997 36.4 6.27997C53.03 6.26997 66.51 19.76 66.51 36.4Z" fill="#0076C1"/>
<path d="M66.36 36.4C66.36 52.95 52.94 66.37 36.4 66.37C19.85 66.37 6.42004 52.95 6.42004 36.4C6.42004 19.85 19.84 6.43 36.4 6.43C52.94 6.42 66.36 19.84 66.36 36.4Z" fill="#0077C1"/>
<path d="M66.21 36.4C66.21 52.87 52.86 66.22 36.4 66.22C19.93 66.22 6.57996 52.87 6.57996 36.4C6.57996 19.93 19.93 6.58002 36.4 6.58002C52.86 6.57002 66.21 19.93 66.21 36.4Z" fill="#0078C2"/>
<path d="M66.06 36.4C66.06 52.78 52.78 66.07 36.4 66.07C20.01 66.07 6.71997 52.78 6.71997 36.4C6.71997 20.01 20.01 6.72999 36.4 6.72999C52.78 6.71999 66.06 20.01 66.06 36.4Z" fill="#0078C2"/>
<path d="M65.91 36.4C65.91 52.7 52.69 65.92 36.4 65.92C20.09 65.92 6.87 52.7 6.87 36.4C6.87 20.1 20.09 6.88001 36.4 6.88001C52.7 6.87001 65.91 20.09 65.91 36.4Z" fill="#0079C3"/>
<path d="M65.76 36.4C65.76 52.62 52.61 65.77 36.4 65.77C20.17 65.77 7.02002 52.62 7.02002 36.4C7.02002 20.18 20.17 7.02997 36.4 7.02997C52.61 7.01997 65.76 20.17 65.76 36.4Z" fill="#007AC3"/>
<path d="M65.61 36.4C65.61 52.54 52.53 65.62 36.4 65.62C20.26 65.62 7.17004 52.53 7.17004 36.4C7.17004 20.26 20.25 7.18 36.4 7.18C52.53 7.17 65.61 20.26 65.61 36.4Z" fill="#007AC3"/>
<path d="M65.4601 36.4C65.4601 52.45 52.4501 65.47 36.3901 65.47C20.3301 65.47 7.31006 52.45 7.31006 36.4C7.31006 20.34 20.3301 7.33002 36.3901 7.33002C52.4501 7.32002 65.4601 20.34 65.4601 36.4Z" fill="#007BC4"/>
<path d="M65.31 36.4C65.31 52.37 52.36 65.32 36.39 65.32C20.41 65.32 7.45996 52.37 7.45996 36.4C7.45996 20.43 20.41 7.46997 36.39 7.46997C52.37 7.46997 65.31 20.42 65.31 36.4Z" fill="#007BC4"/>
<path d="M65.16 36.4C65.16 52.29 52.28 65.17 36.39 65.17C20.49 65.17 7.60999 52.28 7.60999 36.4C7.60999 20.51 20.49 7.62 36.39 7.62C52.28 7.62 65.16 20.5 65.16 36.4Z" fill="#007CC5"/>
<path d="M65.01 36.4C65.01 52.21 52.2 65.02 36.39 65.02C20.58 65.02 7.76001 52.2 7.76001 36.4C7.76001 20.59 20.58 7.77002 36.39 7.77002C52.2 7.77002 65.01 20.59 65.01 36.4Z" fill="#007DC5"/>
<path d="M64.87 36.4C64.87 52.12 52.12 64.88 36.4 64.88C20.67 64.88 7.92004 52.13 7.92004 36.4C7.92004 20.67 20.67 7.91998 36.4 7.91998C52.12 7.91998 64.87 20.67 64.87 36.4Z" fill="#007DC6"/>
<path d="M64.7199 36.4C64.7199 52.04 52.0399 64.73 36.3999 64.73C20.7499 64.73 8.06995 52.04 8.06995 36.4C8.06995 20.76 20.7499 8.07001 36.3999 8.07001C52.0399 8.07001 64.7199 20.75 64.7199 36.4Z" fill="#007EC6"/>
<path d="M64.57 36.4C64.57 51.96 51.96 64.58 36.4 64.58C20.83 64.58 8.21997 51.96 8.21997 36.4C8.21997 20.84 20.84 8.21997 36.4 8.21997C51.95 8.21997 64.57 20.83 64.57 36.4Z" fill="#007EC7"/>
<path d="M64.42 36.4C64.42 51.88 51.87 64.43 36.4 64.43C20.92 64.43 8.37 51.88 8.37 36.4C8.37 20.92 20.92 8.37 36.4 8.37C51.87 8.37 64.42 20.92 64.42 36.4Z" fill="#007FC7"/>
<path d="M64.27 36.4C64.27 51.79 51.79 64.28 36.4 64.28C21 64.28 8.52002 51.8 8.52002 36.4C8.52002 21 21 8.52002 36.4 8.52002C51.79 8.52002 64.27 21 64.27 36.4Z" fill="#0080C7"/>
<path d="M64.12 36.4C64.12 51.71 51.71 64.13 36.4 64.13C21.08 64.13 8.67004 51.71 8.67004 36.4C8.67004 21.09 21.08 8.66998 36.4 8.66998C51.71 8.66998 64.12 21.08 64.12 36.4Z" fill="#0080C8"/>
<path d="M63.9699 36.4C63.9699 51.63 51.6199 63.98 36.3999 63.98C21.1699 63.98 8.81995 51.63 8.81995 36.4C8.81995 21.17 21.1699 8.82001 36.3999 8.82001C51.6199 8.82001 63.9699 21.16 63.9699 36.4Z" fill="#0081C8"/>
<path d="M63.82 36.4C63.82 51.55 51.54 63.83 36.4 63.83C21.25 63.83 8.96997 51.55 8.96997 36.4C8.96997 21.25 21.25 8.96998 36.4 8.96998C51.54 8.95998 63.82 21.25 63.82 36.4Z" fill="#0081C9"/>
<path d="M63.67 36.4C63.67 51.46 51.46 63.68 36.4 63.68C21.33 63.68 9.12 51.46 9.12 36.4C9.12 21.33 21.34 9.12 36.4 9.12C51.46 9.11 63.67 21.33 63.67 36.4Z" fill="#0082C9"/>
<path d="M63.52 36.4C63.52 51.38 51.38 63.53 36.4 63.53C21.41 63.53 9.26001 51.38 9.26001 36.4C9.26001 21.42 21.41 9.27003 36.4 9.27003C51.38 9.26003 63.52 21.41 63.52 36.4Z" fill="#0083CA"/>
<path d="M63.37 36.4C63.37 51.3 51.29 63.38 36.4 63.38C21.5 63.38 9.41003 51.3 9.41003 36.4C9.41003 21.5 21.49 9.41999 36.4 9.41999C51.29 9.40999 63.37 21.49 63.37 36.4Z" fill="#0083CA"/>
<path d="M63.2201 36.4C63.2201 51.22 51.2101 63.23 36.4001 63.23C21.5801 63.23 9.56006 51.22 9.56006 36.4C9.56006 21.58 21.5801 9.57001 36.4001 9.57001C51.2101 9.56001 63.2201 21.58 63.2201 36.4Z" fill="#0084CB"/>
<path d="M63.07 36.4C63.07 51.13 51.13 63.08 36.4 63.08C21.66 63.08 9.70996 51.13 9.70996 36.4C9.70996 21.66 21.66 9.71998 36.4 9.71998C51.13 9.70998 63.07 21.66 63.07 36.4Z" fill="#0084CB"/>
<path d="M62.92 36.4C62.92 51.05 51.04 62.93 36.4 62.93C21.74 62.93 9.85999 51.05 9.85999 36.4C9.85999 21.75 21.74 9.87 36.4 9.87C51.04 9.86 62.92 21.74 62.92 36.4Z" fill="#0085CB"/>
<path d="M62.77 36.4C62.77 50.97 50.96 62.78 36.39 62.78C21.82 62.78 10 50.97 10 36.4C10 21.83 21.81 10.02 36.39 10.02C50.96 10.01 62.77 21.82 62.77 36.4Z" fill="#0085CC"/>
<path d="M62.62 36.4C62.62 50.89 50.88 62.63 36.39 62.63C21.9 62.63 10.15 50.88 10.15 36.4C10.15 21.91 21.9 10.17 36.39 10.17C50.88 10.16 62.62 21.91 62.62 36.4Z" fill="#0086CC"/>
<path d="M62.4701 36.4C62.4701 50.8 50.7901 62.48 36.3901 62.48C21.9801 62.48 10.3 50.8 10.3 36.4C10.3 21.99 21.9801 10.31 36.3901 10.31C50.8001 10.31 62.4701 21.99 62.4701 36.4Z" fill="#0087CD"/>
<path d="M62.32 36.4C62.32 50.72 50.71 62.33 36.39 62.33C22.06 62.33 10.45 50.72 10.45 36.4C10.45 22.08 22.06 10.46 36.39 10.46C50.71 10.46 62.32 22.07 62.32 36.4Z" fill="#0087CD"/>
<path d="M62.17 36.4C62.17 50.64 50.63 62.18 36.39 62.18C22.15 62.18 10.6 50.64 10.6 36.4C10.6 22.16 22.15 10.61 36.39 10.61C50.63 10.61 62.17 22.15 62.17 36.4Z" fill="#0088CE"/>
<path d="M62.03 36.4C62.03 50.56 50.55 62.03 36.4 62.03C22.24 62.03 10.76 50.55 10.76 36.4C10.76 22.24 22.24 10.76 36.4 10.76C50.55 10.76 62.03 22.24 62.03 36.4Z" fill="#0089CE"/>
<path d="M61.88 36.4C61.88 50.47 50.47 61.89 36.4 61.89C22.32 61.89 10.91 50.48 10.91 36.4C10.91 22.32 22.32 10.91 36.4 10.91C50.47 10.91 61.88 22.32 61.88 36.4Z" fill="#0089CF"/>
<path d="M61.7301 36.4C61.7301 50.39 50.3901 61.74 36.4001 61.74C22.4001 61.74 11.0601 50.4 11.0601 36.4C11.0601 22.41 22.4001 11.06 36.4001 11.06C50.3801 11.06 61.7301 22.4 61.7301 36.4Z" fill="#008ACF"/>
<path d="M61.58 36.4C61.58 50.31 50.3 61.59 36.4 61.59C22.49 61.59 11.21 50.31 11.21 36.4C11.21 22.49 22.49 11.21 36.4 11.21C50.3 11.21 61.58 22.48 61.58 36.4Z" fill="#008AD0"/>
<path d="M61.43 36.4C61.43 50.23 50.22 61.44 36.4 61.44C22.57 61.44 11.36 50.23 11.36 36.4C11.36 22.57 22.57 11.36 36.4 11.36C50.22 11.36 61.43 22.57 61.43 36.4Z" fill="#008BD0"/>
<path d="M61.28 36.4C61.28 50.14 50.14 61.29 36.4 61.29C22.65 61.29 11.51 50.15 11.51 36.4C11.51 22.66 22.66 11.51 36.4 11.51C50.14 11.51 61.28 22.65 61.28 36.4Z" fill="#008CD0"/>
<path d="M61.13 36.4C61.13 50.06 50.05 61.14 36.4 61.14C22.74 61.14 11.66 50.06 11.66 36.4C11.66 22.74 22.74 11.66 36.4 11.66C50.05 11.66 61.13 22.73 61.13 36.4Z" fill="#008CD1"/>
<path d="M60.9801 36.4C60.9801 49.98 49.9701 60.99 36.4001 60.99C22.8201 60.99 11.8101 49.98 11.8101 36.4C11.8101 22.82 22.8201 11.81 36.4001 11.81C49.9701 11.81 60.9801 22.81 60.9801 36.4Z" fill="#008DD1"/>
<path d="M60.83 36.4C60.83 49.9 49.89 60.84 36.4 60.84C22.9 60.84 11.96 49.9 11.96 36.4C11.96 22.9 22.9 11.96 36.4 11.96C49.89 11.95 60.83 22.9 60.83 36.4Z" fill="#008DD2"/>
<path d="M60.68 36.4C60.68 49.81 49.81 60.69 36.4 60.69C22.98 60.69 12.11 49.81 12.11 36.4C12.11 22.99 22.99 12.11 36.4 12.11C49.81 12.1 60.68 22.98 60.68 36.4Z" fill="#008ED2"/>
<path d="M60.53 36.4C60.53 49.73 49.72 60.54 36.4 60.54C23.07 60.54 12.25 49.73 12.25 36.4C12.25 23.06 23.06 12.25 36.4 12.25C49.72 12.25 60.53 23.06 60.53 36.4Z" fill="#008FD3"/>
<path d="M60.38 36.4C60.38 49.65 49.64 60.39 36.4 60.39C23.15 60.39 12.4 49.65 12.4 36.4C12.4 23.15 23.14 12.41 36.4 12.41C49.64 12.4 60.38 23.15 60.38 36.4Z" fill="#008FD3"/>
<path d="M60.23 36.4C60.23 49.56 49.56 60.24 36.4 60.24C23.23 60.24 12.55 49.56 12.55 36.4C12.55 23.23 23.23 12.56 36.4 12.56C49.56 12.55 60.23 23.23 60.23 36.4Z" fill="#0090D3"/>
<path d="M60.0799 36.4C60.0799 49.48 49.4699 60.09 36.3899 60.09C23.2999 60.09 12.6899 49.48 12.6899 36.4C12.6899 23.32 23.2999 12.71 36.3899 12.71C49.4799 12.7 60.0799 23.31 60.0799 36.4Z" fill="#0091D4"/>
<path d="M59.93 36.4C59.93 49.4 49.39 59.94 36.39 59.94C23.39 59.94 12.84 49.4 12.84 36.4C12.84 23.4 23.38 12.86 36.39 12.86C49.39 12.85 59.93 23.39 59.93 36.4Z" fill="#0091D4"/>
<path d="M59.78 36.4C59.78 49.32 49.31 59.79 36.39 59.79C23.47 59.79 12.99 49.32 12.99 36.4C12.99 23.48 23.47 13.01 36.39 13.01C49.31 13 59.78 23.47 59.78 36.4Z" fill="#0092D5"/>
<path d="M59.63 36.4C59.63 49.24 49.22 59.64 36.39 59.64C23.55 59.64 13.14 49.23 13.14 36.4C13.14 23.56 23.55 13.16 36.39 13.16C49.23 13.15 59.63 23.56 59.63 36.4Z" fill="#0092D5"/>
<path d="M59.48 36.4C59.48 49.15 49.14 59.49 36.39 59.49C23.63 59.49 13.29 49.15 13.29 36.4C13.29 23.64 23.63 13.3 36.39 13.3C49.15 13.3 59.48 23.64 59.48 36.4Z" fill="#0093D6"/>
<path d="M59.3299 36.4C59.3299 49.07 49.0599 59.34 36.3899 59.34C23.7199 59.34 13.4399 49.07 13.4399 36.4C13.4399 23.73 23.7099 13.45 36.3899 13.45C49.0599 13.45 59.3299 23.72 59.3299 36.4Z" fill="#0094D6"/>
<path d="M59.19 36.4C59.19 48.99 48.98 59.19 36.4 59.19C23.81 59.19 13.6 48.98 13.6 36.4C13.6 23.81 23.81 13.6 36.4 13.6C48.98 13.6 59.19 23.8 59.19 36.4Z" fill="#0094D6"/>
<path d="M59.04 36.4C59.04 48.91 48.9 59.04 36.4 59.04C23.89 59.04 13.75 48.9 13.75 36.4C13.75 23.89 23.89 13.75 36.4 13.75C48.9 13.75 59.04 23.89 59.04 36.4Z" fill="#0095D7"/>
<path d="M58.89 36.4C58.89 48.82 48.82 58.9 36.4 58.9C23.97 58.9 13.9 48.83 13.9 36.4C13.9 23.97 23.97 13.9 36.4 13.9C48.82 13.9 58.89 23.97 58.89 36.4Z" fill="#0095D7"/>
<path d="M58.7401 36.4C58.7401 48.74 48.73 58.75 36.4 58.75C24.06 58.75 14.05 48.74 14.05 36.4C14.05 24.06 24.06 14.05 36.4 14.05C48.73 14.05 58.7401 24.05 58.7401 36.4Z" fill="#0096D8"/>
<path d="M58.59 36.4C58.59 48.66 48.65 58.6 36.4 58.6C24.14 58.6 14.2 48.66 14.2 36.4C14.2 24.14 24.14 14.2 36.4 14.2C48.65 14.2 58.59 24.14 58.59 36.4Z" fill="#0097D8"/>
<path d="M58.44 36.4C58.44 48.58 48.57 58.45 36.4 58.45C24.22 58.45 14.35 48.58 14.35 36.4C14.34 24.22 24.22 14.35 36.4 14.35C48.57 14.35 58.44 24.22 58.44 36.4Z" fill="#0097D9"/>
<path d="M58.29 36.4C58.29 48.49 48.49 58.3 36.4 58.3C24.3 58.3 14.5 48.49 14.5 36.4C14.5 24.31 24.31 14.5 36.4 14.5C48.48 14.5 58.29 24.3 58.29 36.4Z" fill="#0098D9"/>
<path d="M58.14 36.4C58.14 48.41 48.4 58.15 36.4 58.15C24.39 58.15 14.65 48.41 14.65 36.4C14.65 24.39 24.39 14.65 36.4 14.65C48.4 14.64 58.14 24.38 58.14 36.4Z" fill="#0099DA"/>
<path d="M57.99 36.4C57.99 48.33 48.32 58 36.4 58C24.47 58 14.79 48.33 14.79 36.4C14.79 24.47 24.46 14.8 36.4 14.8C48.32 14.8 57.99 24.47 57.99 36.4Z" fill="#0099DA"/>
<path d="M57.8399 36.4C57.8399 48.25 48.2399 57.85 36.3999 57.85C24.5499 57.85 14.9399 48.25 14.9399 36.4C14.9399 24.55 24.5499 14.95 36.3999 14.95C48.2399 14.94 57.8399 24.55 57.8399 36.4Z" fill="#009ADA"/>
<path d="M57.69 36.4C57.69 48.16 48.15 57.7 36.4 57.7C24.63 57.7 15.09 48.16 15.09 36.4C15.09 24.64 24.63 15.1 36.4 15.1C48.15 15.09 57.69 24.63 57.69 36.4Z" fill="#009BDB"/>
<path d="M57.54 36.4C57.54 48.08 48.07 57.55 36.4 57.55C24.72 57.55 15.24 48.08 15.24 36.4C15.24 24.72 24.71 15.25 36.4 15.25C48.07 15.24 57.54 24.71 57.54 36.4Z" fill="#009BDB"/>
<path d="M57.39 36.4C57.39 48 47.99 57.4 36.4 57.4C24.8 57.4 15.39 48 15.39 36.4C15.39 24.8 24.8 15.4 36.4 15.4C47.99 15.39 57.39 24.8 57.39 36.4Z" fill="#009CDC"/>
<path d="M57.24 36.4C57.24 47.91 47.9 57.25 36.4 57.25C24.88 57.25 15.54 47.91 15.54 36.4C15.54 24.88 24.88 15.55 36.4 15.55C47.91 15.54 57.24 24.88 57.24 36.4Z" fill="#009CDC"/>
<path d="M57.09 36.4C57.09 47.83 47.8201 57.1 36.3901 57.1C24.9501 57.1 15.6801 47.83 15.6801 36.4C15.6801 24.97 24.9501 15.7 36.3901 15.7C47.8201 15.69 57.09 24.96 57.09 36.4Z" fill="#009DDD"/>
<path d="M56.94 36.4C56.94 47.75 47.74 56.95 36.39 56.95C25.04 56.95 15.83 47.75 15.83 36.4C15.83 25.05 25.03 15.85 36.39 15.85C47.74 15.84 56.94 25.04 56.94 36.4Z" fill="#009EDD"/>
<path d="M56.79 36.4C56.79 47.67 47.66 56.8 36.39 56.8C25.12 56.8 15.98 47.67 15.98 36.4C15.98 25.13 25.12 16 36.39 16C47.66 15.99 56.79 25.13 56.79 36.4Z" fill="#009EDD"/>
<path d="M56.64 36.4C56.64 47.59 47.57 56.65 36.39 56.65C25.2 56.65 16.13 47.58 16.13 36.4C16.13 25.22 25.2 16.14 36.39 16.14C47.58 16.14 56.64 25.21 56.64 36.4Z" fill="#009FDE"/>
<path d="M56.5 36.4C56.5 47.5 47.5 56.5 36.4 56.5C25.29 56.5 16.29 47.5 16.29 36.4C16.29 25.3 25.29 16.29 36.4 16.29C47.49 16.29 56.5 25.29 56.5 36.4Z" fill="#009FDE"/>
<path d="M56.3499 36.4C56.3499 47.42 47.4099 56.35 36.3999 56.35C25.3799 56.35 16.4399 47.42 16.4399 36.4C16.4399 25.38 25.3799 16.44 36.3999 16.44C47.4099 16.44 56.3499 25.37 56.3499 36.4Z" fill="#00A0DF"/>
<path d="M56.2 36.4C56.2 47.34 47.33 56.2 36.4 56.2C25.46 56.2 16.59 47.33 16.59 36.4C16.59 25.46 25.46 16.59 36.4 16.59C47.33 16.59 56.2 25.46 56.2 36.4Z" fill="#00A1DF"/>
<path d="M56.05 36.4C56.05 47.26 47.25 56.06 36.4 56.06C25.54 56.06 16.74 47.26 16.74 36.4C16.74 25.54 25.54 16.74 36.4 16.74C47.25 16.74 56.05 25.54 56.05 36.4Z" fill="#00A1E0"/>
<path d="M55.9 36.4C55.9 47.17 47.17 55.91 36.4 55.91C25.62 55.91 16.89 47.18 16.89 36.4C16.89 25.63 25.63 16.89 36.4 16.89C47.16 16.89 55.9 25.62 55.9 36.4Z" fill="#00A2E0"/>
<path d="M55.75 36.4C55.75 47.09 47.08 55.76 36.4 55.76C25.71 55.76 17.04 47.09 17.04 36.4C17.04 25.71 25.71 17.04 36.4 17.04C47.08 17.04 55.75 25.7 55.75 36.4Z" fill="#00A3E0"/>
<path d="M55.5999 36.4C55.5999 47.01 46.9999 55.61 36.3999 55.61C25.7899 55.61 17.1899 47.01 17.1899 36.4C17.1899 25.79 25.7899 17.19 36.3999 17.19C46.9999 17.19 55.5999 25.79 55.5999 36.4Z" fill="#00A3E1"/>
<path d="M55.45 36.4C55.45 46.93 46.92 55.46 36.4 55.46C25.87 55.46 17.34 46.93 17.34 36.4C17.34 25.87 25.87 17.34 36.4 17.34C46.92 17.34 55.45 25.87 55.45 36.4Z" fill="#00A4E1"/>
<path d="M55.3 36.4C55.3 46.84 46.83 55.31 36.4 55.31C25.96 55.31 17.49 46.84 17.49 36.4C17.49 25.96 25.96 17.49 36.4 17.49C46.83 17.49 55.3 25.95 55.3 36.4Z" fill="#00A4E2"/>
<path d="M55.15 36.4C55.15 46.76 46.75 55.16 36.4 55.16C26.04 55.16 17.64 46.76 17.64 36.4C17.64 26.04 26.04 17.64 36.4 17.64C46.75 17.64 55.15 26.03 55.15 36.4Z" fill="#00A5E2"/>
<path d="M55 36.4C55 46.68 46.67 55.01 36.4 55.01C26.12 55.01 17.78 46.68 17.78 36.4C17.78 26.12 26.12 17.79 36.4 17.79C46.67 17.78 55 26.12 55 36.4Z" fill="#00A6E3"/>
<path d="M54.8501 36.4C54.8501 46.6 46.5901 54.86 36.4001 54.86C26.2001 54.86 17.9301 46.6 17.9301 36.4C17.9301 26.2 26.2001 17.94 36.4001 17.94C46.5901 17.93 54.8501 26.2 54.8501 36.4Z" fill="#00A6E3"/>
<path d="M54.7 36.4C54.7 46.51 46.5 54.71 36.4 54.71C26.29 54.71 18.08 46.51 18.08 36.4C18.08 26.29 26.28 18.09 36.4 18.09C46.5 18.08 54.7 26.28 54.7 36.4Z" fill="#00A7E3"/>
<path d="M54.55 36.4C54.55 46.43 46.42 54.56 36.39 54.56C26.36 54.56 18.22 46.43 18.22 36.4C18.22 26.37 26.35 18.24 36.39 18.24C46.42 18.23 54.55 26.37 54.55 36.4Z" fill="#00A8E4"/>
<path d="M54.4 36.4C54.4 46.35 46.34 54.41 36.39 54.41C26.44 54.41 18.37 46.35 18.37 36.4C18.37 26.45 26.44 18.39 36.39 18.39C46.34 18.38 54.4 26.45 54.4 36.4Z" fill="#00A8E4"/>
<path d="M54.25 36.4C54.25 46.26 46.25 54.26 36.4 54.26C26.53 54.26 18.53 46.26 18.53 36.4C18.53 26.54 26.53 18.54 36.4 18.54C46.26 18.53 54.25 26.53 54.25 36.4Z" fill="#00A9E5"/>
<path d="M54.1 36.4C54.1 46.18 46.17 54.11 36.39 54.11C26.61 54.11 18.67 46.18 18.67 36.4C18.67 26.62 26.6 18.69 36.39 18.69C46.17 18.68 54.1 26.61 54.1 36.4Z" fill="#00AAE5"/>
<path d="M53.9499 36.4C53.9499 46.1 46.0899 53.96 36.3899 53.96C26.6899 53.96 18.8199 46.1 18.8199 36.4C18.8199 26.7 26.6899 18.84 36.3899 18.84C46.0899 18.83 53.9499 26.7 53.9499 36.4Z" fill="#00AAE6"/>
<path d="M53.8 36.4C53.8 46.02 46 53.81 36.39 53.81C26.77 53.81 18.97 46.01 18.97 36.4C18.97 26.78 26.77 18.98 36.39 18.98C46.01 18.98 53.8 26.78 53.8 36.4Z" fill="#00ABE6"/>
<path d="M53.65 36.4C53.65 45.93 45.92 53.66 36.39 53.66C26.85 53.66 19.12 45.93 19.12 36.4C19.12 26.87 26.85 19.14 36.39 19.14C45.92 19.13 53.65 26.86 53.65 36.4Z" fill="#00ABE6"/>
<path d="M53.51 36.4C53.51 45.85 45.85 53.51 36.4 53.51C26.95 53.51 19.28 45.85 19.28 36.4C19.28 26.95 26.95 19.29 36.4 19.29C45.84 19.28 53.51 26.94 53.51 36.4Z" fill="#00ACE7"/>
<path d="M53.3601 36.4C53.3601 45.77 45.7601 53.36 36.4001 53.36C27.0301 53.36 19.4301 45.77 19.4301 36.4C19.4301 27.03 27.0301 19.43 36.4001 19.43C45.7601 19.43 53.3601 27.02 53.3601 36.4Z" fill="#00ADE7"/>
<path d="M53.21 36.4C53.21 45.69 45.68 53.22 36.4 53.22C27.11 53.22 19.58 45.69 19.58 36.4C19.58 27.11 27.11 19.58 36.4 19.58C45.68 19.58 53.21 27.11 53.21 36.4Z" fill="#00ADE8"/>
<path d="M53.06 36.4C53.06 45.6 45.6 53.07 36.4 53.07C27.19 53.07 19.73 45.61 19.73 36.4C19.73 27.19 27.2 19.73 36.4 19.73C45.6 19.73 53.06 27.19 53.06 36.4Z" fill="#00AEE8"/>
<path d="M52.91 36.4C52.91 45.52 45.51 52.92 36.4 52.92C27.27 52.92 19.88 45.53 19.88 36.4C19.88 27.27 27.28 19.88 36.4 19.88C45.51 19.88 52.91 27.27 52.91 36.4Z" fill="#00AFE8"/>
<path d="M52.76 36.4C52.76 45.44 45.43 52.77 36.4 52.77C27.36 52.77 20.03 45.44 20.03 36.4C20.03 27.36 27.36 20.03 36.4 20.03C45.43 20.03 52.76 27.35 52.76 36.4Z" fill="#00AFE9"/>
<path d="M52.6101 36.4C52.6101 45.36 45.3501 52.62 36.4001 52.62C27.4401 52.62 20.1801 45.36 20.1801 36.4C20.1801 27.44 27.4401 20.18 36.4001 20.18C45.3501 20.18 52.6101 27.44 52.6101 36.4Z" fill="#00B0E9"/>
<path d="M52.46 36.4C52.46 45.27 45.26 52.47 36.4 52.47C27.52 52.47 20.33 45.28 20.33 36.4C20.33 27.52 27.53 20.33 36.4 20.33C45.26 20.33 52.46 27.52 52.46 36.4Z" fill="#00B1EA"/>
<path d="M52.31 36.4C52.31 45.19 45.18 52.32 36.4 52.32C27.61 52.32 20.48 45.19 20.48 36.4C20.48 27.61 27.61 20.48 36.4 20.48C45.18 20.48 52.31 27.6 52.31 36.4Z" fill="#00B1EA"/>
<path d="M52.16 36.4C52.16 45.11 45.1 52.17 36.4 52.17C27.69 52.17 20.62 45.11 20.62 36.4C20.62 27.69 27.68 20.63 36.4 20.63C45.1 20.63 52.16 27.69 52.16 36.4Z" fill="#00B2EB"/>
<path d="M52.01 36.4C52.01 45.03 45.02 52.02 36.4 52.02C27.77 52.02 20.77 45.03 20.77 36.4C20.77 27.77 27.77 20.78 36.4 20.78C45.02 20.77 52.01 27.77 52.01 36.4Z" fill="#00B2EB"/>
<path d="M51.86 36.4C51.86 44.94 44.93 51.87 36.4 51.87C27.85 51.87 20.92 44.94 20.92 36.4C20.92 27.86 27.85 20.93 36.4 20.93C44.93 20.92 51.86 27.85 51.86 36.4Z" fill="#00B3EB"/>
<path d="M51.7099 36.4C51.7099 44.86 44.8499 51.72 36.3999 51.72C27.9399 51.72 21.0699 44.86 21.0699 36.4C21.0699 27.94 27.9299 21.08 36.3999 21.08C44.8499 21.07 51.7099 27.93 51.7099 36.4Z" fill="#00B4EC"/>
<path d="M51.56 36.4C51.56 44.78 44.77 51.57 36.39 51.57C28.01 51.57 21.21 44.78 21.21 36.4C21.21 28.02 28.01 21.23 36.39 21.23C44.77 21.22 51.56 28.02 51.56 36.4Z" fill="#00B4EC"/>
<path d="M51.41 36.4C51.41 44.7 44.68 51.42 36.39 51.42C28.09 51.42 21.36 44.7 21.36 36.4C21.36 28.1 28.09 21.38 36.39 21.38C44.69 21.37 51.41 28.1 51.41 36.4Z" fill="#00BAEF"/>
<path d="M55.2 36.4C55.2 46.78 46.78 55.21 36.39 55.21C26 55.21 17.58 46.79 17.58 36.4C17.58 26.01 26 17.59 36.39 17.59C46.78 17.59 55.2 26.01 55.2 36.4Z" fill="#040000"/>
<path d="M32.14 18.55C32.14 23.12 28.43 26.82 23.86 26.82C19.29 26.82 15.59 23.12 15.59 18.55C15.59 13.98 19.29 10.28 23.86 10.28C28.43 10.28 32.14 13.98 32.14 18.55Z" fill="white"/>
<path d="M119.73 39.14C117.24 39.98 112.64 41.13 107.86 41.13C101.37 41.13 96.75 39.55 93.57 36.52C90.61 33.75 88.98 29.82 88.98 25.45C88.98 15.29 97 8.91003 108.55 8.91003C113.18 8.91003 116.77 9.78003 118.53 10.61L116.89 16.47C114.86 15.61 112.43 14.92 108.31 14.92C101.76 14.92 96.84 18.42 96.84 24.84C96.84 31 101.34 35.17 108.18 35.17C110.15 35.17 111.75 34.94 112.42 34.63V28.32H106.86V22.57H119.73V39.14V39.14Z" fill="#0069B5"/>
<path d="M131.78 7.28003H125.76V40.8H131.78V7.28003Z" fill="#0069B5"/>
<path d="M149.47 37.06C145.77 37.06 143.07 34.01 143.07 29.44C143.07 25.47 145.1 21.74 149.61 21.74C154.05 21.74 155.97 25.66 155.97 29.34C155.97 34.31 153.1 37.06 149.53 37.06H149.47ZM149.42 41.36C155.99 41.36 162.26 37.23 162.26 29.12C162.26 22.41 157.29 17.44 149.84 17.44C142.1 17.44 136.88 22.38 136.88 29.61C136.88 36.8 142.41 41.36 149.38 41.36H149.42Z" fill="#0069B5"/>
<path d="M173.37 28.13C173.37 27.55 173.45 27.08 173.56 26.63C174.28 23.74 176.79 22.01 179.48 22.01C183.74 22.01 185.99 25.34 185.99 29.28C185.99 33.89 183.39 36.66 179.39 36.66C176.36 36.66 174.09 34.56 173.5 32.25C173.41 31.82 173.37 31.37 173.37 30.92V28.13ZM167.35 34.33C167.35 36.82 167.27 39.32 167.16 40.8H172.3L172.55 37.17H172.64C174.47 40.22 177.5 41.37 180.72 41.37C186.29 41.37 192.12 37.31 192.12 29.08C192.17 22.06 187.64 17.45 181.57 17.45C177.74 17.45 174.94 19.04 173.46 21.37H173.37V7.28003H167.35V34.33V34.33Z" fill="#0069B5"/>
<path d="M210.31 32.5C210.31 32.9 210.27 33.37 210.14 33.78C209.53 35.42 207.73 37.12 205.08 37.12C203.02 37.12 201.52 36.03 201.52 33.91C201.52 30.6 205.53 29.64 210.31 29.72V32.5ZM216.15 27.3C216.15 22.25 213.87 17.44 206.07 17.44C202.21 17.44 199.08 18.44 197.15 19.59L198.35 23.44C200.01 22.4 202.67 21.59 205.11 21.59C209.67 21.57 210.15 24.34 210.15 25.54V25.84C200.68 25.78 195.49 28.84 195.49 34.55C195.49 37.86 198.09 41.34 203.17 41.34C206.44 41.34 209.05 39.98 210.52 38.16H210.67L211.1 40.77H216.53C216.28 39.4 216.16 37.35 216.16 35.18V27.3H216.15Z" fill="#0069B5"/>
<path d="M228.76 7.28003H222.74V40.8H228.76V7.28003Z" fill="#0069B5"/>
<path d="M235.92 33.08C238.02 34.19 241.24 35.32 244.74 35.32C248.14 35.32 249.97 34 249.97 31.93C249.97 30.1 248.44 28.96 244.29 27.76C238.71 26.15 234.67 23.43 234.67 18.24C234.67 12.76 239.58 8.70001 247.27 8.70001C251.37 8.70001 254.18 9.46001 256.35 10.44L254.58 16.31C253.21 15.7 250.64 14.67 247.13 14.67C243.87 14.67 242.31 16.06 242.31 17.65C242.31 19.69 244.32 20.54 248.65 21.92C254.7 23.86 257.65 26.67 257.65 31.51C257.65 36.6 253.69 41.37 244.16 41.37C240.24 41.37 236.28 40.29 234.29 39.18L235.92 33.08Z" fill="#0069B5"/>
<path d="M263.06 18.01H269.09V40.8H263.06V18.01ZM266.03 14.48C263.89 14.48 262.55 12.97 262.55 11.16C262.55 9.35005 263.93 7.86005 266.1 7.86005C268.27 7.86005 269.6 9.33005 269.62 11.16C269.62 12.96 268.28 14.48 266.07 14.48H266.03Z" fill="#0069B5"/>
<path d="M292.21 30.31C292.21 30.96 292.13 31.77 291.95 32.37C291.27 34.52 289.17 36.23 286.6 36.23C282.43 36.23 280.31 32.83 280.31 29.32C280.31 24.55 283.15 21.9 286.61 21.9C289.38 21.9 291.34 23.57 292.04 25.98C292.16 26.44 292.2 26.95 292.2 27.5V30.31H292.21ZM298.23 24.35C298.23 21.22 298.3 19.44 298.42 18.01H293.17L292.98 21.25H292.88C291.69 19.26 289.43 17.45 285.45 17.45C279.47 17.45 274.19 22.15 274.19 29.53C274.19 36.1 278.79 40.65 284.77 40.65C288.19 40.65 290.75 39.14 292.23 37.01H292.32V39.01C292.32 44.14 289.07 46.14 285.07 46.14C282.01 46.14 279.25 45.13 277.64 44.12L276.32 48.69C278.44 50.03 281.91 50.73 285.09 50.73C288.29 50.73 291.92 50.16 294.59 47.86C297.23 45.56 298.24 41.87 298.24 37.29V24.35H298.23Z" fill="#0069B5"/>
<path d="M304.99 24.9C304.99 22.25 304.91 19.96 304.8 18H310.07L310.36 21.67H310.51C311.49 19.92 314.15 17.44 318.39 17.44C322.43 17.44 327.25 19.87 327.25 27.72V40.79H321.23V28.47C321.23 24.87 319.79 22.29 316.33 22.29C313.68 22.29 311.93 24.13 311.28 25.87C311.08 26.33 311 27.02 311 27.62V40.81H304.98V24.9H304.99Z" fill="#0069B5"/>
<path d="M333.56 36.32C333.56 39.71 337.48 42.19 341.02 39.47C343.74 35.93 341.25 32.01 337.87 32.01C335.49 32.01 333.56 33.95 333.56 36.32ZM334.05 36.32C334.05 33.32 337.52 31.12 340.66 33.52C343.07 36.66 340.87 40.14 337.87 40.14C335.76 40.14 334.05 38.43 334.05 36.32Z" fill="#040000"/>
<path d="M336.64 34.38H338.21C338.58 34.38 338.85 34.45 339.02 34.61C339.19 34.77 339.27 34.96 339.27 35.2C339.27 35.36 339.23 35.51 339.14 35.65C339.05 35.79 338.92 35.89 338.76 35.95C338.59 36.02 338.35 36.05 338.05 36.05H336.64V34.38ZM336.64 38.81V36.6H337.4C337.57 36.6 337.69 36.61 337.77 36.62C337.87 36.65 337.97 36.69 338.07 36.75C338.17 36.82 338.27 36.93 338.4 37.09C338.52 37.25 338.68 37.48 338.87 37.77L339.52 38.8H340.34L339.48 37.45C339.31 37.19 339.13 36.97 338.94 36.79C338.85 36.71 338.71 36.63 338.54 36.54C339.02 36.47 339.37 36.32 339.59 36.07C339.82 35.83 339.93 35.53 339.93 35.17C339.93 34.89 339.86 34.64 339.72 34.41C339.59 34.18 339.4 34.03 339.17 33.93C338.94 33.84 338.6 33.8 338.16 33.8H335.95V38.79H336.64V38.81Z" fill="#040000"/>
<path d="M119.441 71.19C117.744 71.19 116.452 70.734 115.565 69.822C114.691 68.91 114.222 67.6497 114.159 66.041C114.146 65.699 114.14 65.1417 114.14 64.369C114.14 63.5837 114.146 63.0137 114.159 62.659C114.222 61.063 114.697 59.809 115.584 58.897C116.471 57.9723 117.756 57.51 119.441 57.51C120.568 57.51 121.525 57.7127 122.31 58.118C123.095 58.5107 123.691 59.03 124.096 59.676C124.501 60.322 124.723 61.0123 124.761 61.747V61.785C124.761 61.8863 124.717 61.975 124.628 62.051C124.552 62.1143 124.463 62.146 124.362 62.146H123.317C123.064 62.146 122.905 62.0003 122.842 61.709C122.627 60.759 122.24 60.094 121.683 59.714C121.126 59.3213 120.378 59.125 119.441 59.125C117.262 59.125 116.135 60.3347 116.059 62.754C116.046 63.096 116.04 63.6217 116.04 64.331C116.04 65.0403 116.046 65.5787 116.059 65.946C116.135 68.3653 117.262 69.575 119.441 69.575C120.378 69.575 121.126 69.385 121.683 69.005C122.253 68.6123 122.639 67.941 122.842 66.991C122.88 66.8263 122.937 66.7123 123.013 66.649C123.089 66.5857 123.19 66.554 123.317 66.554H124.362C124.476 66.554 124.571 66.592 124.647 66.668C124.736 66.7313 124.774 66.82 124.761 66.934C124.723 67.6813 124.501 68.378 124.096 69.024C123.691 69.67 123.095 70.1957 122.31 70.601C121.525 70.9937 120.568 71.19 119.441 71.19Z" fill="#868686"/>
<path d="M131.012 71.19C129.708 71.19 128.663 70.791 127.877 69.993C127.105 69.1823 126.68 68.0803 126.604 66.687L126.585 66.041L126.604 65.414C126.693 64.046 127.124 62.9567 127.896 62.146C128.682 61.3353 129.714 60.93 130.993 60.93C132.399 60.93 133.489 61.3797 134.261 62.279C135.034 63.1657 135.42 64.369 135.42 65.889V66.212C135.42 66.3387 135.376 66.4463 135.287 66.535C135.211 66.611 135.11 66.649 134.983 66.649H128.409V66.82C128.447 67.6433 128.694 68.3463 129.15 68.929C129.619 69.499 130.233 69.784 130.993 69.784C131.576 69.784 132.051 69.67 132.418 69.442C132.798 69.2013 133.077 68.9543 133.254 68.701C133.368 68.549 133.451 68.4603 133.501 68.435C133.565 68.397 133.672 68.378 133.824 68.378H134.755C134.869 68.378 134.964 68.4097 135.04 68.473C135.116 68.5363 135.154 68.625 135.154 68.739C135.154 69.0177 134.977 69.3533 134.622 69.746C134.28 70.1387 133.793 70.4807 133.159 70.772C132.539 71.0507 131.823 71.19 131.012 71.19ZM133.615 65.338V65.281C133.615 64.407 133.375 63.6977 132.893 63.153C132.425 62.5957 131.791 62.317 130.993 62.317C130.195 62.317 129.562 62.5957 129.093 63.153C128.637 63.6977 128.409 64.407 128.409 65.281V65.338H133.615Z" fill="#868686"/>
<path d="M138.129 71C138.002 71 137.895 70.962 137.806 70.886C137.73 70.7973 137.692 70.6897 137.692 70.563V61.576C137.692 61.4493 137.73 61.3417 137.806 61.253C137.895 61.1643 138.002 61.12 138.129 61.12H139.003C139.13 61.12 139.237 61.1643 139.326 61.253C139.415 61.3417 139.459 61.4493 139.459 61.576V62.412C139.978 61.5507 140.865 61.12 142.119 61.12H142.86C142.987 61.12 143.088 61.1643 143.164 61.253C143.253 61.329 143.297 61.4303 143.297 61.557V62.336C143.297 62.4627 143.253 62.564 143.164 62.64C143.088 62.716 142.987 62.754 142.86 62.754H141.72C141.036 62.754 140.498 62.9567 140.105 63.362C139.712 63.7547 139.516 64.293 139.516 64.977V70.563C139.516 70.6897 139.472 70.7973 139.383 70.886C139.294 70.962 139.187 71 139.06 71H138.129Z" fill="#868686"/>
<path d="M148.767 71C146.765 71 145.765 69.8853 145.765 67.656V62.64H144.283C144.156 62.64 144.048 62.602 143.96 62.526C143.884 62.4373 143.846 62.3297 143.846 62.203V61.557C143.846 61.4303 143.884 61.329 143.96 61.253C144.048 61.1643 144.156 61.12 144.283 61.12H145.765V57.947C145.765 57.8203 145.803 57.719 145.879 57.643C145.967 57.5543 146.075 57.51 146.202 57.51H147.095C147.221 57.51 147.323 57.5543 147.399 57.643C147.487 57.719 147.532 57.8203 147.532 57.947V61.12H149.888C150.014 61.12 150.116 61.1643 150.192 61.253C150.28 61.329 150.325 61.4303 150.325 61.557V62.203C150.325 62.3297 150.28 62.4373 150.192 62.526C150.116 62.602 150.014 62.64 149.888 62.64H147.532V67.523C147.532 68.1563 147.639 68.6377 147.855 68.967C148.07 69.2837 148.425 69.442 148.919 69.442H150.078C150.204 69.442 150.306 69.4863 150.382 69.575C150.47 69.651 150.515 69.7523 150.515 69.879V70.563C150.515 70.6897 150.47 70.7973 150.382 70.886C150.306 70.962 150.204 71 150.078 71H148.767Z" fill="#868686"/>
<path d="M152.617 59.277C152.49 59.277 152.382 59.239 152.294 59.163C152.218 59.0743 152.18 58.9667 152.18 58.84V57.814C152.18 57.6873 152.218 57.5797 152.294 57.491C152.382 57.4023 152.49 57.358 152.617 57.358H153.814C153.94 57.358 154.048 57.4023 154.137 57.491C154.225 57.5797 154.27 57.6873 154.27 57.814V58.84C154.27 58.9667 154.225 59.0743 154.137 59.163C154.048 59.239 153.94 59.277 153.814 59.277H152.617ZM152.769 71C152.642 71 152.534 70.962 152.446 70.886C152.37 70.7973 152.332 70.6897 152.332 70.563V61.557C152.332 61.4303 152.37 61.329 152.446 61.253C152.534 61.1643 152.642 61.12 152.769 61.12H153.681C153.807 61.12 153.909 61.1643 153.985 61.253C154.073 61.329 154.118 61.4303 154.118 61.557V70.563C154.118 70.6897 154.073 70.7973 153.985 70.886C153.909 70.962 153.807 71 153.681 71H152.769Z" fill="#868686"/>
<path d="M158.358 71C158.232 71 158.124 70.962 158.035 70.886C157.959 70.7973 157.921 70.6897 157.921 70.563V62.64H156.306C156.18 62.64 156.072 62.602 155.983 62.526C155.907 62.4373 155.869 62.3297 155.869 62.203V61.557C155.869 61.4303 155.907 61.329 155.983 61.253C156.072 61.1643 156.18 61.12 156.306 61.12H157.921V60.17C157.921 58.0167 159.011 56.94 161.189 56.94H164.115C164.242 56.94 164.343 56.9843 164.419 57.073C164.508 57.149 164.552 57.2503 164.552 57.377V58.023C164.552 58.1497 164.508 58.2573 164.419 58.346C164.343 58.422 164.242 58.46 164.115 58.46H161.227C160.657 58.46 160.258 58.612 160.03 58.916C159.802 59.2073 159.688 59.657 159.688 60.265V61.12H164.115C164.242 61.12 164.343 61.1643 164.419 61.253C164.508 61.329 164.552 61.4303 164.552 61.557V70.563C164.552 70.6897 164.508 70.7973 164.419 70.886C164.343 70.962 164.242 71 164.115 71H163.241C163.115 71 163.007 70.962 162.918 70.886C162.842 70.7973 162.804 70.6897 162.804 70.563V62.64H159.688V70.563C159.688 70.6897 159.644 70.7973 159.555 70.886C159.479 70.962 159.378 71 159.251 71H158.358Z" fill="#868686"/>
<path d="M171.313 71.19C170.008 71.19 168.963 70.791 168.178 69.993C167.405 69.1823 166.981 68.0803 166.905 66.687L166.886 66.041L166.905 65.414C166.994 64.046 167.424 62.9567 168.197 62.146C168.982 61.3353 170.015 60.93 171.294 60.93C172.7 60.93 173.789 61.3797 174.562 62.279C175.335 63.1657 175.721 64.369 175.721 65.889V66.212C175.721 66.3387 175.677 66.4463 175.588 66.535C175.512 66.611 175.411 66.649 175.284 66.649H168.71V66.82C168.748 67.6433 168.995 68.3463 169.451 68.929C169.92 69.499 170.534 69.784 171.294 69.784C171.877 69.784 172.352 69.67 172.719 69.442C173.099 69.2013 173.378 68.9543 173.555 68.701C173.669 68.549 173.751 68.4603 173.802 68.435C173.865 68.397 173.973 68.378 174.125 68.378H175.056C175.17 68.378 175.265 68.4097 175.341 68.473C175.417 68.5363 175.455 68.625 175.455 68.739C175.455 69.0177 175.278 69.3533 174.923 69.746C174.581 70.1387 174.093 70.4807 173.46 70.772C172.839 71.0507 172.124 71.19 171.313 71.19ZM173.916 65.338V65.281C173.916 64.407 173.675 63.6977 173.194 63.153C172.725 62.5957 172.092 62.317 171.294 62.317C170.496 62.317 169.863 62.5957 169.394 63.153C168.938 63.6977 168.71 64.407 168.71 65.281V65.338H173.916Z" fill="#868686"/>
<path d="M181.603 71.19C180.285 71.19 179.291 70.7593 178.62 69.898C177.948 69.0367 177.594 67.9473 177.556 66.63L177.537 66.06L177.556 65.49C177.594 64.1853 177.948 63.1023 178.62 62.241C179.291 61.367 180.285 60.93 181.603 60.93C182.907 60.93 183.933 61.3923 184.681 62.317V57.947C184.681 57.8203 184.719 57.719 184.795 57.643C184.883 57.5543 184.991 57.51 185.118 57.51H186.03C186.156 57.51 186.258 57.5543 186.334 57.643C186.422 57.719 186.467 57.8203 186.467 57.947V70.563C186.467 70.6897 186.422 70.7973 186.334 70.886C186.258 70.962 186.156 71 186.03 71H185.175C185.048 71 184.94 70.962 184.852 70.886C184.776 70.7973 184.738 70.6897 184.738 70.563V69.765C184.003 70.715 182.958 71.19 181.603 71.19ZM182.002 69.651C182.876 69.651 183.528 69.366 183.959 68.796C184.402 68.2133 184.643 67.523 184.681 66.725C184.693 66.5857 184.7 66.345 184.7 66.003C184.7 65.6483 184.693 65.4013 184.681 65.262C184.655 64.5147 184.415 63.8623 183.959 63.305C183.503 62.7477 182.85 62.469 182.002 62.469C181.102 62.469 180.444 62.7477 180.026 63.305C179.62 63.8623 179.399 64.597 179.361 65.509L179.342 66.06C179.342 68.454 180.228 69.651 182.002 69.651Z" fill="#868686"/>
<path d="M194.634 71C194.507 71 194.4 70.962 194.311 70.886C194.235 70.7973 194.197 70.6897 194.197 70.563V58.156C194.197 58.0167 194.235 57.909 194.311 57.833C194.4 57.7443 194.507 57.7 194.634 57.7H199.27C200.727 57.7 201.867 58.042 202.69 58.726C203.513 59.41 203.925 60.398 203.925 61.69C203.925 62.6527 203.684 63.4443 203.203 64.065C202.734 64.6857 202.069 65.1163 201.208 65.357L204.134 70.411C204.172 70.487 204.191 70.5567 204.191 70.62C204.191 70.7213 204.147 70.81 204.058 70.886C203.982 70.962 203.893 71 203.792 71H202.88C202.69 71 202.538 70.9557 202.424 70.867C202.323 70.7783 202.228 70.6517 202.139 70.487L199.384 65.661H196.059V70.563C196.059 70.6897 196.015 70.7973 195.926 70.886C195.837 70.962 195.73 71 195.603 71H194.634ZM199.194 64.046C201.081 64.046 202.025 63.2543 202.025 61.671C202.025 60.0877 201.081 59.296 199.194 59.296H196.059V64.046H199.194Z" fill="#868686"/>
<path d="M210.241 71.19C208.936 71.19 207.891 70.791 207.106 69.993C206.333 69.1823 205.909 68.0803 205.833 66.687L205.814 66.041L205.833 65.414C205.921 64.046 206.352 62.9567 207.125 62.146C207.91 61.3353 208.942 60.93 210.222 60.93C211.628 60.93 212.717 61.3797 213.49 62.279C214.262 63.1657 214.649 64.369 214.649 65.889V66.212C214.649 66.3387 214.604 66.4463 214.516 66.535C214.44 66.611 214.338 66.649 214.212 66.649H207.638V66.82C207.676 67.6433 207.923 68.3463 208.379 68.929C208.847 69.499 209.462 69.784 210.222 69.784C210.804 69.784 211.279 69.67 211.647 69.442C212.027 69.2013 212.305 68.9543 212.483 68.701C212.597 68.549 212.679 68.4603 212.73 68.435C212.793 68.397 212.901 68.378 213.053 68.378H213.984C214.098 68.378 214.193 68.4097 214.269 68.473C214.345 68.5363 214.383 68.625 214.383 68.739C214.383 69.0177 214.205 69.3533 213.851 69.746C213.509 70.1387 213.021 70.4807 212.388 70.772C211.767 71.0507 211.051 71.19 210.241 71.19ZM212.844 65.338V65.281C212.844 64.407 212.603 63.6977 212.122 63.153C211.653 62.5957 211.02 62.317 210.222 62.317C209.424 62.317 208.79 62.5957 208.322 63.153C207.866 63.6977 207.638 64.407 207.638 65.281V65.338H212.844Z" fill="#868686"/>
<path d="M220.968 75.18C219.929 75.18 219.093 75.0027 218.46 74.648C217.826 74.306 217.377 73.9133 217.111 73.47C216.845 73.0267 216.699 72.6277 216.674 72.273C216.661 72.1463 216.699 72.0387 216.788 71.95C216.889 71.8613 216.997 71.817 217.111 71.817H218.023C218.137 71.817 218.232 71.8423 218.308 71.893C218.384 71.9563 218.447 72.064 218.498 72.216C218.65 72.6213 218.897 72.9697 219.239 73.261C219.593 73.565 220.138 73.717 220.873 73.717C221.81 73.717 222.5 73.5143 222.944 73.109C223.387 72.7163 223.609 72.0133 223.609 71V69.708C223.279 70.126 222.861 70.4617 222.355 70.715C221.848 70.9557 221.246 71.076 220.55 71.076C219.207 71.076 218.2 70.6517 217.529 69.803C216.87 68.9417 216.522 67.8523 216.484 66.535L216.465 66.003L216.484 65.49C216.522 64.1853 216.876 63.1023 217.548 62.241C218.219 61.367 219.22 60.93 220.55 60.93C221.88 60.93 222.918 61.4177 223.666 62.393V61.576C223.666 61.4493 223.704 61.3417 223.78 61.253C223.868 61.1643 223.976 61.12 224.103 61.12H224.977C225.103 61.12 225.211 61.1643 225.3 61.253C225.388 61.3417 225.433 61.4493 225.433 61.576V70.791C225.433 73.717 223.944 75.18 220.968 75.18ZM220.93 69.556C221.791 69.556 222.443 69.271 222.887 68.701C223.33 68.131 223.571 67.4533 223.609 66.668C223.621 66.554 223.628 66.3323 223.628 66.003C223.628 65.6863 223.621 65.471 223.609 65.357C223.571 64.5717 223.33 63.894 222.887 63.324C222.456 62.754 221.804 62.469 220.93 62.469C220.03 62.469 219.378 62.7477 218.973 63.305C218.567 63.8623 218.346 64.597 218.308 65.509L218.289 66.003L218.308 66.516C218.346 67.4153 218.567 68.15 218.973 68.72C219.378 69.2773 220.03 69.556 220.93 69.556Z" fill="#868686"/>
<path d="M228.542 59.277C228.416 59.277 228.308 59.239 228.219 59.163C228.143 59.0743 228.105 58.9667 228.105 58.84V57.814C228.105 57.6873 228.143 57.5797 228.219 57.491C228.308 57.4023 228.416 57.358 228.542 57.358H229.739C229.866 57.358 229.974 57.4023 230.062 57.491C230.151 57.5797 230.195 57.6873 230.195 57.814V58.84C230.195 58.9667 230.151 59.0743 230.062 59.163C229.974 59.239 229.866 59.277 229.739 59.277H228.542ZM228.694 71C228.568 71 228.46 70.962 228.371 70.886C228.295 70.7973 228.257 70.6897 228.257 70.563V61.557C228.257 61.4303 228.295 61.329 228.371 61.253C228.46 61.1643 228.568 61.12 228.694 61.12H229.606C229.733 61.12 229.834 61.1643 229.91 61.253C229.999 61.329 230.043 61.4303 230.043 61.557V70.563C230.043 70.6897 229.999 70.7973 229.91 70.886C229.834 70.962 229.733 71 229.606 71H228.694Z" fill="#868686"/>
<path d="M236.906 71.19C235.513 71.19 234.43 70.7973 233.657 70.012C232.897 69.2267 232.492 68.1817 232.441 66.877L232.422 66.06L232.441 65.243C232.492 63.951 232.903 62.9123 233.676 62.127C234.449 61.329 235.525 60.93 236.906 60.93C238.287 60.93 239.363 61.329 240.136 62.127C240.909 62.9123 241.32 63.951 241.371 65.243C241.384 65.3823 241.39 65.6547 241.39 66.06C241.39 66.4653 241.384 66.7377 241.371 66.877C241.32 68.1817 240.909 69.2267 240.136 70.012C239.376 70.7973 238.299 71.19 236.906 71.19ZM236.906 69.727C237.704 69.727 238.331 69.4737 238.787 68.967C239.256 68.4603 239.509 67.732 239.547 66.782C239.56 66.6553 239.566 66.4147 239.566 66.06C239.566 65.7053 239.56 65.4647 239.547 65.338C239.509 64.388 239.256 63.6597 238.787 63.153C238.331 62.6463 237.704 62.393 236.906 62.393C236.108 62.393 235.475 62.6463 235.006 63.153C234.537 63.6597 234.29 64.388 234.265 65.338L234.246 66.06L234.265 66.782C234.29 67.732 234.537 68.4603 235.006 68.967C235.475 69.4737 236.108 69.727 236.906 69.727Z" fill="#868686"/>
<path d="M244.206 71C244.08 71 243.972 70.962 243.883 70.886C243.807 70.7973 243.769 70.6897 243.769 70.563V61.557C243.769 61.4303 243.807 61.329 243.883 61.253C243.972 61.1643 244.08 61.12 244.206 61.12H245.099C245.226 61.12 245.327 61.1643 245.403 61.253C245.492 61.329 245.536 61.4303 245.536 61.557V62.393C245.904 61.9243 246.334 61.5633 246.828 61.31C247.335 61.0567 247.962 60.93 248.709 60.93C249.925 60.93 250.869 61.3227 251.54 62.108C252.224 62.8807 252.566 63.913 252.566 65.205V70.563C252.566 70.6897 252.522 70.7973 252.433 70.886C252.357 70.962 252.256 71 252.129 71H251.179C251.053 71 250.945 70.962 250.856 70.886C250.78 70.7973 250.742 70.6897 250.742 70.563V65.3C250.742 64.4007 250.521 63.704 250.077 63.21C249.647 62.716 249.02 62.469 248.196 62.469C247.398 62.469 246.765 62.7223 246.296 63.229C245.828 63.723 245.593 64.4133 245.593 65.3V70.563C245.593 70.6897 245.549 70.7973 245.46 70.886C245.384 70.962 245.283 71 245.156 71H244.206Z" fill="#868686"/>
<path d="M258.047 71.19C257.426 71.19 256.85 71.0633 256.318 70.81C255.786 70.5567 255.361 70.2147 255.045 69.784C254.741 69.3407 254.589 68.853 254.589 68.321C254.589 67.485 254.931 66.801 255.615 66.269C256.311 65.7243 257.249 65.3697 258.427 65.205L261.258 64.806V64.255C261.258 62.963 260.517 62.317 259.035 62.317C258.477 62.317 258.021 62.4373 257.667 62.678C257.312 62.906 257.046 63.1783 256.869 63.495C256.831 63.609 256.78 63.6913 256.717 63.742C256.666 63.7927 256.59 63.818 256.489 63.818H255.672C255.558 63.818 255.456 63.78 255.368 63.704C255.292 63.6153 255.254 63.514 255.254 63.4C255.266 63.096 255.406 62.754 255.672 62.374C255.95 61.9813 256.375 61.6457 256.945 61.367C257.515 61.0757 258.218 60.93 259.054 60.93C260.472 60.93 261.492 61.2657 262.113 61.937C262.733 62.5957 263.044 63.419 263.044 64.407V70.563C263.044 70.6897 262.999 70.7973 262.911 70.886C262.835 70.962 262.733 71 262.607 71H261.733C261.606 71 261.498 70.962 261.41 70.886C261.334 70.7973 261.296 70.6897 261.296 70.563V69.746C261.017 70.1513 260.612 70.4933 260.08 70.772C259.548 71.0507 258.87 71.19 258.047 71.19ZM258.446 69.765C259.269 69.765 259.94 69.499 260.46 68.967C260.992 68.4223 261.258 67.6433 261.258 66.63V66.098L259.054 66.421C258.154 66.5477 257.477 66.763 257.021 67.067C256.565 67.3583 256.337 67.732 256.337 68.188C256.337 68.6947 256.546 69.0873 256.964 69.366C257.382 69.632 257.876 69.765 258.446 69.765Z" fill="#868686"/>
<path d="M266.231 71C266.104 71 265.997 70.962 265.908 70.886C265.832 70.7973 265.794 70.6897 265.794 70.563V57.947C265.794 57.8203 265.832 57.719 265.908 57.643C265.997 57.5543 266.104 57.51 266.231 57.51H267.124C267.251 57.51 267.352 57.5543 267.428 57.643C267.517 57.719 267.561 57.8203 267.561 57.947V70.563C267.561 70.6897 267.517 70.7973 267.428 70.886C267.352 70.962 267.251 71 267.124 71H266.231Z" fill="#868686"/>
<path d="M275.736 71C275.61 71 275.502 70.962 275.413 70.886C275.337 70.7973 275.299 70.6897 275.299 70.563V58.156C275.299 58.0167 275.337 57.909 275.413 57.833C275.502 57.7443 275.61 57.7 275.736 57.7H280.562C281.994 57.7 283.121 58.0483 283.944 58.745C284.768 59.4417 285.179 60.4487 285.179 61.766C285.179 63.0833 284.768 64.0903 283.944 64.787C283.134 65.471 282.006 65.813 280.562 65.813H277.199V70.563C277.199 70.6897 277.155 70.7973 277.066 70.886C276.978 70.962 276.87 71 276.743 71H275.736ZM280.467 64.217C281.392 64.217 282.089 64.008 282.557 63.59C283.039 63.172 283.279 62.564 283.279 61.766C283.279 60.968 283.045 60.36 282.576 59.942C282.108 59.5113 281.405 59.296 280.467 59.296H277.18V64.217H280.467Z" fill="#868686"/>
<path d="M289.812 71.19C289.192 71.19 288.615 71.0633 288.083 70.81C287.551 70.5567 287.127 70.2147 286.81 69.784C286.506 69.3407 286.354 68.853 286.354 68.321C286.354 67.485 286.696 66.801 287.38 66.269C288.077 65.7243 289.014 65.3697 290.192 65.205L293.023 64.806V64.255C293.023 62.963 292.282 62.317 290.8 62.317C290.243 62.317 289.787 62.4373 289.432 62.678C289.078 62.906 288.812 63.1783 288.634 63.495C288.596 63.609 288.546 63.6913 288.482 63.742C288.432 63.7927 288.356 63.818 288.254 63.818H287.437C287.323 63.818 287.222 63.78 287.133 63.704C287.057 63.6153 287.019 63.514 287.019 63.4C287.032 63.096 287.171 62.754 287.437 62.374C287.716 61.9813 288.14 61.6457 288.71 61.367C289.28 61.0757 289.983 60.93 290.819 60.93C292.238 60.93 293.258 61.2657 293.878 61.937C294.499 62.5957 294.809 63.419 294.809 64.407V70.563C294.809 70.6897 294.765 70.7973 294.676 70.886C294.6 70.962 294.499 71 294.372 71H293.498C293.372 71 293.264 70.962 293.175 70.886C293.099 70.7973 293.061 70.6897 293.061 70.563V69.746C292.783 70.1513 292.377 70.4933 291.845 70.772C291.313 71.0507 290.636 71.19 289.812 71.19ZM290.211 69.765C291.035 69.765 291.706 69.499 292.225 68.967C292.757 68.4223 293.023 67.6433 293.023 66.63V66.098L290.819 66.421C289.92 66.5477 289.242 66.763 288.786 67.067C288.33 67.3583 288.102 67.732 288.102 68.188C288.102 68.6947 288.311 69.0873 288.729 69.366C289.147 69.632 289.641 69.765 290.211 69.765Z" fill="#868686"/>
<path d="M297.978 71C297.851 71 297.743 70.962 297.655 70.886C297.579 70.7973 297.541 70.6897 297.541 70.563V61.576C297.541 61.4493 297.579 61.3417 297.655 61.253C297.743 61.1643 297.851 61.12 297.978 61.12H298.852C298.978 61.12 299.086 61.1643 299.175 61.253C299.263 61.3417 299.308 61.4493 299.308 61.576V62.412C299.827 61.5507 300.714 61.12 301.968 61.12H302.709C302.835 61.12 302.937 61.1643 303.013 61.253C303.101 61.329 303.146 61.4303 303.146 61.557V62.336C303.146 62.4627 303.101 62.564 303.013 62.64C302.937 62.716 302.835 62.754 302.709 62.754H301.569C300.885 62.754 300.346 62.9567 299.954 63.362C299.561 63.7547 299.365 64.293 299.365 64.977V70.563C299.365 70.6897 299.32 70.7973 299.232 70.886C299.143 70.962 299.035 71 298.909 71H297.978Z" fill="#868686"/>
<path d="M308.615 71C306.614 71 305.613 69.8853 305.613 67.656V62.64H304.131C304.005 62.64 303.897 62.602 303.808 62.526C303.732 62.4373 303.694 62.3297 303.694 62.203V61.557C303.694 61.4303 303.732 61.329 303.808 61.253C303.897 61.1643 304.005 61.12 304.131 61.12H305.613V57.947C305.613 57.8203 305.651 57.719 305.727 57.643C305.816 57.5543 305.924 57.51 306.05 57.51H306.943C307.07 57.51 307.171 57.5543 307.247 57.643C307.336 57.719 307.38 57.8203 307.38 57.947V61.12H309.736C309.863 61.12 309.964 61.1643 310.04 61.253C310.129 61.329 310.173 61.4303 310.173 61.557V62.203C310.173 62.3297 310.129 62.4373 310.04 62.526C309.964 62.602 309.863 62.64 309.736 62.64H307.38V67.523C307.38 68.1563 307.488 68.6377 307.703 68.967C307.919 69.2837 308.273 69.442 308.767 69.442H309.926C310.053 69.442 310.154 69.4863 310.23 69.575C310.319 69.651 310.363 69.7523 310.363 69.879V70.563C310.363 70.6897 310.319 70.7973 310.23 70.886C310.154 70.962 310.053 71 309.926 71H308.615Z" fill="#868686"/>
<path d="M312.617 71C312.491 71 312.383 70.962 312.294 70.886C312.218 70.7973 312.18 70.6897 312.18 70.563V61.557C312.18 61.4303 312.218 61.329 312.294 61.253C312.383 61.1643 312.491 61.12 312.617 61.12H313.51C313.637 61.12 313.738 61.1643 313.814 61.253C313.903 61.329 313.947 61.4303 313.947 61.557V62.393C314.315 61.9243 314.745 61.5633 315.239 61.31C315.746 61.0567 316.373 60.93 317.12 60.93C318.336 60.93 319.28 61.3227 319.951 62.108C320.635 62.8807 320.977 63.913 320.977 65.205V70.563C320.977 70.6897 320.933 70.7973 320.844 70.886C320.768 70.962 320.667 71 320.54 71H319.59C319.464 71 319.356 70.962 319.267 70.886C319.191 70.7973 319.153 70.6897 319.153 70.563V65.3C319.153 64.4007 318.932 63.704 318.488 63.21C318.058 62.716 317.431 62.469 316.607 62.469C315.809 62.469 315.176 62.7223 314.707 63.229C314.239 63.723 314.004 64.4133 314.004 65.3V70.563C314.004 70.6897 313.96 70.7973 313.871 70.886C313.795 70.962 313.694 71 313.567 71H312.617Z" fill="#868686"/>
<path d="M327.655 71.19C326.35 71.19 325.305 70.791 324.52 69.993C323.747 69.1823 323.323 68.0803 323.247 66.687L323.228 66.041L323.247 65.414C323.335 64.046 323.766 62.9567 324.539 62.146C325.324 61.3353 326.356 60.93 327.636 60.93C329.042 60.93 330.131 61.3797 330.904 62.279C331.676 63.1657 332.063 64.369 332.063 65.889V66.212C332.063 66.3387 332.018 66.4463 331.93 66.535C331.854 66.611 331.752 66.649 331.626 66.649H325.052V66.82C325.09 67.6433 325.337 68.3463 325.793 68.929C326.261 69.499 326.876 69.784 327.636 69.784C328.218 69.784 328.693 69.67 329.061 69.442C329.441 69.2013 329.719 68.9543 329.897 68.701C330.011 68.549 330.093 68.4603 330.144 68.435C330.207 68.397 330.315 68.378 330.467 68.378H331.398C331.512 68.378 331.607 68.4097 331.683 68.473C331.759 68.5363 331.797 68.625 331.797 68.739C331.797 69.0177 331.619 69.3533 331.265 69.746C330.923 70.1387 330.435 70.4807 329.802 70.772C329.181 71.0507 328.465 71.19 327.655 71.19ZM330.258 65.338V65.281C330.258 64.407 330.017 63.6977 329.536 63.153C329.067 62.5957 328.434 62.317 327.636 62.317C326.838 62.317 326.204 62.5957 325.736 63.153C325.28 63.6977 325.052 64.407 325.052 65.281V65.338H330.258Z" fill="#868686"/>
<path d="M334.772 71C334.645 71 334.537 70.962 334.449 70.886C334.373 70.7973 334.335 70.6897 334.335 70.563V61.576C334.335 61.4493 334.373 61.3417 334.449 61.253C334.537 61.1643 334.645 61.12 334.772 61.12H335.646C335.772 61.12 335.88 61.1643 335.969 61.253C336.057 61.3417 336.102 61.4493 336.102 61.576V62.412C336.621 61.5507 337.508 61.12 338.762 61.12H339.503C339.629 61.12 339.731 61.1643 339.807 61.253C339.895 61.329 339.94 61.4303 339.94 61.557V62.336C339.94 62.4627 339.895 62.564 339.807 62.64C339.731 62.716 339.629 62.754 339.503 62.754H338.363C337.679 62.754 337.14 62.9567 336.748 63.362C336.355 63.7547 336.159 64.293 336.159 64.977V70.563C336.159 70.6897 336.114 70.7973 336.026 70.886C335.937 70.962 335.829 71 335.703 71H334.772Z" fill="#868686"/>
<path d="M97.549 53.9271C97.8484 53.0058 99.1518 53.0058 99.4511 53.9271L101.306 59.6373C101.44 60.0493 101.824 60.3283 102.258 60.3283H108.262C109.23 60.3283 109.633 61.5679 108.849 62.1373L103.992 65.6664C103.642 65.9211 103.495 66.3724 103.629 66.7845L105.484 72.4947C105.783 73.416 104.729 74.1821 103.945 73.6127L99.0879 70.0836C98.7374 69.829 98.2628 69.829 97.9123 70.0836L93.0549 73.6127C92.2712 74.1821 91.2167 73.416 91.516 72.4947L93.3714 66.7845C93.5053 66.3724 93.3586 65.9211 93.0081 65.6664L88.1507 62.1373C87.367 61.5679 87.7698 60.3283 88.7385 60.3283H94.7426C95.1758 60.3283 95.5598 60.0493 95.6936 59.6373L97.549 53.9271Z" fill="#FDC500"/>
</svg>
