<?xml version="1.0" encoding="utf-8"?>
<!-- Generator: Adobe Illustrator 24.1.3, SVG Export Plug-In . SVG Version: 6.00 Build 0)  -->
<svg version="1.1" id="Layer_1" xmlns="http://www.w3.org/2000/svg" xmlns:xlink="http://www.w3.org/1999/xlink" x="0px" y="0px"
	 viewBox="0 0 218.9 89.8" style="enable-background:new 0 0 218.9 89.8;" xml:space="preserve">
<style type="text/css">
	.st0{fill:url(#SVGID_1_);}
	.st1{fill:url(#SVGID_2_);}
	.st2{fill:#FFFFFF;stroke:#1A171B;stroke-width:0.5145;stroke-linecap:round;}
	.st3{fill:#FFFFFF;enable-background:new    ;}
	.st4{fill:url(#SVGID_3_);}
	.st5{fill:url(#SVGID_4_);}
	.st6{fill:url(#SVGID_5_);}
	.st7{fill:#8B1820;}
	.st8{fill:url(#SVGID_6_);}
	.st9{fill:#FFFFFF;}
	.st10{fill:#1A171B;}
</style>
<g>
	<linearGradient id="SVGID_1_" gradientUnits="userSpaceOnUse" x1="20.2747" y1="66.223" x2="58.6366" y2="-5.1848">
		<stop  offset="0" style="stop-color:#636466"/>
		<stop  offset="3.675586e-02" style="stop-color:#68696B"/>
		<stop  offset="0.2712" style="stop-color:#838486"/>
		<stop  offset="0.509" style="stop-color:#97989A"/>
		<stop  offset="0.7502" style="stop-color:#A2A3A5"/>
		<stop  offset="1" style="stop-color:#A6A7A9"/>
	</linearGradient>
	<path class="st0" d="M41.3,81.7c0,0-40.1-13.6-35.5-69.3c0,0,17.7-5.1,35.5-5.1c17.9,0,35.1,4.9,35.7,5.1
		C81.6,68,41.3,81.7,41.3,81.7z"/>
	<linearGradient id="SVGID_2_" gradientUnits="userSpaceOnUse" x1="56.3211" y1="45.7504" x2="6.7738" y2="12.969">
		<stop  offset="0" style="stop-color:#C5C6C8"/>
		<stop  offset="9.484351e-02" style="stop-color:#DCDDDE"/>
		<stop  offset="0.2048" style="stop-color:#F0F0F0"/>
		<stop  offset="0.3167" style="stop-color:#FBFBFB"/>
		<stop  offset="0.4326" style="stop-color:#FFFFFF"/>
		<stop  offset="0.5362" style="stop-color:#F6F7F7"/>
		<stop  offset="0.7022" style="stop-color:#DFDFE0"/>
		<stop  offset="0.9089" style="stop-color:#B9BABB"/>
		<stop  offset="1" style="stop-color:#A6A7A9"/>
	</linearGradient>
	<path class="st1" d="M41.3,81.7c0,0-40.1-13.6-35.5-69.3c0,0,17.7-5.1,35.5-5.1c17.9,0,35.1,4.9,35.7,5.1l-3.7,3.3l-32,62.5
		L41.3,81.7z"/>
	<path class="st2" d="M41.3,78.1c0,0-36.3-12.3-32.2-62.8c0,0,16-4.6,32.2-4.6c16.2,0,31.8,4.4,32.3,4.6
		C77.8,65.8,41.3,78.1,41.3,78.1z"/>
	<g>
		<path class="st3" d="M41.3,78.1c0,0-36.3-12.3-32.2-62.8c0,0,16-4.6,32.2-4.6c16.2,0,31.8,4.4,32.3,4.6
			C77.8,65.8,41.3,78.1,41.3,78.1z"/>
	</g>
	<linearGradient id="SVGID_3_" gradientUnits="userSpaceOnUse" x1="68.8412" y1="55.0289" x2="16.5857" y2="19.6795">
		<stop  offset="0" style="stop-color:#4B4B4D"/>
		<stop  offset="0.2321" style="stop-color:#646466"/>
		<stop  offset="0.482" style="stop-color:#77787A"/>
		<stop  offset="0.7365" style="stop-color:#828385"/>
		<stop  offset="1" style="stop-color:#868789"/>
	</linearGradient>
	<path class="st4" d="M9,14.9L8.6,15l0,0.4C6.4,41.6,15.4,57.4,23.3,66c8.6,9.4,17.8,12.6,17.9,12.6l0.2,0.1l0.2-0.1
		c0.1,0,9.3-3.2,17.9-12.6c7.9-8.6,16.9-24.5,14.7-50.7l0-0.3l-0.3-0.1c-0.1,0-16-4.6-32.4-4.6C25.2,10.2,9.1,14.8,9,14.9z M41.7,11
		c15,0,29.2,3.9,31.5,4.5c0.2,2.6,0.3,5.6,0.3,7.9c0,21.2-7.9,34.7-14.9,42.3c-7.8,8.5-16.1,11.9-17.4,12.3
		c-1.2-0.5-9.8-3.8-17.5-12.3C16.8,58.2,9.1,44.9,9.1,23.7c0-2.3,0.3-5.3,0.5-7.9C11.9,15.1,27.1,11,41.7,11z"/>
	<linearGradient id="SVGID_4_" gradientUnits="userSpaceOnUse" x1="18.1571" y1="52.6025" x2="62.8413" y2="20.7057">
		<stop  offset="0" style="stop-color:#8B1820"/>
		<stop  offset="0.6067" style="stop-color:#CC1332"/>
		<stop  offset="0.7079" style="stop-color:#CA0233"/>
		<stop  offset="1" style="stop-color:#8B1E40"/>
	</linearGradient>
	<path class="st5" d="M41.3,71.9c0,0-30.5-11.2-27-53.4c0,0,13.4,1.1,27,1.1c13.6,0,26.7-1,27.1-1.1C71.9,60.7,41.3,71.9,41.3,71.9z
		"/>
	<radialGradient id="SVGID_5_" cx="34.0522" cy="29.4958" r="47.4952" gradientUnits="userSpaceOnUse">
		<stop  offset="0" style="stop-color:#CC1332"/>
		<stop  offset="0.4607" style="stop-color:#CA0233"/>
		<stop  offset="1" style="stop-color:#8B1E40"/>
	</radialGradient>
	<path class="st6" d="M41.3,68.2c0,0-26.3-9.6-23.3-46.2c0,0,11.6,0.9,23.3,0.9c11.7,0,23-0.9,23.4-0.9
		C67.7,58.6,41.3,68.2,41.3,68.2z"/>
	<path class="st7" d="M68.4,18.4c-0.4,0-13.5,1.1-27.1,1.1c-13.6,0-27-1.1-27-1.1l3.7,3.6c0,0,11.6,0.9,23.3,0.9
		c11.7,0,23-0.9,23.4-0.9L68.4,18.4z"/>
	<linearGradient id="SVGID_6_" gradientUnits="userSpaceOnUse" x1="5.2425" y1="21.9294" x2="44.7535" y2="67.5018">
		<stop  offset="0" style="stop-color:#8B1820"/>
		<stop  offset="0.6067" style="stop-color:#CC1332"/>
		<stop  offset="0.7079" style="stop-color:#CA0233"/>
		<stop  offset="1" style="stop-color:#8B1E40"/>
	</linearGradient>
	<path class="st8" d="M41.3,71.9c0,0-30.5-11.2-27-53.4l3.7,3.6c-3,36.5,23.3,46.2,23.3,46.2L41.3,71.9z"/>
	<g>
		
			<image style="overflow:visible;opacity:0.25;" width="24" height="32" xlink:href="6BB9D118.png"  transform="matrix(1 0 0 1 23.6505 24.1744)">
		</image>
		<g>
			<polygon class="st9" points="25,53.6 29.3,25.3 36.6,25.3 45.4,53.6 37.8,53.6 34,38.9 31.8,53.6 			"/>
		</g>
	</g>
	<g>
		
			<image style="overflow:visible;opacity:0.25;" width="18" height="32" xlink:href="6BB9D119.png"  transform="matrix(1 0 0 1 41.6505 24.1744)">
		</image>
		<g>
			<polygon class="st9" points="46.6,25.3 53.7,25.3 57.9,53.6 51,53.6 48.6,38.9 46.1,50.4 42.3,38.9 			"/>
		</g>
	</g>
	<g>
		<path class="st10" d="M103.3,39l-5.6,0l-5.4-13.6h-0.1l-2,13.6h-6.1l4-25.4h6L103.3,39z M99.4,25.9l4.6-12.4h6.1l3.5,25.4h-6.1
			l-1.7-13.6h-0.1l-3.5,8.2L99.4,25.9z"/>
		<path class="st10" d="M136.7,34.5l-1.5,4.4h-6.1l8.6-25.4h6.3l8.4,25.4h-6.2l-1.4-4.4H136.7z M140.8,21.4L140.8,21.4l-2.5,8.1h4.8
			L140.8,21.4z"/>
		<path class="st10" d="M183.2,31.3h-11.9c0,2.5,1.2,3.8,3.5,3.8c1.2,0,2.1-0.4,2.7-1.6h5.4c-0.4,2-1.6,3.5-3,4.5
			c-1.5,1-3.3,1.4-5.1,1.4c-5.3,0-9.2-3.2-9.2-9.2c0-5.8,3.6-9.2,8.8-9.2c5.5,0,8.7,3.7,8.7,9.6V31.3z M177.9,27.8
			c-0.3-1.7-1.7-2.7-3.2-2.7c-1.6,0-3,0.9-3.4,2.7H177.9z"/>
		<path class="st10" d="M202.7,31.3h-11.9c0,2.5,1.2,3.8,3.5,3.8c1.2,0,2.1-0.4,2.7-1.6h5.4c-0.4,2-1.6,3.5-3,4.5
			c-1.5,1-3.3,1.4-5.1,1.4c-5.3,0-9.2-3.2-9.2-9.2c0-5.8,3.6-9.2,8.8-9.2c5.5,0,8.7,3.7,8.7,9.6V31.3z M197.4,27.8
			c-0.3-1.7-1.7-2.7-3.2-2.7c-1.6,0-3,0.9-3.4,2.7H197.4z"/>
		<path class="st10" d="M203.5,18.3c0-2.4,1.9-4.3,4.3-4.3c2.4,0,4.3,1.9,4.3,4.3s-1.9,4.3-4.3,4.3
			C205.4,22.6,203.5,20.7,203.5,18.3z M204.2,18.3c0,2,1.7,3.6,3.6,3.6c2,0,3.6-1.6,3.6-3.6c0-2-1.7-3.6-3.6-3.6
			C205.8,14.7,204.2,16.2,204.2,18.3z M209.8,20.8H209l-1.2-2.2h-0.9v2.2h-0.7v-4.9h2c0.9,0,1.7,0.3,1.7,1.3c0,1-0.6,1.3-1.3,1.3
			L209.8,20.8z M206.8,16.6v1.2h0.8c0.7,0,1.6,0.1,1.6-0.6c0-0.6-0.5-0.7-1.1-0.7H206.8z"/>
	</g>
	<g>
		<path class="st10" d="M154.5,25.8h-3.3v-4.2h3.4v-2c0-5.1,2.3-6.9,6.7-6.9c1.2,0,2.1,0.2,2.9,0.3l-0.3,4.1
			c-0.5-0.2-0.9-0.3-1.8-0.3c-1.4,0-2,1.1-2,2.7v2h4v4.2h-4v13.1h-5.6V25.8z"/>
	</g>
	<g>
		<path class="st10" d="M97,51.1c-1.8-0.7-2.8-1-4.6-1c-2,0-4.3,0.7-4.3,3.2c0,4.6,10.6,3.5,10.6,11.4c0,5.1-4.1,7.1-9,7.1
			c-1.7,0-3.4-0.5-5-1l0.4-3.2c1.2,0.5,3.3,1.2,5.1,1.2c2,0,4.8-1.1,4.8-3.9c0-5.3-10.6-3.9-10.6-11.3c0-4.2,3.5-6.5,7.9-6.5
			c1.6,0,3.6,0.3,5.3,0.9L97,51.1z"/>
		<path class="st10" d="M103.6,47.5h13.8v3h-10.3v7h9.4v3h-9.4v7.9h10.3v3h-13.8V47.5z"/>
		<path class="st10" d="M138.7,51.4c-1.6-0.9-3.3-1.3-5.1-1.3c-5.7,0-9.5,4-9.5,9.3c0,5.6,4.2,9.3,9.3,9.3c1.8,0,4.1-0.4,5.4-1.2
			l0.2,3.3c-1.9,0.8-4.2,0.9-5.6,0.9c-7.8,0-13-4.9-13-12.5c0-7.4,5.5-12.3,13-12.3c1.9,0,3.8,0.3,5.5,1L138.7,51.4z"/>
		<path class="st10" d="M161,61.5c0,6.7-3.5,10.3-9.6,10.3c-6.1,0-9.6-3.6-9.6-10.3v-14h3.5V61c0,4.6,1.5,7.7,6,7.7
			c4.6,0,6-3.1,6-7.7V47.5h3.5V61.5z"/>
		<path class="st10" d="M166.6,47.5h6c4.9,0,9.6,0.8,9.6,6.5c0,2.9-2.2,5-5.1,5.4v0.1c1.1,0.4,1.6,0.9,2.4,2.4l4.7,9.5h-4l-3.8-8.3
			c-1.1-2.3-2.3-2.3-4.1-2.3h-2.1v10.6h-3.5V47.5z M170.1,57.7h3c3.4,0,5.3-1.4,5.3-3.7c0-2.2-1.7-3.5-4.9-3.5h-3.4V57.7z"/>
		<path class="st10" d="M188.1,47.5h13.8v3h-10.3v7h9.4v3h-9.4v7.9h10.3v3h-13.8V47.5z"/>
	</g>
	<path class="st10" d="M127.7,27.1c-1-0.7-2.1-1-3.4-1c-2.4,0-4.3,1.8-4.3,4.8c0,2.7,2.2,4.5,4.6,4.5c1.3,0,2.5-0.3,3.5-0.8l0.1,4.4
		c-1.4,0.5-3.1,0.8-4.6,0.8c-5.3,0-9.4-3.3-9.4-9c0-5.7,4.1-9,9.4-9c1.7,0,3.2,0.3,4.4,1L127.7,27.1z"/>
</g>
</svg>
