<svg height="496pt" viewBox="-56 0 496 496" width="496pt" xmlns="http://www.w3.org/2000/svg"><path d="m288 360v-48h-192v48h-32v136h256v-136zm0 0" fill="#f0bc5e"/><path d="m192 200c-44.113281 0-80-35.886719-80-80s35.886719-80 80-80 80 35.886719 80 80-35.886719 80-80 80zm0 0" fill="#f0bc5e"/><path d="m184 72h16v64h-16zm0 0"/><path d="m184 152h16v16h-16zm0 0"/><path d="m312 100.6875v-100.6875h-240v100.6875l-72 72v203.3125h64v56h16v-72h-52.6875l108.175781-108.175781 56.511719 46.542969 56.511719-46.542969 108.175781 108.175781h-52.6875v72h16v-56h64v-203.3125zm44.6875 67.3125h-31.550781l-13.136719 10.816406v-55.503906zm-284.6875 10.816406-13.136719-10.816406h-31.550781l44.6875-44.6875zm-56 169.871094v-164.6875h37.136719l18.863281 15.535156v.464844h.558594l50.519531 41.609375zm72-156.695312v-175.992188h208v175.992188l-104 85.640624zm223.441406 8.007812h.558594v-.464844l18.863281-15.535156h37.136719v164.6875l-107.078125-107.078125zm0 0"/><path d="m64 448h16v16h-16zm0 0"/><path d="m64 480h16v16h-16zm0 0"/><path d="m304 448h16v16h-16zm0 0"/><path d="m304 480h16v16h-16zm0 0"/><path d="m96 312h16v16h-16zm0 0"/><path d="m96 344h16v16h-16zm0 0"/><path d="m96 376h16v120h-16zm0 0"/><path d="m128 312h16v72h-16zm0 0"/><path d="m128 400h16v16h-16zm0 0"/><path d="m128 432h16v16h-16zm0 0"/><path d="m160 312h16v16h-16zm0 0"/><path d="m160 344h16v16h-16zm0 0"/><path d="m160 376h16v120h-16zm0 0"/><path d="m208 312h16v16h-16zm0 0"/><path d="m208 344h16v16h-16zm0 0"/><path d="m208 376h16v120h-16zm0 0"/><path d="m240 312h16v72h-16zm0 0"/><path d="m240 400h16v16h-16zm0 0"/><path d="m240 432h16v16h-16zm0 0"/><path d="m272 312h16v16h-16zm0 0"/><path d="m272 344h16v16h-16zm0 0"/><path d="m272 376h16v120h-16zm0 0"/></svg>