<?xml version="1.0" encoding="utf-8"?>
<!-- Generator: Adobe Illustrator 24.1.3, SVG Export Plug-In . SVG Version: 6.00 Build 0)  -->
<svg version="1.1" id="Layer_1" xmlns="http://www.w3.org/2000/svg" xmlns:xlink="http://www.w3.org/1999/xlink" x="0px" y="0px"
	 viewBox="0 0 420.9 103" style="enable-background:new 0 0 420.9 103;" xml:space="preserve">
<style type="text/css">
	.st0{fill:#F05C28;}
	.st1{fill:#1B86C2;}
	.st2{fill:#F58C24;}
</style>
<g>
	<g>
		<path class="st0" d="M391.1,34.8c0,2.9-2.3,5.1-5.2,5.1c-2.9,0-5.2-2.3-5.2-5.1c0-2.8,2.3-5.1,5.2-5.1
			C388.8,29.8,391.1,32,391.1,34.8z M381.9,34.8c0,2.3,1.7,4.1,4,4.1c2.2,0,3.9-1.8,3.9-4c0-2.3-1.6-4.1-3.9-4.1
			S381.9,32.6,381.9,34.8z M385,37.5h-1.2v-5.1c0.5-0.1,1.1-0.2,2-0.2c1,0,1.4,0.2,1.8,0.4c0.3,0.2,0.5,0.6,0.5,1.1
			c0,0.6-0.4,1-1.1,1.2V35c0.5,0.2,0.8,0.6,0.9,1.2c0.2,0.8,0.2,1.1,0.4,1.3h-1.3c-0.2-0.2-0.2-0.7-0.4-1.2
			c-0.1-0.6-0.4-0.8-1.1-0.8H385V37.5z M385.1,34.6h0.6c0.7,0,1.2-0.2,1.2-0.7c0-0.5-0.3-0.8-1.1-0.8c-0.3,0-0.5,0-0.7,0.1V34.6z"/>
	</g>
	<path class="st0" d="M89.4,83.2C84.3,84,79.2,84.7,74,84.4c-12.3-0.8-23.5-4.5-32.8-13c-11.5-10.6-13-26.6-3.4-38.8
		c0.8-1,0.9-1.9,0.5-3c-1.4-4-2.6-8-4-12c-0.5-1.6-0.4-3,0.9-4.2c1.3-1.2,2.8-1.1,4.4-0.3c4.5,2.2,9,4.3,13.5,6.5
		c0.8,0.4,1.5,0.6,2.4,0.2c10.9-4.3,22.1-5,33.6-2.8c5.6,1.2,10.9,3.4,16,6.1c2,1.5,4.1,2.9,6,4.5c12.8,10.7,14.7,27.4,4.7,40.1
		c-2.9,3.7-6.6,6.5-10.4,9.2C100.4,79.7,95,81.8,89.4,83.2z M72.1,76.9c0,0.4,0.3,0.3,0.5,0.3c5.3,0.4,10.5,0.3,15.6-1.1
		c7.7-1.5,14.5-4.8,20-10.4c7.8-7.8,9.2-18.2,3.5-26.8c-5.5-8.4-13.8-12.7-23.4-14.8c-5.2-1.3-10.5-1.9-15.9-1.1
		c-5.5,0.2-10.7,1.6-15.7,3.8c-1.8,0.8-3.3,0.8-5.1-0.1c-2.6-1.4-5.3-2.6-8.3-4c0.9,2.9,1.7,5.5,2.6,8c0.5,1.5,0.2,2.7-0.8,3.8
		c-0.6,0.7-1.2,1.4-1.8,2.1c-6.4,8-6.7,17.7-0.6,25.9c5.6,7.5,13.4,11.3,22.2,13.4C67.4,76.6,69.7,77.3,72.1,76.9L72.1,76.9z"/>
	<path class="st0" d="M217.2,34.4c2.8-2.9,6.2-3.9,10-4c4.5-0.1,8.3,1.4,11.1,4.9c0.9,1.2,1.3,1.3,2.4,0.1
		c5.1-5.3,13.4-6.6,19.8-3.2c4.9,2.6,7.4,6.9,7.6,12.4c0.2,7.7,0.1,15.4,0.1,23.2c0,2.7-1.7,4.3-4.2,4.2c-2.5-0.1-3.8-1.5-3.8-4.3
		c0-7.1,0-14.3,0-21.4c0-7-4.9-10.8-11.7-9c-3.8,1-5.9,4-6,8.7c0,7.3,0,14.6,0,22c0,2.9-2,4.5-4.9,3.9c-2.1-0.4-3-1.7-3-4.2
		c0-7,0-14,0-21c0-1.6-0.1-3.2-0.6-4.7c-1.4-3.7-5.4-5.8-9.9-5c-4.3,0.7-6.9,3.6-7,7.8c-0.1,7.4,0,14.8,0,22.2c0,3.2-1,4.6-3.4,4.9
		c-2.5,0.4-4.3-1-4.6-3.5c-0.1-0.8-0.1-1.6-0.1-2.4c0-10.4,0-20.7,0-31.1c0-3.5,2-5.1,5.1-4.4C215.6,30.9,216.3,31.6,217.2,34.4z"/>
	<path class="st1" d="M89.4,83.2c5.6-1.5,11-3.5,16-6.3c0.3,0.1,0.6,0.4,0.9,0.3c4.9-0.8,9.9-1.7,14.4-3.9c1.9-0.9,3.5-0.8,5.2,0.2
		c2.5,1.3,5.2,2.5,8.1,3.9c-0.7-2.2-1.2-4.1-1.9-5.9c-1.3-2.9-0.8-5,1.3-7.5c7.5-8.5,7.5-19.3,0.1-27.9
		c-7.4-8.6-17.4-12.2-28.5-13.1c-5.1-2.7-10.4-4.9-16-6.1c17.5-3,33.6-0.4,47.1,11.9c11.9,10.7,13.1,26.3,3.4,38.9
		c-0.7,0.9-0.8,1.7-0.4,2.7c1.3,3.9,2.6,7.9,3.9,11.8c0.6,1.7,0.7,3.3-0.8,4.5c-1.4,1.3-3,1-4.6,0.2c-4.3-2.1-8.6-4.1-12.8-6.2
		c-1.2-0.6-2.2-0.7-3.5-0.2c-10.2,3.9-20.6,4.7-31.3,2.9C89.9,83.5,89.6,83.3,89.4,83.2z"/>
	<path class="st0" d="M283.6,34.9c4.5-4.1,9.4-5.2,14.7-4.2c5.9,1,10.3,4.4,12.8,9.8c3.8,8.1,3.5,16.1-1.4,23.7
		c-5,7.7-14.4,9.1-21.6,6.6c-1.7-0.6-3.1-1.7-4.3-3.1c-1.3,3.5-2.5,4.5-5,4.2c-1.9-0.3-3-1.3-3.3-3.1c-0.1-0.6-0.1-1.2-0.1-1.8
		c0-15,0-30.1,0-45.1c0-2.8,0.8-4.2,2.7-4.7c3.1-0.9,5.3,0.8,5.4,4.1c0.1,3.8,0,7.5,0,11.3C283.5,33.2,283.5,33.8,283.6,34.9z
		 M282.7,51.1c0,2.8,0.4,5.6,1.8,8.2c2,4,5.3,6.1,9.8,6.1c4.5-0.1,7.7-2.1,9.5-6.2c2.5-5.6,2.5-11.3-0.3-16.8
		c-1.8-3.6-4.9-5.4-8.9-5.6c-4.1-0.1-7.3,1.5-9.5,5C283.3,44.7,282.8,47.8,282.7,51.1z"/>
	<path class="st0" d="M369.9,66.9c-2.6,2.6-5.5,4.4-9,4.8c-9.4,1.1-17.5-3.9-20.4-12.9c-2.7-8.5-1.5-16.3,4.6-23
		c5.4-6,17.1-7.8,23.9-1.6c0.2,0.2,0.5,0.4,0.9,0.7c0.2-2.4,0.9-4.3,3.6-4.5c2.3-0.2,4.1,1.2,4.1,3.5c0,11.5,0,23,0,34.4
		c0,2.1-1.4,3.4-3.5,3.6c-1.9,0.1-3.5-1-3.9-2.9C370.1,68.4,370,67.8,369.9,66.9z M370,51.1c0.1-1.5-0.2-3.1-0.5-4.7
		c-1.4-5.9-5.4-9.4-10.8-9.5c-5.5,0-9.4,3.3-10.9,9.3c-1.1,4.3-0.9,8.5,0.9,12.6c1.8,4.2,5,6.5,9.7,6.6c4.8,0.1,8.2-2.2,10.2-6.5
		C369.6,56.5,370,53.9,370,51.1z"/>
	<path class="st0" d="M167.6,65c6.1,0,12.1,0,18.1,0c0.8,0,1.6,0,2.3,0.2c1.5,0.6,2.2,1.7,2.1,3.2c-0.1,1.5-1,2.4-2.4,2.8
		c-0.7,0.2-1.4,0.1-2.2,0.1c-8.2,0-16.5,0-24.7,0c-1.5,0-3.2,0.1-4-1.5c-1-1.7,0-3.2,1-4.5c6.2-8.6,12.5-17.2,18.7-25.8
		c0.5-0.6,0.9-1.3,1.3-1.9c-0.4-0.6-1-0.4-1.5-0.4c-4.7,0-9.5,0-14.2,0c-0.9,0-1.7,0-2.5-0.2c-1.5-0.4-2.3-1.5-2.3-3.1
		c0-1.6,0.9-2.6,2.4-3c0.8-0.2,1.6-0.2,2.4-0.2c7.5,0,15,0,22.6,0c0.3,0,0.5,0,0.8,0c1.4,0,2.8,0.1,3.6,1.6c0.7,1.4,0.1,2.7-0.7,3.9
		c-1.9,2.7-3.9,5.4-5.9,8.2c-4.6,6.3-9.2,12.5-13.9,18.8C168.1,63.7,167.6,64.1,167.6,65z"/>
	<path class="st0" d="M326.9,36c1.1-1.2,2-2.2,3.1-3.1c2.1-1.7,4.4-2.9,7.3-2.4c2,0.3,3.3,1.6,3.4,3.3c0.1,1.8-0.8,3-2.5,3.6
		c-1.1,0.4-2.3,0.6-3.4,0.9c-4.7,1.2-7.7,4.6-7.9,9.4c-0.2,6.7-0.1,13.3-0.2,20c0,3.1-2.4,4.8-5.4,3.9c-2-0.6-2.6-2.2-2.6-4.2
		c0-7.7,0-15.3,0-23c0-3.2,0-6.3,0-9.5c0-3.1,1.2-4.6,3.8-4.7c2.7-0.1,4,1.3,4.2,4.5C326.7,35.1,326.8,35.4,326.9,36z"/>
	<path class="st0" d="M202,51.2c0,5.5,0,11,0,16.4c0,2.9-1.8,4.6-4.4,4.3c-2.3-0.2-3.5-1.6-3.6-4.1c0-8.8,0-17.7,0-26.5
		c0-2.2,0-4.5,0-6.7c0-2.7,1.5-4.2,4-4.2c2.4,0,4,1.5,4,4.2C202.1,40.1,202,45.6,202,51.2z"/>
	<path class="st0" d="M197.2,17c2.6,0,4.5,1.9,4.5,4.4c0,2.6-1.9,4.5-4.5,4.6c-2.5,0-4.5-2-4.6-4.5C192.7,19,194.6,17,197.2,17z"/>
	<path class="st1" d="M72.1,76.9c-2.8-2.1-5.6-4.1-8.1-6.6C52,58.1,52.6,40,65.3,28.6c2.3-2,4.7-3.8,7.2-5.5
		c5.4-0.8,10.7-0.3,15.9,1.1c-5.3,1.5-10.3,3.5-14.8,6.7c-15,10.7-14.9,28.3,0.4,38.8c4.4,3,9.3,4.9,14.3,6.4
		c-5.1,1.4-10.4,1.5-15.6,1.1C72.4,77.1,72.2,77,72.1,76.9L72.1,76.9z"/>
	<path class="st2" d="M88.3,66.1c-5.3-0.2-10.5-2.3-14.4-7.1c-1.8-2.2-1.8-4.3,0-5.7c1.7-1.4,3.6-0.9,5.4,1.2
		c5.1,6.2,14.6,6.2,19.7,0c1.8-2.1,3.7-2.5,5.5-1.2c1.7,1.4,1.7,3.6-0.1,5.8C100.7,63.6,95.2,66.1,88.3,66.1z"/>
	<path class="st1" d="M84.7,41.5c0,2.9-2.4,5.3-5.2,5.3c-3,0-5.4-2.4-5.4-5.3c0-3,2.4-5.3,5.4-5.3C82.4,36.2,84.7,38.6,84.7,41.5z"
		/>
	<path class="st1" d="M104.2,41.4c0,3-2.2,5.3-5.2,5.4c-3,0-5.5-2.4-5.4-5.4c0-2.9,2.4-5.3,5.3-5.3C102,36.2,104.2,38.4,104.2,41.4z
		"/>
</g>
</svg>
