<svg height="512" viewBox="0 0 64 64" width="512" xmlns="http://www.w3.org/2000/svg"><path d="m45 1h-26a5.006 5.006 0 0 0 -5 5v52a5.006 5.006 0 0 0 5 5h26a5.006 5.006 0 0 0 5-5v-52a5.006 5.006 0 0 0 -5-5zm-8.281 2-.5 2h-8.438l-.5-2zm11.281 55a3 3 0 0 1 -3 3h-26a3 3 0 0 1 -3-3v-52a3 3 0 0 1 3-3h6.22l.81 3.243a1 1 0 0 0 .97.757h10a1 1 0 0 0 .97-.757l.81-3.243h6.22a3 3 0 0 1 3 3z"/><path d="m46 57h-1a1 1 0 0 0 0 2h1a1 1 0 0 0 0-2z"/><path d="m42 57h-7a1 1 0 0 0 0 2h7a1 1 0 0 0 0-2z"/><path d="m40 39v-14a1 1 0 0 0 -1-1h-14a1 1 0 0 0 -1 1v14a1 1 0 0 0 1 1h14a1 1 0 0 0 1-1zm-2-1h-12v-12h12z"/><path d="m29.293 36.707a1 1 0 0 0 .707.293h.071a1 1 0 0 0 .729-.4l6-8a1 1 0 0 0 -1.6-1.2l-5.308 7.078-1.185-1.185a1 1 0 0 0 -1.414 1.414z"/></svg>