<svg height="512pt" viewBox="0 -56 512 512" width="512pt" xmlns="http://www.w3.org/2000/svg"><path d="m482 0h-452c-16.539062 0-30 13.460938-30 30v340c0 16.539062 13.460938 30 30 30h452c16.539062 0 30-13.460938 30-30v-340c0-16.539062-13.460938-30-30-30zm10 370c0 5.511719-4.488281 10-10 10h-452c-5.511719 0-10-4.488281-10-10v-283.980469h472zm-472-303.980469v-36.019531c0-5.511719 4.488281-10 10-10h452c5.511719 0 10 4.488281 10 10v36.019531zm0 0"/><path d="m170.671875 53.625h-79.835937c-5.523438 0-10-4.476562-10-10s4.476562-10 10-10h79.835937c5.523437 0 10 4.476562 10 10s-4.476563 10-10 10zm0 0"/><path d="m50.9375 53.625c-5.523438 0-10.003906-4.476562-10.003906-10s4.46875-10 9.992187-10h.011719c5.523438 0 10 4.476562 10 10s-4.476562 10-10 10zm0 0"/><path d="m443.101562 352.929688h-375.199218c-11.027344 0-20-8.96875-20-20v-200c0-11.027344 8.972656-20 20-20h375.199218c11.027344 0 20 8.972656 20 20v200c0 11.03125-8.972656 20-20 20zm-375.199218-220v200h375.199218.011719l-.011719-200zm0 0"/><path d="m185.785156 271.882812c-2.5625 0-5.125-.980468-7.078125-2.9375l-29.9375-30c-3.898437-3.902343-3.898437-10.222656 0-14.125l29.9375-30c3.902344-3.910156 10.234375-3.917968 14.144531-.015624 3.90625 3.898437 3.914063 10.230468.011719 14.140624l-22.890625 22.9375 22.890625 22.9375c3.902344 3.910157 3.894531 10.238282-.011719 14.140626-1.953124 1.949218-4.507812 2.921874-7.066406 2.921874zm0 0"/><path d="m325.21875 271.882812c-2.554688 0-5.113281-.972656-7.0625-2.921874-3.910156-3.902344-3.917969-10.230469-.015625-14.140626l22.890625-22.9375-22.890625-22.9375c-3.902344-3.910156-3.894531-10.242187.015625-14.140624 3.910156-3.902344 10.238281-3.898438 14.140625.011718l29.9375 30c3.898437 3.90625 3.898437 10.226563 0 14.128906l-29.9375 30c-1.953125 1.957032-4.515625 2.9375-7.078125 2.9375zm0 0"/><path d="m225.367188 273.980469c-2.554688 0-5.113282-.976563-7.0625-2.921875-3.910157-3.902344-3.917969-10.234375-.015626-14.144532l59.878907-60c3.898437-3.90625 10.230469-3.914062 14.140625-.015624 3.910156 3.902343 3.917968 10.234374.015625 14.144531l-59.878907 60c-1.953124 1.957031-4.515624 2.9375-7.078124 2.9375zm0 0"/></svg>