<svg enable-background="new 0 0 24 24" height="512" viewBox="0 0 24 24" width="512" xmlns="http://www.w3.org/2000/svg"><path d="m18 24c-.066 0-.132-.013-.194-.04-.238-.099-5.806-2.506-5.806-7.424v-4.179c0-.214.137-.405.34-.474l5.5-1.857c.104-.035.217-.035.32 0l5.5 1.857c.203.068.34.259.34.474v4.179c0 4.918-5.568 7.325-5.806 7.425-.062.026-.128.039-.194.039zm-5-11.284v3.82c0 3.785 4.055 5.958 5 6.414.944-.457 5-2.638 5-6.414v-3.82l-5-1.688z"/><path d="m17.5 19c-.009 0-.019 0-.027-.001-.143-.008-.274-.076-.363-.187l-2-2.5c-.172-.216-.138-.53.078-.703.217-.171.531-.137.703.078l1.65 2.064 3.105-3.105c.195-.195.512-.195.707 0s.195.512 0 .707l-3.5 3.5c-.093.095-.221.147-.353.147z"/><path d="m9.5 15h-7.5c-1.103 0-2-.897-2-2v-10c0-1.103.897-2 2-2h18c1.103 0 2 .897 2 2v6.5c0 .276-.224.5-.5.5s-.5-.224-.5-.5v-6.5c0-.551-.448-1-1-1h-18c-.552 0-1 .449-1 1v10c0 .551.448 1 1 1h7.5c.276 0 .5.224.5.5s-.224.5-.5.5z"/><path d="m11 9.578c-.366 0-.732-.083-1.066-.248l-9.656-4.782c-.248-.122-.348-.423-.226-.67.123-.248.425-.348.67-.226l9.655 4.782c.391.193.855.193 1.246 0l9.655-4.782c.245-.122.546-.021.67.227.122.247.021.547-.227.67l-9.655 4.781c-.334.165-.7.248-1.066.248z"/></svg>