<svg width="255" height="84" viewBox="0 0 255 84" fill="none" xmlns="http://www.w3.org/2000/svg">
<path d="M134.351 29.7976C132.673 29.7976 131.389 29.4467 130.497 28.7449C129.626 28.0431 129.191 27.0528 129.191 25.774V16.9784C129.191 15.6996 129.626 14.7093 130.497 14.0075C131.389 13.3057 132.673 12.9549 134.351 12.9549C136.028 12.9549 137.302 13.3057 138.172 14.0075C139.064 14.7093 139.51 15.6996 139.51 16.9784V18.7095H136.198V16.8146C136.198 15.801 135.614 15.2941 134.446 15.2941C133.278 15.2941 132.694 15.801 132.694 16.8146V25.9612C132.694 26.9593 133.278 27.4583 134.446 27.4583C135.614 27.4583 136.198 26.9593 136.198 25.9612V23.4582H139.51V25.774C139.51 27.0528 139.064 28.0431 138.172 28.7449C137.302 29.4467 136.028 29.7976 134.351 29.7976Z" fill="#001E63"/>
<path d="M144.313 13.1888H149.058L152.689 29.5636H149.185L148.548 26.3121V26.3589H144.568L143.931 29.5636H140.682L144.313 13.1888ZM148.134 24.1366L146.574 16.0427H146.51L144.982 24.1366H148.134ZM147.02 9.39917H150.842L147.434 12.0893H144.79L147.02 9.39917Z" fill="#001E63"/>
<path d="M154.388 13.1888H159.388L161.618 24.9085H161.681L163.911 13.1888H168.911V29.5636H165.599V17.1655H165.535L162.987 29.5636H160.057L157.509 17.1655H157.446V29.5636H154.388V13.1888Z" fill="#001E63"/>
<path d="M174.232 13.1888H178.977L182.608 29.5636H179.105L178.468 26.3121V26.3589H174.487L173.85 29.5636H170.601L174.232 13.1888ZM178.054 24.1366L176.493 16.0427H176.429L174.901 24.1366H178.054Z" fill="#001E63"/>
<path d="M184.307 13.1888H189.499C191.303 13.1888 192.62 13.5007 193.448 14.1245C194.276 14.7327 194.69 15.6762 194.69 16.955V17.9609C194.69 19.6608 193.925 20.7368 192.397 21.1891V21.2359C193.246 21.423 193.84 21.8051 194.18 22.3821C194.541 22.9591 194.722 23.7311 194.722 24.698V27.5753C194.722 28.0431 194.743 28.4252 194.785 28.7215C194.828 29.0022 194.934 29.2829 195.104 29.5636H191.537C191.409 29.2985 191.324 29.049 191.282 28.8151C191.24 28.5812 191.218 28.1601 191.218 27.5519V24.5576C191.218 23.8091 191.048 23.2866 190.709 22.9903C190.39 22.694 189.828 22.5458 189.021 22.5458H187.811V29.5636H184.307V13.1888ZM189.085 20.2066C189.785 20.2066 190.305 20.074 190.645 19.8089C191.006 19.5438 191.186 19.0993 191.186 18.4755V17.2123C191.186 16.6197 191.038 16.1908 190.741 15.9257C190.465 15.6606 190.019 15.528 189.403 15.528H187.811V20.2066H189.085Z" fill="#001E63"/>
<path d="M199.859 13.1888H204.604L208.235 29.5636H204.732L204.095 26.3121V26.3589H200.114L199.477 29.5636H196.229L199.859 13.1888ZM203.681 24.1366L202.12 16.0427H202.057L200.528 24.1366H203.681Z" fill="#001E63"/>
<path d="M129.191 33.5337H134.545C136.287 33.5337 137.593 33.8713 138.464 34.5465C139.335 35.2217 139.771 36.2115 139.771 37.516V45.6647C139.771 46.9691 139.335 47.9589 138.464 48.6341C137.593 49.3094 136.287 49.647 134.545 49.647H129.191V33.5337ZM134.481 47.3451C135.055 47.3451 135.49 47.2223 135.788 46.9768C136.106 46.7312 136.266 46.3322 136.266 45.7798V37.4009C136.266 36.8484 136.106 36.4494 135.788 36.2039C135.49 35.9583 135.055 35.8356 134.481 35.8356H132.697V47.3451H134.481Z" fill="#001E63"/>
<path d="M142.137 33.5337H151.697V35.8356H145.642V40.0941H150.454V42.396H145.642V47.3451H151.697V49.647H142.137V33.5337Z" fill="#001E63"/>
<path d="M163.757 49.8772C162.078 49.8772 160.793 49.5319 159.901 48.8413C159.03 48.1507 158.594 47.1763 158.594 45.9179V37.2627C158.594 36.0044 159.03 35.0299 159.901 34.3393C160.793 33.6488 162.078 33.3035 163.757 33.3035C165.435 33.3035 166.709 33.6488 167.581 34.3393C168.473 35.0299 168.919 36.0044 168.919 37.2627V38.9661H165.605V37.1016C165.605 36.1041 165.021 35.6054 163.852 35.6054C162.684 35.6054 162.099 36.1041 162.099 37.1016V46.102C162.099 47.0842 162.684 47.5753 163.852 47.5753C165.021 47.5753 165.605 47.0842 165.605 46.102V43.639H168.919V45.9179C168.919 47.1763 168.473 48.1507 167.581 48.8413C166.709 49.5319 165.435 49.8772 163.757 49.8772Z" fill="#001E63"/>
<path d="M176.145 49.8772C174.424 49.8772 173.107 49.5242 172.194 48.8183C171.28 48.1124 170.823 47.1149 170.823 45.8258V37.3548C170.823 36.0658 171.28 35.0683 172.194 34.3623C173.107 33.6564 174.424 33.3035 176.145 33.3035C177.866 33.3035 179.183 33.6564 180.097 34.3623C181.01 35.0683 181.467 36.0658 181.467 37.3548V45.8258C181.467 47.1149 181.01 48.1124 180.097 48.8183C179.183 49.5242 177.866 49.8772 176.145 49.8772ZM176.145 47.5753C177.356 47.5753 177.962 47.0458 177.962 45.987V37.1937C177.962 36.1348 177.356 35.6054 176.145 35.6054C174.934 35.6054 174.329 36.1348 174.329 37.1937V45.987C174.329 47.0458 174.934 47.5753 176.145 47.5753Z" fill="#001E63"/>
<path d="M183.837 33.5337H188.841L191.071 45.0662H191.135L193.366 33.5337H198.369V49.647H195.055V37.4469H194.991L192.441 49.647H189.51L186.96 37.4469H186.897V49.647H183.837V33.5337Z" fill="#001E63"/>
<path d="M200.984 33.5337H210.544V35.8356H204.49V40.0941H209.302V42.396H204.49V47.3451H210.544V49.647H200.984V33.5337Z" fill="#001E63"/>
<path d="M212.561 33.5337H217.755C219.561 33.5337 220.878 33.8406 221.707 34.4544C222.535 35.0529 222.949 35.9813 222.949 37.2397V38.2295C222.949 39.9023 222.185 40.9611 220.655 41.4062V41.4522C221.505 41.6364 222.1 42.0123 222.44 42.5801C222.801 43.1479 222.981 43.9076 222.981 44.859V47.6904C222.981 48.1507 223.003 48.5267 223.045 48.8183C223.088 49.0945 223.194 49.3708 223.364 49.647H219.795C219.667 49.3861 219.582 49.1406 219.54 48.9104C219.497 48.6802 219.476 48.2658 219.476 47.6673V44.7209C219.476 43.9843 219.306 43.4702 218.966 43.1786C218.647 42.8871 218.085 42.7413 217.277 42.7413H216.066V49.647H212.561V33.5337ZM217.341 40.4394C218.042 40.4394 218.563 40.3089 218.902 40.048C219.264 39.7872 219.444 39.3498 219.444 38.736V37.4929C219.444 36.9098 219.295 36.4878 218.998 36.2269C218.722 35.966 218.276 35.8356 217.66 35.8356H216.066V40.4394H217.341Z" fill="#001E63"/>
<path d="M230.353 49.8772C228.674 49.8772 227.389 49.5319 226.497 48.8413C225.626 48.1507 225.19 47.1763 225.19 45.9179V37.2627C225.19 36.0044 225.626 35.0299 226.497 34.3393C227.389 33.6488 228.674 33.3035 230.353 33.3035C232.031 33.3035 233.306 33.6488 234.177 34.3393C235.069 35.0299 235.515 36.0044 235.515 37.2627V38.9661H232.201V37.1016C232.201 36.1041 231.617 35.6054 230.448 35.6054C229.28 35.6054 228.696 36.1041 228.696 37.1016V46.102C228.696 47.0842 229.28 47.5753 230.448 47.5753C231.617 47.5753 232.201 47.0842 232.201 46.102V43.639H235.515V45.9179C235.515 47.1763 235.069 48.1507 234.177 48.8413C233.306 49.5319 232.031 49.8772 230.353 49.8772Z" fill="#001E63"/>
<path d="M237.612 33.5337H241.118V49.647H237.612V33.5337Z" fill="#001E63"/>
<path d="M248.81 49.8772C247.089 49.8772 245.772 49.5242 244.858 48.8183C243.945 48.1124 243.488 47.1149 243.488 45.8258V37.3548C243.488 36.0658 243.945 35.0683 244.858 34.3623C245.772 33.6564 247.089 33.3035 248.81 33.3035C250.531 33.3035 251.848 33.6564 252.761 34.3623C253.675 35.0683 254.131 36.0658 254.131 37.3548V45.8258C254.131 47.1149 253.675 48.1124 252.761 48.8183C251.848 49.5242 250.531 49.8772 248.81 49.8772ZM248.81 47.5753C250.021 47.5753 250.626 47.0458 250.626 45.987V37.1937C250.626 36.1348 250.021 35.6054 248.81 35.6054C247.599 35.6054 246.993 36.1348 246.993 37.1937V45.987C246.993 47.0458 247.599 47.5753 248.81 47.5753Z" fill="#001E63"/>
<path d="M129.191 53.9322H134.523C136.258 53.9322 137.559 54.27 138.426 54.9455C139.294 55.6211 139.728 56.6114 139.728 57.9165V66.0693C139.728 67.3743 139.294 68.3646 138.426 69.0402C137.559 69.7158 136.258 70.0535 134.523 70.0535H129.191V53.9322ZM134.459 67.7505C135.031 67.7505 135.464 67.6277 135.761 67.382C136.078 67.1363 136.237 66.7371 136.237 66.1844V57.8013C136.237 57.2486 136.078 56.8494 135.761 56.6037C135.464 56.3581 135.031 56.2353 134.459 56.2353H132.682V67.7505H134.459Z" fill="#001E63"/>
<path d="M142.084 53.9322H151.605V56.2353H145.575V60.4959H150.367V62.7989H145.575V67.7505H151.605V70.0535H142.084V53.9322Z" fill="#001E63"/>
<path d="M168.979 71.5505C167.392 71.5505 166.419 71.0362 166.059 70.0075C165.403 70.1917 164.631 70.2838 163.742 70.2838C162.028 70.2838 160.717 69.9307 159.807 69.2244C158.897 68.5182 158.442 67.5202 158.442 66.2305V57.7553C158.442 56.4656 158.897 55.4676 159.807 54.7613C160.717 54.055 162.028 53.7019 163.742 53.7019C165.456 53.7019 166.768 54.055 167.677 54.7613C168.587 55.4676 169.042 56.4656 169.042 57.7553V66.2305C169.042 67.3052 168.714 68.1881 168.058 68.879C168.185 69.0325 168.344 69.1323 168.534 69.1784C168.725 69.2244 169 69.2475 169.359 69.2475H169.899V71.5505H168.979ZM163.742 67.9808C164.948 67.9808 165.551 67.4511 165.551 66.3917V57.5941C165.551 56.5347 164.948 56.005 163.742 56.005C162.536 56.005 161.933 56.5347 161.933 57.5941V66.3917C161.933 67.4511 162.536 67.9808 163.742 67.9808Z" fill="#001E63"/>
<path d="M176.481 70.2838C174.788 70.2838 173.498 69.9384 172.609 69.2475C171.72 68.5412 171.276 67.5355 171.276 66.2305V53.9322H174.767V66.4147C174.767 66.9674 174.915 67.3666 175.211 67.6123C175.529 67.858 175.973 67.9808 176.544 67.9808C177.116 67.9808 177.549 67.858 177.845 67.6123C178.163 67.3666 178.322 66.9674 178.322 66.4147V53.9322H181.686V66.2305C181.686 67.5355 181.241 68.5412 180.353 69.2475C179.464 69.9384 178.173 70.2838 176.481 70.2838Z" fill="#001E63"/>
<path d="M184.172 53.9322H187.663V70.0535H184.172V53.9322Z" fill="#001E63"/>
<path d="M193.007 56.2353H189.357V53.9322H200.147V56.2353H196.498V70.0535H193.007V56.2353Z" fill="#001E63"/>
<path d="M206.76 70.2838C205.046 70.2838 203.734 69.9307 202.824 69.2244C201.915 68.5182 201.46 67.5202 201.46 66.2305V57.7553C201.46 56.4656 201.915 55.4676 202.824 54.7613C203.734 54.055 205.046 53.7019 206.76 53.7019C208.474 53.7019 209.785 54.055 210.695 54.7613C211.605 55.4676 212.06 56.4656 212.06 57.7553V66.2305C212.06 67.5202 211.605 68.5182 210.695 69.2244C209.785 69.9307 208.474 70.2838 206.76 70.2838ZM206.76 67.9808C207.966 67.9808 208.569 67.4511 208.569 66.3917V57.5941C208.569 56.5347 207.966 56.005 206.76 56.005C205.554 56.005 204.951 56.5347 204.951 57.5941V66.3917C204.951 67.4511 205.554 67.9808 206.76 67.9808Z" fill="#001E63"/>
<path d="M65.7135 0.790332C66.8321 1.03476 67.5684 1.41185 68.4864 1.74332C69.8983 2.25328 71.1413 3.02459 72.1836 4.11463C74.5421 6.57519 74.284 9.87081 71.5398 12.121C67.2593 15.6238 58.9947 15.7513 54.5645 12.376C51.1095 9.74651 51.1222 5.88037 54.5581 3.20946C56.2664 1.88037 57.9093 1.23825 60.3015 0.790332C62.3789 0.401362 63.6487 0.339174 65.7135 0.790332Z" fill="#AA222D"/>
<path d="M79.731 57.9346C82.8417 58.1131 85.8218 58.6804 88.3111 60.7298C91.2752 63.168 91.3453 66.5911 88.5023 69.1728C84.2027 73.0772 74.9405 73.0358 70.7015 69.0899C67.9095 66.4923 68.1166 62.9354 71.2338 60.5322C73.7326 58.6071 76.6744 58.078 79.731 57.9346Z" fill="#001E63"/>
<path d="M46.1342 57.9314C49.229 58.1099 52.2792 58.6326 54.7971 60.7617C57.8505 63.3465 57.7995 66.8684 54.6856 69.3991C50.472 72.8254 42.3509 73.0007 37.9908 69.7561C34.1597 66.9067 34.2617 62.7856 38.2362 60.1402C40.6043 58.5657 43.288 58.078 46.1342 57.9314Z" fill="#AA222D"/>
<path d="M61.5827 60.6086C59.9541 60.5927 57.127 60.0285 54.6823 58.2277C51.0234 55.5345 51.0648 51.5249 54.7365 48.8827C59.1317 45.7209 66.7301 45.7401 71.0935 48.9241C74.6728 51.5345 74.7047 55.5154 71.1668 58.1895C69.1238 59.7385 66.166 60.6054 61.5827 60.6086Z" fill="#AA222D"/>
<path d="M28.4895 60.6182C25.7262 60.6055 23.1095 60.0891 20.7605 58.6007C16.4672 55.882 16.4226 51.458 20.6489 48.6501C24.9358 45.7975 32.0401 45.8198 36.3079 48.6979C40.3716 51.4421 40.3844 55.7672 36.3015 58.4796C33.9397 60.0541 31.272 60.6023 28.4895 60.6182Z" fill="#AA222D"/>
<path d="M114.131 35.0662C117.063 35.1554 119.785 35.71 122.163 37.3705C125.981 40.0351 125.975 44.2231 122.176 46.8909C117.86 49.9219 110.408 49.9506 106.112 46.9514C102.223 44.2391 102.211 40.0128 106.102 37.3291C108.534 35.6494 111.317 35.1363 114.131 35.0662Z" fill="#001E63"/>
<path d="M11.8298 35.0662C14.7652 35.1745 17.7485 35.7451 20.2473 37.7753C23.3772 40.3188 23.3549 44.0192 20.2314 46.5371C15.8616 50.059 7.5238 50.0717 3.14452 46.5594C-0.0172377 44.0255 -0.0586717 40.408 3.04571 37.7945C5.02499 36.1275 8.37798 35.063 11.8298 35.0662Z" fill="#AA222D"/>
<path d="M62.864 69.4055C66.3573 69.5872 69.4935 70.1991 71.9668 72.5896C74.5007 75.0374 74.4465 78.2756 71.7565 80.5928C68.8625 83.0852 65.3533 83.7258 61.6625 83.4868C59.0425 83.3179 56.566 82.6039 54.437 80.9689C51.1987 78.4796 51.1413 74.6645 54.3127 72.1147C56.872 70.0525 59.9095 69.5203 62.864 69.4055Z" fill="#001E63"/>
<path d="M46.3286 35.0787C49.0441 35.1839 51.9445 35.8182 54.4115 37.7911C57.366 40.1528 57.5286 43.4931 54.8162 46.1066C50.5294 50.2405 40.9294 50.1927 36.668 46.0142C34.2362 43.6301 34.3095 40.3951 36.8465 38.0875C38.9501 36.1752 42.437 35.0246 46.3286 35.0787Z" fill="#AA222D"/>
<path d="M96.9612 37.7497C94.6314 37.7434 91.3804 37.2206 88.6648 34.9704C85.5987 32.4334 85.6497 28.8095 88.735 26.3298C93.2768 22.6804 101.58 22.7378 106.07 26.4541C108.907 28.7999 108.996 32.3569 106.223 34.792C103.897 36.8318 101.063 37.5712 96.9612 37.7497Z" fill="#001E63"/>
<path d="M79.919 35.063C82.9883 35.1522 85.9079 35.7451 88.4067 37.6606C91.6672 40.1562 91.7118 43.8949 88.531 46.5052C84.2218 50.0431 75.7533 50.0781 71.4441 46.5753C68.2346 43.9682 68.2218 40.2996 71.4537 37.7212C73.9206 35.7546 76.8497 35.1714 79.919 35.063Z" fill="#001E63"/>
<path d="M96.413 60.5991C93.8855 60.5194 90.6632 59.8724 88.1389 57.3513C85.7262 54.9449 85.7804 51.8788 88.3557 49.5776C91.3039 46.9449 94.9214 46.3298 98.7206 46.5879C101.063 46.7473 103.297 47.3847 105.274 48.7234C109.248 51.423 109.258 55.7481 105.274 58.4254C102.87 60.0477 100.158 60.6246 96.413 60.5991Z" fill="#001E63"/>
<path d="M27.9477 37.753C25.7995 37.7753 22.5166 37.2176 19.7437 34.9546C16.821 32.5705 16.786 28.9913 19.629 26.5148C24.0656 22.6518 32.9517 22.6741 37.3182 26.5626C40.072 29.0136 40.021 32.5355 37.1812 34.91C34.8927 36.8223 32.1804 37.5554 27.9477 37.753Z" fill="#AA222D"/>
<path d="M62.9947 23.6143C66.0736 23.729 69.0377 24.3473 71.527 26.3872C74.574 28.8828 74.5517 32.5513 71.5015 35.0278C67.0616 38.6326 58.7302 38.6421 54.2999 35.0469C51.1796 32.5163 51.1764 28.7872 54.3318 26.2979C56.8497 24.3155 59.8202 23.6971 62.9947 23.6143Z" fill="#001E63"/>
<path d="M46.0322 26.2215C43.3485 26.3267 40.7573 25.7116 38.4083 24.2391C34.1852 21.5905 34.1055 17.1825 38.2075 14.3713C42.4338 11.4741 49.774 11.4709 54.0162 14.3618C58.0768 17.1283 58.0609 21.4279 53.9525 24.1435C51.5844 25.7084 48.9358 26.3044 46.0322 26.2215Z" fill="#AA222D"/>
<path d="M80.0433 26.2248C76.4863 26.2885 73.5604 25.5746 71.0457 23.5794C68.1134 21.2527 67.9668 17.8391 70.66 15.2606C74.9628 11.1363 84.582 11.1937 88.8019 15.369C91.1573 17.6989 91.1668 20.7076 88.8274 23.0662C86.7812 25.1315 83.5971 26.2248 80.0433 26.2248Z" fill="#001E63"/>
</svg>
