<svg width="220" height="69" viewBox="0 0 220 69" fill="none" xmlns="http://www.w3.org/2000/svg">
<path fill-rule="evenodd" clip-rule="evenodd" d="M14.9909 7.67546C20.8091 2.19603 27.2886 -0.613302 35.3337 2.15752C35.4871 2.21083 35.6395 2.26765 35.7902 2.32389C37.0257 2.78479 38.1544 3.20582 38.9291 1.32553C39.3005 0.419256 40.4445 0.560398 41.2467 0.79068C42.3142 1.09892 42.0219 1.79314 41.7686 2.39475C41.6922 2.57607 41.6194 2.74898 41.5884 2.90037C40.5907 7.88281 39.5194 12.8483 38.4486 17.8116C38.2917 18.5389 38.1348 19.2661 37.9782 19.9933C37.9488 20.1322 37.9302 20.2817 37.9116 20.4321C37.8263 21.1182 37.7386 21.8239 36.6114 21.635C35.5194 21.4567 34.9102 20.9219 34.9474 19.6739L34.9556 19.3718C35.0358 16.4413 35.1161 13.5064 34.1897 10.6408C32.6817 6.02033 29.3835 4.69806 25.0081 7.04546C21.9698 8.67973 19.9864 11.3243 18.3745 14.2139C11.7928 26.0029 9.09628 38.6685 9.8837 52.0695C10.103 55.6095 11.5691 61.4261 15.8785 61.2659C19.4962 61.1322 21.539 57.9008 22.4155 54.6992C24.0944 48.5632 26.8949 43.1776 31.4709 38.7056C33.328 36.8931 35.4005 35.3703 37.8222 34.4046C42.1976 32.6514 44.5524 33.424 47.1227 37.3165C48.2518 34.7686 52.4266 33.0229 55.034 34.0777C56.3276 34.6067 55.9124 35.4516 55.5484 36.1923C55.4422 36.4085 55.3403 36.6159 55.2865 36.804C54.3589 40.0598 53.3921 43.3049 52.4253 46.5498L52.4251 46.5504C51.4178 49.9315 50.4105 53.3124 49.4477 56.7049C49.3752 56.9599 49.2815 57.2361 49.1842 57.5229C48.7031 58.9405 48.1345 60.616 49.6112 61.2585C51.4098 62.0384 52.4408 60.0154 53.4018 58.1295C54.1747 56.6129 54.9024 55.1851 55.9477 55.3752C57.0734 55.5794 57.1452 56.5459 57.2196 57.5465C57.2616 58.1109 57.3043 58.686 57.5374 59.1414C57.6605 59.3849 57.7785 59.6305 57.8962 59.8754L57.8962 59.8755L57.8963 59.8757L57.8964 59.8758L57.8964 59.8759L57.8965 59.876L57.8965 59.8761C58.4105 60.946 58.9188 62.004 59.8253 62.8259C61.6527 64.4899 63.807 64.9876 65.887 63.6282C68.2047 62.1202 67.9298 59.8694 66.6298 57.834C65.5365 56.1252 64.2527 54.5318 62.9717 52.9419L62.9717 52.9419C62.7992 52.7279 62.6269 52.5139 62.455 52.2998L62.2223 52.0093C60.6945 50.1033 59.1785 48.212 58.4362 45.8296C57.3888 42.4867 57.4854 39.2628 59.9888 36.6108C62.6333 33.8103 66.0355 33.06 69.7869 33.9217C70.3051 34.0415 70.8205 34.2239 71.3346 34.4057C73.0832 35.0243 74.8158 35.6372 76.584 33.7657C77.0594 33.2606 78.144 33.6543 78.0325 34.6571C77.6983 37.5468 77.2674 40.4291 76.792 43.3039C76.7326 43.6679 76.2423 44.1284 75.8708 44.2324C75.1651 44.4256 74.7863 43.8907 74.556 43.2742C74.3785 42.8074 74.2159 42.3323 74.0533 41.8572L74.0532 41.8571C73.6645 40.7214 73.2758 39.5857 72.684 38.5645C71.2652 36.1205 68.8658 35.1697 66.407 36.6034C63.8516 38.0965 64.3864 40.4736 65.8424 42.6279C66.7679 43.9954 67.8054 45.2828 68.8602 46.5918L68.8602 46.5918C70.8193 49.0229 72.8381 51.5282 74.3109 54.7586C75.9154 48.4221 78.6788 43.4302 82.8091 39.2256C85.0525 36.9377 87.5633 35.0211 90.7278 34.0851C94.8209 32.8817 96.7301 33.632 98.9883 37.5617C99.8864 33.819 102.206 33.9395 104.724 34.0703C105.809 34.1266 106.931 34.1849 107.992 33.9366C107.433 35.8041 106.881 37.642 106.336 39.4584L106.335 39.4607C104.801 44.5722 103.317 49.5128 101.871 54.4615C101.407 56.0568 101.1 57.7023 100.794 59.3403L100.712 59.7802C100.608 60.3448 100.541 61.0431 101.232 61.3699C107.099 64.1352 113.431 37.6857 115.604 28.6077L115.604 28.6076L115.604 28.6075C115.933 27.2319 116.167 26.2552 116.289 25.8395C117.054 23.2321 117.181 21.1744 113.578 21.0927C112.85 21.0779 112.412 20.7956 112.464 20.0304C112.516 19.2876 113.043 19.0499 113.704 18.9682C117.953 18.4333 122.195 17.891 127.016 17.2745C126.328 19.768 125.655 22.2123 124.989 24.6321C123.862 28.7219 122.755 32.7417 121.63 36.8114C122.418 37.5649 123.077 37.0083 123.752 36.4385C123.822 36.3792 123.892 36.3198 123.963 36.2617C126.897 33.8251 130.173 32.644 133.843 34.3006C137.587 35.9942 138.552 39.3296 138.419 43.7719C138.926 43.2068 139.387 42.6829 139.822 42.189L139.823 42.1883L139.823 42.1881C140.669 41.228 141.415 40.3815 142.2 39.5673C144.51 37.1754 147.058 35.1103 150.341 34.1C154.397 32.8594 156.351 33.6023 158.572 37.2422C159.909 34.7314 163.609 33.2606 166.506 34.0406C168.092 34.4674 167.591 35.3689 167.198 36.0775C167.084 36.2815 166.98 36.4696 166.937 36.6257C165.669 41.1773 164.321 45.7089 162.973 50.2383C162.315 52.4506 161.657 54.6623 161.009 56.8757C160.957 57.0531 160.902 57.2315 160.846 57.4106L160.846 57.4117C160.437 58.7244 160.017 60.0751 160.972 61.3625C162.367 63.1686 164.319 57.6362 164.292 56.8609C163.928 46.409 172.359 35.5857 182.076 33.7731C187.751 32.7183 191.451 35.1103 192.557 40.7782C193.092 40.3145 193.62 39.8385 194.146 39.363L194.147 39.3628L194.147 39.3627C197.655 36.1975 201.136 33.0569 206.464 33.7286C208.477 33.9811 209.606 35.4594 210.438 37.7919C211.27 33.6265 213.92 33.8519 216.427 34.0652C217.076 34.1205 217.716 34.1749 218.312 34.152C219.997 34.0883 219.421 35.1848 219 35.9846L219 35.9848C218.881 36.2108 218.775 36.4131 218.735 36.5588C217.414 41.3366 216.011 46.0902 214.606 50.8456L214.606 50.8457L214.606 50.8459L214.606 50.8461L214.606 50.8463L214.605 50.8491C213.949 53.0721 213.292 55.2955 212.644 57.522C212.593 57.6954 212.534 57.8788 212.474 58.068C212.096 59.2403 211.648 60.6329 212.704 61.2214C213.9 61.8863 214.655 60.9516 215.387 60.0452L215.387 60.045C215.636 59.7364 215.882 59.4311 216.143 59.1934C216.371 58.9843 216.566 58.7388 216.76 58.4937L216.76 58.4935C216.869 58.3555 216.979 58.2177 217.094 58.0866C217.166 58.004 217.235 57.9143 217.305 57.8243C217.676 57.347 218.056 56.8586 218.825 57.3586C219.69 57.9158 219.242 58.5019 218.869 58.9894L218.869 58.9899C218.84 59.028 218.811 59.0656 218.784 59.1025C218.764 59.1282 218.746 59.1535 218.728 59.1785C217.309 61.1694 215.816 63.1008 213.862 64.6236C211.73 66.2876 209.398 67.3276 206.701 66.1167C204.138 64.9653 203.923 62.6402 204.138 59.6762C203.527 60.2733 202.952 60.8863 202.387 61.488C200.253 63.761 198.27 65.8728 195.098 66.3544C190.7 67.023 187.766 65.2179 186.087 61.2362C178.035 68.3007 171.49 68.4196 165.377 61.6002C164.787 62.0793 164.217 62.6132 163.644 63.1488C161.242 65.3953 158.808 67.6723 154.843 66.0647C152.199 64.995 152.191 62.5288 152.392 59.342C148.551 64.0739 144.792 67.9961 138.575 65.9533C135.633 64.9876 134.363 62.3356 133.672 56.482C128.13 63.1379 121.675 67.6173 112.642 66.2207C109.715 65.7676 106.848 64.8688 105.592 61.5928C105.084 62.0335 104.591 62.5051 104.099 62.9763C101.761 65.2133 99.4361 67.4373 95.6009 66.2653C92.5478 65.3293 92.4586 62.6551 92.5032 59.9288C83.4702 68.583 77.5125 68.7167 74.4371 60.174C70.6412 66.4882 65.1664 67.6247 58.6368 65.5225C58.0722 65.3442 57.2625 65.1362 56.8465 65.3887C53.0491 67.7054 53.2691 65.4624 53.5081 63.0248C53.5389 62.711 53.57 62.394 53.5928 62.0831C52.8946 62.5729 52.229 63.1203 51.5715 63.6611C49.0881 65.7035 46.721 67.6502 43.1559 66.035C40.5256 64.8422 40.6739 62.4079 40.8516 59.4912L40.853 59.4682C40.3463 60.0068 39.884 60.5179 39.445 61.0032C38.5518 61.9905 37.7554 62.871 36.8788 63.6579C32.7114 67.4167 28.1503 67.4984 24.1835 63.7322C23.2475 62.8408 22.9058 62.8853 22.3264 63.7322C21.0413 65.6042 19.6319 66.954 17.223 67.7436C15.0315 68.4619 13.5137 68.4472 11.3174 67.7436C2.36244 64.8748 0.227542 53.5173 0.505286 42.9622C0.87672 28.8466 10.7566 11.6631 14.9909 7.67546ZM189.839 44.745C187.729 48.6747 186.176 52.6935 185.575 57.0912C185.203 59.8026 180.635 62.3728 177.745 61.9568C174.32 61.4665 173.295 58.8369 173.377 56.1032C173.578 49.5513 175.472 43.4451 179.639 38.2005C180.404 37.2423 181.37 36.4697 182.655 36.2246C184.342 35.9051 185.337 36.2023 184.802 38.2674C183.398 43.6753 184.126 44.6188 189.839 44.745ZM123.785 59.8545C127.306 55.026 128.895 49.4844 129.49 44.329C129.49 44.1235 129.491 43.9208 129.492 43.7212C129.507 41.3522 129.519 39.4296 127.395 38.6759C125.04 37.8291 123.413 39.3519 122.158 41.0902C121.237 42.353 120.457 43.7422 119.788 45.161C117.604 49.7815 116.282 54.6769 115.249 59.654C115.192 59.9298 115.11 60.2126 115.028 60.497C114.695 61.6453 114.356 62.8199 115.576 63.6654C117.188 64.7871 118.971 64.0814 120.382 63.1082C121.667 62.2317 122.871 61.1025 123.785 59.8545ZM156.849 41.6993C155.942 47.2335 154.227 53.1391 150.549 58.3019C149.197 60.2036 147.489 62.2465 144.807 61.1322C142.051 59.9808 142.571 57.3659 143.062 55.1003C144.042 50.5763 145.632 46.2529 148.001 42.2564C148.804 40.9044 149.74 39.597 150.832 38.4679C152.005 37.2645 153.365 36.0016 155.319 36.9376C156.962 37.719 156.92 39.1783 156.864 41.094L156.864 41.0982C156.859 41.2939 156.853 41.4943 156.849 41.6993ZM90.5867 58.6139C94.4793 53.2728 96.2992 47.1666 97.1312 41.417L97.1333 41.2681C97.1628 39.1719 97.1832 37.7215 95.601 36.9376C93.8033 36.0388 92.4662 37.1307 91.3742 38.2227C90.1782 39.4113 89.1233 40.8004 88.2691 42.2564C85.8474 46.3643 84.2354 50.8066 83.2474 55.4568C82.7794 57.6631 82.5046 60.0699 85.0525 61.1396C87.5411 62.1796 89.257 60.4413 90.5867 58.6139ZM45.3769 40.5181C44.3444 47.1443 42.6432 53.5551 38.3942 58.9928C37.0867 60.6716 35.4079 62.1573 33.0531 61.095C30.8171 60.0847 30.9285 57.9008 31.3222 56.0065C32.6668 49.5437 34.7616 43.3558 39.3599 38.3416C40.4147 37.1902 41.7667 36.113 43.5569 36.8485C45.1986 37.5096 45.3992 38.9581 45.3769 40.5181ZM201.969 58.7996C205.951 53.5031 207.734 47.382 208.648 41.5952C208.65 41.4556 208.654 41.3181 208.657 41.1827C208.705 39.1589 208.741 37.6306 207.028 36.8856C205.06 36.0387 203.678 37.3164 202.564 38.557C198.196 43.4152 196.227 49.3952 194.771 55.5756C194.281 57.6556 194.117 59.9287 196.376 61.043C198.834 62.2613 200.602 60.6122 201.969 58.7996Z" fill="#FF0000"/>
</svg>
