<svg width="166" height="76" viewBox="0 0 166 76" fill="none" xmlns="http://www.w3.org/2000/svg">
<path d="M90.773 60.3449C91.3663 60.3779 91.5311 59.8835 91.7948 59.5868C98.2222 51.7091 104.419 43.6666 110.187 35.3274C110.253 35.2285 110.319 35.1626 110.385 35.0637C110.616 34.6023 111.242 34.1408 110.879 33.6134C110.583 33.1849 109.956 33.4816 109.462 33.5475C107.188 33.8771 104.88 34.1738 102.606 34.5693C101.057 34.833 99.9032 34.3056 99.1451 32.9872C98.5518 31.9983 97.9585 31.0095 97.497 29.9547C96.8378 28.4056 97.2334 27.6475 98.9144 27.4497C103.661 26.8894 108.407 26.329 113.154 25.8676C114.67 25.7357 115.692 25.3072 116.318 23.791C117.504 20.9563 118.922 18.2206 120.141 15.4189C120.899 13.7049 121.987 12.749 123.932 12.9138C125.118 13.0127 126.371 12.9138 127.525 13.1116C129.403 13.4412 130.03 14.5949 129.272 16.3418C128.382 18.4513 127.36 20.5279 126.404 22.6374C125.613 24.3513 125.646 24.4173 127.459 24.2525C130.26 23.9888 133.029 23.6592 135.798 23.3955C137.743 23.1977 138.336 23.6921 138.6 25.6698C138.666 26.0983 138.698 26.5268 138.764 26.9882C138.995 28.5045 138.435 29.3944 136.82 29.5922C132.535 30.1855 128.25 30.8777 123.932 31.438C122.877 31.5698 122.086 31.8665 121.625 32.9542C119.087 38.6565 116.417 44.3258 113.945 50.094C112.692 52.9616 111.901 55.994 112.461 59.2242C113.22 63.5092 116.12 65.4868 120.339 64.3662C124.855 63.1466 128.81 60.7404 132.601 58.1365C133.82 57.3125 135.007 56.4225 136.193 55.5326C137.38 54.6426 138.468 54.6097 139.523 55.7633C140.841 57.2136 141.072 58.532 140.149 59.7516C140.05 59.8835 139.951 60.0153 139.819 60.1142C134.446 64.1025 129.469 68.6511 123.141 71.1891C118.658 73.002 114.142 73.1668 109.759 70.8595C106.528 69.1455 104.551 66.3768 103.397 63.0148C102.87 61.4656 102.606 61.3667 101.584 62.6522C99.7714 64.9265 98.0904 67.2997 96.3105 69.607C95.5194 70.6288 94.5965 71.6176 93.6736 72.5405C91.7618 74.5512 89.5534 75.8696 86.6199 75.0126C83.4556 74.0567 81.5109 71.9143 80.7528 68.717C80.3243 66.9701 80.4561 65.2232 80.6869 63.4762C81.0494 60.9382 81.5439 58.4002 81.9723 55.8622C82.0712 55.203 82.5657 54.2801 81.8405 53.8845C81.0494 53.456 80.4232 54.313 79.9617 54.8404C77.6215 57.3784 75.3142 59.9823 73.0399 62.5533C71.1941 64.6628 69.3482 66.7723 67.5024 68.8818C65.4259 71.288 63.9756 71.7495 61.9979 70.6947C59.0644 69.1126 57.5152 66.1131 58.3722 63.5092C58.8007 62.2237 59.4269 60.9712 59.9213 59.6857C60.0862 59.2572 60.4487 58.6969 59.9543 58.3343C59.5258 58.0376 59.1632 58.5321 58.8336 58.7957C57.1197 60.1801 55.4716 61.5974 53.7576 62.9818C45.9129 69.3763 37.1122 73.826 26.9272 75.0126C13.6439 76.5618 -1.28749 66.8712 0.32761 49.0392C1.34941 37.8654 7.38129 29.4274 15.5227 22.2418C20.8294 17.5614 26.8284 14.2982 33.948 13.4412C42.2542 12.4524 49.1101 14.9245 54.0213 21.9452C54.9113 23.2307 55.5375 24.648 55.7023 26.1972C56.2956 31.471 52.0436 34.8989 46.671 33.5805C42.9793 32.6576 41.0676 30.3832 40.672 26.2961C40.4413 24.0877 40.1117 23.7251 37.9033 23.4614C34.5083 23.0659 31.3111 23.758 28.3446 25.3072C19.2803 30.0866 13.1165 37.404 10.5456 47.2923C8.20532 56.2907 14.0724 64.7287 23.4004 66.6075C26.9602 67.3327 30.4211 66.8712 33.7502 65.5528C44.8251 61.1689 54.285 54.5108 61.9979 45.3806C63.3493 43.7655 64.1404 41.9526 64.6018 39.942C64.9314 38.5906 65.8214 38.2609 66.9421 38.6565C68.9197 39.3157 70.7985 40.3045 72.2818 41.7878C73.2047 42.6777 73.5673 43.7984 73.2706 45.1169C73.2047 45.3146 73.2047 45.5454 73.1388 45.7761C73.0069 46.5672 72.4136 47.6878 73.1058 48.0834C73.9298 48.5778 74.5891 47.4241 75.2153 46.8968C78.1159 44.4247 81.1813 42.2492 84.5433 40.4693C87.1802 39.1179 89.4545 39.7442 91.564 41.4582C93.5747 43.1062 94.2339 45.1828 93.5088 47.7867C92.5529 51.2147 91.7289 54.6756 90.8719 58.1695C90.8719 58.8617 90.5093 59.5868 90.773 60.3449Z" fill="#279CD3"/>
<path d="M153.102 0.355469C158.376 0.355469 162.958 3.61862 164.639 8.52983C166.353 13.507 164.705 19.0115 160.42 22.1757C156.53 25.0763 152.575 27.8121 148.653 30.6138C148.224 30.9104 147.763 31.4378 147.202 31.0093C146.675 30.6138 147.005 29.9875 147.136 29.4931C147.4 28.5372 147.631 27.5814 147.961 26.6585C148.554 24.9445 148.026 23.7908 146.543 22.769C141.632 19.407 139.72 13.8036 141.566 8.52983C143.28 3.48678 147.763 0.355469 153.102 0.355469Z" fill="#279CD3"/>
</svg>
