<svg width="279" height="96" viewBox="0 0 279 96" fill="none" xmlns="http://www.w3.org/2000/svg">
<path d="M86.9109 0.419189C19.9156 8.56099 1.22822 53.4378 0.258957 74.8585C10.4944 34.8474 62.2917 17.672 86.9109 14.0858V0.419189Z" fill="#EE474F"/>
<path d="M64.8118 41.7098C19.9156 57.0629 3.45752 83.9696 0.840515 95.5038C3.39937 55.2601 44.5542 33.3742 64.8118 27.4617V41.7098Z" fill="#EE474F"/>
<path d="M91.2883 75.6211C91.2883 76.6282 91.3442 77.4497 91.4559 78.0857C91.5677 78.6953 91.7912 79.1723 92.1264 79.5168C92.484 79.8348 92.9757 80.0601 93.6015 80.1926C94.2496 80.3251 95.1101 80.4046 96.1829 80.4311V82.0212H82.84V80.4311C83.5776 80.4046 84.181 80.3251 84.6504 80.1926C85.1197 80.0601 85.4773 79.8348 85.7232 79.5168C85.969 79.1988 86.1366 78.7483 86.226 78.1653C86.3154 77.5822 86.3601 76.8269 86.3601 75.8994V57.534C86.3601 56.6064 86.3154 55.8644 86.226 55.3079C86.159 54.7248 86.0137 54.2743 85.7902 53.9563C85.5667 53.6118 85.2426 53.3865 84.818 53.2805C84.4157 53.148 83.8793 53.0552 83.2088 53.0022V51.4122H103.726L104.128 59.7998H102.72C102.586 58.6603 102.385 57.7062 102.117 56.9377C101.871 56.1427 101.513 55.5066 101.044 55.0296C100.575 54.5261 99.9712 54.1683 99.2336 53.9563C98.4961 53.7443 97.5909 53.6383 96.5181 53.6383H91.8917C91.4894 53.6383 91.2883 53.8635 91.2883 54.3141V65.8024C92.6516 65.8024 93.7579 65.7361 94.6072 65.6036C95.4789 65.4711 96.1717 65.2194 96.6858 64.8483C97.1998 64.4508 97.5686 63.9208 97.7921 63.2583C98.0156 62.5957 98.172 61.7212 98.2614 60.6346H99.5018V73.077H98.2614C98.1273 71.9639 97.9374 71.0762 97.6915 70.4136C97.4457 69.7246 97.0657 69.2078 96.5517 68.8633C96.06 68.4923 95.3895 68.2405 94.5402 68.108C93.6909 67.9755 92.6069 67.9092 91.2883 67.9092V75.6211Z" fill="black"/>
<path d="M119.317 72.759H109.83C108.779 75.5681 108.254 77.516 108.254 78.6025C108.254 79.3976 108.5 79.9011 108.992 80.1131C109.506 80.3251 110.266 80.4311 111.271 80.4311V82.0212H102.086V80.4311C102.622 80.3516 103.08 80.2456 103.46 80.1131C103.862 79.9806 104.209 79.7951 104.499 79.5566C104.812 79.3181 105.08 79.0133 105.304 78.6423C105.527 78.2448 105.74 77.7677 105.941 77.2112L114.758 51.0146H117.239L125.251 74.2298C125.721 75.5814 126.112 76.6414 126.425 77.41C126.76 78.1785 127.106 78.7748 127.464 79.1988C127.844 79.5963 128.268 79.8746 128.738 80.0336C129.229 80.1926 129.855 80.3119 130.615 80.3914V82.0212H117.943V80.3914C119.016 80.3384 119.787 80.2059 120.256 79.9938C120.725 79.7818 120.96 79.3578 120.96 78.7218C120.96 78.3508 120.882 77.8737 120.725 77.2907C120.569 76.7077 120.357 75.9921 120.088 75.1441L119.317 72.759ZM110.601 70.3739H118.58L114.724 58.329H114.59L110.601 70.3739Z" fill="black"/>
<path d="M141.53 75.1839L145.889 61.9464C146.313 60.6479 146.648 59.5878 146.894 58.7663C147.163 57.9447 147.364 57.269 147.498 56.7389C147.632 56.2089 147.721 55.7849 147.766 55.4669C147.811 55.1489 147.833 54.8441 147.833 54.5526C147.833 53.9165 147.632 53.5058 147.23 53.3203C146.827 53.1083 146.023 53.0022 144.816 53.0022V51.4122H154.337V53.0022C152.482 53.0022 151.197 54.0756 150.481 56.2222L141.664 82.4187H139.184L131.171 59.2036C130.724 57.958 130.322 56.9377 129.964 56.1427C129.607 55.3476 129.227 54.7248 128.824 54.2743C128.422 53.7973 127.975 53.4793 127.483 53.3203C127.014 53.1348 126.455 53.042 125.807 53.042V51.4122H138.48V53.042C137.899 53.0685 137.407 53.1083 137.005 53.1613C136.625 53.2143 136.323 53.307 136.099 53.4395C135.876 53.5455 135.719 53.7045 135.63 53.9165C135.541 54.1021 135.496 54.3406 135.496 54.6321C135.496 55.0031 135.552 55.4404 135.664 55.9439C135.775 56.4474 135.943 57.0569 136.166 57.7725L141.53 75.1839Z" fill="black"/>
<path d="M168.436 51.0146C170.447 51.0146 172.325 51.4254 174.068 52.247C175.811 53.0685 177.32 54.1948 178.594 55.6259C179.89 57.057 180.907 58.7398 181.645 60.6744C182.382 62.609 182.751 64.7026 182.751 66.9552C182.751 69.1018 182.371 71.1159 181.611 72.9975C180.873 74.8791 179.857 76.5222 178.56 77.9267C177.286 79.3048 175.778 80.4046 174.034 81.2262C172.291 82.0212 170.425 82.4187 168.436 82.4187C166.447 82.4187 164.58 82.0212 162.837 81.2262C161.094 80.4046 159.574 79.3048 158.278 77.9267C156.982 76.5222 155.965 74.8791 155.227 72.9975C154.49 71.1159 154.121 69.1018 154.121 66.9552C154.121 64.7026 154.49 62.609 155.227 60.6744C155.965 58.7398 156.97 57.057 158.244 55.6259C159.541 54.1948 161.06 53.0685 162.804 52.247C164.547 51.4254 166.424 51.0146 168.436 51.0146ZM168.436 79.8348C169.732 79.8348 170.905 79.5433 171.956 78.9603C173.006 78.3508 173.9 77.5027 174.638 76.4162C175.375 75.3031 175.934 73.9648 176.314 72.4012C176.716 70.8111 176.918 69.0355 176.918 67.0745C176.918 65.0073 176.716 63.1523 176.314 61.5092C175.934 59.8396 175.375 58.4218 174.638 57.2557C173.9 56.0631 173.006 55.1621 171.956 54.5526C170.905 53.9165 169.732 53.5985 168.436 53.5985C167.117 53.5985 165.933 53.9165 164.882 54.5526C163.854 55.1621 162.971 56.0631 162.234 57.2557C161.496 58.4218 160.926 59.8396 160.524 61.5092C160.144 63.1523 159.954 65.0073 159.954 67.0745C159.954 69.0355 160.144 70.8111 160.524 72.4012C160.926 73.9648 161.496 75.3031 162.234 76.4162C162.971 77.5027 163.854 78.3508 164.882 78.9603C165.933 79.5433 167.117 79.8348 168.436 79.8348Z" fill="black"/>
<path d="M207.145 59.0843C207.145 61.2839 206.608 63.1258 205.536 64.6098C204.463 66.0939 202.753 67.0877 200.406 67.5912L208.184 78.1653C208.721 78.9073 209.357 79.4771 210.095 79.8746C210.833 80.2456 211.581 80.4311 212.341 80.4311V82.0212H204.396L196.082 69.9366C195.523 69.1416 195.031 68.6115 194.607 68.3465C194.204 68.055 193.824 67.9092 193.467 67.9092V75.7006C193.467 76.6812 193.523 77.4895 193.634 78.1255C193.746 78.735 193.97 79.2121 194.305 79.5566C194.64 79.9011 195.121 80.1396 195.746 80.2721C196.395 80.3781 197.255 80.4311 198.328 80.4311V82.0212H185.019V80.4311C185.756 80.4311 186.348 80.3781 186.795 80.2721C187.265 80.1396 187.622 79.9143 187.868 79.5963C188.136 79.2518 188.315 78.788 188.405 78.205C188.494 77.5955 188.539 76.8269 188.539 75.8994V57.534C188.539 56.6064 188.505 55.8644 188.438 55.3079C188.371 54.7248 188.226 54.2743 188.002 53.9563C187.779 53.6118 187.455 53.3865 187.03 53.2805C186.628 53.148 186.08 53.0552 185.387 53.0022V51.4122H196.987C200.228 51.4122 202.731 52.088 204.496 53.4395C206.262 54.7911 207.145 56.6727 207.145 59.0843ZM193.467 65.5241H195.646C197.747 65.5241 199.311 65.0471 200.339 64.0931C201.39 63.1125 201.915 61.5092 201.915 59.2831C201.915 57.587 201.479 56.2222 200.608 55.1886C199.736 54.1551 198.529 53.6383 196.987 53.6383H194.07C193.668 53.6383 193.467 53.8635 193.467 54.3141V65.5241Z" fill="black"/>
<path d="M224.357 82.0212H212.389V80.4311C213.149 80.4046 213.752 80.3251 214.199 80.1926C214.669 80.0336 215.026 79.7553 215.272 79.3578C215.518 78.9603 215.686 78.4038 215.775 77.6882C215.865 76.9462 215.909 75.9524 215.909 74.7068V58.7265C215.909 57.6135 215.865 56.6992 215.775 55.9836C215.708 55.2416 215.563 54.6586 215.339 54.2346C215.116 53.8105 214.792 53.519 214.367 53.36C213.965 53.1745 213.417 53.0552 212.724 53.0022V51.4122H224.022V53.0022C223.329 53.0552 222.771 53.1745 222.346 53.36C221.944 53.519 221.631 53.8105 221.407 54.2346C221.184 54.6586 221.027 55.2416 220.938 55.9836C220.871 56.6992 220.837 57.6135 220.837 58.7265V74.7068C220.837 75.9524 220.871 76.9462 220.938 77.6882C221.027 78.4038 221.195 78.9603 221.441 79.3578C221.709 79.7553 222.067 80.0336 222.514 80.1926C222.983 80.3251 223.598 80.4046 224.357 80.4311V82.0212Z" fill="black"/>
<path d="M252.877 60.1576H251.436C251.369 58.859 251.201 57.7857 250.933 56.9377C250.687 56.0632 250.329 55.3741 249.86 54.8706C249.391 54.3406 248.821 53.9828 248.15 53.7973C247.48 53.5853 246.698 53.4793 245.804 53.4793C244.932 53.4793 244.228 53.5058 243.692 53.5588C243.177 53.5853 242.775 53.6515 242.485 53.7575C242.216 53.837 242.038 53.9563 241.948 54.1153C241.859 54.2743 241.814 54.4731 241.814 54.7116V75.5416C241.814 76.3897 241.859 77.1185 241.948 77.728C242.06 78.3375 242.272 78.841 242.585 79.2386C242.898 79.6096 243.356 79.9011 243.96 80.1131C244.563 80.2986 245.357 80.4046 246.34 80.4311V82.0212H232.293V80.4311C233.299 80.4046 234.103 80.2986 234.707 80.1131C235.31 79.9011 235.769 79.6096 236.081 79.2386C236.417 78.841 236.629 78.3375 236.718 77.728C236.83 77.1185 236.886 76.3897 236.886 75.5416V54.7116C236.886 54.4731 236.841 54.2743 236.752 54.1153C236.685 53.9563 236.528 53.837 236.283 53.7575C236.037 53.6515 235.679 53.5853 235.21 53.5588C234.763 53.5058 234.171 53.4793 233.433 53.4793C232.628 53.4793 231.857 53.5323 231.12 53.6383C230.382 53.7178 229.734 53.9828 229.175 54.4333C228.617 54.8573 228.158 55.5199 227.801 56.4209C227.466 57.2955 227.287 58.541 227.264 60.1576H225.957L226.292 51.4122H252.542L252.877 60.1576Z" fill="black"/>
<path d="M267.527 72.759H258.039C256.989 75.5681 256.464 77.516 256.464 78.6025C256.464 79.3976 256.71 79.9011 257.201 80.1131C257.715 80.3251 258.475 80.4311 259.481 80.4311V82.0212H250.295V80.4311C250.832 80.3516 251.29 80.2456 251.67 80.1131C252.072 79.9806 252.418 79.7951 252.709 79.5566C253.022 79.3181 253.29 79.0133 253.514 78.6423C253.737 78.2448 253.949 77.7677 254.15 77.2112L262.967 51.0146H265.448L273.461 74.2298C273.93 75.5814 274.321 76.6414 274.634 77.41C274.969 78.1785 275.316 78.7748 275.673 79.1988C276.053 79.5963 276.478 79.8746 276.947 80.0336C277.439 80.1926 278.065 80.3119 278.825 80.3914V82.0212H266.152V80.3914C267.225 80.3384 267.996 80.2059 268.466 79.9938C268.935 79.7818 269.17 79.3578 269.17 78.7218C269.17 78.3508 269.091 77.8737 268.935 77.2907C268.778 76.7077 268.566 75.9921 268.298 75.1441L267.527 72.759ZM258.81 70.3739H266.789L262.934 58.329H262.8L258.81 70.3739Z" fill="black"/>
<path d="M111.265 39.4872C111.265 40.1623 111.361 40.5481 111.551 40.6445C111.662 40.6927 111.813 40.7168 112.003 40.7168V36.1601H111.432C110.623 38.8122 109.005 40.1462 106.577 40.1623C104.515 40.1623 103.111 39.1095 102.365 37.0039C102 35.9752 101.818 34.7617 101.818 33.3633C101.818 30.3577 102.635 28.3164 104.269 27.2395C104.983 26.7894 105.776 26.5644 106.649 26.5644C108.632 26.5644 110.068 27.5127 110.956 29.4093C111.115 29.7469 111.25 30.0925 111.361 30.4461H111.932L111.86 26.0099C111.511 26.0099 111.297 26.1224 111.218 26.3474C111.17 26.5403 111.146 26.8537 111.146 27.2877C110.686 26.8216 109.901 26.4438 108.791 26.1545C108.061 25.9777 107.315 25.8893 106.554 25.8893C104.047 25.8893 102.127 26.8296 100.795 28.7102C99.8745 30.0442 99.4144 31.5792 99.4144 33.3151C99.4144 35.4207 100.057 37.1888 101.342 38.6193C102.706 40.098 104.483 40.8374 106.673 40.8374C108.275 40.8213 109.806 40.3713 111.265 39.4872Z" fill="black"/>
<path d="M121.522 25.8893C119.618 25.8893 117.984 26.5242 116.62 27.794C115.129 29.1924 114.383 31.0167 114.383 33.2669C114.383 35.8708 115.263 37.8799 117.024 39.2943C118.309 40.323 119.785 40.8374 121.451 40.8374C123.323 40.8374 124.933 40.1944 126.282 38.9086C127.789 37.4781 128.542 35.6297 128.542 33.3633C128.542 30.7113 127.63 28.6941 125.806 27.3118C124.568 26.3635 123.14 25.8893 121.522 25.8893ZM121.522 40.1623C119.222 40.1623 117.746 38.9166 117.096 36.4253C116.874 35.5413 116.763 34.5206 116.763 33.3633C116.763 29.5379 117.905 27.3198 120.189 26.709C120.586 26.6126 121.006 26.5644 121.451 26.5644C124.576 26.5965 126.147 28.8307 126.163 33.2669C126.163 36.7709 125.203 38.9488 123.283 39.8007C122.744 40.0417 122.157 40.1623 121.522 40.1623Z" fill="black"/>
<path d="M136.633 40.5963V39.9694H134.753V33.9661H137.014L140.822 40.5963H144.415C144.415 40.2427 144.32 40.0417 144.129 39.9935C144.05 39.9775 143.955 39.9694 143.844 39.9694H142.94L139.108 33.7491C140.615 33.3794 141.647 32.5838 142.202 31.3622C142.408 30.88 142.511 30.3898 142.511 29.8915C142.511 28.686 141.996 27.7217 140.964 26.9984C140.124 26.4197 139.084 26.1304 137.847 26.1304H130.803V26.7573H132.707V39.9694H130.803V40.5963H136.633ZM137.133 26.7573C138.497 26.7573 139.441 27.3198 139.965 28.445C140.171 28.9111 140.274 29.4013 140.274 29.9156C140.274 31.0729 139.878 31.973 139.084 32.6159C138.545 33.0499 137.918 33.2669 137.204 33.2669H134.753V26.7573H137.133Z" fill="black"/>
<path d="M151.911 26.7573C153.323 26.7573 154.235 27.4002 154.648 28.686C154.775 29.104 154.838 29.554 154.838 30.0362C154.838 32.1257 153.918 33.2749 152.078 33.4839C151.887 33.5 151.697 33.508 151.507 33.508H149.317V26.7573H151.911ZM151.697 40.5963C151.697 40.2427 151.57 40.0417 151.316 39.9935C151.237 39.9775 151.158 39.9694 151.078 39.9694H149.317V34.2072H151.411C154.013 34.2072 155.735 33.4598 156.575 31.965C156.909 31.4024 157.075 30.7515 157.075 30.0121C157.075 28.4208 156.393 27.3038 155.029 26.6608C154.299 26.3072 153.426 26.1304 152.411 26.1304H145.367V26.7573H147.271V39.9694H145.367V40.5963H151.697Z" fill="black"/>
<path d="M166.237 25.8893C164.333 25.8893 162.699 26.5242 161.335 27.794C159.844 29.1924 159.098 31.0167 159.098 33.2669C159.098 35.8708 159.978 37.8799 161.739 39.2943C163.025 40.323 164.5 40.8374 166.166 40.8374C168.038 40.8374 169.648 40.1944 170.997 38.9086C172.504 37.4781 173.257 35.6297 173.257 33.3633C173.257 30.7113 172.345 28.6941 170.521 27.3118C169.283 26.3635 167.855 25.8893 166.237 25.8893ZM166.237 40.1623C163.937 40.1623 162.461 38.9166 161.811 36.4253C161.589 35.5413 161.478 34.5206 161.478 33.3633C161.478 29.5379 162.62 27.3198 164.905 26.709C165.301 26.6126 165.722 26.5644 166.166 26.5644C169.291 26.5965 170.862 28.8307 170.878 33.2669C170.878 36.7709 169.918 38.9488 167.998 39.8007C167.459 40.0417 166.872 40.1623 166.237 40.1623Z" fill="black"/>
<path d="M181.348 40.5963V39.9694H179.468V33.9661H181.729L185.537 40.5963H189.13C189.13 40.2427 189.035 40.0417 188.845 39.9935C188.765 39.9775 188.67 39.9694 188.559 39.9694H187.655L183.823 33.7491C185.331 33.3794 186.362 32.5838 186.917 31.3622C187.123 30.88 187.226 30.3898 187.226 29.8915C187.226 28.686 186.711 27.7217 185.68 26.9984C184.839 26.4197 183.8 26.1304 182.562 26.1304H175.518V26.7573H177.422V39.9694H175.518V40.5963H181.348ZM181.848 26.7573C183.213 26.7573 184.157 27.3198 184.68 28.445C184.886 28.9111 184.989 29.4013 184.989 29.9156C184.989 31.0729 184.593 31.973 183.8 32.6159C183.26 33.0499 182.633 33.2669 181.92 33.2669H179.468V26.7573H181.848Z" fill="black"/>
<path d="M203.718 40.5963C203.718 40.2427 203.591 40.0417 203.337 39.9935C203.258 39.9775 203.178 39.9694 203.099 39.9694H202.29L196.84 26.1304H195.96L190.629 39.9694H189.13V40.5963H193.366C193.366 40.2427 193.239 40.0417 192.985 39.9935C192.906 39.9775 192.827 39.9694 192.747 39.9694H191.581L193.366 35.2921H198.34L200.124 39.9694H198.578V40.5963H203.718ZM198.078 34.5929H193.628L195.841 28.7584L198.078 34.5929Z" fill="black"/>
<path d="M216.759 39.4872C216.759 40.1623 216.854 40.5481 217.044 40.6445C217.155 40.6927 217.306 40.7168 217.496 40.7168V36.1601H216.925C216.116 38.8122 214.498 40.1462 212.071 40.1623C210.008 40.1623 208.604 39.1095 207.859 37.0039C207.494 35.9752 207.311 34.7617 207.311 33.3633C207.311 30.3577 208.128 28.3164 209.762 27.2395C210.476 26.7894 211.27 26.5644 212.142 26.5644C214.125 26.5644 215.561 27.5127 216.449 29.4093C216.608 29.7469 216.743 30.0925 216.854 30.4461H217.425L217.354 26.0099C217.005 26.0099 216.791 26.1224 216.711 26.3474C216.664 26.5403 216.64 26.8537 216.64 27.2877C216.18 26.8216 215.394 26.4438 214.284 26.1545C213.554 25.9777 212.808 25.8893 212.047 25.8893C209.54 25.8893 207.621 26.8296 206.288 28.7102C205.368 30.0442 204.908 31.5792 204.908 33.3151C204.908 35.4207 205.55 37.1888 206.835 38.6193C208.2 40.098 209.977 40.8374 212.166 40.8374C213.768 40.8213 215.299 40.3713 216.759 39.4872Z" fill="black"/>
<path d="M225.35 40.5963C225.35 40.2427 225.223 40.0417 224.969 39.9935C224.89 39.9775 224.81 39.9694 224.731 39.9694H223.47V26.7573H225.35V26.1304H219.519V26.7573H221.423V39.9694H219.519V40.5963H225.35Z" fill="black"/>
<path d="M234.75 25.8893C232.846 25.8893 231.212 26.5242 229.847 27.794C228.356 29.1924 227.61 31.0167 227.61 33.2669C227.61 35.8708 228.491 37.8799 230.252 39.2943C231.537 40.323 233.012 40.8374 234.678 40.8374C236.55 40.8374 238.16 40.1944 239.509 38.9086C241.016 37.4781 241.77 35.6297 241.77 33.3633C241.77 30.7113 240.857 28.6941 239.033 27.3118C237.796 26.3635 236.368 25.8893 234.75 25.8893ZM234.75 40.1623C232.449 40.1623 230.974 38.9166 230.323 36.4253C230.101 35.5413 229.99 34.5206 229.99 33.3633C229.99 29.5379 231.132 27.3198 233.417 26.709C233.813 26.6126 234.234 26.5644 234.678 26.5644C237.804 26.5965 239.374 28.8307 239.39 33.2669C239.39 36.7709 238.43 38.9488 236.511 39.8007C235.971 40.0417 235.384 40.1623 234.75 40.1623ZM236.844 23.406C237.034 23.181 237.137 22.956 237.153 22.7309C237.153 22.313 236.939 21.9916 236.511 21.7665C236.352 21.6862 236.201 21.646 236.058 21.646C235.805 21.6621 235.574 21.7665 235.368 21.9594C235.241 22.088 234.861 22.6586 234.226 23.6712C233.766 24.3945 233.338 24.9731 232.941 25.4071L233.322 25.817C233.702 25.5116 234.567 24.933 235.916 24.0811C236.36 23.7918 236.669 23.5667 236.844 23.406Z" fill="black"/>
<path d="M253.883 26.7573H255.905V37.5584L246.862 26.1304H243.555V26.7573H245.458V39.9694H243.555V40.5963H248.433C248.433 40.2427 248.306 40.0417 248.052 39.9935C247.973 39.9775 247.894 39.9694 247.814 39.9694H246.41V28.8066L255.763 40.7168L256.857 40.4757V26.7573H258.761V26.1304H253.883V26.7573Z" fill="black"/>
</svg>
