<svg width="204" height="92" viewBox="0 0 204 92" fill="none" xmlns="http://www.w3.org/2000/svg">
<path d="M63.431 31.68C63.431 25.4799 61.5807 19.419 58.1142 14.2637C54.6476 9.10851 49.7204 5.0905 43.9558 2.7178C38.1911 0.345112 31.8478 -0.275693 25.7281 0.933895C19.6083 2.14348 13.987 5.12914 9.5749 9.5133C5.16281 13.8975 2.15814 19.4832 0.940845 25.5642C-0.276448 31.6453 0.348311 37.9484 2.73612 43.6766C5.12392 49.4048 9.16753 54.3007 14.3556 57.7453C19.5437 61.19 25.6432 63.0285 31.8828 63.0285L31.8828 45.96C29.0405 45.96 26.262 45.1225 23.8988 43.5534C21.5355 41.9843 19.6935 39.7541 18.6058 37.1447C17.5181 34.5354 17.2335 31.6642 17.788 28.8941C18.3425 26.1241 19.7112 23.5797 21.721 21.5826C23.7308 19.5855 26.2915 18.2254 29.0792 17.6744C31.8669 17.1235 34.7564 17.4062 37.3823 18.4871C40.0083 19.5679 42.2527 21.3982 43.8318 23.7465C45.4109 26.0948 46.2537 28.8557 46.2537 31.68L63.431 31.68Z" fill="#897871"/>
<path d="M31.8828 28.2856C38.1225 28.2856 44.222 30.1359 49.41 33.6025C54.5981 37.069 58.6417 41.9962 61.0295 47.7608C63.4173 53.5255 64.0421 59.8688 62.8248 65.9885C61.6075 72.1083 58.6028 77.7296 54.1907 82.1417C49.7786 86.5538 44.1573 89.5585 38.0376 90.7758C31.9178 91.9931 25.5745 91.3683 19.8099 88.9805C14.0452 86.5927 9.11804 82.5491 5.65148 77.361C2.18492 72.173 0.334656 66.0734 0.334656 59.8338L18.205 59.8338C18.205 62.539 19.0072 65.1835 20.5101 67.4328C22.013 69.6821 24.1492 71.4353 26.6485 72.4705C29.1478 73.5057 31.898 73.7766 34.5512 73.2488C37.2045 72.7211 39.6416 71.4184 41.5545 69.5055C43.4674 67.5926 44.7701 65.1555 45.2979 62.5022C45.8256 59.849 45.5548 57.0988 44.5195 54.5995C43.4843 52.1002 41.7311 49.964 39.4818 48.4611C37.2325 46.9581 34.588 46.1559 31.8828 46.1559L31.8828 28.2856Z" fill="#BFB197"/>
<g style="mix-blend-mode:multiply">
<path d="M0.334656 59.8338C0.334656 51.4667 3.65847 43.4423 9.5749 37.5259C15.4913 31.6095 23.5157 28.2856 31.8828 28.2856L31.8828 46.1559C28.2552 46.1559 24.7762 47.597 22.2111 50.1621C19.646 52.7272 18.205 56.2062 18.205 59.8338L0.334656 59.8338Z" fill="#ED5A27"/>
</g>
<path d="M94.0869 33.5358C94.0869 35.5254 93.738 37.2698 93.0401 38.7689C92.3423 40.2681 91.3415 41.4248 90.0377 42.2392C88.743 43.0535 87.2556 43.4607 85.5753 43.4607C83.9134 43.4607 82.4305 43.0582 81.1267 42.2531C79.8229 41.448 78.8129 40.3005 78.0967 38.8106C77.3805 37.3114 77.0178 35.5902 77.0087 33.6469V32.6475C77.0087 30.6579 77.3622 28.9089 78.0692 27.4005C78.7854 25.8828 79.7908 24.7214 81.0854 23.9163C82.3892 23.102 83.8767 22.6948 85.5478 22.6948C87.2189 22.6948 88.7017 23.102 89.9964 23.9163C91.3002 24.7214 92.3056 25.8828 93.0126 27.4005C93.7288 28.9089 94.0869 30.6532 94.0869 32.6336V33.5358ZM89.9 32.6197C89.9 30.5005 89.5235 28.8903 88.7706 27.7891C88.0177 26.6879 86.9434 26.1373 85.5478 26.1373C84.1613 26.1373 83.0916 26.6833 82.3387 27.7752C81.5858 28.858 81.2048 30.4496 81.1956 32.5503V33.5358C81.1956 35.5995 81.572 37.2004 82.3249 38.3386C83.0779 39.4769 84.1613 40.046 85.5753 40.046C86.9618 40.046 88.0269 39.5 88.7706 38.408C89.5143 37.3068 89.8908 35.7059 89.9 33.6052V32.6197Z" fill="#716557"/>
<path d="M106.91 35.7845H103.619V43.1831H99.4869V22.9724H106.938C109.307 22.9724 111.134 23.5045 112.42 24.5688C113.705 25.633 114.348 27.1367 114.348 29.0801C114.348 30.4589 114.049 31.611 113.452 32.5364C112.865 33.4525 111.97 34.1836 110.767 34.7296L115.105 42.9887V43.1831H110.67L106.91 35.7845ZM103.619 32.4115H106.952C107.989 32.4115 108.793 32.1477 109.362 31.6203C109.931 31.0835 110.216 30.3478 110.216 29.4132C110.216 28.46 109.945 27.7105 109.403 27.1645C108.871 26.6185 108.049 26.3455 106.938 26.3455H103.619V32.4115Z" fill="#716557"/>
<path d="M124.293 43.1831H120.161V22.9724H124.293V43.1831Z" fill="#716557"/>
<path d="M142.598 34.4242H134.665V39.8378H143.975V43.1831H130.533V22.9724H143.948V26.3455H134.665V31.1622H142.598V34.4242Z" fill="#716557"/>
<path d="M165.104 43.1831H160.972L152.928 29.8851V43.1831H148.797V22.9724H152.928L160.986 36.2981V22.9724H165.104V43.1831Z" fill="#716557"/>
<path d="M185.791 26.3455H179.649V43.1831H175.517V26.3455H169.457V22.9724H185.791V26.3455Z" fill="#716557"/>
<path d="M202.623 34.4242H194.69V39.8378H204V43.1831H190.558V22.9724H203.972V26.3455H194.69V31.1622H202.623V34.4242Z" fill="#716557"/>
<path d="M80.2672 61.1286C78.8505 60.7116 77.818 60.2007 77.1699 59.5958C76.5275 58.9851 76.2063 58.2334 76.2063 57.3407C76.2063 56.3306 76.5992 55.4967 77.385 54.8389C78.1765 54.1753 79.2032 53.8435 80.4651 53.8435C81.3254 53.8435 82.0912 54.0138 82.7622 54.3544C83.4391 54.695 83.961 55.1649 84.3281 55.7639C84.7009 56.3629 84.8873 57.0177 84.8873 57.7283H83.2268C83.2268 56.9531 82.9859 56.3453 82.5041 55.9048C82.0223 55.4585 81.3426 55.2353 80.4651 55.2353C79.6506 55.2353 79.0139 55.4203 78.5551 55.7903C78.102 56.1544 77.8754 56.6624 77.8754 57.3143C77.8754 57.8369 78.0905 58.2803 78.5207 58.6444C78.9566 59.0027 79.6936 59.3315 80.7318 59.6311C81.7757 59.9306 82.5902 60.2624 83.1752 60.6265C83.766 60.9847 84.2019 61.4046 84.483 61.8862C84.7697 62.3677 84.9131 62.9345 84.9131 63.5863C84.9131 64.6258 84.5174 65.4597 83.7258 66.0881C82.9343 66.7106 81.8761 67.0219 80.5511 67.0219C79.6908 67.0219 78.8878 66.8545 78.1421 66.5197C77.3965 66.1791 76.82 65.7152 76.4128 65.1279C76.0113 64.5406 75.8105 63.8741 75.8105 63.1283H77.471C77.471 63.9034 77.7492 64.5171 78.3056 64.9693C78.8677 65.4157 79.6162 65.6388 80.5511 65.6388C81.4229 65.6388 82.0912 65.4568 82.5558 65.0927C83.0203 64.7286 83.2526 64.2323 83.2526 63.6039C83.2526 62.9756 83.0376 62.4911 82.6074 62.1504C82.1772 61.804 81.3971 61.4633 80.2672 61.1286Z" fill="#897871"/>
<path d="M102.753 60.9172H97.324V65.4626H103.63V66.8457H95.6721V54.0197H103.544V55.4115H97.324V59.5342H102.753V60.9172Z" fill="#897871"/>
<path d="M123.569 65.1631C123.145 65.7856 122.551 66.2525 121.788 66.5638C121.031 66.8692 120.148 67.0219 119.139 67.0219C118.118 67.0219 117.211 66.7781 116.42 66.2907C115.628 65.7974 115.015 65.0985 114.579 64.1941C114.148 63.2897 113.928 62.2415 113.916 61.0493V59.9306C113.916 57.9984 114.355 56.5009 115.232 55.4379C116.116 54.375 117.355 53.8435 118.949 53.8435C120.257 53.8435 121.309 54.1871 122.107 54.8742C122.904 55.5554 123.392 56.5244 123.569 57.7812H121.917C121.608 56.0839 120.621 55.2353 118.958 55.2353C117.851 55.2353 117.011 55.6347 116.437 56.4334C115.869 57.2262 115.582 58.3772 115.577 59.8865V60.9348C115.577 62.3736 115.898 63.5188 116.54 64.3703C117.183 65.216 118.052 65.6388 119.147 65.6388C119.767 65.6388 120.309 65.5684 120.773 65.4274C121.238 65.2865 121.622 65.0486 121.926 64.7139V61.8333H119.027V60.4591H123.569V65.1631Z" fill="#897871"/>
<path d="M143.784 54.0197V62.7407C143.778 63.9504 143.405 64.94 142.665 65.7093C141.931 66.4786 140.933 66.9103 139.671 67.0042L139.232 67.0219C137.862 67.0219 136.769 66.6431 135.954 65.8855C135.14 65.1279 134.727 64.0855 134.715 62.7583V54.0197H136.35V62.7054C136.35 63.6333 136.6 64.3556 137.099 64.8724C137.598 65.3834 138.309 65.6388 139.232 65.6388C140.167 65.6388 140.881 65.3834 141.375 64.8724C141.874 64.3615 142.123 63.6421 142.123 62.7142V54.0197H143.784Z" fill="#897871"/>
<path d="M159.619 61.6571H156.676V66.8457H155.016V54.0197H159.163C160.574 54.0197 161.658 54.3486 162.415 55.0063C163.178 55.664 163.559 56.6213 163.559 57.8781C163.559 58.6767 163.347 59.3727 162.922 59.9658C162.504 60.5589 161.919 61.0023 161.167 61.296L164.11 66.74V66.8457H162.337L159.619 61.6571ZM156.676 60.2741H159.214C160.035 60.2741 160.686 60.0568 161.167 59.6222C161.655 59.1877 161.899 58.6063 161.899 57.8781C161.899 57.0852 161.666 56.4774 161.202 56.0546C160.743 55.6317 160.078 55.4174 159.206 55.4115H156.676V60.2741Z" fill="#897871"/>
<path d="M184.152 60.8467C184.152 62.1035 183.946 63.2017 183.533 64.1413C183.12 65.0751 182.535 65.7886 181.777 66.2819C181.02 66.7752 180.137 67.0219 179.127 67.0219C178.141 67.0219 177.266 66.7752 176.503 66.2819C175.741 65.7827 175.147 65.0751 174.722 64.1589C174.304 63.2369 174.089 62.171 174.077 60.9612V60.0363C174.077 58.803 174.287 57.7136 174.705 56.7681C175.124 55.8226 175.715 55.1003 176.478 54.6011C177.246 54.096 178.124 53.8435 179.11 53.8435C180.114 53.8435 180.997 54.0931 181.76 54.5923C182.529 55.0856 183.12 55.805 183.533 56.7505C183.946 57.6901 184.152 58.7854 184.152 60.0363V60.8467ZM182.509 60.0187C182.509 58.4976 182.21 57.3319 181.614 56.5215C181.017 55.7052 180.183 55.297 179.11 55.297C178.066 55.297 177.243 55.7052 176.641 56.5215C176.045 57.3319 175.738 58.4595 175.72 59.9041V60.8467C175.72 62.3208 176.022 63.4806 176.624 64.3263C177.232 65.1661 178.066 65.586 179.127 65.586C180.194 65.586 181.02 65.1896 181.605 64.3968C182.19 63.5981 182.491 62.4558 182.509 60.97V60.0187Z" fill="#897871"/>
<path d="M198.955 61.1286C197.538 60.7116 196.505 60.2007 195.857 59.5958C195.215 58.9851 194.894 58.2334 194.894 57.3407C194.894 56.3306 195.287 55.4967 196.072 54.8389C196.864 54.1753 197.891 53.8435 199.153 53.8435C200.013 53.8435 200.779 54.0138 201.45 54.3544C202.126 54.695 202.648 55.1649 203.016 55.7639C203.388 56.3629 203.575 57.0177 203.575 57.7283H201.914C201.914 56.9531 201.673 56.3453 201.192 55.9048C200.71 55.4585 200.03 55.2353 199.153 55.2353C198.338 55.2353 197.701 55.4203 197.243 55.7903C196.789 56.1544 196.563 56.6624 196.563 57.3143C196.563 57.8369 196.778 58.2803 197.208 58.6444C197.644 59.0027 198.381 59.3315 199.419 59.6311C200.463 59.9306 201.278 60.2624 201.863 60.6265C202.453 60.9847 202.889 61.4046 203.17 61.8862C203.457 62.3677 203.601 62.9345 203.601 63.5863C203.601 64.6258 203.205 65.4597 202.413 66.0881C201.622 66.7106 200.563 67.0219 199.239 67.0219C198.378 67.0219 197.575 66.8545 196.83 66.5197C196.084 66.1791 195.507 65.7152 195.1 65.1279C194.699 64.5406 194.498 63.8741 194.498 63.1283H196.158C196.158 63.9034 196.437 64.5171 196.993 64.9693C197.555 65.4157 198.304 65.6388 199.239 65.6388C200.11 65.6388 200.779 65.4568 201.243 65.0927C201.708 64.7286 201.94 64.2323 201.94 63.6039C201.94 62.9756 201.725 62.4911 201.295 62.1504C200.865 61.804 200.085 61.4633 198.955 61.1286Z" fill="#897871"/>
</svg>
