<svg width="386" height="92" viewBox="0 0 386 92" fill="none" xmlns="http://www.w3.org/2000/svg">
<path d="M99.7818 59.3881H99.6671C98.5292 61.5108 96.1069 63.9777 91.9762 63.9777C85.7228 63.9777 83.3483 59.4996 85.8089 47.9108C87.8583 38.2693 90.7077 31.3243 98.3412 31.3243C100.926 31.3243 103.556 32.1881 104.394 35.5124H104.509L107.339 22.1992H116.636L107.928 63.1713H98.9754L99.7818 59.3881ZM100.748 38.0972C97.3627 38.0972 96.397 41.8263 95.2017 47.455C94.1436 52.4462 93.2479 57.208 96.7444 57.208C99.5013 57.208 100.779 53.8805 102.058 47.8566C103.23 42.3426 103.903 38.0972 100.748 38.0972Z" fill="#006937"/>
<path d="M137.194 63.1745H128.244L129.022 59.5027H128.904C127.001 62.2565 123.938 63.9776 120.496 63.9776C115.214 63.9776 112.964 61.3386 114.233 55.3689L119.173 32.1274H128.47L123.97 53.3035C123.492 55.541 124.19 56.8605 125.908 56.8605C127.689 56.8605 129.528 55.4868 130.175 52.443L134.491 32.1274H143.788L137.194 63.1745Z" fill="#006937"/>
<path d="M150.545 22.2024H159.842L157.015 35.5124H157.127C159.383 32.1849 162.376 31.3243 164.961 31.3243C172.591 31.3243 172.493 38.2693 170.443 47.9108C167.979 59.5028 163.702 63.9745 157.446 63.9745C153.315 63.9745 151.944 61.5108 151.705 59.3849H151.594L150.791 63.1713H141.838L150.545 22.2024ZM155.559 57.2048C159.061 57.2048 160.187 52.443 161.248 47.4518C162.443 41.8263 163.061 38.0972 159.677 38.0972C156.521 38.0972 155.393 42.3426 154.22 47.8502C152.939 53.8773 152.805 57.2048 155.559 57.2048Z" fill="#006937"/>
<path d="M40.8718 32.0766H49.8216L48.8941 36.4368H49.0089C50.8001 33.683 53.6686 31.2703 57.573 31.2703C58.032 31.2703 58.4909 31.2703 59.036 31.385L57.181 40.1117C56.3013 39.9364 55.565 39.8822 54.6535 39.8822C50.918 39.8822 48.177 41.4312 47.3101 45.5109L43.5682 63.1332H34.2646L40.8718 32.0766Z" fill="#006937"/>
<path d="M57.3627 47.6495C59.3324 38.3778 62.9021 31.2703 73.6177 31.2703C84.9579 31.2703 84.9165 38.2057 82.9404 47.4838C80.9707 56.7619 77.4009 63.8599 66.6886 63.8599C55.3484 63.8599 55.3898 56.934 57.3627 47.6495ZM72.381 37.3452C69.6304 37.3452 68.2599 40.0352 66.6631 47.5412C65.0535 55.0982 65.2894 57.7914 68.0304 57.7914C70.8958 57.7914 72.0241 55.2161 73.6368 47.6017C75.2687 39.9205 75.2432 37.3452 72.381 37.3452Z" fill="#006937"/>
<path d="M13.1109 22.1833H28.0208C38.169 22.1833 38.5579 29.5268 37.4774 34.6264C35.9157 41.9666 31.3196 47.13 21.6878 47.13H17.4424L14.0416 63.13H4.40649L13.1109 22.1833ZM18.9499 40.0192H21.5922C25.4328 40.0192 26.8607 37.6128 27.4471 34.859C28.1165 31.7005 27.6001 29.2909 23.6957 29.2909H21.2352L18.9499 40.0192Z" fill="#006937"/>
<path d="M258.201 47.6495C260.171 38.3778 263.74 31.2703 274.453 31.2703C285.796 31.2703 285.752 38.2057 283.775 47.4838C281.809 56.7619 278.239 63.8599 267.527 63.8599C256.19 63.8599 256.225 56.934 258.201 47.6495ZM273.219 37.3452C270.469 37.3452 269.098 40.0352 267.501 47.5412C265.892 55.0982 266.128 57.7914 268.869 57.7914C271.734 57.7914 272.859 55.2161 274.475 47.6017C276.107 39.9205 276.081 37.3452 273.219 37.3452Z" fill="#006937"/>
<path d="M222.52 31.2542C219.074 31.2542 215.999 32.9721 214.096 35.7354H213.978L214.762 32.0573H205.796L199.189 63.1394H208.499L212.821 42.8016C213.471 39.7577 215.313 38.3745 217.095 38.3745C218.816 38.3745 219.517 39.7004 219.042 41.941L214.536 63.1394H223.846L228.795 39.8693C230.057 33.8932 227.804 31.2542 222.52 31.2542Z" fill="#006937"/>
<path d="M190.137 31.3435C186.29 31.3435 183.536 31.8598 181.044 33.3515C178.545 34.8495 176.735 37.4248 175.779 41.6734H184.04C184.668 38.977 185.742 37.4248 188.327 37.4248C190.392 37.4248 190.998 38.6327 190.599 40.5228C190.093 42.875 189.474 43.3371 186.51 44.0798C183.775 44.765 180.215 45.3419 177.653 46.6073C175.087 47.8726 172.955 50.91 172.183 54.5244C170.756 61.2399 173.213 63.9969 178.437 63.9969C181.535 63.9969 184.802 62.3873 186.644 59.6304H186.765C186.567 60.8415 186.411 62.0941 186.526 63.1937H195.479C194.673 61.8168 195.307 58.8367 195.814 56.4814L199.199 40.526C200.591 33.9889 197.764 31.3435 190.137 31.3435ZM187.814 53.3164C187.154 56.4176 185.133 57.565 183.179 57.565C181.468 57.565 180.805 56.0734 181.331 53.6033C181.694 51.8885 182.36 50.91 183.489 50.1642C184.502 49.479 185.78 49.4184 189.031 47.8758C188.767 49.1284 188.365 50.7443 187.814 53.3164Z" fill="#006937"/>
<path d="M247.858 43.8024C248.824 39.2733 248.196 37.3801 245.729 37.3801C242.634 37.3801 241.407 41.2813 240.053 47.6494C238.567 54.6454 238.287 57.8518 241.379 57.8518C244.136 57.8518 245.162 55.9618 246.44 50.5116H255.046C252.948 60.0893 248.349 63.9331 239.919 63.9331C228.222 63.9331 229.047 55.7323 231.01 46.502C232.856 37.7817 236.763 31.2988 246.858 31.2988C256.604 31.2988 258.045 36.4048 256.467 43.8024H247.858V43.8024Z" fill="#006937"/>
<path d="M4.94834 82.2217H6.84794L6.53878 83.675C6.2073 85.2241 4.95152 85.9603 4.26945 85.9603C2.60889 85.9603 2.75232 83.7994 3.4822 80.3571C4.23121 76.797 5.10133 75.3595 6.5069 75.3595C7.66388 75.3595 7.8583 76.6982 7.63519 77.7563H10.3985C11.0137 74.8623 10.0798 73.24 6.91487 73.24C3.2336 73.24 1.58897 75.7005 0.572241 80.5069C-0.476364 85.444 -0.3425 88.0862 3.19535 88.0862C4.54356 88.0862 5.62722 87.6049 6.54515 86.483H6.58021L6.30292 87.8121H8.42244L10.0639 80.1021H5.40093L4.94834 82.2217ZM18.0161 76.797C17.8535 76.7778 17.6814 76.7619 17.5189 76.7619C16.381 76.7619 15.4503 77.4408 14.6758 78.4703H14.6312L14.9308 77.0392H12.2981L10.0097 87.8089H12.773L14.1467 81.3388C14.4559 79.8982 15.6384 79.3978 16.5977 79.3978C16.8814 79.3978 17.1746 79.4233 17.4551 79.4392L18.0161 76.797ZM24.5563 77.0392L23.0392 84.1723C22.7874 85.377 22.134 85.9571 21.1969 85.9571C20.381 85.9571 20.1069 85.5428 20.3396 84.4559L21.9173 77.0392H19.1539L17.4615 85.0201C17.0121 87.1396 17.828 88.083 19.5491 88.083C20.7125 88.083 21.8153 87.6017 22.6185 86.5404H22.6567L22.389 87.8089H25.0312L27.3197 77.0392H24.5563V77.0392ZM34.338 76.7619C33.2575 76.7619 32.4065 77.1731 31.6033 78.177H31.5587L31.7977 77.0392H29.1619L26.1308 91.3213H28.8878L29.8503 86.7954H29.8918C30.2806 87.6559 30.8958 88.083 31.9252 88.083C34.2009 88.083 35.5938 86.4193 36.4448 82.4161C37.2894 78.4193 36.6009 76.7619 34.338 76.7619ZM33.6782 82.4161C33.181 84.7651 32.6838 85.9603 31.4854 85.9603C30.2647 85.9603 30.2806 84.7683 30.781 82.4161C31.275 80.0766 31.7722 78.8687 32.993 78.8687C34.1914 78.8719 34.1754 80.0766 33.6782 82.4161ZM43.1029 76.7619C39.9475 76.7619 38.4368 78.7348 37.6591 82.4161C36.8655 86.1675 37.3659 88.1436 40.6934 88.083C43.8583 88.083 45.3627 86.1037 46.1436 82.4161C46.9404 78.6806 46.44 76.6982 43.1029 76.7619ZM43.377 82.4161C42.8129 85.0966 42.2169 86.1994 41.0981 86.1994C39.7436 86.1994 39.9507 84.6153 40.4224 82.4161C40.8878 80.2137 41.3467 78.6456 42.7077 78.6456C43.8296 78.6456 43.9539 79.7452 43.377 82.4161ZM59.6894 73.5141H54.6471L51.6065 87.8057H54.491L55.7053 82.0942H57.2479C59.9635 82.0942 62.0703 80.7555 62.6981 77.7978C63.1539 75.6559 62.6121 73.5141 59.6894 73.5141ZM59.632 78.0145C59.3292 79.4711 58.4049 80.1563 57.2575 80.1563H55.9794L56.9005 75.8153H58.0989C59.5459 75.8153 59.9316 76.6185 59.632 78.0145ZM69.6687 76.797C69.5125 76.7778 69.3372 76.7619 69.1714 76.7619C68.0336 76.7619 67.1093 77.4408 66.3252 78.4703H66.287L66.593 77.0392H63.9507L61.6623 87.8089H64.4256L65.8025 81.3388C66.1053 79.8982 67.291 79.3978 68.2503 79.3978C68.5308 79.3978 68.8272 79.4233 69.1077 79.4392L69.6687 76.797ZM74.5547 76.7619C71.393 76.7619 69.8918 78.7348 69.1109 82.4161C68.3173 86.1675 68.8145 88.1436 72.1483 88.083C75.3101 88.083 76.8113 86.1037 77.5985 82.4161C78.3858 78.6806 77.8918 76.6982 74.5547 76.7619ZM74.8256 82.4161C74.2615 85.0966 73.6718 86.1994 72.5499 86.1994C71.1922 86.1994 71.4057 84.6153 71.871 82.4161C72.3396 80.2137 72.7985 78.6456 74.1595 78.6456C75.2814 78.6456 75.3993 79.7452 74.8256 82.4161ZM90.9212 76.7619C89.6177 76.7619 88.4926 77.3388 87.8392 78.4703H87.7946C87.7308 77.377 86.9436 76.7619 85.6814 76.7619C84.5181 76.7619 83.5683 77.1603 82.6695 78.142H82.6248L82.8639 77.0392H80.2185L77.9332 87.8089H80.6902L82.1914 80.7205C82.4623 79.4743 83.1444 78.8719 84.0336 78.8719C84.8177 78.8719 85.0057 79.385 84.8177 80.287L83.2208 87.8089H85.9842L87.4854 80.7205C87.7499 79.4743 88.4352 78.8719 89.3149 78.8719C90.0957 78.8719 90.287 79.385 90.1021 80.287L88.4989 87.8089H91.2559L92.9197 79.9778C93.3531 77.9029 92.7444 76.7619 90.9212 76.7619ZM99.326 76.7619C95.5969 76.7619 94.475 79.4392 93.8599 82.3141C93.2926 85.0041 92.7954 88.083 96.8049 88.083C99.393 88.083 100.894 86.6806 101.528 84.1723H99.0519C98.6057 85.5077 98.0766 86.1994 97.1523 86.1994C96.1356 86.1994 96.0559 84.9563 96.33 83.7005L96.5117 82.8368H101.975L102.105 82.2217C102.807 78.9133 102.548 76.7619 99.326 76.7619ZM99.6798 81.1986H96.8623L96.9483 80.7778C97.1619 79.7802 97.7228 78.6456 98.8256 78.6456C99.9699 78.6456 99.9698 79.5603 99.6798 81.1986ZM110.363 76.797C110.204 76.7778 110.032 76.7619 109.873 76.7619C108.732 76.7619 107.807 77.4408 107.02 78.4703H106.979L107.294 77.0392H104.652L102.363 87.8089H105.12L106.501 81.3388C106.803 79.8982 107.989 79.3978 108.948 79.3978C109.232 79.3978 109.522 79.4233 109.809 79.4392L110.363 76.797ZM114.953 73.3579H112.187L111.686 75.7165H114.446L114.953 73.3579ZM109.114 87.8089H111.881L114.172 77.0392H111.406L109.114 87.8089ZM123.112 80.9117C123.648 78.3842 122.673 76.7619 120.132 76.7619C117.592 76.7619 115.508 77.9986 114.564 82.4161C113.643 86.7444 114.727 88.083 117.481 88.083C120.407 88.083 121.924 86.5021 122.513 83.675H119.881C119.511 85.4248 118.928 86.1994 118.007 86.1994C116.76 86.1994 116.757 85.0966 117.328 82.448C117.85 79.9619 118.332 78.7571 119.683 78.7571C120.732 78.7571 120.693 79.879 120.473 80.9117H123.112ZM129.187 76.7619C127.109 76.7619 125.235 77.6033 124.703 80.0798L124.649 80.3412H127.135L127.195 80.0448C127.374 79.197 127.935 78.6456 128.767 78.6456C129.688 78.6456 129.949 79.1396 129.767 79.9619C129.618 80.679 129.27 81.0009 128.397 81.2177L126.752 81.6416C124.732 82.1611 123.74 82.9834 123.31 85.0073C123.007 86.4416 123.339 88.0862 125.254 88.0862C126.58 88.0862 127.428 87.8121 128.295 86.6838H128.34C128.343 87.0408 128.333 87.4615 128.435 87.8089H131.077C130.921 87.1842 130.972 86.7221 131.186 85.7213L132.384 80.0575C132.808 78.1229 132.47 76.7619 129.187 76.7619ZM128.799 84.5388C128.547 85.7181 127.489 86.1994 126.746 86.1994C126 86.1994 125.844 85.5173 126.022 84.6982C126.22 83.7388 126.778 83.2001 127.948 82.9675C128.305 82.8846 128.805 82.7029 129.242 82.4161L128.799 84.5388Z" fill="#006937"/>
<path d="M355.084 19.3212C339.724 34.3969 326.013 51.0376 313.688 68.6694L313.694 68.679C335.654 49.6001 359.54 32.7491 385.235 19.0854V19.0535C375.183 18.671 365.124 18.7475 355.084 19.3212Z" fill="#76BC21"/>
<path d="M304.687 78.62H304.7C318.019 56.7108 333.468 36.1148 351.412 17.7658C349.245 12.1626 344.792 0.968994 344.792 0.968994C338.714 7.83115 333.344 15.2479 328.387 22.9578C318.822 25.1475 309.391 27.8949 300.247 31.4997C300.247 31.4997 311.852 39.3754 317.541 43.4359C312.716 54.5817 305.136 77.259 304.687 78.62ZM368.241 75.4359L368.25 75.4264C364.977 63.2511 361.739 51.063 358.539 38.8527C350.618 43.9746 342.87 49.3387 335.301 54.9642C346.386 61.6128 357.353 68.459 368.241 75.4359Z" fill="#006937"/>
</svg>
