<svg width="324" height="96" viewBox="0 0 324 96" fill="none" xmlns="http://www.w3.org/2000/svg">
<path d="M31.6587 95.1756C27.1201 95.1756 22.5815 95.1756 18.0673 95.1756C16.7008 95.1756 16.6032 95.0292 17.1644 93.7847C20.0438 87.0988 22.8987 80.4129 25.778 73.7514C26.3148 72.4825 26.2416 72.3361 24.8752 72.3361C20.605 72.3361 16.3104 72.3361 12.0402 72.3361C10.5517 72.3361 9.08766 72.1409 7.64799 71.7749C2.45056 70.4328 -0.184761 66.5287 0.474069 61.1848C0.815685 58.5007 1.64532 55.963 2.81658 53.5473C7.13557 44.7629 11.4546 35.9785 15.7492 27.1697C16.042 26.5596 16.4568 26.2424 17.14 26.2424C20.9222 26.2424 24.7044 26.2424 28.4621 26.2424C29.3894 26.2424 29.487 26.462 29.1454 27.3649C28.3645 29.3658 27.8765 31.4399 27.5837 33.5628C26.9249 38.2722 29.365 42.4448 33.806 44.1528C35.4897 44.8117 37.2709 45.1289 39.0522 45.2509C39.8819 45.2997 40.0039 45.6169 39.6622 46.3489C38.6618 48.4962 37.7102 50.6435 36.7341 52.7908C36.1485 54.0841 36.1973 54.1817 37.5882 54.1817C40.9555 54.1817 44.3229 54.1573 47.6902 54.1817C49.5203 54.2061 51.3504 54.2549 53.1561 54.3525C56.255 54.5233 59.0367 57.3294 59.5492 60.6236C60.0372 63.7469 59.5247 66.7727 58.6463 69.7496C57.9143 72.2385 56.9626 74.6298 55.8158 76.9479C53.0341 82.5114 50.2035 88.0748 47.4706 93.6871C46.9094 94.8095 46.2261 95.2 45.0061 95.2C40.5407 95.1268 36.0997 95.1756 31.6587 95.1756Z" fill="#ED2846"/>
<path d="M60.8424 0.523656C65.6494 0.523656 70.4808 0.523656 75.2879 0.523656C76.6787 0.523656 76.7275 0.572458 76.1419 1.79251C71.7985 11.1869 67.4307 20.5814 63.0873 29.9758C62.5505 31.147 62.5993 31.2446 63.8681 31.2446C68.6264 31.2446 73.3846 31.2446 78.1184 31.2446C84.3895 31.2446 88.5133 35.9785 87.7324 42.2007C87.3908 44.8849 86.5856 47.4226 85.4387 49.8627C81.3881 58.3543 77.2643 66.8215 73.1894 75.3131C72.8721 75.9475 72.4817 76.2647 71.7497 76.2647C67.8455 76.2403 63.9413 76.2647 60.0372 76.2403C59.0611 76.2403 58.9635 76.0939 59.3539 75.191C61.0132 71.3601 62.4041 67.4559 62.7945 63.2589C62.9409 61.4776 62.8189 59.7451 62.3065 58.0371C61.2328 54.4013 58.1583 51.9368 54.3761 51.644C53.2781 51.5708 53.2049 51.4488 53.6441 50.4483C54.5957 48.179 55.5962 45.9341 56.5478 43.6892C56.9626 42.7132 56.9138 42.6156 55.8402 42.6156C51.0576 42.6156 46.2749 42.6156 41.4923 42.6156C40.0283 42.6156 38.613 42.4204 37.1977 42.0543C32.4639 40.8099 30.1214 37.4181 30.6582 32.5623C30.9266 30.1466 31.5855 27.8041 32.6835 25.608C36.6609 17.6776 40.6383 9.72287 44.5669 1.76811C45.0549 0.792068 45.6161 0.474854 46.6654 0.474854C51.3992 0.548057 56.133 0.523656 60.8424 0.523656Z" fill="#055CA3"/>
<path d="M113.622 65.8699C110.108 65.9431 106.814 65.6259 103.544 64.8695C102.739 64.6743 102.178 64.3083 101.861 63.4786C101.031 61.2825 100.128 59.0864 99.2986 56.8903C99.1765 56.5731 98.9081 56.2071 99.2254 55.8655C99.567 55.5239 99.933 55.8411 100.226 55.9875C104.008 57.8176 108.01 58.818 112.207 58.94C114.305 59.0132 116.355 58.8668 118.331 58.1592C120.137 57.5247 121.357 56.2559 121.894 54.4258C122.431 52.6689 122.504 50.912 122.016 49.1308C121.552 47.3739 120.454 46.1294 118.868 45.2998C117.038 44.3237 115.062 43.9333 113.085 43.4209C110.523 42.7621 107.961 42.1276 105.545 41.0296C100.201 38.5651 98.0297 34.2461 98.1273 28.5606C98.1517 27.7554 98.2005 26.9258 98.2981 26.1205C99.0057 20.7767 101.836 17.0921 106.96 15.384C113.085 13.3343 119.283 13.6516 125.505 14.9448C126.189 15.0912 126.506 15.5792 126.725 16.1893C127.457 18.0438 128.214 19.8982 128.921 21.7527C129.068 22.1431 129.41 22.6068 128.995 22.9972C128.629 23.3388 128.214 23.0216 127.848 22.8996C123.358 21.3623 118.771 20.7279 114.037 21.2403C109.474 21.7283 107.473 24.266 108.01 28.7802C108.229 30.6103 109.083 32.0744 110.669 33.0748C112.012 33.9533 113.524 34.4657 115.062 34.8805C117.795 35.6126 120.601 36.2226 123.236 37.345C129.629 40.0292 132.264 44.0309 132.142 50.9852C132.118 52.5225 131.923 54.0598 131.606 55.5727C130.386 61.1117 126.799 64.3083 120.552 65.4063C118.185 65.7967 115.818 65.9675 113.622 65.8699Z" fill="#055CA3"/>
<path d="M191.169 42.4935C191.169 38.8334 191.193 35.1732 191.144 31.513C191.12 30.3174 191.51 29.805 192.755 29.8538C194.756 29.927 196.732 29.9026 198.733 29.8538C199.88 29.8294 200.295 30.2686 200.295 31.4398C200.246 37.7353 200.27 44.0308 200.27 50.3263C200.27 51.9124 200.368 53.4984 200.734 55.0601C201.246 57.3782 202.662 58.7691 205.029 59.1107C205.59 59.1839 206.151 59.2815 206.712 59.2815C211.104 59.3547 213.301 57.427 213.398 53.0348C213.545 46.4221 213.471 39.785 213.496 33.1723C213.52 29.4633 213.105 29.9026 216.863 29.8782C218.376 29.8782 219.864 29.9026 221.377 29.8782C222.28 29.8782 222.695 30.1954 222.695 31.1714C222.671 38.4429 222.695 45.7145 222.646 52.986C222.646 54.3281 222.427 55.6701 222.134 56.9634C221.133 61.3068 218.498 64.0885 214.179 65.1134C209.372 66.2602 204.492 66.2602 199.685 65.1134C195.317 64.0641 192.657 61.2336 191.706 56.8414C191.34 55.2065 191.193 53.5472 191.193 51.888C191.169 48.7646 191.169 45.6169 191.169 42.4935Z" fill="#055CA3"/>
<path d="M175.137 39.6386C175.137 31.8059 175.137 23.9731 175.137 16.1404C175.137 14.3591 175.21 14.2859 176.992 14.2615C178.944 14.2615 180.896 14.2859 182.848 14.2371C183.995 14.2127 184.41 14.6275 184.41 15.7988C184.361 25.5104 184.385 35.1976 184.385 44.9093C184.385 51.1316 184.361 57.3295 184.41 63.5517C184.41 64.7718 184.044 65.2354 182.799 65.1866C180.823 65.1134 178.822 65.1866 176.821 65.1622C175.235 65.1622 175.137 65.0646 175.137 63.3809C175.113 55.475 175.137 47.569 175.137 39.6386Z" fill="#055CA3"/>
<path d="M276.133 65.8698C273.4 65.9186 270.912 65.577 268.471 64.9426C267.813 64.7718 267.398 64.4546 267.178 63.8201C266.763 62.6733 266.3 61.5508 265.861 60.404C265.739 60.1112 265.519 59.794 265.787 59.4767C266.105 59.1107 266.471 59.3791 266.788 59.5012C270.082 60.77 273.498 61.4288 277.036 61.2092C277.768 61.1604 278.5 61.0628 279.208 60.8676C281.502 60.282 282.771 58.7691 282.966 56.4998C283.185 53.9377 282.38 52.5224 280.038 51.4488C278.134 50.5703 276.085 50.2531 274.084 49.7407C272.693 49.3991 271.351 48.9843 270.058 48.3498C266.349 46.5198 264.958 43.4208 265.153 39.4434C265.324 35.6125 267.032 32.7575 270.643 31.2203C273.645 29.9514 276.817 29.8538 279.989 30.0734C281.453 30.171 282.893 30.3906 284.332 30.7078C285.04 30.8542 285.479 31.1959 285.723 31.8791C286.065 32.8795 286.504 33.8556 286.87 34.8316C286.992 35.1732 287.26 35.5393 286.968 35.8565C286.626 36.2469 286.211 35.9541 285.845 35.8321C283.112 34.9536 280.33 34.5144 277.451 34.612C276.377 34.6364 275.353 34.8072 274.328 35.1244C272.522 35.7101 271.448 36.9301 271.278 38.8334C271.082 40.8099 271.668 42.4448 273.498 43.4696C275.328 44.4945 277.378 44.8605 279.403 45.3485C281.38 45.8365 283.332 46.3978 285.089 47.4714C287.114 48.6915 288.407 50.4239 288.846 52.7664C289.31 55.2554 289.188 57.7199 288.236 60.0868C286.797 63.6981 283.722 65.0158 280.208 65.577C278.793 65.8454 277.378 65.943 276.133 65.8698Z" fill="#389DEF"/>
<path d="M261.127 16.1892C261.127 14.3591 261.054 14.2859 259.175 14.2859C257.393 14.2859 255.588 14.2859 253.806 14.2859C252.001 14.2859 251.928 14.3347 251.928 16.116C251.928 20.6302 251.903 25.1444 251.928 29.6342C251.928 30.6346 251.708 30.9762 250.659 30.537C246.999 28.9998 243.168 28.7801 239.288 29.3414C233.968 30.1222 230.284 32.9771 228.795 38.2478C226.99 44.6897 226.941 51.1804 228.966 57.5979C230.308 61.868 233.334 64.5034 237.702 65.3818C242.436 66.3579 247.072 66.2358 251.464 63.8689C252.001 63.5761 252.489 63.4541 252.635 64.2594C252.782 65.0402 253.294 65.1866 253.977 65.1866C255.685 65.1866 257.393 65.1866 259.101 65.1866C261.054 65.1866 261.102 65.1622 261.102 63.2345C261.102 55.4018 261.102 47.5446 261.102 39.7118C261.127 31.8547 261.127 24.0219 261.127 16.1892ZM251.952 47.5934C251.952 50.4239 251.928 53.2789 251.976 56.1094C252.001 57.0122 251.684 57.5247 250.854 57.8907C248.194 59.0863 245.461 59.6475 242.558 59.0619C240.337 58.6227 238.824 57.3782 238.019 55.2553C237.067 52.8152 236.97 50.2531 236.97 47.691C236.97 45.5925 237.067 43.4696 237.58 41.3955C238.507 37.6133 240.63 35.9053 244.51 35.8565C246.706 35.8321 248.78 36.2225 250.805 37.0765C251.684 37.4425 252.05 37.955 252.025 38.931C251.903 41.8347 251.952 44.7141 251.952 47.5934Z" fill="#055CA3"/>
<path d="M170.062 58.8667C167.793 58.3787 167.06 57.4759 167.036 55.1822C167.012 52.6933 167.036 50.2287 167.036 47.7398C167.012 47.7398 167.012 47.7398 166.987 47.7398C166.987 45.2509 167.085 42.7864 166.963 40.2975C166.694 34.0264 163.791 30.6347 157.617 29.4878C152.737 28.585 147.906 29.1462 143.123 30.3906C142.464 30.5614 142.098 30.9519 141.854 31.5863C141.22 33.2212 140.561 34.8316 139.926 36.4665C139.78 36.8325 139.487 37.2474 139.804 37.6134C140.146 38.0038 140.585 37.711 140.927 37.589C144.075 36.5397 147.271 35.9053 150.614 35.8809C156.226 35.8321 157.837 37.4426 157.739 43.0304C157.715 44.5921 157.642 44.6409 156.056 44.6653C152.883 44.7141 149.711 44.5189 146.564 44.9093C138.902 45.8365 135.071 50.7656 136.462 58.0127C137.194 61.8193 139.463 64.3326 143.196 65.2598C148.345 66.5287 153.371 66.2603 157.886 63.0149C158.3 62.6977 158.691 62.4537 159.106 63.0393C161.155 65.8454 164.132 66.0407 167.207 65.8454C167.817 65.7966 168.403 65.6502 168.671 64.9426C169.305 63.2833 169.989 61.6241 170.647 59.9648C170.965 59.2816 170.745 59.0131 170.062 58.8667ZM154.25 58.9155C152.591 59.4036 150.883 59.5012 149.199 59.2816C146.881 58.9887 145.612 57.5979 145.514 55.3286C145.417 53.0593 146.442 51.644 148.76 51.2048C151.493 50.6924 154.25 51.0096 157.007 51.0096C157.568 51.0096 157.764 51.4244 157.788 51.9124C157.812 52.6933 157.788 53.4497 157.788 54.2305C157.812 57.6223 157.544 57.9395 154.25 58.9155Z" fill="#055CA3"/>
<path d="M322.422 61.1606C320.812 61.063 320.251 60.4285 319.933 58.818C319.811 58.1348 319.763 57.4516 319.763 56.7684C319.738 54.255 319.763 51.7173 319.763 49.204C319.763 46.4711 319.811 43.7626 319.763 41.0296C319.641 34.5145 316.444 31.0252 310.027 30.22C306.928 29.8295 303.878 30.22 300.803 30.586C298.582 30.8544 297.094 31.7572 296.655 34.0753C296.582 34.5145 296.313 34.905 296.167 35.3198C296.02 35.7346 295.63 36.1738 295.972 36.5642C296.313 36.9791 296.801 36.613 297.216 36.491C299.827 35.6858 302.487 35.149 305.22 35.027C311.247 34.7098 313.662 36.9303 313.662 42.9085C313.662 46.1295 313.662 46.1051 310.393 46.1539C307.098 46.2027 303.804 45.8611 300.535 46.5687C294.605 47.8376 291.897 51.5221 292.458 57.5492C292.848 61.673 295.093 64.4547 299.144 65.3819C304.219 66.5532 309.099 66.0652 313.37 62.7466C313.906 62.3318 314.199 62.283 314.541 62.9662C315.517 64.9671 317.274 65.7724 319.397 65.87C321.788 65.992 321.788 65.9676 322.666 63.7471C322.837 63.3323 322.959 62.893 323.154 62.5026C323.618 61.6486 323.594 61.2338 322.422 61.1606ZM313.662 57.1832C313.662 57.72 313.467 58.1104 313.052 58.4276C309.856 60.9409 306.244 61.8438 302.291 60.9653C299.827 60.4285 298.582 58.6716 298.534 56.1095C298.485 53.3766 299.632 51.7417 302.121 51.0097C304.268 50.3753 306.464 50.6193 308.27 50.5705C309.978 50.5705 311.271 50.5949 312.564 50.5705C313.296 50.5461 313.687 50.7657 313.662 51.5953C313.638 53.4498 313.662 55.3287 313.662 57.1832Z" fill="#389DEF"/>
</svg>
