<svg width="362" height="92" viewBox="0 0 362 92" fill="none" xmlns="http://www.w3.org/2000/svg">
<path d="M133.276 1.27088C137.207 1.27088 141.062 1.34632 144.993 1.27088C148.849 1.19544 147.261 4.06212 147.488 5.79722C147.715 7.60776 148.017 9.56917 144.918 9.49373C138.719 9.34285 132.596 9.41829 126.397 9.49373C124.81 9.49373 123.146 9.41829 121.559 10.0218C118.686 11.1534 117.93 13.3411 118.233 16.0569C118.46 18.7727 120.274 19.9798 122.844 20.1306C128.514 20.5078 134.183 19.7534 139.777 20.5833C146.354 21.564 149.151 24.5815 149.68 31.2956C150.285 39.1413 147.564 44.5729 141.44 45.9308C131.764 48.0431 121.861 46.9115 112.11 46.7606C108.935 46.6852 110.976 43.0641 110.522 41.1027C110.144 39.3676 111.051 38.6886 112.866 38.6886C119.518 38.7641 126.17 38.6886 132.898 38.6886C134.939 38.6886 136.98 38.6132 138.643 37.2553C140.382 35.822 140.458 33.7097 139.929 31.6728C139.324 29.4096 137.509 28.5044 135.393 28.4289C131.084 28.2781 126.851 28.3535 122.542 28.278C117.628 28.2026 112.714 27.5237 110.22 22.5447C107.649 17.264 107.876 11.6815 110.673 6.62705C113.168 2.10071 117.855 1.42176 122.466 1.19544C126.019 1.12 129.648 1.27088 133.276 1.27088Z" fill="#1E1558"/>
<path d="M175.08 19.8288C177.953 19.8288 180.901 20.0551 183.774 19.7533C186.949 19.4516 187.478 20.8095 187.553 23.6007C187.553 26.5428 187.024 27.9007 183.698 27.7498C177.65 27.5235 171.603 27.8253 165.555 27.599C162.456 27.5235 161.927 28.6551 162.531 31.3709C163.59 36.199 165.933 38.4622 171.149 38.6885C175.685 38.9148 180.221 38.9148 184.756 38.7639C187.478 38.7639 187.478 40.7897 187.478 42.385C187.478 45.3093 187.478 46.9114 184.907 46.9114C179.767 46.8359 174.551 47.0622 169.411 46.7605C159.886 46.157 154.14 40.9517 152.477 31.5972C151.419 25.713 151.57 19.8288 153.158 14.0199C155.35 6.02341 160.793 1.79882 169.789 1.27075C174.778 0.968995 179.843 1.27075 184.907 1.11987C187.587 1.11992 187.651 3.37373 187.587 5.31759C187.523 7.27291 187.587 9.34273 184.605 9.34273C180.221 9.19185 175.761 9.19185 171.376 9.34273C166.689 9.49361 163.817 11.9077 162.607 16.2077C161.851 18.6972 162.229 19.9796 165.253 19.8288C168.503 19.6779 171.83 19.8288 175.08 19.8288Z" fill="#1E1558"/>
<path d="M250.902 46.7607C241.982 45.9309 236.312 40.9519 234.573 32.201C233.515 26.8448 233.591 21.4886 234.725 16.1324C236.766 6.55168 242.435 1.64815 252.338 1.27095C257.101 1.04463 261.939 1.34639 266.701 1.19551C270.103 1.04463 269.423 3.3078 269.423 5.19378C269.498 7.15519 269.876 9.26749 266.626 9.19205C262.468 9.04117 258.31 9.04117 254.152 9.26749C248.785 9.4938 246.215 11.6815 244.854 16.9623C243.645 21.6395 243.645 26.4676 244.476 31.1448C245.308 36.3501 248.18 38.6887 253.623 38.915C257.857 39.0659 262.166 39.2168 266.474 38.915C269.498 38.915 269.514 41.0075 269.498 42.9887C269.483 44.9036 269.498 46.9529 266.612 46.9529C260.476 46.9529 256.11 47.3225 250.902 46.7607Z" fill="#1E1558"/>
<path d="M224.897 32.5782C223.664 30.3763 221.818 28.2856 224.429 26.7834C226.374 25.6641 227.635 25.2593 228.904 23.1483C235.103 13.1149 229.055 1.64815 217.413 1.27095C210.61 1.04463 203.806 1.34639 197.003 1.19551C194.206 1.12007 193.299 1.87446 193.374 4.74115C193.525 16.8868 193.374 29.108 193.45 41.2536C193.45 47.5151 192.467 46.8361 199.346 47.0624C202.068 47.1379 202.748 46.0817 202.672 43.5922C202.521 39.594 202.672 35.5957 202.597 31.522C202.597 30.1641 202.672 29.2588 204.487 29.0325C211.593 28.1272 212.878 28.6553 216.204 34.9922C217.111 36.6519 218.245 38.2361 218.774 39.9712C220.664 46.6098 225.351 48.0431 231.398 46.987C231.625 46.9116 231.852 46.8361 232.684 46.6098C230.038 41.7063 227.543 37.1799 224.897 32.5782ZM216.279 20.6588C214.163 20.8097 212.046 20.6588 209.929 20.6588C202.597 20.8097 202.521 17.5724 202.521 13.5675C202.521 11.07 203.338 9.56924 206.981 9.34293C210.185 9.34293 213.256 9.34293 216.355 9.56924C219.606 9.79556 221.647 11.4552 221.647 15.0763C221.571 18.7728 219.53 20.4325 216.279 20.6588Z" fill="#1E1558"/>
<path d="M313.872 16.2832C312.285 7.0796 306.842 1.79887 297.619 0.667283C293.84 0.214649 290.136 0.290088 286.356 1.04448C279.477 2.47782 274.865 6.47609 272.9 13.1902C270.708 20.5832 270.934 28.0516 273.127 35.4447C274.865 41.4798 278.948 45.2517 284.995 46.9114C302.458 51.8904 314.25 43.2149 314.628 25.185C314.628 22.1994 314.398 19.253 313.872 16.2832ZM303.969 30.692C302.684 36.8026 298.905 39.971 293.008 39.8956C286.961 39.8201 283.332 36.8026 282.122 30.6166C281.215 25.8639 281.064 21.1113 282.349 16.434C283.861 11.0024 287.49 8.36206 293.084 8.36206C298.678 8.36206 302.306 11.0779 303.743 16.5095C304.98 21.1731 304.979 25.9913 303.969 30.692Z" fill="#1E1558"/>
<path d="M346.151 1.79896C337.911 0.591935 329.596 1.4972 321.281 1.19545C319.088 1.12001 318.937 2.40247 318.937 4.06213C318.937 10.7008 318.937 17.3394 318.937 24.0535C318.937 29.7114 318.862 35.3693 318.937 41.0273C319.013 47.8168 317.728 46.8361 325.287 47.0624C327.404 47.1378 328.16 46.3834 328.084 44.2711C327.933 41.0273 328.16 37.7079 328.009 34.4641C327.857 31.8991 328.689 30.9184 331.335 30.9939C336.097 31.0693 340.935 30.9939 345.622 30.5412C352.879 29.8623 357.113 24.657 357.264 16.7359C357.566 8.51303 353.408 2.85511 346.151 1.79896ZM341.464 22.6201C337.76 23.0728 333.905 22.8464 330.201 22.9973C328.462 23.0728 328.084 22.0921 328.16 20.5833C328.235 18.0938 328.084 15.9856 328.084 13.0394C328.084 10.9329 328.084 9.4183 331.637 9.4183C334.954 9.4183 337.958 9.31944 341.086 9.56918C345.169 10.0218 347.058 12.0587 347.134 15.8306C347.21 19.8289 345.471 22.0921 341.464 22.6201Z" fill="#1E1558"/>
<path d="M110.784 65.9022C110.472 65.9022 110.138 65.8857 109.782 65.8529C109.431 65.8145 109.13 65.7625 108.878 65.6967V64.7353C109.119 64.7572 109.409 64.7764 109.749 64.7928C110.094 64.8038 110.42 64.8092 110.727 64.8092C111.039 64.8092 111.286 64.7681 111.466 64.686C111.647 64.5983 111.737 64.434 111.737 64.1929V63.9711C111.737 63.7903 111.683 63.6533 111.573 63.5602C111.464 63.4616 111.313 63.4123 111.121 63.4123H110.603C110.023 63.4123 109.576 63.2863 109.264 63.0343C108.957 62.7768 108.804 62.3413 108.804 61.7277V61.4319C108.804 60.8402 108.971 60.4074 109.305 60.1335C109.645 59.8596 110.132 59.7226 110.768 59.7226C111.102 59.7226 111.433 59.7445 111.762 59.7884C112.096 59.8322 112.378 59.8788 112.609 59.9281V60.8895C112.357 60.8731 112.074 60.8566 111.762 60.8402C111.455 60.8238 111.17 60.8155 110.908 60.8155C110.623 60.8155 110.393 60.8594 110.217 60.947C110.047 61.0347 109.962 61.2155 109.962 61.4894V61.6537C109.962 61.8674 110.023 62.0208 110.143 62.1139C110.264 62.207 110.442 62.2536 110.677 62.2536H111.277C111.82 62.2536 112.225 62.4015 112.493 62.6973C112.762 62.9932 112.896 63.3657 112.896 63.8149V64.1601C112.896 64.6367 112.806 65.001 112.625 65.253C112.45 65.505 112.203 65.6775 111.885 65.7707C111.573 65.8583 111.206 65.9022 110.784 65.9022Z" fill="#1E1558"/>
<path d="M116.913 65.8939C116.782 65.8939 116.631 65.8802 116.461 65.8529C116.292 65.8309 116.127 65.7762 115.968 65.6885C115.815 65.6009 115.686 65.4694 115.582 65.2941C115.484 65.1133 115.434 64.8668 115.434 64.5545V61.1607C115.434 60.7991 115.505 60.517 115.648 60.3143C115.79 60.1116 115.968 59.9719 116.182 59.8952C116.396 59.813 116.609 59.7719 116.823 59.7719C117.437 59.7719 117.949 59.7829 118.36 59.8048C118.771 59.8267 119.135 59.8514 119.453 59.8788V60.8977H117.185C117.015 60.8977 116.883 60.9388 116.79 61.021C116.697 61.1032 116.65 61.2292 116.65 61.399V62.2783L119.058 62.344V63.3054L116.65 63.3712V64.2094C116.65 64.423 116.7 64.5682 116.798 64.6449C116.902 64.7161 117.023 64.7517 117.16 64.7517H119.453V65.7707C119.086 65.809 118.672 65.8392 118.212 65.8611C117.752 65.883 117.319 65.8939 116.913 65.8939Z" fill="#1E1558"/>
<path d="M121.981 65.8529V59.7719H124.495C124.813 59.7719 125.104 59.8267 125.367 59.9363C125.629 60.0404 125.838 60.2348 125.991 60.5197C126.15 60.7991 126.229 61.199 126.229 61.7195C126.229 62.0975 126.183 62.3988 126.09 62.6234C125.997 62.8425 125.876 63.0123 125.728 63.1329C125.58 63.2534 125.427 63.3465 125.268 63.4123L126.402 65.8529H125.161L124.183 63.6013C124.046 63.6013 123.885 63.6013 123.698 63.6013C123.512 63.5958 123.345 63.5903 123.197 63.5848V65.8529H121.981ZM123.197 62.6234H124.282C124.501 62.6234 124.676 62.5631 124.808 62.4426C124.945 62.3166 125.013 62.0756 125.013 61.7195C125.013 61.3743 124.945 61.147 124.808 61.0374C124.671 60.9224 124.495 60.8649 124.282 60.8649H123.197V62.6234Z" fill="#1E1558"/>
<path d="M130.297 65.8529L128.39 59.7719H129.647L131.069 64.5381L132.491 59.7719H133.74L131.833 65.8529H130.297Z" fill="#1E1558"/>
<path d="M136.045 65.8529V59.7719H137.261V65.8529H136.045Z" fill="#1E1558"/>
<path d="M142.006 65.9022C141.655 65.9022 141.343 65.8611 141.069 65.7789C140.795 65.6967 140.565 65.5461 140.379 65.3269C140.193 65.1078 140.05 64.7955 139.952 64.3901C139.853 63.9793 139.804 63.4479 139.804 62.796C139.804 62.166 139.853 61.651 139.952 61.2511C140.056 60.8512 140.204 60.5389 140.395 60.3143C140.587 60.0897 140.82 59.9335 141.094 59.8459C141.368 59.7582 141.677 59.7144 142.022 59.7144C142.428 59.7144 142.795 59.7473 143.124 59.813C143.458 59.8733 143.723 59.9363 143.921 60.002V60.947C143.773 60.9142 143.548 60.884 143.247 60.8566C142.951 60.8238 142.628 60.8073 142.277 60.8073C142.047 60.8073 141.85 60.8347 141.686 60.8895C141.527 60.9388 141.398 61.0347 141.299 61.1771C141.206 61.3141 141.135 61.514 141.086 61.777C141.042 62.0399 141.02 62.3823 141.02 62.8042C141.02 63.352 141.056 63.7711 141.127 64.0614C141.198 64.3463 141.324 64.5435 141.505 64.6531C141.686 64.7572 141.943 64.8092 142.277 64.8092C142.688 64.8092 143.025 64.801 143.288 64.7846C143.551 64.7681 143.762 64.749 143.921 64.7271V65.6639C143.696 65.7405 143.425 65.8008 143.107 65.8446C142.795 65.883 142.428 65.9022 142.006 65.9022Z" fill="#1E1558"/>
<path d="M146.418 65.8529V59.7719H147.634V65.8529H146.418Z" fill="#1E1558"/>
<path d="M152.683 65.9022C152.267 65.9022 151.902 65.8638 151.59 65.7871C151.278 65.7049 151.018 65.557 150.809 65.3434C150.601 65.1242 150.442 64.812 150.333 64.4066C150.229 64.0012 150.177 63.4725 150.177 62.8206C150.177 62.1687 150.229 61.64 150.333 61.2346C150.442 60.8238 150.601 60.5088 150.809 60.2896C151.023 60.0705 151.283 59.9198 151.59 59.8377C151.902 59.7555 152.267 59.7144 152.683 59.7144C153.099 59.7144 153.464 59.7555 153.776 59.8377C154.088 59.9198 154.348 60.0705 154.557 60.2896C154.765 60.5088 154.921 60.8238 155.025 61.2346C155.129 61.64 155.181 62.1687 155.181 62.8206C155.181 63.4725 155.129 64.0012 155.025 64.4066C154.921 64.812 154.765 65.1242 154.557 65.3434C154.348 65.557 154.085 65.7049 153.768 65.7871C153.455 65.8638 153.094 65.9022 152.683 65.9022ZM152.683 64.8092C152.924 64.8092 153.127 64.7846 153.291 64.7353C153.461 64.6805 153.592 64.5819 153.686 64.4394C153.784 64.297 153.855 64.0971 153.899 63.8396C153.943 63.5766 153.965 63.237 153.965 62.8206C153.965 62.3878 153.943 62.0399 153.899 61.777C153.855 61.5086 153.784 61.3059 153.686 61.1689C153.587 61.0265 153.455 60.9306 153.291 60.8813C153.127 60.832 152.924 60.8073 152.683 60.8073C152.442 60.8073 152.239 60.832 152.075 60.8813C151.916 60.9306 151.785 61.0265 151.68 61.1689C151.582 61.3059 151.508 61.5086 151.459 61.777C151.415 62.0399 151.393 62.3878 151.393 62.8206C151.393 63.237 151.412 63.5766 151.45 63.8396C151.494 64.0971 151.565 64.297 151.664 64.4394C151.763 64.5819 151.894 64.6805 152.058 64.7353C152.223 64.7846 152.431 64.8092 152.683 64.8092Z" fill="#1E1558"/>
<path d="M161.525 65.8529V59.7719H162.503L165.051 63.7821V59.7719H166.267V65.8529H165.289L162.75 61.8427V65.8529H161.525Z" fill="#1E1558"/>
<path d="M168.527 65.8529L170.434 59.7719H171.97L173.877 65.8529H172.611L172.225 64.5791H170.154L169.776 65.8529H168.527ZM170.442 63.4862H171.938L171.19 60.8155L170.442 63.4862Z" fill="#1E1558"/>
<path d="M178.148 65.9022C177.798 65.9022 177.486 65.8611 177.212 65.7789C176.938 65.6967 176.708 65.5461 176.521 65.3269C176.335 65.1078 176.193 64.7955 176.094 64.3901C175.995 63.9793 175.946 63.4479 175.946 62.796C175.946 62.166 175.995 61.651 176.094 61.2511C176.198 60.8512 176.346 60.5389 176.538 60.3143C176.73 60.0897 176.962 59.9335 177.236 59.8459C177.51 59.7582 177.82 59.7144 178.165 59.7144C178.57 59.7144 178.937 59.7473 179.266 59.813C179.6 59.8733 179.866 59.9363 180.063 60.002V60.947C179.915 60.9142 179.691 60.884 179.389 60.8566C179.093 60.8238 178.77 60.8073 178.42 60.8073C178.189 60.8073 177.992 60.8347 177.828 60.8895C177.669 60.9388 177.54 61.0347 177.442 61.1771C177.349 61.3141 177.277 61.514 177.228 61.777C177.184 62.0399 177.162 62.3823 177.162 62.8042C177.162 63.352 177.198 63.7711 177.269 64.0614C177.34 64.3463 177.466 64.5435 177.647 64.6531C177.828 64.7572 178.085 64.8092 178.42 64.8092C178.83 64.8092 179.167 64.801 179.43 64.7846C179.693 64.7681 179.904 64.749 180.063 64.7271V65.6639C179.838 65.7405 179.567 65.8008 179.25 65.8446C178.937 65.883 178.57 65.9022 178.148 65.9022Z" fill="#1E1558"/>
<path d="M182.561 65.8529V59.7719H183.777V65.8529H182.561Z" fill="#1E1558"/>
<path d="M188.825 65.9022C188.409 65.9022 188.045 65.8638 187.732 65.7871C187.42 65.7049 187.16 65.557 186.952 65.3434C186.744 65.1242 186.585 64.812 186.475 64.4066C186.371 64.0012 186.319 63.4725 186.319 62.8206C186.319 62.1687 186.371 61.64 186.475 61.2346C186.585 60.8238 186.744 60.5088 186.952 60.2896C187.165 60.0705 187.426 59.9198 187.732 59.8377C188.045 59.7555 188.409 59.7144 188.825 59.7144C189.242 59.7144 189.606 59.7555 189.918 59.8377C190.231 59.9198 190.491 60.0705 190.699 60.2896C190.907 60.5088 191.063 60.8238 191.167 61.2346C191.271 61.64 191.323 62.1687 191.323 62.8206C191.323 63.4725 191.271 64.0012 191.167 64.4066C191.063 64.812 190.907 65.1242 190.699 65.3434C190.491 65.557 190.228 65.7049 189.91 65.7871C189.598 65.8638 189.236 65.9022 188.825 65.9022ZM188.825 64.8092C189.066 64.8092 189.269 64.7846 189.433 64.7353C189.603 64.6805 189.735 64.5819 189.828 64.4394C189.927 64.297 189.998 64.0971 190.042 63.8396C190.085 63.5766 190.107 63.237 190.107 62.8206C190.107 62.3878 190.085 62.0399 190.042 61.777C189.998 61.5086 189.927 61.3059 189.828 61.1689C189.729 61.0265 189.598 60.9306 189.433 60.8813C189.269 60.832 189.066 60.8073 188.825 60.8073C188.584 60.8073 188.382 60.832 188.217 60.8813C188.058 60.9306 187.927 61.0265 187.823 61.1689C187.724 61.3059 187.65 61.5086 187.601 61.777C187.557 62.0399 187.535 62.3878 187.535 62.8206C187.535 63.237 187.554 63.5766 187.593 63.8396C187.637 64.0971 187.708 64.297 187.806 64.4394C187.905 64.5819 188.037 64.6805 188.201 64.7353C188.365 64.7846 188.573 64.8092 188.825 64.8092Z" fill="#1E1558"/>
<path d="M193.906 65.8529V59.7719H194.883L197.431 63.7821V59.7719H198.647V65.8529H197.669L195.13 61.8427V65.8529H193.906Z" fill="#1E1558"/>
<path d="M200.908 65.8529L202.814 59.7719H204.351L206.257 65.8529H204.992L204.606 64.5791H202.535L202.157 65.8529H200.908ZM202.822 63.4862H204.318L203.57 60.8155L202.822 63.4862Z" fill="#1E1558"/>
<path d="M210.001 65.8529C209.524 65.8529 209.165 65.7433 208.924 65.5242C208.683 65.305 208.563 64.9352 208.563 64.4148V59.7719H209.779V64.2176C209.779 64.4203 209.828 64.56 209.927 64.6367C210.031 64.7134 210.163 64.7517 210.321 64.7517H212.244V65.8529H210.001Z" fill="#1E1558"/>
<path d="M218.366 65.8529V59.7719H220.938C221.486 59.7719 221.913 59.9007 222.22 60.1581C222.532 60.4156 222.749 60.7717 222.869 61.2264C222.995 61.6811 223.058 62.2098 223.058 62.8124C223.058 63.8368 222.883 64.6011 222.532 65.1051C222.182 65.6036 221.65 65.8529 220.938 65.8529H218.366ZM219.582 64.7599H220.815C221.193 64.7599 221.459 64.5956 221.612 64.2669C221.765 63.9382 221.842 63.4534 221.842 62.8124C221.842 62.2865 221.804 61.8838 221.727 61.6044C221.65 61.3196 221.535 61.1251 221.382 61.021C221.234 60.9169 221.045 60.8649 220.815 60.8649H219.582V64.7599Z" fill="#1E1558"/>
<path d="M227.074 65.8939C226.942 65.8939 226.792 65.8802 226.622 65.8529C226.452 65.8309 226.288 65.7762 226.129 65.6885C225.976 65.6009 225.847 65.4694 225.743 65.2941C225.644 65.1133 225.595 64.8668 225.595 64.5545V61.1607C225.595 60.7991 225.666 60.517 225.808 60.3143C225.951 60.1116 226.129 59.9719 226.343 59.8952C226.556 59.813 226.77 59.7719 226.984 59.7719C227.597 59.7719 228.109 59.7829 228.52 59.8048C228.931 59.8267 229.295 59.8514 229.613 59.8788V60.8977H227.345C227.175 60.8977 227.044 60.9388 226.951 61.021C226.858 61.1032 226.811 61.2292 226.811 61.399V62.2783L229.219 62.344V63.3054L226.811 63.3712V64.2094C226.811 64.423 226.86 64.5682 226.959 64.6449C227.063 64.7161 227.184 64.7517 227.32 64.7517H229.613V65.7707C229.246 65.809 228.833 65.8392 228.372 65.8611C227.912 65.883 227.479 65.8939 227.074 65.8939Z" fill="#1E1558"/>
<path d="M237.95 65.9022C237.599 65.9022 237.287 65.8611 237.013 65.7789C236.739 65.6967 236.509 65.5461 236.323 65.3269C236.136 65.1078 235.994 64.7955 235.895 64.3901C235.797 63.9793 235.747 63.4479 235.747 62.796C235.747 62.166 235.797 61.651 235.895 61.2511C235.999 60.8512 236.147 60.5389 236.339 60.3143C236.531 60.0897 236.764 59.9335 237.038 59.8459C237.311 59.7582 237.621 59.7144 237.966 59.7144C238.372 59.7144 238.739 59.7473 239.067 59.813C239.401 59.8733 239.667 59.9363 239.864 60.002V60.947C239.716 60.9142 239.492 60.884 239.191 60.8566C238.895 60.8238 238.572 60.8073 238.221 60.8073C237.991 60.8073 237.794 60.8347 237.629 60.8895C237.47 60.9388 237.342 61.0347 237.243 61.1771C237.15 61.3141 237.079 61.514 237.029 61.777C236.986 62.0399 236.964 62.3823 236.964 62.8042C236.964 63.352 236.999 63.7711 237.07 64.0614C237.142 64.3463 237.268 64.5435 237.448 64.6531C237.629 64.7572 237.887 64.8092 238.221 64.8092C238.632 64.8092 238.969 64.801 239.232 64.7846C239.495 64.7681 239.706 64.749 239.864 64.7271V65.6639C239.64 65.7405 239.369 65.8008 239.051 65.8446C238.739 65.883 238.372 65.9022 237.95 65.9022Z" fill="#1E1558"/>
<path d="M244.632 65.9022C244.216 65.9022 243.851 65.8638 243.539 65.7871C243.227 65.7049 242.967 65.557 242.758 65.3434C242.55 65.1242 242.391 64.812 242.282 64.4066C242.178 64.0012 242.126 63.4725 242.126 62.8206C242.126 62.1687 242.178 61.64 242.282 61.2346C242.391 60.8238 242.55 60.5088 242.758 60.2896C242.972 60.0705 243.232 59.9198 243.539 59.8377C243.851 59.7555 244.216 59.7144 244.632 59.7144C245.048 59.7144 245.413 59.7555 245.725 59.8377C246.037 59.9198 246.297 60.0705 246.506 60.2896C246.714 60.5088 246.87 60.8238 246.974 61.2346C247.078 61.64 247.13 62.1687 247.13 62.8206C247.13 63.4725 247.078 64.0012 246.974 64.4066C246.87 64.812 246.714 65.1242 246.506 65.3434C246.297 65.557 246.034 65.7049 245.717 65.7871C245.404 65.8638 245.043 65.9022 244.632 65.9022ZM244.632 64.8092C244.873 64.8092 245.076 64.7846 245.24 64.7353C245.41 64.6805 245.541 64.5819 245.634 64.4394C245.733 64.297 245.804 64.0971 245.848 63.8396C245.892 63.5766 245.914 63.237 245.914 62.8206C245.914 62.3878 245.892 62.0399 245.848 61.777C245.804 61.5086 245.733 61.3059 245.634 61.1689C245.536 61.0265 245.404 60.9306 245.24 60.8813C245.076 60.832 244.873 60.8073 244.632 60.8073C244.391 60.8073 244.188 60.832 244.024 60.8813C243.865 60.9306 243.733 61.0265 243.629 61.1689C243.531 61.3059 243.457 61.5086 243.408 61.777C243.364 62.0399 243.342 62.3878 243.342 62.8206C243.342 63.237 243.361 63.5766 243.399 63.8396C243.443 64.0971 243.514 64.297 243.613 64.4394C243.712 64.5819 243.843 64.6805 244.007 64.7353C244.172 64.7846 244.38 64.8092 244.632 64.8092Z" fill="#1E1558"/>
<path d="M249.712 65.8529V59.7719H250.69L253.237 63.7821V59.7719H254.454V65.8529H253.476L250.937 61.8427V65.8529H249.712Z" fill="#1E1558"/>
<path d="M258.374 65.8529V60.8649H256.706V59.7719H261.267V60.8649H259.59V65.8529H258.374Z" fill="#1E1558"/>
<path d="M263.567 65.8529V59.7719H266.081C266.399 59.7719 266.69 59.8267 266.953 59.9363C267.215 60.0404 267.424 60.2348 267.577 60.5197C267.736 60.7991 267.815 61.199 267.815 61.7195C267.815 62.0975 267.769 62.3988 267.676 62.6234C267.582 62.8425 267.462 63.0123 267.314 63.1329C267.166 63.2534 267.013 63.3465 266.854 63.4123L267.988 65.8529H266.747L265.769 63.6013C265.632 63.6013 265.471 63.6013 265.284 63.6013C265.098 63.5958 264.931 63.5903 264.783 63.5848V65.8529H263.567ZM264.783 62.6234H265.868C266.087 62.6234 266.262 62.5631 266.394 62.4426C266.531 62.3166 266.599 62.0756 266.599 61.7195C266.599 61.3743 266.531 61.147 266.394 61.0374C266.257 60.9224 266.081 60.8649 265.868 60.8649H264.783V62.6234Z" fill="#1E1558"/>
<path d="M269.976 65.8529L271.883 59.7719H273.419L275.326 65.8529H274.06L273.674 64.5791H271.603L271.225 65.8529H269.976ZM271.891 63.4862H273.386L272.639 60.8155L271.891 63.4862Z" fill="#1E1558"/>
<path d="M278.496 65.8529V60.8649H276.828V59.7719H281.388V60.8649H279.712V65.8529H278.496Z" fill="#1E1558"/>
<path d="M282.893 65.8529L284.799 59.7719H286.336L288.243 65.8529H286.977L286.591 64.5791H284.52L284.142 65.8529H282.893ZM284.808 63.4862H286.303L285.555 60.8155L284.808 63.4862Z" fill="#1E1558"/>
<path d="M292.514 65.9022C292.163 65.9022 291.851 65.8611 291.577 65.7789C291.303 65.6967 291.073 65.5461 290.887 65.3269C290.701 65.1078 290.558 64.7955 290.46 64.3901C290.361 63.9793 290.312 63.4479 290.312 62.796C290.312 62.166 290.361 61.651 290.46 61.2511C290.564 60.8512 290.712 60.5389 290.903 60.3143C291.095 60.0897 291.328 59.9335 291.602 59.8459C291.876 59.7582 292.185 59.7144 292.53 59.7144C292.936 59.7144 293.303 59.7473 293.632 59.813C293.966 59.8733 294.231 59.9363 294.429 60.002V60.947C294.281 60.9142 294.056 60.884 293.755 60.8566C293.459 60.8238 293.136 60.8073 292.785 60.8073C292.555 60.8073 292.358 60.8347 292.194 60.8895C292.035 60.9388 291.906 61.0347 291.807 61.1771C291.714 61.3141 291.643 61.514 291.594 61.777C291.55 62.0399 291.528 62.3823 291.528 62.8042C291.528 63.352 291.564 63.7711 291.635 64.0614C291.706 64.3463 291.832 64.5435 292.013 64.6531C292.194 64.7572 292.451 64.8092 292.785 64.8092C293.196 64.8092 293.533 64.801 293.796 64.7846C294.059 64.7681 294.27 64.749 294.429 64.7271V65.6639C294.204 65.7405 293.933 65.8008 293.615 65.8446C293.303 65.883 292.936 65.9022 292.514 65.9022Z" fill="#1E1558"/>
<path d="M296.926 65.8529V59.7719H298.142V65.8529H296.926Z" fill="#1E1558"/>
<path d="M303.191 65.9022C302.775 65.9022 302.41 65.8638 302.098 65.7871C301.786 65.7049 301.526 65.557 301.317 65.3434C301.109 65.1242 300.95 64.812 300.841 64.4066C300.737 64.0012 300.685 63.4725 300.685 62.8206C300.685 62.1687 300.737 61.64 300.841 61.2346C300.95 60.8238 301.109 60.5088 301.317 60.2896C301.531 60.0705 301.791 59.9198 302.098 59.8377C302.41 59.7555 302.775 59.7144 303.191 59.7144C303.607 59.7144 303.972 59.7555 304.284 59.8377C304.596 59.9198 304.856 60.0705 305.065 60.2896C305.273 60.5088 305.429 60.8238 305.533 61.2346C305.637 61.64 305.689 62.1687 305.689 62.8206C305.689 63.4725 305.637 64.0012 305.533 64.4066C305.429 64.812 305.273 65.1242 305.065 65.3434C304.856 65.557 304.593 65.7049 304.276 65.7871C303.963 65.8638 303.602 65.9022 303.191 65.9022ZM303.191 64.8092C303.432 64.8092 303.635 64.7846 303.799 64.7353C303.969 64.6805 304.1 64.5819 304.194 64.4394C304.292 64.297 304.363 64.0971 304.407 63.8396C304.451 63.5766 304.473 63.237 304.473 62.8206C304.473 62.3878 304.451 62.0399 304.407 61.777C304.363 61.5086 304.292 61.3059 304.194 61.1689C304.095 61.0265 303.963 60.9306 303.799 60.8813C303.635 60.832 303.432 60.8073 303.191 60.8073C302.95 60.8073 302.747 60.832 302.583 60.8813C302.424 60.9306 302.293 61.0265 302.188 61.1689C302.09 61.3059 302.016 61.5086 301.967 61.777C301.923 62.0399 301.901 62.3878 301.901 62.8206C301.901 63.237 301.92 63.5766 301.958 63.8396C302.002 64.0971 302.073 64.297 302.172 64.4394C302.271 64.5819 302.402 64.6805 302.566 64.7353C302.731 64.7846 302.939 64.8092 303.191 64.8092ZM302.879 59.3528L303.561 58.2024H304.539L303.594 59.3528H302.879Z" fill="#1E1558"/>
<path d="M308.271 65.8529V59.7719H309.249L311.796 63.7821V59.7719H313.013V65.8529H312.035L309.496 61.8427V65.8529H308.271Z" fill="#1E1558"/>
<path d="M319.422 65.8529V59.7719H321.985C322.183 59.7719 322.383 59.7966 322.585 59.8459C322.793 59.8897 322.982 59.9828 323.152 60.1253C323.328 60.2622 323.467 60.4704 323.571 60.7498C323.681 61.0292 323.736 61.399 323.736 61.8592C323.736 62.3248 323.681 62.7001 323.571 62.985C323.467 63.2644 323.33 63.478 323.161 63.6259C322.991 63.7738 322.807 63.8724 322.61 63.9217C322.413 63.9711 322.221 63.9957 322.035 63.9957C321.903 63.9957 321.744 63.9875 321.558 63.9711C321.377 63.9546 321.202 63.9354 321.032 63.9135C320.862 63.8916 320.731 63.8752 320.638 63.8642V65.8529H319.422ZM320.638 62.9028H321.846C322.059 62.9028 322.224 62.8233 322.339 62.6645C322.454 62.5056 322.511 62.2399 322.511 61.8674C322.511 61.5003 322.451 61.2429 322.331 61.0949C322.216 60.9415 322.062 60.8649 321.87 60.8649H320.638V62.9028Z" fill="#1E1558"/>
<path d="M328.462 65.8939C328.122 65.8939 327.807 65.8665 327.517 65.8118C327.232 65.7515 326.98 65.6502 326.761 65.5077C326.547 65.3598 326.38 65.1571 326.259 64.8996C326.144 64.6367 326.087 64.3025 326.087 63.8971V59.7719H327.303V63.8889C327.303 64.2231 327.404 64.4586 327.607 64.5956C327.81 64.7325 328.095 64.801 328.462 64.801C328.823 64.801 329.105 64.7325 329.308 64.5956C329.511 64.4586 329.612 64.2231 329.612 63.8889V59.7719H330.836V63.8971C330.836 64.3025 330.776 64.6367 330.656 64.8996C330.535 65.1571 330.368 65.3598 330.154 65.5077C329.941 65.6502 329.689 65.7515 329.398 65.8118C329.108 65.8665 328.796 65.8939 328.462 65.8939ZM328.075 59.3528L328.757 58.2024H329.735L328.79 59.3528H328.075Z" fill="#1E1558"/>
<path d="M333.446 65.8529V59.7719H335.837C336.44 59.7719 336.878 59.9116 337.152 60.191C337.431 60.4649 337.571 60.8566 337.571 61.3661C337.571 61.7332 337.494 62.029 337.341 62.2536C337.193 62.4782 336.988 62.6261 336.725 62.6973C336.9 62.7357 337.067 62.8151 337.226 62.9357C337.385 63.0507 337.513 63.2123 337.612 63.4205C337.716 63.6232 337.768 63.8752 337.768 64.1765C337.768 64.7955 337.609 65.2311 337.292 65.4831C336.979 65.7296 336.53 65.8529 335.944 65.8529H333.446ZM334.662 62.2783H335.845C336.021 62.2783 336.158 62.2153 336.256 62.0893C336.36 61.9578 336.412 61.7879 336.412 61.5798C336.418 61.3113 336.363 61.1251 336.248 61.021C336.133 60.9169 335.993 60.8649 335.829 60.8649H334.662V62.2783ZM334.662 64.7599H335.911C336.125 64.7599 336.295 64.6997 336.421 64.5791C336.547 64.4586 336.61 64.2532 336.61 63.9628C336.61 63.7273 336.544 63.5437 336.412 63.4123C336.281 63.2808 336.114 63.215 335.911 63.215H334.662V64.7599Z" fill="#1E1558"/>
<path d="M341.679 65.8529C341.203 65.8529 340.844 65.7433 340.603 65.5242C340.362 65.305 340.241 64.9352 340.241 64.4148V59.7719H341.457V64.2176C341.457 64.4203 341.507 64.56 341.605 64.6367C341.71 64.7134 341.841 64.7517 342 64.7517H343.923V65.8529H341.679Z" fill="#1E1558"/>
<path d="M346.282 65.8529V59.7719H347.499V65.8529H346.282Z" fill="#1E1558"/>
<path d="M352.243 65.9022C351.893 65.9022 351.58 65.8611 351.306 65.7789C351.032 65.6967 350.802 65.5461 350.616 65.3269C350.43 65.1078 350.287 64.7955 350.189 64.3901C350.09 63.9793 350.041 63.4479 350.041 62.796C350.041 62.166 350.09 61.651 350.189 61.2511C350.293 60.8512 350.441 60.5389 350.632 60.3143C350.824 60.0897 351.057 59.9335 351.331 59.8459C351.605 59.7582 351.914 59.7144 352.26 59.7144C352.665 59.7144 353.032 59.7473 353.361 59.813C353.695 59.8733 353.961 59.9363 354.158 60.002V60.947C354.01 60.9142 353.785 60.884 353.484 60.8566C353.188 60.8238 352.865 60.8073 352.514 60.8073C352.284 60.8073 352.087 60.8347 351.923 60.8895C351.764 60.9388 351.635 61.0347 351.536 61.1771C351.443 61.3141 351.372 61.514 351.323 61.777C351.279 62.0399 351.257 62.3823 351.257 62.8042C351.257 63.352 351.293 63.7711 351.364 64.0614C351.435 64.3463 351.561 64.5435 351.742 64.6531C351.923 64.7572 352.18 64.8092 352.514 64.8092C352.925 64.8092 353.262 64.801 353.525 64.7846C353.788 64.7681 353.999 64.749 354.158 64.7271V65.6639C353.933 65.7405 353.662 65.8008 353.344 65.8446C353.032 65.883 352.665 65.9022 352.243 65.9022Z" fill="#1E1558"/>
<path d="M356.269 65.8529L358.176 59.7719H359.712L361.619 65.8529H360.353L359.967 64.5791H357.896L357.518 65.8529H356.269ZM358.184 63.4862H359.679L358.932 60.8155L358.184 63.4862Z" fill="#1E1558"/>
<path d="M31.7295 2.70899C31.7295 1.88056 32.401 1.20898 33.2295 1.20898H43.9252C44.7537 1.20898 45.4252 1.88056 45.4252 2.70898V13.4048C45.4252 14.2332 44.7537 14.9048 43.9252 14.9048H33.2295C32.401 14.9048 31.7295 14.2332 31.7295 13.4048V2.70899Z" fill="#B4B4B4"/>
<path d="M47.0687 2.70899C47.0687 1.88056 47.7403 1.20898 48.5687 1.20898H59.2645C60.0929 1.20898 60.7645 1.88056 60.7645 2.70898V13.4048C60.7645 14.2332 60.0929 14.9048 59.2645 14.9048H48.5687C47.7403 14.9048 47.0687 14.2332 47.0687 13.4048V2.70899Z" fill="#B4B4B4"/>
<path d="M62.408 2.70899C62.408 1.88056 63.0796 1.20898 63.908 1.20898H74.6038C75.4322 1.20898 76.1038 1.88056 76.1038 2.70898V13.4048C76.1038 14.2332 75.4322 14.9048 74.6038 14.9048H63.908C63.0796 14.9048 62.408 14.2332 62.408 13.4048V2.70899Z" fill="#B4B4B4"/>
<path d="M77.7473 2.70899C77.7473 1.88056 78.4188 1.20898 79.2473 1.20898H89.943C90.7715 1.20898 91.443 1.88056 91.443 2.70898V13.4048C91.443 14.2332 90.7715 14.9048 89.943 14.9048H79.2473C78.4188 14.9048 77.7473 14.2332 77.7473 13.4048V2.70899Z" fill="#FFCA17"/>
<path d="M77.7473 18.3223C77.7473 17.4938 78.4188 16.8223 79.2473 16.8223H89.943C90.7715 16.8223 91.443 17.4938 91.443 18.3223V29.018C91.443 29.8465 90.7715 30.518 89.943 30.518H79.2473C78.4188 30.518 77.7473 29.8465 77.7473 29.018V18.3223Z" fill="#B4B4B4"/>
<path d="M77.7473 33.9353C77.7473 33.1069 78.4188 32.4353 79.2473 32.4353H89.943C90.7715 32.4353 91.443 33.1069 91.443 33.9353V44.6311C91.443 45.4595 90.7715 46.1311 89.943 46.1311H79.2473C78.4188 46.1311 77.7473 45.4595 77.7473 44.6311V33.9353Z" fill="#B4B4B4"/>
<path d="M77.7473 49.5486C77.7473 48.7202 78.4188 48.0486 79.2473 48.0486H89.943C90.7715 48.0486 91.443 48.7202 91.443 49.5486V60.2444C91.443 61.0728 90.7715 61.7444 89.943 61.7444H79.2473C78.4188 61.7444 77.7473 61.0728 77.7473 60.2444V49.5486Z" fill="#B4B4B4"/>
<path d="M78.2952 18.0483C78.2952 17.2199 78.9667 16.5483 79.7952 16.5483H90.4909C91.3194 16.5483 91.9909 17.2199 91.9909 18.0483V28.7441C91.9909 29.5725 91.3194 30.2441 90.4909 30.2441H79.7952C78.9667 30.2441 78.2952 29.5725 78.2952 28.7441V18.0483Z" fill="#B4B4B4"/>
<path d="M62.408 18.3223C62.408 17.4938 63.0796 16.8223 63.908 16.8223H74.6038C75.4322 16.8223 76.1038 17.4938 76.1038 18.3223V29.018C76.1038 29.8465 75.4322 30.518 74.6038 30.518H63.908C63.0796 30.518 62.408 29.8465 62.408 29.018V18.3223Z" fill="#1E135F"/>
<path d="M62.408 33.9353C62.408 33.1069 63.0796 32.4353 63.908 32.4353H74.6038C75.4322 32.4353 76.1038 33.1069 76.1038 33.9353V44.6311C76.1038 45.4595 75.4322 46.1311 74.6038 46.1311H63.908C63.0796 46.1311 62.408 45.4595 62.408 44.6311V33.9353Z" fill="#B4B4B4"/>
<path d="M47.0687 33.9353C47.0687 33.1069 47.7403 32.4353 48.5687 32.4353H59.2645C60.0929 32.4353 60.7645 33.1069 60.7645 33.9353V44.6311C60.7645 45.4595 60.0929 46.1311 59.2645 46.1311H48.5687C47.7403 46.1311 47.0687 45.4595 47.0687 44.6311V33.9353Z" fill="#CC232B"/>
<path d="M47.0687 49.5486C47.0687 48.7202 47.7403 48.0486 48.5687 48.0486H59.2645C60.0929 48.0486 60.7645 48.7202 60.7645 49.5486V60.2444C60.7645 61.0728 60.0929 61.7444 59.2645 61.7444H48.5687C47.7403 61.7444 47.0687 61.0728 47.0687 60.2444V49.5486Z" fill="#B4B4B4"/>
<path d="M31.7295 49.5486C31.7295 48.7202 32.401 48.0486 33.2295 48.0486H43.9252C44.7537 48.0486 45.4252 48.7202 45.4252 49.5486V60.2444C45.4252 61.0728 44.7537 61.7444 43.9252 61.7444H33.2295C32.401 61.7444 31.7295 61.0728 31.7295 60.2444V49.5486Z" fill="#B4B4B4"/>
<path d="M16.3902 49.5486C16.3902 48.7202 17.0618 48.0486 17.8902 48.0486H28.586C29.4144 48.0486 30.086 48.7202 30.086 49.5486V60.2444C30.086 61.0728 29.4144 61.7444 28.586 61.7444H17.8902C17.0618 61.7444 16.3902 61.0728 16.3902 60.2444V49.5486Z" fill="#B4B4B4"/>
<path d="M16.3902 64.6138C16.3902 63.7853 17.0618 63.1138 17.8902 63.1138H28.586C29.4144 63.1138 30.086 63.7853 30.086 64.6138V75.3095C30.086 76.138 29.4144 76.8095 28.586 76.8095H17.8902C17.0618 76.8095 16.3902 76.138 16.3902 75.3095V64.6138Z" fill="#B4B4B4"/>
<path d="M31.7295 64.6138C31.7295 63.7853 32.401 63.1138 33.2295 63.1138H43.9252C44.7537 63.1138 45.4252 63.7853 45.4252 64.6138V75.3095C45.4252 76.138 44.7537 76.8095 43.9252 76.8095H33.2295C32.401 76.8095 31.7295 76.138 31.7295 75.3095V64.6138Z" fill="#B4B4B4"/>
<path d="M0.503113 64.6138C0.503113 63.7853 1.17469 63.1138 2.00311 63.1138H12.6989C13.5273 63.1138 14.1989 63.7853 14.1989 64.6138V75.3095C14.1989 76.138 13.5273 76.8095 12.6989 76.8095H2.00311C1.17469 76.8095 0.503113 76.138 0.503113 75.3095V64.6138Z" fill="#B4B4B4"/>
<path d="M16.3902 79.6792C16.3902 78.8508 17.0618 78.1792 17.8902 78.1792H28.586C29.4144 78.1792 30.086 78.8508 30.086 79.6792V90.375C30.086 91.2034 29.4144 91.875 28.586 91.875H17.8902C17.0618 91.875 16.3902 91.2034 16.3902 90.375V79.6792Z" fill="#B4B4B4"/>
<path d="M31.7295 33.9353C31.7295 33.1069 32.401 32.4353 33.2295 32.4353H43.9252C44.7537 32.4353 45.4252 33.1069 45.4252 33.9353V44.6311C45.4252 45.4595 44.7537 46.1311 43.9252 46.1311H33.2295C32.401 46.1311 31.7295 45.4595 31.7295 44.6311V33.9353Z" fill="#B4B4B4"/>
<path d="M46.5209 18.5959C46.5209 17.7675 47.1925 17.0959 48.0209 17.0959H58.7167C59.5451 17.0959 60.2167 17.7675 60.2167 18.5959V29.2917C60.2167 30.1201 59.5451 30.7917 58.7167 30.7917H48.0209C47.1925 30.7917 46.5209 30.1202 46.5209 29.2917V18.5959Z" fill="#B4B4B4"/>
</svg>
