<svg width="275" height="60" viewBox="0 0 275 60" fill="none" xmlns="http://www.w3.org/2000/svg">
<path d="M257.412 59.8352C253.887 59.863 250.639 59.6965 247.392 58.9748C241.868 57.7535 239.759 54.4782 240.009 48.0386C240.036 47.2891 240.453 47.1226 241.091 47.1226C242.423 47.1503 243.784 47.1503 245.116 47.1226C245.893 47.0948 246.226 47.4279 246.198 48.1773C246.198 48.3716 246.198 48.5382 246.198 48.7325C246.337 53.0903 247.392 54.4226 251.667 54.9223C255.663 55.3941 259.716 55.3941 263.685 54.5614C266.294 54.0063 267.349 52.8127 267.793 50.1758C267.96 49.2599 267.988 48.3439 267.877 47.4001C267.516 44.2359 266.045 42.737 262.908 42.4872C259.466 42.2096 255.969 42.4317 252.527 42.0431C250.556 41.821 248.585 41.5434 246.642 41.0438C243.284 40.1556 241.341 37.9906 240.73 34.632C240.286 32.1894 240.314 29.7468 240.841 27.3319C241.48 24.4174 243.228 22.5022 246.171 21.7528C251.111 20.4759 256.163 20.5037 261.187 20.8368C263.602 20.9756 265.961 21.3642 268.21 22.3634C271.54 23.8345 273.178 26.6102 272.984 30.2186C272.956 30.9125 272.762 31.2734 272.012 31.2179C271.54 31.1901 271.096 31.2179 270.624 31.2179C269.57 31.1901 268.348 31.4954 267.488 31.0791C266.516 30.635 267.044 29.2471 266.738 28.3034C266.322 26.9988 265.573 26.1106 264.185 25.8885C259.355 25.1391 254.525 25.0836 249.696 25.8885C248.141 26.1384 247.281 27.1098 246.92 28.6087C246.587 29.9411 246.531 31.2734 246.754 32.6057C247.198 35.5479 249.085 37.1301 252.36 37.2966C256.052 37.5187 259.744 37.6575 263.435 37.8518C264.407 37.9073 265.378 38.0183 266.322 38.2126C270.902 39.1563 273.594 42.0986 274.039 46.7895C274.177 48.1218 274.177 49.4819 274.011 50.8142C273.483 55.5607 271.374 57.8923 266.683 59.0025C265.823 59.1968 264.962 59.3634 264.102 59.5022C261.826 59.8075 259.494 59.8907 257.412 59.8352Z" fill="url(#paint0_linear)"/>
<path d="M144.941 26.3604C147.939 21.6695 152.38 20.9201 156.988 20.6703C159.403 20.5592 161.79 20.6425 164.177 21.0866C169.95 22.1414 172.198 24.6117 172.809 30.4407C173.003 32.1894 173.059 33.9381 173.059 35.7145C173.059 43.0701 173.031 50.4256 173.087 57.7812C173.087 59.0025 172.726 59.4466 171.505 59.3356C170.589 59.2523 169.645 59.2246 168.729 59.3356C167.397 59.4744 167.119 58.8915 167.119 57.6702C167.174 49.8983 167.147 42.1263 167.147 34.3544C167.147 32.8278 167.063 31.3011 166.703 29.8023C166.203 27.776 165.009 26.4159 162.983 25.9441C159.236 25.0558 155.461 24.9726 151.769 26.1939C147.55 27.5817 145.33 30.8848 145.302 35.8255C145.247 42.5427 145.302 49.2321 145.302 55.9493C145.302 59.3356 145.302 59.3634 141.86 59.3356C139.14 59.3079 139.39 59.6687 139.39 56.9208C139.39 45.6792 139.39 34.4377 139.39 23.1961C139.39 21.2531 139.39 21.2531 141.25 21.2531C145.108 21.2531 145.108 21.2531 144.941 25.0836C144.913 25.3334 144.941 25.611 144.941 26.3604Z" fill="url(#paint1_linear)"/>
<path d="M178.61 39.2673C178.61 35.2981 178.555 31.3011 178.638 27.3319C178.666 26.1383 178.249 25.7775 177.139 25.8608C176.14 25.944 175.085 25.9995 174.086 25.8608C172.087 25.5554 173.337 23.9733 173.114 22.974C172.976 22.3079 172.643 21.1698 174.086 21.2254C175.196 21.2531 176.306 21.1976 177.417 21.2531C178.333 21.3086 178.638 20.9478 178.61 20.0596C178.555 17.7835 178.638 15.5352 178.583 13.2591C178.555 12.3709 178.832 12.0101 179.776 12.0656C180.97 12.1211 182.191 12.1211 183.385 12.0656C184.217 12.0378 184.523 12.3154 184.495 13.1759C184.439 15.3409 184.55 17.5337 184.467 19.6987C184.411 20.8923 184.745 21.3086 185.994 21.2809C190.157 21.1976 194.321 21.2809 198.484 21.2254C199.65 21.1976 199.983 21.5584 199.983 22.7242C199.955 25.9163 200.011 25.9163 196.874 25.9163C193.183 25.9163 189.463 25.944 185.772 25.8885C184.828 25.8885 184.467 26.1383 184.495 27.1376C184.523 34.5764 184.467 42.0153 184.55 49.4819C184.606 54.3671 189.186 56.893 193.516 54.5336C195.098 53.6732 195.681 52.2021 195.82 50.5089C195.903 49.3709 195.931 48.2051 195.903 47.0393C195.875 46.1233 196.264 45.818 197.152 45.8457C198.262 45.9012 199.372 45.8735 200.483 45.8735C201.066 45.8735 201.482 46.0123 201.482 46.7062C201.51 48.8712 201.565 51.0363 200.955 53.1736C199.955 56.6154 197.679 58.6972 194.237 59.4744C191.129 60.1683 187.992 60.085 184.911 59.2246C180.97 58.1143 178.832 55.3108 178.694 51.2028C178.694 51.064 178.694 50.9252 178.694 50.7865C178.61 46.9283 178.61 43.0978 178.61 39.2673Z" fill="url(#paint2_linear)"/>
<path fill-rule="evenodd" clip-rule="evenodd" d="M231.55 39.416C231.548 39.5784 231.545 39.7417 231.543 39.9058C229.655 37.713 227.435 36.9358 225.048 36.6027C220.412 35.9088 215.749 35.9088 211.114 36.8248C206.395 37.7685 204.091 40.1556 203.342 44.68C203.12 45.9568 203.009 47.2336 203.036 48.5382C203.12 53.9508 205.812 57.5314 211.03 59.0025C214.833 60.0573 218.719 60.0295 222.605 59.6132C225.159 59.3356 227.601 58.6972 229.766 57.2261C230.244 56.9016 230.694 56.5114 231.2 56.0737C231.43 55.8749 231.671 55.6663 231.931 55.4496L231.923 55.5317C231.816 56.6293 231.734 57.4689 231.626 58.3086C231.543 59.0025 231.82 59.3356 232.542 59.3079C232.701 59.3039 232.859 59.2994 233.018 59.2948C233.969 59.2676 234.921 59.2404 235.873 59.3356C237.177 59.4466 237.483 58.9193 237.483 57.6702C237.441 51.966 237.446 46.2774 237.452 40.5927C237.453 38.698 237.455 36.8038 237.455 34.9095C237.455 33.3552 237.399 31.773 237.177 30.2186C236.511 25.2501 234.346 22.6132 229.683 21.5862C223.66 20.2539 217.581 20.2817 211.502 21.4752C207.866 22.1969 205.729 24.3897 205.146 28.0536C205.052 28.6933 204.983 29.3458 204.914 30.0024C204.882 30.3144 204.849 30.6274 204.813 30.9403C204.73 31.6897 205.063 31.9396 205.757 31.9396C206.625 31.9211 207.482 31.9272 208.342 31.9334C208.774 31.9365 209.207 31.9396 209.643 31.9396C210.225 31.9396 210.614 31.8285 210.614 31.1068C210.559 28.0258 212.446 26.4714 215.138 25.7775C218.997 24.7783 222.91 24.806 226.824 25.5832C229.239 26.0828 230.571 27.6095 231.043 29.9688C231.653 32.9627 231.604 36.0071 231.55 39.416ZM221.443 40.5289C221.016 40.5075 220.589 40.486 220.162 40.4609C219.756 40.4795 219.348 40.4943 218.939 40.5091C216.918 40.5822 214.871 40.6562 212.862 41.2103C211.141 41.6544 210.087 42.7369 209.643 44.4579C209.198 46.2343 209.226 48.0107 209.42 49.8149C209.754 52.8404 211.058 54.256 214.084 54.8112C217.054 55.3663 220.051 55.283 223.049 55.0332C225.159 54.8667 227.24 54.3948 229.072 53.2013C231.82 51.3971 232.098 48.7602 231.626 45.8457C231.21 43.2643 229.739 41.7654 227.185 41.1548C225.298 40.7228 223.374 40.6261 221.443 40.5289Z" fill="url(#paint3_linear)"/>
<path fill-rule="evenodd" clip-rule="evenodd" d="M118.537 41.297C119.613 41.2953 120.689 41.2936 121.764 41.2936H134.949C135.865 41.2936 136.281 41.0438 136.253 40.0445C136.244 39.5551 136.236 39.0657 136.229 38.5765C136.195 36.2909 136.162 34.0086 135.865 31.7452C134.976 25.0558 132.673 22.4189 126.511 21.2808C121.958 20.4481 117.323 20.3371 112.715 21.0033C105.776 22.0025 102.917 24.7505 101.807 31.5509C100.808 37.6574 100.863 43.7917 102.029 49.8982C103.139 55.7272 105.637 58.142 111.494 59.2245C115.796 60.0295 120.154 59.9462 124.484 59.6131C126.511 59.4466 128.509 59.0858 130.452 58.4196C133.922 57.226 135.754 54.7002 136.142 51.1195C136.503 47.7609 136.475 47.7609 133.172 47.7609H132.895C130.397 47.7609 130.397 47.7609 130.119 50.2313C129.897 52.2853 129.148 53.9785 126.955 54.4226C122.153 55.4218 117.323 55.5329 112.521 54.4503C110.301 53.9507 108.913 52.5629 108.33 50.3146C107.776 48.1696 107.64 45.9618 107.505 43.7639C107.484 43.4305 107.464 43.0974 107.442 42.7647C107.358 41.5989 107.691 41.2381 108.857 41.2658C112.084 41.3075 115.311 41.3022 118.537 41.297ZM116.407 36.9601C117.24 36.9619 118.072 36.9636 118.905 36.9636H129.036C129.081 36.9636 129.126 36.964 129.171 36.9645C129.737 36.9701 130.281 36.9756 130.23 36.0754C130.213 35.6967 130.201 35.3169 130.189 34.9366C130.14 33.4216 130.091 31.8995 129.758 30.413C129.286 28.3589 128.259 26.6935 126.067 26.1662C121.403 25.0281 116.74 24.9726 112.077 26.1662C110.106 26.6658 108.913 27.9704 108.358 29.9133C107.802 31.8008 107.636 33.716 107.553 35.659C107.497 36.7415 107.913 36.9913 108.913 36.9913C111.411 36.9497 113.909 36.9549 116.407 36.9601Z" fill="url(#paint4_linear)"/>
<path d="M20.5 23V57.5C20.5 58.6046 21.3954 59.5 22.5 59.5H38.0258C39.1202 59.5 40.0114 58.6203 40.0256 57.526L40.4744 22.974C40.4886 21.8797 41.3798 21 42.4742 21H55C56.1046 21 57 20.1046 57 19V2.5C57 1.39543 56.1046 0.5 55 0.5H2C0.895431 0.5 0 1.39543 0 2.5V19C0 20.1046 0.895431 21 2 21H18.5C19.6046 21 20.5 21.8954 20.5 23Z" fill="url(#paint5_linear)"/>
<path d="M57.6095 0.5H36.5C41.6968 2.86216 52.6965 36.9176 59.7985 56.2714C60.5146 58.2229 62.3753 59.5 64.4541 59.5H77.1264C80.6607 59.5 83.0793 55.9332 81.7715 52.6498L62.2546 3.64984C61.4971 1.74796 59.6567 0.5 57.6095 0.5Z" fill="url(#paint6_linear)"/>
<path d="M92.9011 0H110.069C110.764 0 111.256 0.666895 111.017 1.31932C108.555 8.04312 97.2618 38.8574 90.7145 56.2786C89.9831 58.2245 88.1247 59.5 86.0459 59.5H66L88.2506 3.16328C89.0046 1.25431 90.8486 0 92.9011 0Z" fill="url(#paint7_linear)"/>
<defs>
<linearGradient id="paint0_linear" x1="257.064" y1="20.6421" x2="257.064" y2="59.8513" gradientUnits="userSpaceOnUse">
<stop stop-color="#00498E"/>
<stop offset="1" stop-color="#013062"/>
</linearGradient>
<linearGradient id="paint1_linear" x1="156.235" y1="20.626" x2="156.235" y2="59.3557" gradientUnits="userSpaceOnUse">
<stop stop-color="#00498E"/>
<stop offset="1" stop-color="#013062"/>
</linearGradient>
<linearGradient id="paint2_linear" x1="187.214" y1="12.0601" x2="187.214" y2="59.939" gradientUnits="userSpaceOnUse">
<stop stop-color="#00498E"/>
<stop offset="1" stop-color="#013062"/>
</linearGradient>
<linearGradient id="paint3_linear" x1="220.257" y1="20.5833" x2="220.257" y2="59.8819" gradientUnits="userSpaceOnUse">
<stop stop-color="#00498E"/>
<stop offset="1" stop-color="#013062"/>
</linearGradient>
<linearGradient id="paint4_linear" x1="118.699" y1="20.5706" x2="118.699" y2="59.8535" gradientUnits="userSpaceOnUse">
<stop stop-color="#00498E"/>
<stop offset="1" stop-color="#013062"/>
</linearGradient>
<linearGradient id="paint5_linear" x1="28.5" y1="0.5" x2="28.5" y2="59.5" gradientUnits="userSpaceOnUse">
<stop stop-color="#ED201E"/>
<stop offset="1" stop-color="#F8C128"/>
</linearGradient>
<linearGradient id="paint6_linear" x1="60.5" y1="0.5" x2="60.5" y2="59.5" gradientUnits="userSpaceOnUse">
<stop stop-color="#195294"/>
<stop offset="1" stop-color="#000936"/>
</linearGradient>
<linearGradient id="paint7_linear" x1="88.75" y1="0" x2="88.75" y2="59.5" gradientUnits="userSpaceOnUse">
<stop stop-color="#ED1E1E"/>
<stop offset="1" stop-color="#F8C228"/>
</linearGradient>
</defs>
</svg>
